<svg preserveAspectRatio="xMidYMid slice" id="floor--svg" viewBox="0 0 1920 1081" version="1.0"
     xmlns="http://www.w3.org/2000/svg">
    <polygon data-id="104" data-sec="1.03" data-build="1" data-floor="2"
             class="s3d-svg__house js-s3d-svg__house"
             points="319.66666666667,852.33333333333,319.66666666667,852.33333333333,476.33333333333,849.66666666667,476.33333333333,849.66666666667,477.33333333333,849,477.33333333333,849,470,816,470,816,310.33333333333,818.33333333333,310.33333333333,818.33333333333"></polygon>
    <polygon data-id="12912" data-sec="2.03" data-build="2" data-floor="2"
             class="s3d-svg__house js-s3d-svg__house"
             points="320,852.66666666667,320,852.66666666667,477,849,477,849,469.66666666667,815.66666666667,469.66666666667,815.66666666667,311,817.66666666667,311,817.66666666667"></polygon>
    <polygon data-id="12911" data-sec="2.03" data-build="2" data-floor="2"
             class="s3d-svg__house js-s3d-svg__house"
             points="469.66666666667,815.33333333333,469.66666666667,815.33333333333,476.66666666667,849.66666666667,476.66666666667,849.66666666667,593,846.33333333333,593,846.33333333333,587.66666666667,813.66666666667,587.66666666667,813.66666666667,587.66666666667,812,587.66666666667,812"></polygon>
    <polygon data-id="12910" data-sec="2.03" data-build="2" data-floor="2"
             class="s3d-svg__house js-s3d-svg__house"
             points="587.66666666667,812,587.66666666667,812,593,846.33333333333,593,846.33333333333,699.66666666667,844,699.66666666667,844,696.33333333333,809.66666666667,696.33333333333,809.66666666667"></polygon>
    <polygon data-id="12909" data-sec="2.03" data-build="2" data-floor="2"
             class="s3d-svg__house js-s3d-svg__house"
             points="695.66666666667,809,695.66666666667,809,700,844,700,844,750.66666666667,843.66666666667,750.66666666667,843.66666666667,748,807.66666666667,748,807.66666666667"></polygon>
    <polygon data-id="12919" data-sec="2.03" data-build="2" data-floor="3"
             class="s3d-svg__house js-s3d-svg__house"
             points="310,818,310,818,469.66666666667,816.33333333333,469.66666666667,816.33333333333,462.66666666667,777,462.66666666667,777,299.33333333333,781,299.33333333333,781"></polygon>
    <polygon data-id="12917" data-sec="2.03" data-build="2" data-floor="3"
             class="s3d-svg__house js-s3d-svg__house"
             points="580.33333333333,774.33333333333,580.33333333333,774.33333333333,586.66666666667,812,586.66666666667,812,695.66666666667,809,695.66666666667,809,692.66666666667,773.66666666667,692.66666666667,773.66666666667"></polygon>
    <polygon data-id="12918" data-sec="2.03" data-build="2" data-floor="3"
             class="s3d-svg__house js-s3d-svg__house"
             points="462.66666666667,776.66666666667,462.66666666667,776.66666666667,469.33333333333,815.33333333333,469.33333333333,815.33333333333,587.33333333333,812,587.33333333333,812,580,773.66666666667,580,773.66666666667"></polygon>
    <polygon data-id="12916" data-sec="2.03" data-build="2" data-floor="3"
             class="s3d-svg__house js-s3d-svg__house"
             points="692.33333333333,774,692.33333333333,774,695.33333333333,809.66666666667,695.33333333333,809.66666666667,747.66666666667,807.66666666667,747.66666666667,807.66666666667,745,773,745,773"></polygon>
    <polygon data-id="12926" data-sec="2.03" data-build="2" data-floor="4"
             class="s3d-svg__house js-s3d-svg__house"
             points="299,781,299,781,462.66666666667,776.66666666667,462.66666666667,776.66666666667,454.33333333333,737.33333333333,454.33333333333,737.33333333333,288.33333333333,738.33333333333,288.33333333333,738.33333333333"></polygon>
    <polygon data-id="12925" data-sec="2.03" data-build="2" data-floor="4"
             class="s3d-svg__house js-s3d-svg__house"
             points="454,737.66666666667,454,737.66666666667,462.33333333333,777.66666666667,462.33333333333,777.66666666667,581.66666666667,774.66666666667,581.66666666667,774.66666666667,576,735,576,735"></polygon>
    <polygon data-id="12924" data-sec="2.03" data-build="2" data-floor="4"
             class="s3d-svg__house js-s3d-svg__house"
             points="575.66666666667,734.66666666667,575.66666666667,734.66666666667,580.33333333333,775,580.33333333333,775,692.33333333333,773.66666666667,692.33333333333,773.66666666667,687.33333333333,732.66666666667,687.33333333333,732.66666666667"></polygon>
    <polygon data-id="12923" data-sec="2.03" data-build="2" data-floor="4"
             class="s3d-svg__house js-s3d-svg__house"
             points="687,732.66666666667,687,732.66666666667,691.66666666667,774.33333333333,691.66666666667,774.33333333333,745,772.66666666667,745,772.66666666667,741.33333333333,731,741.33333333333,731"></polygon>
    <polygon data-id="12933" data-sec="2.03" data-build="2" data-floor="5"
             class="s3d-svg__house js-s3d-svg__house"
             points="288,738,288,738,453.66666666667,737.66666666667,453.66666666667,737.66666666667,446,695,446,695,275,695.66666666667,275,695.66666666667"></polygon>
    <polygon data-id="12932" data-sec="2.03" data-build="2" data-floor="5"
             class="s3d-svg__house js-s3d-svg__house"
             points="445.66666666667,695,445.66666666667,695,453.66666666667,737.66666666667,453.66666666667,737.66666666667,575.33333333333,734.66666666667,575.33333333333,734.66666666667,568,691.66666666667,568,691.66666666667"></polygon>
    <polygon data-id="12931" data-sec="2.03" data-build="2" data-floor="5"
             class="s3d-svg__house js-s3d-svg__house"
             points="567.66666666667,691.66666666667,567.66666666667,691.66666666667,575.66666666667,735,575.66666666667,735,687.66666666667,732.66666666667,687.66666666667,732.66666666667,683,690.33333333333,683,690.33333333333"></polygon>
    <polygon data-id="12930" data-sec="2.03" data-build="2" data-floor="5"
             class="s3d-svg__house js-s3d-svg__house"
             points="682.66666666667,690.66666666667,682.66666666667,690.66666666667,686.66666666667,732.66666666667,686.66666666667,732.66666666667,741,731.33333333333,741,731.33333333333,737.33333333333,689.33333333333,737.33333333333,689.33333333333"></polygon>
    <polygon data-id="12940" data-sec="2.03" data-build="2" data-floor="6"
             class="s3d-svg__house js-s3d-svg__house"
             points="274.66666666667,695.66666666667,274.66666666667,695.66666666667,446,695.33333333333,446,695.33333333333,437.33333333333,651,437.33333333333,651,261.66666666667,652.66666666667,261.66666666667,652.66666666667"></polygon>
    <polygon data-id="12939" data-sec="2.03" data-build="2" data-floor="6"
             class="s3d-svg__house js-s3d-svg__house"
             points="437.33333333333,651,437.33333333333,651,446,695.66666666667,446,695.66666666667,568,692.33333333333,568,692.33333333333,562,649.66666666667,562,649.66666666667"></polygon>
    <polygon data-id="12938" data-sec="2.03" data-build="2" data-floor="6"
             class="s3d-svg__house js-s3d-svg__house"
             points="561.66666666667,649,561.66666666667,649,567.66666666667,691.66666666667,567.66666666667,691.66666666667,683,690.33333333333,683,690.33333333333,679,648,679,648"></polygon>
    <polygon data-id="12936" data-sec="2.03" data-build="2" data-floor="6"
             class="s3d-svg__house js-s3d-svg__house"
             points="678.33333333333,648,678.33333333333,648,682.33333333333,690.33333333333,682.33333333333,690.33333333333,737.33333333333,689.66666666667,737.33333333333,689.66666666667,734.66666666667,646.33333333333,734.66666666667,646.33333333333"></polygon>
    <polygon data-id="12947" data-sec="2.03" data-build="2" data-floor="7"
             class="s3d-svg__house js-s3d-svg__house"
             points="263.33333333333,652.66666666667,263.33333333333,652.66666666667,437,650.66666666667,437,650.66666666667,427.33333333333,606.66666666667,427.33333333333,606.66666666667,250.33333333333,609,250.33333333333,609"></polygon>
    <polygon data-id="12946" data-sec="2.03" data-build="2" data-floor="7"
             class="s3d-svg__house js-s3d-svg__house"
             points="427.33333333333,606.66666666667,427.33333333333,606.66666666667,437.66666666667,651.66666666667,437.66666666667,651.66666666667,561.66666666667,649,561.66666666667,649,555,604.66666666667,555,604.66666666667"></polygon>
    <polygon data-id="12945" data-sec="2.03" data-build="2" data-floor="7"
             class="s3d-svg__house js-s3d-svg__house"
             points="555,604.33333333333,555,604.33333333333,561.33333333333,648.66666666667,561.33333333333,648.66666666667,678.33333333333,648,678.33333333333,648,672.66666666667,603,672.66666666667,603"></polygon>
    <polygon data-id="12944" data-sec="2.03" data-build="2" data-floor="7"
             class="s3d-svg__house js-s3d-svg__house"
             points="672.33333333333,602.33333333333,672.33333333333,602.33333333333,677.66666666667,648.33333333333,677.66666666667,648.33333333333,734.66666666667,646,734.66666666667,646,729.33333333333,600.33333333333,729.33333333333,600.33333333333"></polygon>
    <polygon data-id="12954" data-sec="2.03" data-build="2" data-floor="8"
             class="s3d-svg__house js-s3d-svg__house"
             points="250,609,250,609,427.66666666667,606.66666666667,427.66666666667,606.66666666667,418.66666666667,560,418.66666666667,560,237.33333333333,560.66666666667,237.33333333333,560.66666666667"></polygon>
    <polygon data-id="12953" data-sec="2.03" data-build="2" data-floor="8"
             class="s3d-svg__house js-s3d-svg__house"
             points="418,560,418,560,427.66666666667,607,427.66666666667,607,554.66666666667,604.66666666667,554.66666666667,604.66666666667,547,558.33333333333,547,558.33333333333"></polygon>
    <polygon data-id="12952" data-sec="2.03" data-build="2" data-floor="8"
             class="s3d-svg__house js-s3d-svg__house"
             points="547.33333333333,558.33333333333,547.33333333333,558.33333333333,555,604.66666666667,555,604.66666666667,672,602.33333333333,672,602.33333333333,667.33333333333,555.66666666667,667.33333333333,555.66666666667"></polygon>
    <polygon data-id="12951" data-sec="2.03" data-build="2" data-floor="8"
             class="s3d-svg__house js-s3d-svg__house"
             points="667.33333333333,555.33333333333,667.33333333333,555.33333333333,672,602,672,602,729,600,729,600,725.33333333333,554.66666666667,725.33333333333,554.66666666667"></polygon>
    <polygon data-id="12961" data-sec="2.03" data-build="2" data-floor="9"
             class="s3d-svg__house js-s3d-svg__house"
             points="236.66666666667,561.33333333333,236.66666666667,561.33333333333,418,560,418,560,409,511.66666666667,409,511.66666666667,347,512.33333333333,347,512.33333333333,330,433,330,433,202.66666666667,434.33333333333,202.66666666667,434.33333333333"></polygon>
    <polygon data-id="12960" data-sec="2.03" data-build="2" data-floor="9"
             class="s3d-svg__house js-s3d-svg__house"
             points="330,432.66666666667,330,432.66666666667,347,512.33333333333,347,512.33333333333,409.33333333333,512,409.33333333333,512,418,559.66666666667,418,559.66666666667,547.33333333333,558.66666666667,547.33333333333,558.66666666667,525,418.66666666667,525,418.66666666667,471,420,471,420,469.66666666667,423.33333333333,469.66666666667,423.33333333333,472,430.66666666667,472,430.66666666667"></polygon>
    <polygon data-id="12959" data-sec="2.03" data-build="2" data-floor="9"
             class="s3d-svg__house js-s3d-svg__house"
             points="546.66666666667,558,546.66666666667,558,667,555.33333333333,667,555.33333333333,652.33333333333,418,652.33333333333,418,525,419,525,419"></polygon>
    <polygon data-id="12958" data-sec="2.03" data-build="2" data-floor="9"
             class="s3d-svg__house js-s3d-svg__house"
             points="666.33333333333,555.33333333333,666.33333333333,555.33333333333,725.33333333333,554,725.33333333333,554,713,415.66666666667,713,415.66666666667,654,415.66666666667,654,415.66666666667,652,417.33333333333,652,417.33333333333"></polygon>
    <polygon data-id="12967" data-sec="2.04" data-build="2" data-floor="2"
             class="s3d-svg__house js-s3d-svg__house"
             points="811.66666666667,811,811.66666666667,811,812.66666666667,836,812.66666666667,836,825.66666666667,836.33333333333,825.66666666667,836.33333333333,826.33333333333,846.66666666667,826.33333333333,846.66666666667,907.66666666667,845.33333333333,907.66666666667,845.33333333333,907.66666666667,808.33333333333,907.66666666667,808.33333333333,811.33333333333,810.33333333333,811.33333333333,810.33333333333"></polygon>
    <polygon data-id="12966" data-sec="2.04" data-build="2" data-floor="2"
             class="s3d-svg__house js-s3d-svg__house"
             points="908,808,908,808,908,845,908,845,1015,843,1015,843,1014.3333333333,806,1014.3333333333,806,1014.6666666667,805.33333333333,1014.6666666667,805.33333333333"></polygon>
    <polygon data-id="12965" data-sec="2.04" data-build="2" data-floor="2"
             class="s3d-svg__house js-s3d-svg__house"
             points="1014.3333333333,805.66666666667,1014.3333333333,805.66666666667,1015.6666666667,843.33333333333,1015.6666666667,843.33333333333,1116.3333333333,843,1116.3333333333,843,1118,803.66666666667,1118,803.66666666667"></polygon>
    <polygon data-id="12972" data-sec="2.04" data-build="2" data-floor="3"
             class="s3d-svg__house js-s3d-svg__house"
             points="744.33333333333,773.33333333333,744.33333333333,773.33333333333,748.66666666667,811.66666666667,748.66666666667,811.66666666667,804.33333333333,810,804.33333333333,810,802.33333333333,771,802.33333333333,771"></polygon>
    <polygon data-id="12971" data-sec="2.04" data-build="2" data-floor="3"
             class="s3d-svg__house js-s3d-svg__house"
             points="801.66666666667,771,801.66666666667,771,804.33333333333,810.33333333333,804.33333333333,810.33333333333,907.33333333333,807.33333333333,907.33333333333,807.33333333333,906.33333333333,768.33333333333,906.33333333333,768.33333333333"></polygon>
    <polygon data-id="12970" data-sec="2.04" data-build="2" data-floor="3"
             class="s3d-svg__house js-s3d-svg__house"
             points="906,768,906,768,907.33333333333,807.66666666667,907.33333333333,807.66666666667,1015.6666666667,805.33333333333,1015.6666666667,805.33333333333,1015.6666666667,766.66666666667,1015.6666666667,766.66666666667,1016,765.33333333333,1016,765.33333333333"></polygon>
    <polygon data-id="12969" data-sec="2.04" data-build="2" data-floor="3"
             class="s3d-svg__house js-s3d-svg__house"
             points="1015.6666666667,765.66666666667,1015.6666666667,765.66666666667,1015,806,1015,806,1117.6666666667,803.33333333333,1117.6666666667,803.33333333333,1121,763,1121,763"></polygon>
    <polygon data-id="12978" data-sec="2.04" data-build="2" data-floor="4"
             class="s3d-svg__house js-s3d-svg__house"
             points="744.33333333333,773.66666666667,744.33333333333,773.66666666667,802,771.33333333333,802,771.33333333333,800.66666666667,730,800.66666666667,730,741,731,741,731"></polygon>
    <polygon data-id="12977" data-sec="2.04" data-build="2" data-floor="4"
             class="s3d-svg__house js-s3d-svg__house"
             points="800.66666666667,730.33333333333,800.66666666667,730.33333333333,802.33333333333,771,802.33333333333,771,905.66666666667,768,905.66666666667,768,905.66666666667,727.66666666667,905.66666666667,727.66666666667"></polygon>
    <polygon data-id="12976" data-sec="2.04" data-build="2" data-floor="4"
             class="s3d-svg__house js-s3d-svg__house"
             points="905.33333333333,727.33333333333,905.33333333333,727.33333333333,906,768,906,768,1015.6666666667,766.33333333333,1015.6666666667,766.33333333333,1017.3333333333,725,1017.3333333333,725"></polygon>
    <polygon data-id="12975" data-sec="2.04" data-build="2" data-floor="4"
             class="s3d-svg__house js-s3d-svg__house"
             points="1017,724.66666666667,1017,724.66666666667,1016,766.33333333333,1016,766.33333333333,1121.3333333333,763.33333333333,1121.3333333333,763.33333333333,1123.6666666667,722.33333333333,1123.6666666667,722.33333333333"></polygon>
    <polygon data-id="12984" data-sec="2.04" data-build="2" data-floor="5"
             class="s3d-svg__house js-s3d-svg__house"
             points="740.33333333333,731.66666666667,740.33333333333,731.66666666667,799.66666666667,729.33333333333,799.66666666667,729.33333333333,797.66666666667,688,797.66666666667,688,736.33333333333,689.33333333333,736.33333333333,689.33333333333"></polygon>
    <polygon data-id="12983" data-sec="2.04" data-build="2" data-floor="5"
             class="s3d-svg__house js-s3d-svg__house"
             points="797.33333333333,688,797.33333333333,688,800.33333333333,729.66666666667,800.33333333333,729.66666666667,905.33333333333,727.66666666667,905.33333333333,727.66666666667,904.33333333333,686.66666666667,904.33333333333,686.66666666667"></polygon>
    <polygon data-id="12982" data-sec="2.04" data-build="2" data-floor="5"
             class="s3d-svg__house js-s3d-svg__house"
             points="904.33333333333,686.33333333333,904.33333333333,686.33333333333,905.33333333333,728,905.33333333333,728,1017.3333333333,725.33333333333,1017.3333333333,725.33333333333,1018.3333333333,684.33333333333,1018.3333333333,684.33333333333"></polygon>
    <polygon data-id="12981" data-sec="2.04" data-build="2" data-floor="5"
             class="s3d-svg__house js-s3d-svg__house"
             points="1018.3333333333,682,1018.3333333333,682,1017.6666666667,724.33333333333,1017.6666666667,724.33333333333,1123.3333333333,722.33333333333,1123.3333333333,722.33333333333,1125.6666666667,680.66666666667,1125.6666666667,680.66666666667"></polygon>
    <polygon data-id="12990" data-sec="2.04" data-build="2" data-floor="6"
             class="s3d-svg__house js-s3d-svg__house"
             points="736,689.33333333333,736,689.33333333333,797.33333333333,688.66666666667,797.33333333333,688.66666666667,796,645.33333333333,796,645.33333333333,733.33333333333,646.66666666667,733.33333333333,646.66666666667"></polygon>
    <polygon data-id="12989" data-sec="2.04" data-build="2" data-floor="6"
             class="s3d-svg__house js-s3d-svg__house"
             points="796.33333333333,645,796.33333333333,645,797.66666666667,688.66666666667,797.66666666667,688.66666666667,904,686.33333333333,904,686.33333333333,903.66666666667,643.66666666667,903.66666666667,643.66666666667"></polygon>
    <polygon data-id="12988" data-sec="2.04" data-build="2" data-floor="6"
             class="s3d-svg__house js-s3d-svg__house"
             points="903.66666666667,643.33333333333,903.66666666667,643.33333333333,904,686.66666666667,904,686.66666666667,1018.3333333333,684.33333333333,1018.3333333333,684.33333333333,1019,642.66666666667,1019,642.66666666667"></polygon>
    <polygon data-id="12987" data-sec="2.04" data-build="2" data-floor="6"
             class="s3d-svg__house js-s3d-svg__house"
             points="1019.3333333333,640,1019.3333333333,640,1018.3333333333,682.33333333333,1018.3333333333,682.33333333333,1126,680.66666666667,1126,680.66666666667,1129.3333333333,638.33333333333,1129.3333333333,638.33333333333"></polygon>
    <polygon data-id="12996" data-sec="2.04" data-build="2" data-floor="7"
             class="s3d-svg__house js-s3d-svg__house"
             points="733.66666666667,646.66666666667,733.66666666667,646.66666666667,796,644.66666666667,796,644.66666666667,793,600.33333333333,793,600.33333333333,729.33333333333,600,729.33333333333,600"></polygon>
    <polygon data-id="12995" data-sec="2.04" data-build="2" data-floor="7"
             class="s3d-svg__house js-s3d-svg__house"
             points="793,600.33333333333,793,600.33333333333,796,645,796,645,904,643.33333333333,904,643.33333333333,903,599,903,599"></polygon>
    <polygon data-id="12994" data-sec="2.04" data-build="2" data-floor="7"
             class="s3d-svg__house js-s3d-svg__house"
             points="903,599.33333333333,903,599.33333333333,903.66666666667,643.33333333333,903.66666666667,643.33333333333,1019,642,1019,642,1019.6666666667,595.66666666667,1019.6666666667,595.66666666667"></polygon>
    <polygon data-id="12993" data-sec="2.04" data-build="2" data-floor="7"
             class="s3d-svg__house js-s3d-svg__house"
             points="1019.3333333333,640,1019.3333333333,640,1129,638.66666666667,1129,638.66666666667,1132,590.33333333333,1132,590.33333333333,1020,593.33333333333,1020,593.33333333333"></polygon>
    <polygon data-id="12999" data-sec="2.04" data-build="2" data-floor="8"
             class="s3d-svg__house js-s3d-svg__house"
             points="1021,548.33333333333,1021,548.33333333333,1020.3333333333,593,1020.3333333333,593,1132.3333333333,590.33333333333,1132.3333333333,590.33333333333,1135.6666666667,545.33333333333,1135.6666666667,545.33333333333"></polygon>
    <polygon data-id="13002" data-sec="2.04" data-build="2" data-floor="8"
             class="s3d-svg__house js-s3d-svg__house"
             points="729.33333333333,600,729.33333333333,600,792.66666666667,599.33333333333,792.66666666667,599.33333333333,790,554,790,554,725.66666666667,555.33333333333,725.66666666667,555.33333333333"></polygon>
    <polygon data-id="13001" data-sec="2.04" data-build="2" data-floor="8"
             class="s3d-svg__house js-s3d-svg__house"
             points="789.66666666667,554,789.66666666667,554,793,599.66666666667,793,599.66666666667,902.66666666667,599,902.66666666667,599,902.66666666667,552,902.66666666667,552"></polygon>
    <polygon data-id="13000" data-sec="2.04" data-build="2" data-floor="8"
             class="s3d-svg__house js-s3d-svg__house"
             points="903,551.66666666667,903,551.66666666667,903.33333333333,599.33333333333,903.33333333333,599.33333333333,1020.3333333333,595.66666666667,1020.3333333333,595.66666666667,1021,549.33333333333,1021,549.33333333333"></polygon>
    <polygon data-id="13008" data-sec="2.04" data-build="2" data-floor="9"
             class="s3d-svg__house js-s3d-svg__house"
             points="725,555,725,555,790,554.66666666667,790,554.66666666667,782.33333333333,418,782.33333333333,418,714,418.66666666667,714,418.66666666667"></polygon>
    <polygon data-id="13007" data-sec="2.04" data-build="2" data-floor="9"
             class="s3d-svg__house js-s3d-svg__house"
             points="789.66666666667,553.66666666667,789.66666666667,553.66666666667,902.66666666667,551.66666666667,902.66666666667,551.66666666667,899.33333333333,415.33333333333,899.33333333333,415.33333333333,782,417.66666666667,782,417.66666666667"></polygon>
    <polygon data-id="13006" data-sec="2.04" data-build="2" data-floor="9"
             class="s3d-svg__house js-s3d-svg__house"
             points="899.66666666667,415.33333333333,899.66666666667,415.33333333333,903,551.66666666667,903,551.66666666667,1020.6666666667,548.66666666667,1020.6666666667,548.66666666667,1023.6666666667,413.33333333333,1023.6666666667,413.33333333333"></polygon>
    <polygon data-id="13005" data-sec="2.04" data-build="2" data-floor="9"
             class="s3d-svg__house js-s3d-svg__house"
             points="1024,411.66666666667,1024,411.66666666667,1020.6666666667,548.66666666667,1020.6666666667,548.66666666667,1135.6666666667,544.33333333333,1135.6666666667,544.33333333333,1144.3333333333,409.33333333333,1144.3333333333,409.33333333333"></polygon>
    <polygon data-id="13012" data-sec="2.01" data-build="2" data-floor="9" data-type="flyby" data-flyby="courtyard"
             class="s3d-svg__house js-s3d-svg__house"
             points="727.66666666667,54.333333333333,661,146.33333333333,576,273.66666666667,585.66666666667,276.33333333333,585.66666666667,288.66666666667,601.33333333333,291,604.66666666667,325,859,325.33333333333,857.66666666667,302,893,302.33333333333,894,302.33333333333,893,283.66666666667,1002,284.33333333333,1004,291,1009.6666666667,291.66666666667,1012,303.66666666667,1011.3333333333,324.33333333333,1248.6666666667,318.66666666667,1250.3333333333,286.33333333333,1289.6666666667,285,1110.3333333333,53"></polygon>
    <polygon data-id="13013" data-sec="1.01" data-build="1" data-floor="9" data-type="flyby" data-flyby="complex"
             class="s3d-svg__house js-s3d-svg__house"
             points="0.33333333333333,37.666666666667,41,37.333333333333,37.333333333333,32,54.666666666667,21,77.333333333333,21.666666666667,78,28.333333333333,119.66666666667,25,163.66666666667,26.666666666667,165.33333333333,37,215.33333333333,37,212.33333333333,25,253.66666666667,25.333333333333,420,29,451.66666666667,201.66666666667,434.33333333333,216.33333333333,430,216.66666666667,427.66666666667,204.33333333333,428.66666666667,201.66666666667,412.33333333333,201.66666666667,406.33333333333,206,408,208,409.33333333333,215.33333333333,386,217,369.33333333333,232.33333333333,376.66666666667,264.66666666667,319.66666666667,317,316.66666666667,305,309,306.33333333333,193.33333333333,406,228.33333333333,530,0,775.66666666667"></polygon>
</svg>