<svg preserveAspectRatio="xMidYMid slice" id="floor--svg" viewBox="0 0 1920 1081" version="1.0"
     xmlns="http://www.w3.org/2000/svg">
    <polygon data-id="13012" data-sec="2.01" data-build="2" data-floor="9" data-type="flyby" data-flyby="courtyard"
             class="s3d-svg__house js-s3d-svg__house"
             points="503,70,960,72.333333333333,1426.3333333333,75.666666666667,1455.3333333333,110.33333333333,1465.3333333333,109.66666666667,1535,182.33333333333,1527.6666666667,182.66666666667,1577.3333333333,236,1459,235.66666666667,1461.3333333333,221.66666666667,1456.6666666667,217.66666666667,1441,217,1441,207.33333333333,1434.6666666667,201.33333333333,1421,202.66666666667,1420.3333333333,208.33333333333,1351.6666666667,202.33333333333,1346.6666666667,238,1137.6666666667,233.33333333333,1136.6666666667,221.66666666667,1139.3333333333,221.33333333333,1136,215.66666666667,1126.3333333333,215.66666666667,1124.6666666667,206,1124.3333333333,200.66666666667,1107.6666666667,202.33333333333,1040,201.33333333333,1040.3333333333,207,1034.6666666667,208.66666666667,1034.6666666667,232.33333333333,852.66666666667,231.66666666667,850.33333333333,213.33333333333,847,213.33333333333,846,199.33333333333,830,199.66666666667,829.66666666667,203.33333333333,760,199.33333333333,749,215.33333333333,751.33333333333,233.66666666667,542.66666666667,230.33333333333,537,198,452.66666666667,198,432,214.33333333333,435.66666666667,230.66666666667,332,227.33333333333,386,177.66666666667,380,177.33333333333,457.66666666667,104.33333333333,466.66666666667,104.33333333333"></polygon>
    <polygon data-id="13013" data-sec="1.01" data-build="1" data-floor="9" data-type="flyby" data-flyby="complex"
             class="s3d-svg__house js-s3d-svg__house"
             points="490,1,495,28.666666666667,544.66666666667,30.333333333333,546,38,619.66666666667,38.333333333333,615.33333333333,21,627.33333333333,12.666666666667,683,14,685.33333333333,31,692,33.333333333333,692.66666666667,40.333333333333,828.66666666667,40,829,21.666666666667,835.66666666667,15,891.66666666667,16.333333333333,891.66666666667,20.333333333333,895.33333333333,20.333333333333,896.66666666667,40,962.66666666667,41.333333333333,964.66666666667,220.33333333333,1035.6666666667,221.66666666667,1035.6666666667,208.33333333333,1040,207,1040.3333333333,200.33333333333,1119,200.66666666667,1144.3333333333,202,1157,42.333333333333,1235,41,1235.3333333333,29.333333333333,1303.6666666667,30,1308.6666666667,37,1308.3333333333,40.333333333333,1381.6666666667,42,1383.3333333333,32.333333333333,1443.6666666667,30.333333333333,1449.3333333333,1"></polygon>
</svg>