<svg preserveAspectRatio="xMidYMid slice" id="floor--svg" viewBox="0 0 1920 1081" version="1.0"
     xmlns="http://www.w3.org/2000/svg">
    <polygon data-id="12394" data-sec="2.01" data-build="2" data-floor="2"
             class="s3d-svg__house js-s3d-svg__house"
             points="971,731.5,971,731.5,971,731.5,971,731.5,971,731.5,971,731.5,971,731.5,971,731.5,971,731.5,971,731.5,971,731.5,971,731.5,971,731.5,971,731.5,971,731.5,971,731.5,1047.5,731.25,1047.5,731.25,1047.5,731.25,1047.5,731.25,1047.5,731.25,1047.5,731.25,1047.5,731.25,1047.5,731.25,1047.5,731.25,1047.5,731.25,1047.5,731.25,1047.5,731.25,1047.5,731.25,1047.5,731.25,1047.5,731.25,1047.5,731.25,1049.25,734.75,1049.25,734.75,1049.25,734.75,1049.25,734.75,1049.25,734.75,1049.25,734.75,1049.25,734.75,1049.25,734.75,1049.25,734.75,1049.25,734.75,1049.25,734.75,1049.25,734.75,1049.25,734.75,1049.25,734.75,1049.25,734.75,1049.25,734.75,1079.25,734.5,1079.25,734.5,1079.25,734.5,1079.25,734.5,1079.25,734.5,1079.25,734.5,1079.25,734.5,1079.25,734.5,1079.25,734.5,1079.25,734.5,1079.25,734.5,1079.25,734.5,1079.25,734.5,1079.25,734.5,1079.25,734.5,1079.25,734.5,1080.75,713.25,1080.75,713.25,1080.75,713.25,1080.75,713.25,1080.75,713.25,1080.75,713.25,1080.75,713.25,1080.75,713.25,1080.75,713.25,1080.75,713.25,1080.75,713.25,1080.75,713.25,1080.75,713.25,1080.75,713.25,1080.75,713.25,1080.75,713.25,1051.25,713.5,1051.25,713.5,1051.25,713.5,1051.25,713.5,1051.25,713.5,1051.25,713.5,1051.25,713.5,1051.25,713.5,1051.25,713.5,1051.25,713.5,1051.25,713.5,1051.25,713.5,1051.25,713.5,1051.25,713.5,1051.25,713.5,1051.25,713.5,1045.5,710.75,1045.5,710.75,1045.5,710.75,1045.5,710.75,1045.5,710.75,1045.5,710.75,1045.5,710.75,1045.5,710.75,1045.5,710.75,1045.5,710.75,1045.5,710.75,1045.5,710.75,1045.5,710.75,1045.5,710.75,1045.5,710.75,1045.5,710.75,971.25,711.5,971.25,711.5,971.25,711.5,971.25,711.5,971.25,711.5,971.25,711.5,971.25,711.5,971.25,711.5,971.25,711.5,971.25,711.5,971.25,711.5,971.25,711.5,971.25,711.5,971.25,711.5,971.25,711.5,971.25,711.5"></polygon>
    <polygon data-id="12395" data-sec="2.01" data-build="2" data-floor="2"
             class="s3d-svg__house js-s3d-svg__house"
             points="1127.5,712.25,1127.5,712.25,1127.5,712.25,1127.5,712.25,1127.5,712.25,1127.5,712.25,1127.5,712.25,1127.5,712.25,1127.5,712.25,1127.5,712.25,1127.5,712.25,1127.5,712.25,1127.5,712.25,1127.5,712.25,1127.5,712.25,1127.5,712.25,1124.5,733.75,1124.5,733.75,1124.5,733.75,1124.5,733.75,1124.5,733.75,1124.5,733.75,1124.5,733.75,1124.5,733.75,1124.5,733.75,1124.5,733.75,1124.5,733.75,1124.5,733.75,1124.5,733.75,1124.5,733.75,1124.5,733.75,1124.5,733.75,1238.5,731.5,1238.5,731.5,1238.5,731.5,1238.5,731.5,1238.5,731.5,1238.5,731.5,1238.5,731.5,1238.5,731.5,1238.5,731.5,1238.5,731.5,1238.5,731.5,1238.5,731.5,1238.5,731.5,1238.5,731.5,1238.5,731.5,1238.5,731.5,1245,706.25,1245,706.25,1245,706.25,1245,706.25,1245,706.25,1245,706.25,1245,706.25,1245,706.25,1245,706.25,1245,706.25,1245,706.25,1245,706.25,1245,706.25,1245,706.25,1245,706.25,1245,706.25,1155,708.75,1155,708.75,1155,708.75,1155,708.75,1155,708.75,1155,708.75,1155,708.75,1155,708.75,1155,708.75,1155,708.75,1155,708.75,1155,708.75,1155,708.75,1155,708.75,1155,708.75,1155,708.75,1155.5,711.5,1155.5,711.5,1155.5,711.5,1155.5,711.5,1155.5,711.5,1155.5,711.5,1155.5,711.5,1155.5,711.5,1155.5,711.5,1155.5,711.5,1155.5,711.5,1155.5,711.5,1155.5,711.5,1155.5,711.5,1155.5,711.5,1155.5,711.5"></polygon>
    <polygon data-id="12398" data-sec="2.01" data-build="2" data-floor="3"
             class="s3d-svg__house js-s3d-svg__house"
             points="971.25,711.5,971.25,711.5,971.25,711.5,971.25,711.5,971.25,711.5,971.25,711.5,971.25,711.5,971.25,711.5,971.25,711.5,971.25,711.5,971.25,711.5,971.25,711.5,971.25,711.5,971.25,711.5,971.25,711.5,971.25,711.5,1046,711,1046,711,1046,711,1046,711,1046,711,1046,711,1046,711,1046,711,1046,711,1046,711,1046,711,1046,711,1046,711,1046,711,1046,711,1046,711,1051.5,714,1051.5,714,1051.5,714,1051.5,714,1051.5,714,1051.5,714,1051.5,714,1051.5,714,1051.5,714,1051.5,714,1051.5,714,1051.5,714,1051.5,714,1051.5,714,1051.5,714,1051.5,714,1081,713.25,1081,713.25,1081,713.25,1081,713.25,1081,713.25,1081,713.25,1081,713.25,1081,713.25,1081,713.25,1081,713.25,1081,713.25,1081,713.25,1081,713.25,1081,713.25,1081,713.25,1081,713.25,1082.5,685.25,1082.5,685.25,1082.5,685.25,1082.5,685.25,1082.5,685.25,1082.5,685.25,1082.5,685.25,1082.5,685.25,1082.5,685.25,1082.5,685.25,1082.5,685.25,1082.5,685.25,1082.5,685.25,1082.5,685.25,1082.5,685.25,1082.5,685.25,971.5,685,971.5,685,971.5,685,971.5,685,971.5,685,971.5,685,971.5,685,971.5,685,971.5,685,971.5,685,971.5,685,971.5,685,971.5,685,971.5,685,971.5,685,971.5,685"></polygon>
    <polygon data-id="12399" data-sec="2.01" data-build="2" data-floor="3"
             class="s3d-svg__house js-s3d-svg__house"
             points="1128,712,1128,712,1128,712,1128,712,1128,712,1128,712,1128,712,1128,712,1128,712,1128,712,1128,712,1128,712,1128,712,1128,712,1128,712,1128,712,1155.5,710.75,1155.5,710.75,1155.5,710.75,1155.5,710.75,1155.5,710.75,1155.5,710.75,1155.5,710.75,1155.5,710.75,1155.5,710.75,1155.5,710.75,1155.5,710.75,1155.5,710.75,1155.5,710.75,1155.5,710.75,1155.5,710.75,1155.5,710.75,1155,708.5,1155,708.5,1155,708.5,1155,708.5,1155,708.5,1155,708.5,1155,708.5,1155,708.5,1155,708.5,1155,708.5,1155,708.5,1155,708.5,1155,708.5,1155,708.5,1155,708.5,1155,708.5,1244.5,706.25,1244.5,706.25,1244.5,706.25,1244.5,706.25,1244.5,706.25,1244.5,706.25,1244.5,706.25,1244.5,706.25,1244.5,706.25,1244.5,706.25,1244.5,706.25,1244.5,706.25,1244.5,706.25,1244.5,706.25,1244.5,706.25,1244.5,706.25,1250.25,680.75,1250.25,680.75,1250.25,680.75,1250.25,680.75,1250.25,680.75,1250.25,680.75,1250.25,680.75,1250.25,680.75,1250.25,680.75,1250.25,680.75,1250.25,680.75,1250.25,680.75,1250.25,680.75,1250.25,680.75,1250.25,680.75,1250.25,680.75,1130.75,685,1130.75,685,1130.75,685,1130.75,685,1130.75,685,1130.75,685,1130.75,685,1130.75,685,1130.75,685,1130.75,685,1130.75,685,1130.75,685,1130.75,685,1130.75,685,1130.75,685,1130.75,685"></polygon>
    <polygon data-id="12402" data-sec="2.01" data-build="2" data-floor="4"
             class="s3d-svg__house js-s3d-svg__house"
             points="971.25,685,971.25,685,971.25,685,971.25,685,971.25,685,971.25,685,971.25,685,971.25,685,971.25,685,971.25,685,971.25,685,971.25,685,971.25,685,971.25,685,971.25,685,971.25,685,1082.5,684.75,1082.5,684.75,1082.5,684.75,1082.5,684.75,1082.5,684.75,1082.5,684.75,1082.5,684.75,1082.5,684.75,1082.5,684.75,1082.5,684.75,1082.5,684.75,1082.5,684.75,1082.5,684.75,1082.5,684.75,1082.5,684.75,1082.5,684.75,1085,658.5,1085,658.5,1085,658.5,1085,658.5,1085,658.5,1085,658.5,1085,658.5,1085,658.5,1085,658.5,1085,658.5,1085,658.5,1085,658.5,1085,658.5,1085,658.5,1085,658.5,1085,658.5,971.75,660,971.75,660,971.75,660,971.75,660,971.75,660,971.75,660,971.75,660,971.75,660,971.75,660,971.75,660,971.75,660,971.75,660,971.75,660,971.75,660,971.75,660,971.75,660"></polygon>
    <polygon data-id="12403" data-sec="2.01" data-build="2" data-floor="4"
             class="s3d-svg__house js-s3d-svg__house"
             points="1130.25,684.75,1130.25,684.75,1130.25,684.75,1130.25,684.75,1130.25,684.75,1130.25,684.75,1130.25,684.75,1130.25,684.75,1130.25,684.75,1130.25,684.75,1130.25,684.75,1130.25,684.75,1130.25,684.75,1130.25,684.75,1130.25,684.75,1130.25,684.75,1249.5,681.25,1249.5,681.25,1249.5,681.25,1249.5,681.25,1249.5,681.25,1249.5,681.25,1249.5,681.25,1249.5,681.25,1249.5,681.25,1249.5,681.25,1249.5,681.25,1249.5,681.25,1249.5,681.25,1249.5,681.25,1249.5,681.25,1249.5,681.25,1255,654,1255,654,1255,654,1255,654,1255,654,1255,654,1255,654,1255,654,1255,654,1255,654,1255,654,1255,654,1255,654,1255,654,1255,654,1255,654,1134,657.75,1134,657.75,1134,657.75,1134,657.75,1134,657.75,1134,657.75,1134,657.75,1134,657.75,1134,657.75,1134,657.75,1134,657.75,1134,657.75,1134,657.75,1134,657.75,1134,657.75,1134,657.75"></polygon>
    <polygon data-id="12406" data-sec="2.01" data-build="2" data-floor="5"
             class="s3d-svg__house js-s3d-svg__house"
             points="971.5,659.25,971.5,659.25,971.5,659.25,971.5,659.25,971.5,659.25,971.5,659.25,971.5,659.25,971.5,659.25,1085,659,1085,659,1085,659,1085,659,1085,659,1085,659,1085,659,1085,659,1087.5,629.5,1087.5,629.5,1087.5,629.5,1087.5,629.5,1087.5,629.5,1087.5,629.5,1087.5,629.5,1087.5,629.5,972.25,628.5,972.25,628.5,972.25,628.5,972.25,628.5,972.25,628.5,972.25,628.5,972.25,628.5,972.25,628.5"></polygon>
    <polygon data-id="12407" data-sec="2.01" data-build="2" data-floor="5"
             class="s3d-svg__house js-s3d-svg__house"
             points="1133.5,657.5,1133.5,657.5,1133.5,657.5,1133.5,657.5,1133.5,657.5,1133.5,657.5,1133.5,657.5,1133.5,657.5,1254.5,653.75,1254.5,653.75,1254.5,653.75,1254.5,653.75,1254.5,653.75,1254.5,653.75,1254.5,653.75,1254.5,653.75,1261,627.5,1261,627.5,1261,627.5,1261,627.5,1261,627.5,1261,627.5,1261,627.5,1261,627.5,1137,629.25,1137,629.25,1137,629.25,1137,629.25,1137,629.25,1137,629.25,1137,629.25,1137,629.25"></polygon>
    <polygon data-id="12410" data-sec="2.01" data-build="2" data-floor="6"
             class="s3d-svg__house js-s3d-svg__house"
             points="1087.75,629.5,1087.75,629.5,1087.75,629.5,1087.75,629.5,1087.75,629.5,1087.75,629.5,1087.75,629.5,1087.75,629.5,1090,600.75,1090,600.75,1090,600.75,1090,600.75,1090,600.75,1090,600.75,1090,600.75,1090,600.75,972,598.75,972,598.75,972,598.75,972,598.75,972,598.75,972,598.75,972,598.75,972,598.75,971.25,629,971.25,629,971.25,629,971.25,629,971.25,629,971.25,629,971.25,629,971.25,629"></polygon>
    <polygon data-id="12411" data-sec="2.01" data-build="2" data-floor="6"
             class="s3d-svg__house js-s3d-svg__house"
             points="1136.5,629,1136.5,629,1136.5,629,1136.5,629,1136.5,629,1136.5,629,1136.5,629,1136.5,629,1260.5,626.75,1260.5,626.75,1260.5,626.75,1260.5,626.75,1260.5,626.75,1260.5,626.75,1260.5,626.75,1260.5,626.75,1266,598.5,1266,598.5,1266,598.5,1266,598.5,1266,598.5,1266,598.5,1266,598.5,1266,598.5,1139.75,599.75,1139.75,599.75,1139.75,599.75,1139.75,599.75,1139.75,599.75,1139.75,599.75,1139.75,599.75,1139.75,599.75"></polygon>
    <polygon data-id="12414" data-sec="2.01" data-build="2" data-floor="7"
             class="s3d-svg__house js-s3d-svg__house"
             points="971.5,598.5,971.5,598.5,971.5,598.5,971.5,598.5,971.5,598.5,971.5,598.5,971.5,598.5,971.5,598.5,1089.5,600.5,1089.5,600.5,1089.5,600.5,1089.5,600.5,1089.5,600.5,1089.5,600.5,1089.5,600.5,1089.5,600.5,1091.5,570.75,1091.5,570.75,1091.5,570.75,1091.5,570.75,1091.5,570.75,1091.5,570.75,1091.5,570.75,1091.5,570.75,972.25,568,972.25,568,972.25,568,972.25,568,972.25,568,972.25,568,972.25,568,972.25,568"></polygon>
    <polygon data-id="12415" data-sec="2.01" data-build="2" data-floor="7"
             class="s3d-svg__house js-s3d-svg__house"
             points="1139.25,599.5,1139.25,599.5,1139.25,599.5,1139.25,599.5,1139.25,599.5,1139.25,599.5,1139.25,599.5,1139.25,599.5,1265.75,599,1265.75,599,1265.75,599,1265.75,599,1265.75,599,1265.75,599,1265.75,599,1265.75,599,1272,566,1272,566,1272,566,1272,566,1272,566,1272,566,1272,566,1272,566,1143.25,568.5,1143.25,568.5,1143.25,568.5,1143.25,568.5,1143.25,568.5,1143.25,568.5,1143.25,568.5,1143.25,568.5"></polygon>
    <polygon data-id="12418" data-sec="2.01" data-build="2" data-floor="8"
             class="s3d-svg__house js-s3d-svg__house"
             points="972,567.75,972,567.75,972,567.75,972,567.75,972,567.75,972,567.75,972,567.75,972,567.75,1091.5,570.75,1091.5,570.75,1091.5,570.75,1091.5,570.75,1091.5,570.75,1091.5,570.75,1091.5,570.75,1091.5,570.75,1095,535.75,1095,535.75,1095,535.75,1095,535.75,1095,535.75,1095,535.75,1095,535.75,1095,535.75,972.5,534.5,972.5,534.5,972.5,534.5,972.5,534.5,972.5,534.5,972.5,534.5,972.5,534.5,972.5,534.5"></polygon>
    <polygon data-id="12419" data-sec="2.01" data-build="2" data-floor="8"
             class="s3d-svg__house js-s3d-svg__house"
             points="1142.75,569.25,1142.75,569.25,1142.75,569.25,1142.75,569.25,1142.75,569.25,1142.75,569.25,1142.75,569.25,1142.75,569.25,1272,566.5,1272,566.5,1272,566.5,1272,566.5,1272,566.5,1272,566.5,1272,566.5,1272,566.5,1277.75,536,1277.75,536,1277.75,536,1277.75,536,1277.75,536,1277.75,536,1277.75,536,1277.75,536,1146,537.5,1146,537.5,1146,537.5,1146,537.5,1146,537.5,1146,537.5,1146,537.5,1146,537.5"></polygon>
    <polygon data-id="12422" data-sec="2.01" data-build="2" data-floor="9"
             class="s3d-svg__house js-s3d-svg__house"
             points="972.5,533.5,972.5,533.5,972.5,533.5,972.5,533.5,972.5,533.5,972.5,533.5,972.5,533.5,972.5,533.5,1009,534.25,1009,534.25,1009,534.25,1009,534.25,1009,534.25,1009,534.25,1009,534.25,1009,534.25,1009.5,505.5,1009.5,505.5,1009.5,505.5,1009.5,505.5,1009.5,505.5,1009.5,505.5,1009.5,505.5,1009.5,505.5,972.75,505.75,972.75,505.75,972.75,505.75,972.75,505.75,972.75,505.75,972.75,505.75,972.75,505.75,972.75,505.75"></polygon>
    <polygon data-id="12420" data-sec="2.01" data-build="2" data-floor="9"
             class="s3d-svg__house js-s3d-svg__house"
             points="972.75,506.25,972.75,506.25,972.75,506.25,972.75,506.25,972.75,506.25,972.75,506.25,972.75,506.25,972.75,506.25,974.25,449.75,974.25,449.75,974.25,449.75,974.25,449.75,974.25,449.75,974.25,449.75,974.25,449.75,974.25,449.75,1064,448.5,1064,448.5,1064,448.5,1064,448.5,1064,448.5,1064,448.5,1064,448.5,1064,448.5,1066.25,453.75,1066.25,453.75,1066.25,453.75,1066.25,453.75,1066.25,453.75,1066.25,453.75,1066.25,453.75,1066.25,453.75,1101.5,452.5,1101.5,452.5,1101.5,452.5,1101.5,452.5,1101.5,452.5,1101.5,452.5,1101.5,452.5,1101.5,452.5,1094.75,536.25,1094.75,536.25,1094.75,536.25,1094.75,536.25,1094.75,536.25,1094.75,536.25,1094.75,536.25,1094.75,536.25,1008.5,534.5,1008.5,534.5,1008.5,534.5,1008.5,534.5,1008.5,534.5,1008.5,534.5,1008.5,534.5,1008.5,534.5,1009.25,505,1009.25,505,1009.25,505,1009.25,505,1009.25,505,1009.25,505,1009.25,505,1009.25,505"></polygon>
    <polygon data-id="12425" data-sec="2.01" data-build="2" data-floor="9"
             class="s3d-svg__house js-s3d-svg__house"
             points="1277.75,535.5,1277.75,535.5,1277.75,535.5,1277.75,535.5,1277.75,535.5,1277.75,535.5,1277.75,535.5,1277.75,535.5,1284,503.75,1284,503.75,1284,503.75,1284,503.75,1284,503.75,1284,503.75,1284,503.75,1284,503.75,1241.75,504.25,1241.75,504.25,1241.75,504.25,1241.75,504.25,1241.75,504.25,1241.75,504.25,1241.75,504.25,1241.75,504.25,1236.25,535.5,1236.25,535.5,1236.25,535.5,1236.25,535.5,1236.25,535.5,1236.25,535.5,1236.25,535.5,1236.25,535.5"></polygon>
    <polygon data-id="12421" data-sec="2.01" data-build="2" data-floor="9"
             class="s3d-svg__house js-s3d-svg__house"
             points="1146.5,537.5,1146.5,537.5,1146.5,537.5,1146.5,537.5,1146.5,537.5,1146.5,537.5,1146.5,537.5,1146.5,537.5,1236.25,535.5,1236.25,535.5,1236.25,535.5,1236.25,535.5,1236.25,535.5,1236.25,535.5,1236.25,535.5,1236.25,535.5,1241.75,503.25,1241.75,503.25,1241.75,503.25,1241.75,503.25,1241.75,503.25,1241.75,503.25,1241.75,503.25,1241.75,503.25,1284,504,1284,504,1284,504,1284,504,1284,504,1284,504,1284,504,1284,504,1295.75,446.25,1295.75,446.25,1295.75,446.25,1295.75,446.25,1295.75,446.25,1295.75,446.25,1295.75,446.25,1295.75,446.25,1188.75,447.5,1188.75,447.5,1188.75,447.5,1188.75,447.5,1188.75,447.5,1188.75,447.5,1188.75,447.5,1188.75,447.5,1188.25,451.75,1188.25,451.75,1188.25,451.75,1188.25,451.75,1188.25,451.75,1188.25,451.75,1188.25,451.75,1188.25,451.75,1155.5,452.25,1155.5,452.25,1155.5,452.25,1155.5,452.25,1155.5,452.25,1155.5,452.25,1155.5,452.25,1155.5,452.25"></polygon>
    <polygon data-id="12427" data-sec="2.02" data-build="2" data-floor="2"
             class="s3d-svg__house js-s3d-svg__house"
             points="1244.5,706,1244.5,706,1244.5,706,1244.5,706,1244.5,706,1244.5,706,1244.5,706,1244.5,706,1238.75,731.75,1238.75,731.75,1238.75,731.75,1238.75,731.75,1238.75,731.75,1238.75,731.75,1238.75,731.75,1238.75,731.75,1277.25,731,1277.25,731,1277.25,731,1277.25,731,1277.25,731,1277.25,731,1277.25,731,1277.25,731,1283,706.75,1283,706.75,1283,706.75,1283,706.75,1283,706.75,1283,706.75,1283,706.75,1283,706.75"></polygon>
    <polygon data-id="12426" data-sec="2.02" data-build="2" data-floor="2"
             class="s3d-svg__house js-s3d-svg__house"
             points="1282.5,706.5,1282.5,706.5,1282.5,706.5,1282.5,706.5,1277.5,731.25,1277.5,731.25,1277.5,731.25,1277.5,731.25,1370,729.75,1370,729.75,1370,729.75,1370,729.75,1376.75,705.75,1376.75,705.75,1376.75,705.75,1376.75,705.75"></polygon>
    <polygon data-id="12431" data-sec="2.02" data-build="2" data-floor="2"
             class="s3d-svg__house js-s3d-svg__house"
             points="1420,706.75,1420,706.75,1420,706.75,1420,706.75,1414.25,728.5,1414.25,728.5,1414.25,728.5,1414.25,728.5,1523.25,727.5,1523.25,727.5,1523.25,727.5,1523.25,727.5,1531.75,704.5,1531.75,704.5,1531.75,704.5,1531.75,704.5"></polygon>
    <polygon data-id="12433" data-sec="2.02" data-build="2" data-floor="3"
             class="s3d-svg__house js-s3d-svg__house"
             points="1244.5,705.5,1244.5,705.5,1244.5,705.5,1244.5,705.5,1283,706.25,1283,706.25,1283,706.25,1283,706.25,1289,680.25,1289,680.25,1289,680.25,1289,680.25,1249.75,680.5,1249.75,680.5,1249.75,680.5,1249.75,680.5"></polygon>
    <polygon data-id="12432" data-sec="2.02" data-build="2" data-floor="3"
             class="s3d-svg__house js-s3d-svg__house"
             points="1289,679.5,1289,679.5,1289,679.5,1289,679.5,1282.5,706.75,1282.5,706.75,1282.5,706.75,1282.5,706.75,1377,705.5,1377,705.5,1377,705.5,1377,705.5,1384,679.5,1384,679.5,1384,679.5,1384,679.5"></polygon>
    <polygon data-id="12439" data-sec="2.02" data-build="2" data-floor="4"
             class="s3d-svg__house js-s3d-svg__house"
             points="1250,680.66666666667,1250,680.66666666667,1288.6666666667,679.66666666667,1288.6666666667,679.66666666667,1294,653,1294,653,1254.6666666667,653.33333333333,1254.6666666667,653.33333333333"></polygon>
    <polygon data-id="12438" data-sec="2.02" data-build="2" data-floor="4"
             class="s3d-svg__house js-s3d-svg__house"
             points="1294,653,1294,653,1288.6666666667,680,1288.6666666667,680,1383.6666666667,679.66666666667,1383.6666666667,679.66666666667,1390.6666666667,653.33333333333,1390.6666666667,653.33333333333"></polygon>
    <polygon data-id="12443" data-sec="2.02" data-build="2" data-floor="4"
             class="s3d-svg__house js-s3d-svg__house"
             points="1430.6666666667,676.66666666667,1430.6666666667,676.66666666667,1543,673.33333333333,1543,673.33333333333,1552.3333333333,648.66666666667,1552.3333333333,648.66666666667,1437.6666666667,651.66666666667,1437.6666666667,651.66666666667"></polygon>
    <polygon data-id="12437" data-sec="2.02" data-build="2" data-floor="3"
             class="s3d-svg__house js-s3d-svg__house"
             points="1430.3333333333,677,1430.3333333333,677,1420,707,1420,707,1532,704,1532,704,1543.3333333333,674.33333333333,1543.3333333333,674.33333333333"></polygon>
    <polygon data-id="12445" data-sec="2.02" data-build="2" data-floor="5"
             class="s3d-svg__house js-s3d-svg__house"
             points="1255,653,1255,653,1293.6666666667,653.33333333333,1293.6666666667,653.33333333333,1300,625.33333333333,1300,625.33333333333,1260.3333333333,626.33333333333,1260.3333333333,626.33333333333"></polygon>
    <polygon data-id="12444" data-sec="2.02" data-build="2" data-floor="5"
             class="s3d-svg__house js-s3d-svg__house"
             points="1300.3333333333,625.33333333333,1300.3333333333,625.33333333333,1294,653.66666666667,1294,653.66666666667,1391,653.66666666667,1391,653.66666666667,1398,624.66666666667,1398,624.66666666667"></polygon>
    <polygon data-id="12449" data-sec="2.02" data-build="2" data-floor="5"
             class="s3d-svg__house js-s3d-svg__house"
             points="1437.6666666667,651.33333333333,1437.6666666667,651.33333333333,1552,648.66666666667,1552,648.66666666667,1561.3333333333,622.33333333333,1561.3333333333,622.33333333333,1445.3333333333,623.33333333333,1445.3333333333,623.33333333333"></polygon>
    <polygon data-id="12451" data-sec="2.02" data-build="2" data-floor="6"
             class="s3d-svg__house js-s3d-svg__house"
             points="1260.6666666667,626,1260.6666666667,626,1299.6666666667,625.33333333333,1299.6666666667,625.33333333333,1306.3333333333,596.33333333333,1306.3333333333,596.33333333333,1267,596.33333333333,1267,596.33333333333"></polygon>
    <polygon data-id="12450" data-sec="2.02" data-build="2" data-floor="6"
             class="s3d-svg__house js-s3d-svg__house"
             points="1306.6666666667,595.66666666667,1306.6666666667,595.66666666667,1299.6666666667,625.33333333333,1299.6666666667,625.33333333333,1397.6666666667,625.33333333333,1397.6666666667,625.33333333333,1406.3333333333,594.66666666667,1406.3333333333,594.66666666667"></polygon>
    <polygon data-id="12455" data-sec="2.02" data-build="2" data-floor="6"
             class="s3d-svg__house js-s3d-svg__house"
             points="1444.6666666667,624,1444.6666666667,624,1562.6666666667,622.33333333333,1562.6666666667,622.33333333333,1572,596,1572,596,1452.6666666667,596.33333333333,1452.6666666667,596.33333333333"></polygon>
    <polygon data-id="12457" data-sec="2.02" data-build="2" data-floor="7"
             class="s3d-svg__house js-s3d-svg__house"
             points="1267,596.66666666667,1267,596.66666666667,1306,595.66666666667,1306,595.66666666667,1313,566.66666666667,1313,566.66666666667,1273,566.33333333333,1273,566.33333333333"></polygon>
    <polygon data-id="12456" data-sec="2.02" data-build="2" data-floor="7"
             class="s3d-svg__house js-s3d-svg__house"
             points="1313,566,1313,566,1306.6666666667,596.33333333333,1306.6666666667,596.33333333333,1406.3333333333,595,1406.3333333333,595,1413.6666666667,565.66666666667,1413.6666666667,565.66666666667"></polygon>
    <polygon data-id="12461" data-sec="2.02" data-build="2" data-floor="7"
             class="s3d-svg__house js-s3d-svg__house"
             points="1453.3333333333,596,1453.3333333333,596,1572,596.66666666667,1572,596.66666666667,1582.6666666667,566.33333333333,1582.6666666667,566.33333333333,1462,566.66666666667,1462,566.66666666667"></polygon>
    <polygon data-id="12463" data-sec="2.02" data-build="2" data-floor="8"
             class="s3d-svg__house js-s3d-svg__house"
             points="1272,566.33333333333,1272,566.33333333333,1312.6666666667,566.33333333333,1312.6666666667,566.33333333333,1320,534.66666666667,1320,534.66666666667,1278,534.66666666667,1278,534.66666666667"></polygon>
    <polygon data-id="12462" data-sec="2.02" data-build="2" data-floor="8"
             class="s3d-svg__house js-s3d-svg__house"
             points="1320,534.66666666667,1320,534.66666666667,1312.6666666667,567.33333333333,1312.6666666667,567.33333333333,1413,565.33333333333,1413,565.33333333333,1423,532.33333333333,1423,532.33333333333"></polygon>
    <polygon data-id="12467" data-sec="2.02" data-build="2" data-floor="8"
             class="s3d-svg__house js-s3d-svg__house"
             points="1462,566.66666666667,1462,566.66666666667,1582.6666666667,566.33333333333,1582.6666666667,566.33333333333,1596,533.33333333333,1596,533.33333333333,1471.3333333333,535.66666666667,1471.3333333333,535.66666666667"></polygon>
    <polygon data-id="12473" data-sec="2.02" data-build="2" data-floor="9"
             class="s3d-svg__house js-s3d-svg__house"
             points="1277.3333333333,534,1277.3333333333,534,1320,534.66666666667,1320,534.66666666667,1339,445,1339,445,1295.6666666667,446.33333333333,1295.6666666667,446.33333333333"></polygon>
    <polygon data-id="12468" data-sec="2.02" data-build="2" data-floor="9"
             class="s3d-svg__house js-s3d-svg__house"
             points="1339.3333333333,444.66666666667,1339.3333333333,444.66666666667,1319.6666666667,534.33333333333,1319.6666666667,534.33333333333,1423,532,1423,532,1448.3333333333,443,1448.3333333333,443"></polygon>
    <polygon data-id="12472" data-sec="2.02" data-build="2" data-floor="9"
             class="s3d-svg__house js-s3d-svg__house"
             points="1471.6666666667,535,1471.6666666667,535,1596,533,1596,533,1628.6666666667,446,1628.6666666667,446,1498.3333333333,446,1498.3333333333,446"></polygon>
    <polygon data-id="12914" data-sec="2.03" data-build="2" data-floor="2"
             class="s3d-svg__house js-s3d-svg__house"
             points="1532,703.33333333333,1532,703.33333333333,1523.3333333333,727,1523.3333333333,727,1557.6666666667,727,1557.6666666667,727,1567.6666666667,702.33333333333,1567.6666666667,702.33333333333"></polygon>
    <polygon data-id="12913" data-sec="2.03" data-build="2" data-floor="2"
             class="s3d-svg__house js-s3d-svg__house"
             points="1567.3333333333,702.33333333333,1567.3333333333,702.33333333333,1557,728,1557,728,1670.3333333333,725.33333333333,1670.3333333333,725.33333333333,1682,701.66666666667,1682,701.66666666667"></polygon>
    <polygon data-id="12912" data-sec="2.03" data-build="2" data-floor="2"
             class="s3d-svg__house js-s3d-svg__house"
             points="1682,700.66666666667,1682,700.66666666667,1669.6666666667,725,1669.6666666667,725,1749.3333333333,724.66666666667,1749.3333333333,724.66666666667,1763,698.66666666667,1763,698.66666666667"></polygon>
    <polygon data-id="12921" data-sec="2.03" data-build="2" data-floor="3"
             class="s3d-svg__house js-s3d-svg__house"
             points="1531.6666666667,704.33333333333,1531.6666666667,704.33333333333,1568,702,1568,702,1580,673.33333333333,1580,673.33333333333,1543.3333333333,674.66666666667,1543.3333333333,674.66666666667"></polygon>
    <polygon data-id="12920" data-sec="2.03" data-build="2" data-floor="3"
             class="s3d-svg__house js-s3d-svg__house"
             points="1567.3333333333,703,1567.3333333333,703,1580,673.66666666667,1580,673.66666666667,1694.6666666667,673.33333333333,1694.6666666667,673.33333333333,1681.3333333333,701.33333333333,1681.3333333333,701.33333333333"></polygon>
    <polygon data-id="12919" data-sec="2.03" data-build="2" data-floor="3"
             class="s3d-svg__house js-s3d-svg__house"
             points="1694.6666666667,673.66666666667,1694.6666666667,673.66666666667,1681.3333333333,701.33333333333,1681.3333333333,701.33333333333,1763.3333333333,698,1763.3333333333,698,1776.6666666667,672,1776.6666666667,672"></polygon>
    <polygon data-id="12928" data-sec="2.03" data-build="2" data-floor="4"
             class="s3d-svg__house js-s3d-svg__house"
             points="1542.6666666667,673.66666666667,1542.6666666667,673.66666666667,1579.6666666667,673,1579.6666666667,673,1589.3333333333,647,1589.3333333333,647,1551.6666666667,648.66666666667,1551.6666666667,648.66666666667"></polygon>
    <polygon data-id="12927" data-sec="2.03" data-build="2" data-floor="4"
             class="s3d-svg__house js-s3d-svg__house"
             points="1589,646.66666666667,1589,646.66666666667,1579.6666666667,673.33333333333,1579.6666666667,673.33333333333,1694.3333333333,673.33333333333,1694.3333333333,673.33333333333,1708,646.66666666667,1708,646.66666666667"></polygon>
    <polygon data-id="12926" data-sec="2.03" data-build="2" data-floor="4"
             class="s3d-svg__house js-s3d-svg__house"
             points="1707.3333333333,646.66666666667,1707.3333333333,646.66666666667,1694.6666666667,673.66666666667,1694.6666666667,673.66666666667,1777,672.66666666667,1777,672.66666666667,1791,645,1791,645"></polygon>
    <polygon data-id="12935" data-sec="2.03" data-build="2" data-floor="5"
             class="s3d-svg__house js-s3d-svg__house"
             points="1551.6666666667,649,1551.6666666667,649,1588.6666666667,647.33333333333,1588.6666666667,647.33333333333,1599.6666666667,622.33333333333,1599.6666666667,622.33333333333,1562,622.33333333333,1562,622.33333333333"></polygon>
    <polygon data-id="12934" data-sec="2.03" data-build="2" data-floor="5"
             class="s3d-svg__house js-s3d-svg__house"
             points="1600,621.66666666667,1600,621.66666666667,1588.6666666667,647,1588.6666666667,647,1707,646,1707,646,1719,619.66666666667,1719,619.66666666667"></polygon>
    <polygon data-id="12933" data-sec="2.03" data-build="2" data-floor="5"
             class="s3d-svg__house js-s3d-svg__house"
             points="1719.3333333333,619.33333333333,1719.3333333333,619.33333333333,1707,646.66666666667,1707,646.66666666667,1791,645,1791,645,1805.3333333333,618,1805.3333333333,618"></polygon>
    <polygon data-id="12942" data-sec="2.03" data-build="2" data-floor="6"
             class="s3d-svg__house js-s3d-svg__house"
             points="1561.6666666667,621.66666666667,1561.6666666667,621.66666666667,1599.3333333333,621.66666666667,1599.3333333333,621.66666666667,1612,593,1612,593,1573.3333333333,593.66666666667,1573.3333333333,593.66666666667"></polygon>
    <polygon data-id="12941" data-sec="2.03" data-build="2" data-floor="6"
             class="s3d-svg__house js-s3d-svg__house"
             points="1612.3333333333,593,1612.3333333333,593,1599.6666666667,622.33333333333,1599.6666666667,622.33333333333,1719.3333333333,619.33333333333,1719.3333333333,619.33333333333,1731.6666666667,591.33333333333,1731.6666666667,591.33333333333"></polygon>
    <polygon data-id="12940" data-sec="2.03" data-build="2" data-floor="6"
             class="s3d-svg__house js-s3d-svg__house"
             points="1731.6666666667,590.66666666667,1731.6666666667,590.66666666667,1720,619.33333333333,1720,619.33333333333,1806,617.66666666667,1806,617.66666666667,1819.6666666667,590.33333333333,1819.6666666667,590.33333333333"></polygon>
    <polygon data-id="12949" data-sec="2.03" data-build="2" data-floor="7"
             class="s3d-svg__house js-s3d-svg__house"
             points="1573.3333333333,593,1573.3333333333,593,1612,593.33333333333,1612,593.33333333333,1624,563.66666666667,1624,563.66666666667,1584.3333333333,563.66666666667,1584.3333333333,563.66666666667"></polygon>
    <polygon data-id="12948" data-sec="2.03" data-build="2" data-floor="7"
             class="s3d-svg__house js-s3d-svg__house"
             points="1624,564,1624,564,1611.6666666667,593.66666666667,1611.6666666667,593.66666666667,1732,590.66666666667,1732,590.66666666667,1745.6666666667,563,1745.6666666667,563"></polygon>
    <polygon data-id="12947" data-sec="2.03" data-build="2" data-floor="7"
             class="s3d-svg__house js-s3d-svg__house"
             points="1745.3333333333,562.66666666667,1745.3333333333,562.66666666667,1732,590.66666666667,1732,590.66666666667,1819.6666666667,590.66666666667,1819.6666666667,590.66666666667,1834.3333333333,562.33333333333,1834.3333333333,562.33333333333"></polygon>
    <polygon data-id="12956" data-sec="2.03" data-build="2" data-floor="8"
             class="s3d-svg__house js-s3d-svg__house"
             points="1584.3333333333,564.33333333333,1584.3333333333,564.33333333333,1623.6666666667,564,1623.6666666667,564,1636.3333333333,532.33333333333,1636.3333333333,532.33333333333,1596,533.66666666667,1596,533.66666666667"></polygon>
    <polygon data-id="12955" data-sec="2.03" data-build="2" data-floor="8"
             class="s3d-svg__house js-s3d-svg__house"
             points="1635.6666666667,532.66666666667,1635.6666666667,532.66666666667,1623.6666666667,564.33333333333,1623.6666666667,564.33333333333,1745.6666666667,563,1745.6666666667,563,1760.6666666667,530.33333333333,1760.6666666667,530.33333333333"></polygon>
    <polygon data-id="12954" data-sec="2.03" data-build="2" data-floor="8"
             class="s3d-svg__house js-s3d-svg__house"
             points="1760.3333333333,530.66666666667,1760.3333333333,530.66666666667,1745.3333333333,563.33333333333,1745.3333333333,563.33333333333,1834.3333333333,562.33333333333,1834.3333333333,562.33333333333,1852.3333333333,529.66666666667,1852.3333333333,529.66666666667"></polygon>
    <polygon data-id="12963" data-sec="2.03" data-build="2" data-floor="9"
             class="s3d-svg__house js-s3d-svg__house"
             points="1595.3333333333,533.33333333333,1595.3333333333,533.33333333333,1635.3333333333,532.33333333333,1635.3333333333,532.33333333333,1671,442,1671,442,1629.6666666667,443,1629.6666666667,443"></polygon>
    <polygon data-id="12962" data-sec="2.03" data-build="2" data-floor="9"
             class="s3d-svg__house js-s3d-svg__house"
             points="1671,442.33333333333,1671,442.33333333333,1635.3333333333,533.33333333333,1635.3333333333,533.33333333333,1761,530.33333333333,1761,530.33333333333,1803,440.66666666667,1803,440.66666666667"></polygon>
    <polygon data-id="12961" data-sec="2.03" data-build="2" data-floor="9"
             class="s3d-svg__house js-s3d-svg__house"
             points="1802.6666666667,440.66666666667,1802.6666666667,440.66666666667,1760.3333333333,531.33333333333,1760.3333333333,531.33333333333,1852.3333333333,529.66666666667,1852.3333333333,529.66666666667,1899,439.33333333333,1899,439.33333333333"></polygon>
    <polygon data-id="13012" data-sec="2.01" data-build="2" data-floor="9" data-type="flyby" data-flyby="courtyard"
             class="s3d-svg__house js-s3d-svg__house"
             points="477,104,447,154.66666666667,438.66666666667,154.33333333333,373.33333333333,255,365.33333333333,267,374,267.66666666667,324.66666666667,346.66666666667,452.33333333333,348.33333333333,458,334.33333333333,464.33333333333,332.33333333333,469.33333333333,321,558,321.66666666667,563.66666666667,344,675.33333333333,348.33333333333,969,344.66666666667,1609,337.33333333333,1553.6666666667,259.33333333333,1562.3333333333,257,1482.6666666667,147.66666666667,1473.3333333333,148,1439,97,1204.6666666667,98,1203,95.333333333333"></polygon>
</svg>