<svg width="18" height="16" viewBox="0 0 18 16" fill="none" xmlns="http://www.w3.org/2000/svg">
<path fill-rule="evenodd" clip-rule="evenodd" d="M17.6986 7.10868L16.1778 5.81272V1.51594C16.1771 1.38478 16.121 1.25924 16.0218 1.16679C15.9226 1.07434 15.7885 1.0225 15.6487 1.02262H11.9879C11.8481 1.02238 11.7138 1.07417 11.6145 1.16663C11.5152 1.2591 11.459 1.38471 11.4583 1.51594V1.79149L9.62154 0.226642C9.45175 0.0808559 9.22991 0 8.99974 0C8.76956 0 8.54773 0.0808559 8.37794 0.226642L0.300887 7.10868C0.163371 7.22599 0.0669817 7.37965 0.0244256 7.54939C-0.0181305 7.71913 -0.00485487 7.89698 0.0625021 8.0595C0.129859 8.22201 0.248135 8.36157 0.401737 8.45976C0.555339 8.55795 0.737054 8.61017 0.922927 8.60953H2.21296V15.5049C2.21321 15.6364 2.26909 15.7624 2.36832 15.8552C2.46755 15.948 2.60201 16.0001 2.74215 16H7.16939C7.30953 16.0001 7.44398 15.948 7.54321 15.8552C7.64244 15.7624 7.69832 15.6364 7.69857 15.5049V11.3183H10.3004V15.5049C10.3006 15.57 10.3144 15.6345 10.341 15.6946C10.3677 15.7548 10.4068 15.8094 10.456 15.8554C10.5051 15.9013 10.5635 15.9378 10.6277 15.9626C10.6919 15.9874 10.7607 16.0001 10.8301 16H15.2569C15.397 16.0001 15.5315 15.948 15.6307 15.8552C15.7299 15.7624 15.7858 15.6364 15.786 15.5049V8.60997H17.0765C17.2625 8.61071 17.4444 8.55853 17.5981 8.46032C17.7518 8.36211 17.8702 8.22248 17.9375 8.05986C18.0049 7.89725 18.0181 7.71929 17.9755 7.54947C17.9328 7.37965 17.8363 7.22596 17.6986 7.10868Z" fill="white"/>
</svg>
