<svg width="25" height="11" viewBox="0 0 25 11" fill="none" xmlns="http://www.w3.org/2000/svg">
<path fill-rule="evenodd" clip-rule="evenodd" d="M1.74865 10.0062V6.40824C2.1755 6.45092 2.74693 6.45093 3.04297 6.45093C5.41818 6.45093 6.68499 4.91356 6.68499 3.21925C6.68499 1.58276 5.76246 0.0165141 2.82959 0.0165141C2.13424 0.0165141 0.550774 0.0454244 0 0.0454244V10.0089H1.74865V10.0062ZM3.00171 1.65095C4.19275 1.65095 4.83986 2.16315 4.83986 3.20273C4.83986 4.31254 4.02751 4.81099 2.98792 4.81099C2.57395 4.80894 2.16031 4.78597 1.74865 4.74216V1.68121C2.21681 1.66537 2.6437 1.65095 3.00171 1.65095ZM8.70904 10.0062H8.90872C9.8175 10.0062 10.926 10.0351 11.5249 10.0351C15.3253 10.0351 17.2323 7.7287 17.2323 4.92457C17.2323 2.29119 15.6281 0 11.6419 0C10.9121 0 9.49391 0.042693 8.89494 0.042693H8.70904V10.0062ZM11.6144 1.63645C13.9896 1.63645 15.3872 2.91769 15.3872 4.92457C15.3872 7.03128 13.9896 8.39792 11.5869 8.39792C11.339 8.39792 10.9466 8.39791 10.4578 8.36968V1.67915C10.8571 1.65092 11.2014 1.63645 11.6144 1.63645ZM19.2564 10.0062H21.0051V6.13283H24.5232V4.49567H21.0051V1.67709H24.95V0.040592H19.2564V10.0041V10.0062Z" fill="white"/>
</svg>
