<svg preserveAspectRatio="xMidYMid slice" id="floor--svg" viewBox="0 0 1920 1081" version="1.0"
     xmlns="http://www.w3.org/2000/svg">
    <polygon data-id="606" data-sec="1.04" data-build="1" data-floor="1"
             class="s3d-svg__house js-s3d-svg__house"
             points="245.75,659.5,245.75,659.5,245.75,659.5,245.75,659.5,248.25,663,248.25,663,248.25,663,248.25,663,252,663,252,663,252,663,252,663,267.75,694.75,267.75,694.75,267.75,694.75,267.75,694.75,359.75,681.5,359.75,681.5,359.75,681.5,359.75,681.5,344.25,647.25,344.25,647.25,344.25,647.25,344.25,647.25"></polygon>
    <polygon data-id="607" data-sec="1.04" data-build="1" data-floor="1"
             class="s3d-svg__house js-s3d-svg__house"
             points="344,646.75,344,646.75,344,646.75,344,646.75,359.5,682,359.5,682,359.5,682,359.5,682,424.75,674.25,424.75,674.25,424.75,674.25,424.75,674.25,411.5,639.5,411.5,639.5,411.5,639.5,411.5,639.5"></polygon>
    <polygon data-id="608" data-sec="1.04" data-build="1" data-floor="1"
             class="s3d-svg__house js-s3d-svg__house"
             points="410.75,639,410.75,639,410.75,639,410.75,639,424.75,674.5,424.75,674.5,424.75,674.5,424.75,674.5,497,665.25,497,665.25,497,665.25,497,665.25,484.25,632,484.25,632,484.25,632,484.25,632"></polygon>
    <polygon data-id="138" data-sec="1.04" data-build="1" data-floor="2"
             class="s3d-svg__house js-s3d-svg__house"
             points="232,634.5,232,634.5,232,634.5,232,634.5,245.75,659.5,245.75,659.5,245.75,659.5,245.75,659.5,378,642.5,378,642.5,378,642.5,378,642.5,367.5,618.75,367.5,618.75,367.5,618.75,367.5,618.75"></polygon>
    <polygon data-id="137" data-sec="1.04" data-build="1" data-floor="2"
             class="s3d-svg__house js-s3d-svg__house"
             points="367.75,618.75,367.75,618.75,367.75,618.75,367.75,618.75,377.75,643,377.75,643,377.75,643,377.75,643,460.5,634,460.5,634,460.5,634,460.5,634,451,608,451,608,451,608,451,608"></polygon>
    <polygon data-id="136" data-sec="1.04" data-build="1" data-floor="2"
             class="s3d-svg__house js-s3d-svg__house"
             points="451,608,451,608,451,608,451,608,460.5,634,460.5,634,460.5,634,460.5,634,484.5,632.5,484.5,632.5,484.5,632.5,484.5,632.5,473.75,605.25,473.75,605.25,473.75,605.25,473.75,605.25"></polygon>
    <polygon data-id="145" data-sec="1.04" data-build="1" data-floor="3"
             class="s3d-svg__house js-s3d-svg__house"
             points="231.75,635,231.75,635,231.75,635,231.75,635,366.75,618.5,366.75,618.5,366.75,618.5,366.75,618.5,354,587.5,354,587.5,354,587.5,354,587.5,215.5,603.25,215.5,603.25,215.5,603.25,215.5,603.25"></polygon>
    <polygon data-id="144" data-sec="1.04" data-build="1" data-floor="3"
             class="s3d-svg__house js-s3d-svg__house"
             points="353.75,587,353.75,587,353.75,587,353.75,587,366.75,618.25,366.75,618.25,366.75,618.25,366.75,618.25,450.75,607.25,450.75,607.25,450.75,607.25,450.75,607.25,440.25,577,440.25,577,440.25,577,440.25,577"></polygon>
    <polygon data-id="143" data-sec="1.04" data-build="1" data-floor="3"
             class="s3d-svg__house js-s3d-svg__house"
             points="440.5,577,440.5,577,440.5,577,440.5,577,451,607.5,451,607.5,451,607.5,451,607.5,474.25,605,474.25,605,474.25,605,474.25,605,463.5,574.25,463.5,574.25,463.5,574.25,463.5,574.25,463.25,574,463.25,574,463.25,574,463.25,574"></polygon>
    <polygon data-id="152" data-sec="1.04" data-build="1" data-floor="4"
             class="s3d-svg__house js-s3d-svg__house"
             points="214.75,602.75,214.75,602.75,214.75,602.75,214.75,602.75,353.25,586.5,353.25,586.5,353.25,586.5,353.25,586.5,340,556.25,340,556.25,340,556.25,340,556.25,198,571.75,198,571.75,198,571.75,198,571.75"></polygon>
    <polygon data-id="151" data-sec="1.04" data-build="1" data-floor="4"
             class="s3d-svg__house js-s3d-svg__house"
             points="339.75,556.25,339.75,556.25,339.75,556.25,339.75,556.25,353.5,586.75,353.5,586.75,353.5,586.75,353.5,586.75,440.25,576.25,440.25,576.25,440.25,576.25,440.25,576.25,429,546.25,429,546.25,429,546.25,429,546.25"></polygon>
    <polygon data-id="150" data-sec="1.04" data-build="1" data-floor="4"
             class="s3d-svg__house js-s3d-svg__house"
             points="429,545.75,429,545.75,429,545.75,429,545.75,440.5,576.75,440.5,576.75,440.5,576.75,440.5,576.75,463.5,574,463.5,574,463.5,574,463.5,574,453,543.25,453,543.25,453,543.25,453,543.25"></polygon>
    <polygon data-id="159" data-sec="1.04" data-build="1" data-floor="5"
             class="s3d-svg__house js-s3d-svg__house"
             points="198,571.75,198,571.75,198,571.75,198,571.75,340,556.25,340,556.25,340,556.25,340,556.25,327.25,523.25,327.25,523.25,327.25,523.25,327.25,523.25,180.25,538.75,180.25,538.75,180.25,538.75,180.25,538.75"></polygon>
    <polygon data-id="158" data-sec="1.04" data-build="1" data-floor="5"
             class="s3d-svg__house js-s3d-svg__house"
             points="327,523.25,327,523.25,327,523.25,327,523.25,339.75,556.25,339.75,556.25,339.75,556.25,339.75,556.25,429,545.5,429,545.5,429,545.5,429,545.5,417,514,417,514,417,514,417,514"></polygon>
    <polygon data-id="157" data-sec="1.04" data-build="1" data-floor="5"
             class="s3d-svg__house js-s3d-svg__house"
             points="417.25,513.75,417.25,513.75,417.25,513.75,417.25,513.75,428.75,545.5,428.75,545.5,428.75,545.5,428.75,545.5,453.5,543.25,453.5,543.25,453.5,543.25,453.5,543.25,441.5,510.5,441.5,510.5,441.5,510.5,441.5,510.5"></polygon>
    <polygon data-id="166" data-sec="1.04" data-build="1" data-floor="6"
             class="s3d-svg__house js-s3d-svg__house"
             points="179.75,538.5,179.75,538.5,179.75,538.5,179.75,538.5,327.25,523,327.25,523,327.25,523,327.25,523,313.25,490,313.25,490,313.25,490,313.25,490,161.25,503.75,161.25,503.75,161.25,503.75,161.25,503.75"></polygon>
    <polygon data-id="165" data-sec="1.04" data-build="1" data-floor="6"
             class="s3d-svg__house js-s3d-svg__house"
             points="312.75,490,312.75,490,312.75,490,312.75,490,327,522.75,327,522.75,327,522.75,327,522.75,417.5,513.25,417.5,513.25,417.5,513.25,417.5,513.25,405.5,481.5,405.5,481.5,405.5,481.5,405.5,481.5"></polygon>
    <polygon data-id="164" data-sec="1.04" data-build="1" data-floor="6"
             class="s3d-svg__house js-s3d-svg__house"
             points="405.75,481,405.75,481,405.75,481,405.75,481,417.5,513.5,417.5,513.5,417.5,513.5,417.5,513.5,440.75,510.5,440.75,510.5,440.75,510.5,440.75,510.5,430.5,478,430.5,478,430.5,478,430.5,478"></polygon>
    <polygon data-id="173" data-sec="1.04" data-build="1" data-floor="7"
             class="s3d-svg__house js-s3d-svg__house"
             points="161.75,504,161.75,504,161.75,504,161.75,504,312.25,489.5,312.25,489.5,312.25,489.5,312.25,489.5,297.5,453.5,297.5,453.5,297.5,453.5,297.5,453.5,143,467.5,143,467.5,143,467.5,143,467.5"></polygon>
    <polygon data-id="172" data-sec="1.04" data-build="1" data-floor="7"
             class="s3d-svg__house js-s3d-svg__house"
             points="297.25,453.25,297.25,453.25,297.25,453.25,297.25,453.25,312.75,489.75,312.75,489.75,312.75,489.75,312.75,489.75,405,480.5,405,480.5,405,480.5,405,480.5,391.25,445.25,391.25,445.25,391.25,445.25,391.25,445.25"></polygon>
    <polygon data-id="171" data-sec="1.04" data-build="1" data-floor="7"
             class="s3d-svg__house js-s3d-svg__house"
             points="391,444.75,391,444.75,391,444.75,391,444.75,405.5,481.75,405.5,481.75,405.5,481.75,405.5,481.75,430.5,478,430.5,478,430.5,478,430.5,478,417.5,442.5,417.5,442.5,417.5,442.5,417.5,442.5"></polygon>
    <polygon data-id="180" data-sec="1.04" data-build="1" data-floor="8"
             class="s3d-svg__house js-s3d-svg__house"
             points="142.25,467.5,142.25,467.5,142.25,467.5,142.25,467.5,297.5,453,297.5,453,297.5,453,297.5,453,282,417,282,417,282,417,282,417,122.5,430.25,122.5,430.25,122.5,430.25,122.5,430.25"></polygon>
    <polygon data-id="179" data-sec="1.04" data-build="1" data-floor="8"
             class="s3d-svg__house js-s3d-svg__house"
             points="282,417.25,282,417.25,282,417.25,282,417.25,297,452.75,297,452.75,297,452.75,297,452.75,391.25,444.25,391.25,444.25,391.25,444.25,391.25,444.25,378,407.5,378,407.5,378,407.5,378,407.5"></polygon>
    <polygon data-id="178" data-sec="1.04" data-build="1" data-floor="8"
             class="s3d-svg__house js-s3d-svg__house"
             points="378,407.5,378,407.5,378,407.5,378,407.5,391.25,445,391.25,445,391.25,445,391.25,445,417.5,442.5,417.5,442.5,417.5,442.5,417.5,442.5,405,405,405,405,405,405,405,405"></polygon>
    <polygon data-id="646" data-sec="1.04" data-build="1" data-floor="9"
             class="s3d-svg__house js-s3d-svg__house"
             points="122,430.75,122,430.75,122,430.75,122,430.75,282,416.75,282,416.75,282,416.75,282,416.75,238.75,315,238.75,315,238.75,315,238.75,315,67.75,327.75,67.75,327.75,67.75,327.75,67.75,327.75"></polygon>
    <polygon data-id="647" data-sec="1.04" data-build="1" data-floor="9"
             class="s3d-svg__house js-s3d-svg__house"
             points="281.75,417.5,281.75,417.5,281.75,417.5,281.75,417.5,378.5,407.75,378.5,407.75,378.5,407.75,378.5,407.75,366,369.5,366,369.5,366,369.5,366,369.5,391.25,366.25,391.25,366.25,391.25,366.25,391.25,366.25,372.75,310.25,372.75,310.25,372.75,310.25,372.75,310.25,381.5,295.5,381.5,295.5,381.5,295.5,381.5,295.5,343.75,295.5,343.75,295.5,343.75,295.5,343.75,295.5,340.5,298.25,340.5,298.25,340.5,298.25,340.5,298.25,343.5,306.25,343.5,306.25,343.5,306.25,343.5,306.25,238.5,315,238.5,315,238.5,315,238.5,315"></polygon>
    <polygon data-id="648" data-sec="1.04" data-build="1" data-floor="9"
             class="s3d-svg__house js-s3d-svg__house"
             points="366.25,369.5,366.25,369.5,366.25,369.5,366.25,369.5,378.25,407.25,378.25,407.25,378.25,407.25,378.25,407.25,404.75,405,404.75,405,404.75,405,404.75,405,391,366.25,391,366.25,391,366.25,391,366.25"></polygon>
    <polygon data-id="612" data-sec="1.05" data-build="1" data-floor="1"
             class="s3d-svg__house js-s3d-svg__house"
             points="490.75,648.5,490.75,648.5,490.75,648.5,490.75,648.5,503,681.75,503,681.75,503,681.75,503,681.75,533.25,679.5,533.25,679.5,533.25,679.5,533.25,679.5,521.75,644.5,521.75,644.5,521.75,644.5,521.75,644.5"></polygon>
    <polygon data-id="611" data-sec="1.05" data-build="1" data-floor="1"
             class="s3d-svg__house js-s3d-svg__house"
             points="521.5,644.25,521.5,644.25,521.5,644.25,521.5,644.25,533.25,679.5,533.25,679.5,533.25,679.5,533.25,679.5,659,662.75,659,662.75,659,662.75,659,662.75,651.25,628,651.25,628,651.25,628,651.25,628"></polygon>
    <polygon data-id="610" data-sec="1.05" data-build="1" data-floor="1"
             class="s3d-svg__house js-s3d-svg__house"
             points="678.75,625.5,678.75,625.5,678.75,625.5,678.75,625.5,686,659.5,686,659.5,686,659.5,686,659.5,840,640,840,640,840,640,840,640,837,606,837,606,837,606,837,606"></polygon>
    <polygon data-id="609" data-sec="1.05" data-build="1" data-floor="1"
             class="s3d-svg__house js-s3d-svg__house"
             points="836.75,605.5,836.75,605.5,836.75,605.5,836.75,605.5,840,631.25,840,631.25,840,631.25,840,631.25,858.75,628.75,858.75,628.75,858.75,628.75,858.75,628.75,860.25,634.25,860.25,634.25,860.25,634.25,860.25,634.25,864.25,634.25,864.25,634.25,864.25,634.25,864.25,634.25,862.25,602.5,862.25,602.5,862.25,602.5,862.25,602.5"></polygon>
    <polygon data-id="189" data-sec="1.05" data-build="1" data-floor="2"
             class="s3d-svg__house js-s3d-svg__house"
             points="490.25,648.5,490.25,648.5,490.25,648.5,490.25,648.5,585,635.75,585,635.75,585,635.75,585,635.75,578.25,609.25,578.25,609.25,578.25,609.25,578.25,609.25,481,621.25,481,621.25,481,621.25,481,621.25"></polygon>
    <polygon data-id="188" data-sec="1.05" data-build="1" data-floor="2"
             class="s3d-svg__house js-s3d-svg__house"
             points="577.75,609,577.75,609,577.75,609,577.75,609,585,636,585,636,585,636,585,636,679.5,624.5,679.5,624.5,679.5,624.5,679.5,624.5,674,596.25,674,596.25,674,596.25,674,596.25"></polygon>
    <polygon data-id="187" data-sec="1.05" data-build="1" data-floor="2"
             class="s3d-svg__house js-s3d-svg__house"
             points="673.75,595.75,673.75,595.75,673.75,595.75,673.75,595.75,678.75,625.25,678.75,625.25,678.75,625.25,678.75,625.25,774.75,612.75,774.75,612.75,774.75,612.75,774.75,612.75,771.5,584.75,771.5,584.75,771.5,584.75,771.5,584.75"></polygon>
    <polygon data-id="186" data-sec="1.05" data-build="1" data-floor="2"
             class="s3d-svg__house js-s3d-svg__house"
             points="771,584.25,771,584.25,771,584.25,771,584.25,775,614,775,614,775,614,775,614,862.5,602.75,862.5,602.75,862.5,602.75,862.5,602.75,860.25,573.75,860.25,573.75,860.25,573.75,860.25,573.75"></polygon>
    <polygon data-id="195" data-sec="1.05" data-build="1" data-floor="3"
             class="s3d-svg__house js-s3d-svg__house"
             points="480.25,621.25,480.25,621.25,480.25,621.25,480.25,621.25,578,609.25,578,609.25,578,609.25,578,609.25,569.5,578.5,569.5,578.5,569.5,578.5,569.5,578.5,470.5,591.5,470.5,591.5,470.5,591.5,470.5,591.5"></polygon>
    <polygon data-id="194" data-sec="1.05" data-build="1" data-floor="3"
             class="s3d-svg__house js-s3d-svg__house"
             points="569.25,578.5,569.25,578.5,569.25,578.5,569.25,578.5,578,609.75,578,609.75,578,609.75,578,609.75,674.25,595.5,674.25,595.5,674.25,595.5,674.25,595.5,669.25,565,669.25,565,669.25,565,669.25,565"></polygon>
    <polygon data-id="193" data-sec="1.05" data-build="1" data-floor="3"
             class="s3d-svg__house js-s3d-svg__house"
             points="668.75,565.25,668.75,565.25,668.75,565.25,668.75,565.25,674.25,596,674.25,596,674.25,596,674.25,596,771.5,584.5,771.5,584.5,771.5,584.5,771.5,584.5,767.5,554.5,767.5,554.5,767.5,554.5,767.5,554.5,767.25,552.75,767.25,552.75,767.25,552.75,767.25,552.75"></polygon>
    <polygon data-id="192" data-sec="1.05" data-build="1" data-floor="3"
             class="s3d-svg__house js-s3d-svg__house"
             points="767,553.75,767,553.75,767,553.75,767,553.75,771.25,584.5,771.25,584.5,771.25,584.5,771.25,584.5,860.25,573.5,860.25,573.5,860.25,573.5,860.25,573.5,858.5,542.5,858.5,542.5,858.5,542.5,858.5,542.5"></polygon>
    <polygon data-id="201" data-sec="1.05" data-build="1" data-floor="4"
             class="s3d-svg__house js-s3d-svg__house"
             points="470,591.5,470,591.5,470,591.5,470,591.5,569,578.25,569,578.25,569,578.25,569,578.25,561,547.25,561,547.25,561,547.25,561,547.25,458.75,558.75,458.75,558.75,458.75,558.75,458.75,558.75"></polygon>
    <polygon data-id="199" data-sec="1.05" data-build="1" data-floor="4"
             class="s3d-svg__house js-s3d-svg__house"
             points="662.25,534.25,662.25,534.25,662.25,534.25,662.25,534.25,668.25,565.25,668.25,565.25,668.25,565.25,668.25,565.25,767.25,552.75,767.25,552.75,767.25,552.75,767.25,552.75,762.75,522.75,762.75,522.75,762.75,522.75,762.75,522.75"></polygon>
    <polygon data-id="200" data-sec="1.05" data-build="1" data-floor="4"
             class="s3d-svg__house js-s3d-svg__house"
             points="561,547,561,547,561,547,561,547,569.25,578,569.25,578,569.25,578,569.25,578,668,564.5,668,564.5,668,564.5,668,564.5,662,534.25,662,534.25,662,534.25,662,534.25"></polygon>
    <polygon data-id="198" data-sec="1.05" data-build="1" data-floor="4"
             class="s3d-svg__house js-s3d-svg__house"
             points="762.75,522.5,762.75,522.5,762.75,522.5,762.75,522.5,767.25,553.25,767.25,553.25,767.25,553.25,767.25,553.25,858.25,542,858.25,542,858.25,542,858.25,542,855.75,511.5,855.75,511.5,855.75,511.5,855.75,511.5"></polygon>
    <polygon data-id="207" data-sec="1.05" data-build="1" data-floor="5"
             class="s3d-svg__house js-s3d-svg__house"
             points="458.75,558.75,458.75,558.75,458.75,558.75,458.75,558.75,561,546.5,561,546.5,561,546.5,561,546.5,553,515,553,515,553,515,553,515,447.5,526,447.5,526,447.5,526,447.5,526"></polygon>
    <polygon data-id="206" data-sec="1.05" data-build="1" data-floor="5"
             class="s3d-svg__house js-s3d-svg__house"
             points="552.75,515,552.75,515,552.75,515,552.75,515,561,547,561,547,561,547,561,547,661.75,534.25,661.75,534.25,661.75,534.25,661.75,534.25,656.25,503.25,656.25,503.25,656.25,503.25,656.25,503.25"></polygon>
    <polygon data-id="205" data-sec="1.05" data-build="1" data-floor="5"
             class="s3d-svg__house js-s3d-svg__house"
             points="655.75,503,655.75,503,655.75,503,655.75,503,662,533.75,662,533.75,662,533.75,662,533.75,763.25,522,763.25,522,763.25,522,763.25,522,758.75,492.25,758.75,492.25,758.75,492.25,758.75,492.25,759,491,759,491,759,491,759,491"></polygon>
    <polygon data-id="204" data-sec="1.05" data-build="1" data-floor="5"
             class="s3d-svg__house js-s3d-svg__house"
             points="758.75,491,758.75,491,758.75,491,758.75,491,762.75,522.25,762.75,522.25,762.75,522.25,762.75,522.25,856.5,511.75,856.5,511.75,856.5,511.75,856.5,511.75,854.25,480.5,854.25,480.5,854.25,480.5,854.25,480.5"></polygon>
    <polygon data-id="213" data-sec="1.05" data-build="1" data-floor="6"
             class="s3d-svg__house js-s3d-svg__house"
             points="447,525.75,447,525.75,447,525.75,447,525.75,553,514.75,553,514.75,553,514.75,553,514.75,544.25,483,544.25,483,544.25,483,544.25,483,436.25,493.75,436.25,493.75,436.25,493.75,436.25,493.75"></polygon>
    <polygon data-id="212" data-sec="1.05" data-build="1" data-floor="6"
             class="s3d-svg__house js-s3d-svg__house"
             points="544,483.25,544,483.25,544,483.25,544,483.25,552.75,515.25,552.75,515.25,552.75,515.25,552.75,515.25,656,503,656,503,656,503,656,503,649.75,472.25,649.75,472.25,649.75,472.25,649.75,472.25,649.5,471.5,649.5,471.5,649.5,471.5,649.5,471.5"></polygon>
    <polygon data-id="211" data-sec="1.05" data-build="1" data-floor="6"
             class="s3d-svg__house js-s3d-svg__house"
             points="649.75,470.75,649.75,470.75,649.75,470.75,649.75,470.75,655.75,502.5,655.75,502.5,655.75,502.5,655.75,502.5,759.25,491.25,759.25,491.25,759.25,491.25,759.25,491.25,755.25,461,755.25,461,755.25,461,755.25,461,755.25,460.25,755.25,460.25,755.25,460.25,755.25,460.25,754.75,459,754.75,459,754.75,459,754.75,459"></polygon>
    <polygon data-id="210" data-sec="1.05" data-build="1" data-floor="6"
             class="s3d-svg__house js-s3d-svg__house"
             points="754.75,459,754.75,459,754.75,459,754.75,459,759.25,491,759.25,491,759.25,491,759.25,491,854.5,480,854.5,480,854.5,480,854.5,480,852.25,448.25,852.25,448.25,852.25,448.25,852.25,448.25"></polygon>
    <polygon data-id="219" data-sec="1.05" data-build="1" data-floor="7"
             class="s3d-svg__house js-s3d-svg__house"
             points="436,493.75,436,493.75,436,493.75,436,493.75,543.5,482.25,543.5,482.25,543.5,482.25,543.5,482.25,533.75,446,533.75,446,533.75,446,533.75,446,422.75,456.75,422.75,456.75,422.75,456.75,422.75,456.75"></polygon>
    <polygon data-id="218" data-sec="1.05" data-build="1" data-floor="7"
             class="s3d-svg__house js-s3d-svg__house"
             points="533.75,446,533.75,446,533.75,446,533.75,446,544,483,544,483,544,483,544,483,649.5,470.25,649.5,470.25,649.5,470.25,649.5,470.25,642.5,434.5,642.5,434.5,642.5,434.5,642.5,434.5"></polygon>
    <polygon data-id="217" data-sec="1.05" data-build="1" data-floor="7"
             class="s3d-svg__house js-s3d-svg__house"
             points="642,434,642,434,642,434,642,434,650,471.25,650,471.25,650,471.25,650,471.25,754.75,459,754.75,459,754.75,459,754.75,459,749.5,423.5,749.5,423.5,749.5,423.5,749.5,423.5"></polygon>
    <polygon data-id="216" data-sec="1.05" data-build="1" data-floor="7"
             class="s3d-svg__house js-s3d-svg__house"
             points="749.75,423.25,749.75,423.25,749.75,423.25,749.75,423.25,754.75,459,754.75,459,754.75,459,754.75,459,852.25,448,852.25,448,852.25,448,852.25,448,849.25,413.5,849.25,413.5,849.25,413.5,849.25,413.5"></polygon>
    <polygon data-id="225" data-sec="1.05" data-build="1" data-floor="8"
             class="s3d-svg__house js-s3d-svg__house"
             points="422.25,456.25,422.25,456.25,422.25,456.25,422.25,456.25,533.75,446.5,533.75,446.5,533.75,446.5,533.75,446.5,525,411.25,525,411.25,525,411.25,525,411.25,410.75,421.25,410.75,421.25,410.75,421.25,410.75,421.25"></polygon>
    <polygon data-id="224" data-sec="1.05" data-build="1" data-floor="8"
             class="s3d-svg__house js-s3d-svg__house"
             points="524.75,411,524.75,411,524.75,411,524.75,411,533.5,446.25,533.5,446.25,533.5,446.25,533.5,446.25,642,433.75,642,433.75,642,433.75,642,433.75,635.5,399.25,635.5,399.25,635.5,399.25,635.5,399.25"></polygon>
    <polygon data-id="223" data-sec="1.05" data-build="1" data-floor="8"
             class="s3d-svg__house js-s3d-svg__house"
             points="635.5,398.5,635.5,398.5,635.5,398.5,635.5,398.5,642,434,642,434,642,434,642,434,749.5,422.75,749.5,422.75,749.5,422.75,749.5,422.75,744.5,388.5,744.5,388.5,744.5,388.5,744.5,388.5,745,387.75,745,387.75,745,387.75,745,387.75"></polygon>
    <polygon data-id="222" data-sec="1.05" data-build="1" data-floor="8"
             class="s3d-svg__house js-s3d-svg__house"
             points="745,387.5,745,387.5,745,387.5,745,387.5,749.5,423.5,749.5,423.5,749.5,423.5,749.5,423.5,849,413.25,849,413.25,849,413.25,849,413.25,846.75,378.5,846.75,378.5,846.75,378.5,846.75,378.5"></polygon>
    <polygon data-id="639" data-sec="1.05" data-build="1" data-floor="9"
             class="s3d-svg__house js-s3d-svg__house"
             points="372.75,309.75,372.75,309.75,372.75,309.75,372.75,309.75,410.75,421,410.75,421,410.75,421,410.75,421,525,410.75,525,410.75,525,410.75,525,410.75,494.75,302.25,494.75,302.25,494.75,302.25,494.75,302.25"></polygon>
    <polygon data-id="640" data-sec="1.05" data-build="1" data-floor="9"
             class="s3d-svg__house js-s3d-svg__house"
             points="494.5,301.75,494.5,301.75,494.5,301.75,494.5,301.75,525,411,525,411,525,411,525,411,635,398.75,635,398.75,635,398.75,635,398.75,615.75,295,615.75,295,615.75,295,615.75,295"></polygon>
    <polygon data-id="641" data-sec="1.05" data-build="1" data-floor="9"
             class="s3d-svg__house js-s3d-svg__house"
             points="615.25,294.75,615.25,294.75,615.25,294.75,615.25,294.75,635,399.75,635,399.75,635,399.75,635,399.75,744,387.25,744,387.25,744,387.25,744,387.25,731,285.75,731,285.75,731,285.75,731,285.75"></polygon>
    <polygon data-id="636" data-sec="1.05" data-build="1" data-floor="9"
             class="s3d-svg__house js-s3d-svg__house"
             points="731,285.25,731,285.25,731,285.25,731,285.25,744,387.5,744,387.5,744,387.5,744,387.5,846.75,378.5,846.75,378.5,846.75,378.5,846.75,378.5,839.25,277,839.25,277,839.25,277,839.25,277"></polygon>
    <polygon data-id="656" data-sec="1.06" data-build="1" data-floor="1"
             class="s3d-svg__house js-s3d-svg__house"
             points="918.25,613.25,918.25,613.25,918.25,613.25,918.25,613.25,918.25,647,918.25,647,918.25,647,918.25,647,1010.75,633.25,1010.75,633.25,1010.75,633.25,1010.75,633.25,1012,601.5,1012,601.5,1012,601.5,1012,601.5"></polygon>
    <polygon data-id="657" data-sec="1.06" data-build="1" data-floor="1"
             class="s3d-svg__house js-s3d-svg__house"
             points="1055.75,595.75,1055.75,595.75,1055.75,595.75,1055.75,595.75,1054.5,629.25,1054.5,629.25,1054.5,629.25,1054.5,629.25,1127.25,620.25,1127.25,620.25,1127.25,620.25,1127.25,620.25,1131,586.25,1131,586.25,1131,586.25,1131,586.25"></polygon>
    <polygon data-id="658" data-sec="1.06" data-build="1" data-floor="1"
             class="s3d-svg__house js-s3d-svg__house"
             points="1131.25,585.5,1131.25,585.5,1131.25,585.5,1131.25,585.5,1127.5,620.75,1127.5,620.75,1127.5,620.75,1127.5,620.75,1200,610.75,1200,610.75,1200,610.75,1200,610.75,1206,577.75,1206,577.75,1206,577.75,1206,577.75"></polygon>
    <polygon data-id="231" data-sec="1.06" data-build="1" data-floor="2"
             class="s3d-svg__house js-s3d-svg__house"
             points="936.5,610.75,936.5,610.75,936.5,610.75,936.5,610.75,1054.5,594.25,1054.5,594.25,1054.5,594.25,1054.5,594.25,1056.25,566.25,1056.25,566.25,1056.25,566.25,1056.25,566.25,936.5,581,936.5,581,936.5,581,936.5,581"></polygon>
    <polygon data-id="230" data-sec="1.06" data-build="1" data-floor="2"
             class="s3d-svg__house js-s3d-svg__house"
             points="1056,566.5,1056,566.5,1056,566.5,1056,566.5,1054.25,594.5,1054.25,594.5,1054.25,594.5,1054.25,594.5,1137.75,584.25,1137.75,584.25,1137.75,584.25,1137.75,584.25,1141.25,557,1141.25,557,1141.25,557,1141.25,557"></polygon>
    <polygon data-id="229" data-sec="1.06" data-build="1" data-floor="2"
             class="s3d-svg__house js-s3d-svg__house"
             points="1141.25,556.75,1141.25,556.75,1141.25,556.75,1141.25,556.75,1138,584.5,1138,584.5,1138,584.5,1138,584.5,1206.5,577.75,1206.5,577.75,1206.5,577.75,1206.5,577.75,1212,549,1212,549,1212,549,1212,549"></polygon>
    <polygon data-id="232" data-sec="1.06" data-build="1" data-floor="3"
             class="s3d-svg__house js-s3d-svg__house"
             points="862,590.5,862,590.5,862,590.5,862,590.5,898.5,585.5,898.5,585.5,898.5,585.5,898.5,585.5,898,556.25,898,556.25,898,556.25,898,556.25,860,560.5,860,560.5,860,560.5,860,560.5"></polygon>
    <polygon data-id="239" data-sec="1.06" data-build="1" data-floor="3"
             class="s3d-svg__house js-s3d-svg__house"
             points="898,556,898,556,898,556,898,556,898.75,585.5,898.75,585.5,898.75,585.5,898.75,585.5,970.5,575.75,970.5,575.75,970.5,575.75,970.5,575.75,970.25,548.25,970.25,548.25,970.25,548.25,970.25,548.25,970.25,547.25,970.25,547.25,970.25,547.25,970.25,547.25"></polygon>
    <polygon data-id="238" data-sec="1.06" data-build="1" data-floor="3"
             class="s3d-svg__house js-s3d-svg__house"
             points="970,547.25,970,547.25,970,547.25,970,547.25,970.5,576.5,970.5,576.5,970.5,576.5,970.5,576.5,1057,565.75,1057,565.75,1057,565.75,1057,565.75,1058.25,537.75,1058.25,537.75,1058.25,537.75,1058.25,537.75"></polygon>
    <polygon data-id="237" data-sec="1.06" data-build="1" data-floor="3"
             class="s3d-svg__house js-s3d-svg__house"
             points="1058,537.5,1058,537.5,1058,537.5,1058,537.5,1056.75,566,1056.75,566,1056.75,566,1056.75,566,1143,556,1143,556,1143,556,1143,556,1146.5,528.5,1146.5,528.5,1146.5,528.5,1146.5,528.5"></polygon>
    <polygon data-id="236" data-sec="1.06" data-build="1" data-floor="3"
             class="s3d-svg__house js-s3d-svg__house"
             points="1146.5,528,1146.5,528,1146.5,528,1146.5,528,1143,556.5,1143,556.5,1143,556.5,1143,556.5,1211.75,548.75,1211.75,548.75,1211.75,548.75,1211.75,548.75,1217,520,1217,520,1217,520,1217,520"></polygon>
    <polygon data-id="240" data-sec="1.06" data-build="1" data-floor="4"
             class="s3d-svg__house js-s3d-svg__house"
             points="859.75,560.25,859.75,560.25,859.75,560.25,859.75,560.25,898,555.25,898,555.25,898,555.25,898,555.25,897,526.5,897,526.5,897,526.5,897,526.5,857.75,530.25,857.75,530.25,857.75,530.25,857.75,530.25"></polygon>
    <polygon data-id="247" data-sec="1.06" data-build="1" data-floor="4"
             class="s3d-svg__house js-s3d-svg__house"
             points="897,525.75,897,525.75,897,525.75,897,525.75,898,556,898,556,898,556,898,556,970.5,547.25,970.5,547.25,970.5,547.25,970.5,547.25,970.25,517.75,970.25,517.75,970.25,517.75,970.25,517.75"></polygon>
    <polygon data-id="246" data-sec="1.06" data-build="1" data-floor="4"
             class="s3d-svg__house js-s3d-svg__house"
             points="970,517.5,970,517.5,970,517.5,970,517.5,970.5,547.25,970.5,547.25,970.5,547.25,970.5,547.25,1059,537.5,1059,537.5,1059,537.5,1059,537.5,1060.75,507.5,1060.75,507.5,1060.75,507.5,1060.75,507.5"></polygon>
    <polygon data-id="245" data-sec="1.06" data-build="1" data-floor="4"
             class="s3d-svg__house js-s3d-svg__house"
             points="1060.5,507.25,1060.5,507.25,1060.5,507.25,1060.5,507.25,1058.5,537.75,1058.5,537.75,1058.5,537.75,1058.5,537.75,1146,528.5,1146,528.5,1146,528.5,1146,528.5,1149.5,499.5,1149.5,499.5,1149.5,499.5,1149.5,499.5,1148.75,498.75,1148.75,498.75,1148.75,498.75,1148.75,498.75"></polygon>
    <polygon data-id="244" data-sec="1.06" data-build="1" data-floor="4"
             class="s3d-svg__house js-s3d-svg__house"
             points="1149.5,498.25,1149.5,498.25,1149.5,498.25,1149.5,498.25,1146,528.75,1146,528.75,1146,528.75,1146,528.75,1216.75,520,1216.75,520,1216.75,520,1216.75,520,1222.25,489.75,1222.25,489.75,1222.25,489.75,1222.25,489.75"></polygon>
    <polygon data-id="248" data-sec="1.06" data-build="1" data-floor="5"
             class="s3d-svg__house js-s3d-svg__house"
             points="857.75,530,857.75,530,857.75,530,857.75,530,896.5,525.5,896.5,525.5,896.5,525.5,896.5,525.5,895.5,493,895.5,493,895.5,493,895.5,493,855.5,496.75,855.5,496.75,855.5,496.75,855.5,496.75"></polygon>
    <polygon data-id="255" data-sec="1.06" data-build="1" data-floor="5"
             class="s3d-svg__house js-s3d-svg__house"
             points="895.75,492.75,895.75,492.75,895.75,492.75,895.75,492.75,896.75,525.75,896.75,525.75,896.75,525.75,896.75,525.75,970.25,517,970.25,517,970.25,517,970.25,517,970.75,484.75,970.75,484.75,970.75,484.75,970.75,484.75"></polygon>
    <polygon data-id="254" data-sec="1.06" data-build="1" data-floor="5"
             class="s3d-svg__house js-s3d-svg__house"
             points="970.75,485,970.75,485,970.75,485,970.75,485,970,517.75,970,517.75,970,517.75,970,517.75,1060.5,507.25,1060.5,507.25,1060.5,507.25,1060.5,507.25,1063.25,475.75,1063.25,475.75,1063.25,475.75,1063.25,475.75,1063,475.75,1063,475.75,1063,475.75,1063,475.75"></polygon>
    <polygon data-id="253" data-sec="1.06" data-build="1" data-floor="5"
             class="s3d-svg__house js-s3d-svg__house"
             points="1062.75,475.75,1062.75,475.75,1062.75,475.75,1062.75,475.75,1060.75,507.75,1060.75,507.75,1060.75,507.75,1060.75,507.75,1149.75,498.25,1149.75,498.25,1149.75,498.25,1149.75,498.25,1152.75,467.5,1152.75,467.5,1152.75,467.5,1152.75,467.5"></polygon>
    <polygon data-id="252" data-sec="1.06" data-build="1" data-floor="5"
             class="s3d-svg__house js-s3d-svg__house"
             points="1153,467,1153,467,1153,467,1153,467,1149.75,498.5,1149.75,498.5,1149.75,498.5,1149.75,498.5,1221.5,489.75,1221.5,489.75,1221.5,489.75,1221.5,489.75,1227,460,1227,460,1227,460,1227,460,1226.5,459.25,1226.5,459.25,1226.5,459.25,1226.5,459.25"></polygon>
    <polygon data-id="256" data-sec="1.06" data-build="1" data-floor="6"
             class="s3d-svg__house js-s3d-svg__house"
             points="855.5,496.75,855.5,496.75,855.5,496.75,855.5,496.75,895.5,492.5,895.5,492.5,895.5,492.5,895.5,492.5,894.75,460.75,894.75,460.75,894.75,460.75,894.75,460.75,853.5,464.75,853.5,464.75,853.5,464.75,853.5,464.75"></polygon>
    <polygon data-id="263" data-sec="1.06" data-build="1" data-floor="6"
             class="s3d-svg__house js-s3d-svg__house"
             points="894.5,460.75,894.5,460.75,894.5,460.75,894.5,460.75,895.5,492.75,895.5,492.75,895.5,492.75,895.5,492.75,970.5,485,970.5,485,970.5,485,970.5,485,971.75,452.75,971.75,452.75,971.75,452.75,971.75,452.75"></polygon>
    <polygon data-id="262" data-sec="1.06" data-build="1" data-floor="6"
             class="s3d-svg__house js-s3d-svg__house"
             points="971.75,452.75,971.75,452.75,971.75,452.75,971.75,452.75,970.5,485,970.5,485,970.5,485,970.5,485,1063.25,476,1063.25,476,1063.25,476,1063.25,476,1065.25,443.5,1065.25,443.5,1065.25,443.5,1065.25,443.5,1065.5,442.75,1065.5,442.75,1065.5,442.75,1065.5,442.75"></polygon>
    <polygon data-id="261" data-sec="1.06" data-build="1" data-floor="6"
             class="s3d-svg__house js-s3d-svg__house"
             points="1065.25,443.25,1065.25,443.25,1065.25,443.25,1065.25,443.25,1063.25,475.75,1063.25,475.75,1063.25,475.75,1063.25,475.75,1153,467.25,1153,467.25,1153,467.25,1153,467.25,1157,435,1157,435,1157,435,1157,435"></polygon>
    <polygon data-id="260" data-sec="1.06" data-build="1" data-floor="6"
             class="s3d-svg__house js-s3d-svg__house"
             points="1157.25,434.75,1157.25,434.75,1157.25,434.75,1157.25,434.75,1153.25,467.25,1153.25,467.25,1153.25,467.25,1153.25,467.25,1226.5,459,1226.5,459,1226.5,459,1226.5,459,1232.25,426.75,1232.25,426.75,1232.25,426.75,1232.25,426.75"></polygon>
    <polygon data-id="264" data-sec="1.06" data-build="1" data-floor="7"
             class="s3d-svg__house js-s3d-svg__house"
             points="853.5,465.25,853.5,465.25,853.5,465.25,853.5,465.25,894.75,460.25,894.75,460.25,894.75,460.25,894.75,460.25,893,425,893,425,893,425,893,425,851,429,851,429,851,429,851,429"></polygon>
    <polygon data-id="271" data-sec="1.06" data-build="1" data-floor="7"
             class="s3d-svg__house js-s3d-svg__house"
             points="893,425,893,425,893,425,893,425,894.25,460.5,894.25,460.5,894.25,460.5,894.25,460.5,971.25,452.75,971.25,452.75,971.25,452.75,971.25,452.75,971,418,971,418,971,418,971,418,971,417.5,971,417.5,971,417.5,971,417.5"></polygon>
    <polygon data-id="270" data-sec="1.06" data-build="1" data-floor="7"
             class="s3d-svg__house js-s3d-svg__house"
             points="970.75,417,970.75,417,970.75,417,970.75,417,971.5,452.75,971.5,452.75,971.5,452.75,971.5,452.75,1065.25,443.25,1065.25,443.25,1065.25,443.25,1065.25,443.25,1067.25,409.25,1067.25,409.25,1067.25,409.25,1067.25,409.25"></polygon>
    <polygon data-id="269" data-sec="1.06" data-build="1" data-floor="7"
             class="s3d-svg__house js-s3d-svg__house"
             points="1066.75,409.25,1066.75,409.25,1066.75,409.25,1066.75,409.25,1065,443,1065,443,1065,443,1065,443,1156.75,435.5,1156.75,435.5,1156.75,435.5,1156.75,435.5,1161,400.75,1161,400.75,1161,400.75,1161,400.75"></polygon>
    <polygon data-id="268" data-sec="1.06" data-build="1" data-floor="7"
             class="s3d-svg__house js-s3d-svg__house"
             points="1161,400.75,1161,400.75,1161,400.75,1161,400.75,1156.75,434.5,1156.75,434.5,1156.75,434.5,1156.75,434.5,1232.25,427,1232.25,427,1232.25,427,1232.25,427,1238.75,393.5,1238.75,393.5,1238.75,393.5,1238.75,393.5"></polygon>
    <polygon data-id="272" data-sec="1.06" data-build="1" data-floor="8"
             class="s3d-svg__house js-s3d-svg__house"
             points="851,428.75,851,428.75,851,428.75,851,428.75,893.25,424.75,893.25,424.75,893.25,424.75,893.25,424.75,892.75,388.25,892.75,388.25,892.75,388.25,892.75,388.25,847.75,392.75,847.75,392.75,847.75,392.75,847.75,392.75"></polygon>
    <polygon data-id="279" data-sec="1.06" data-build="1" data-floor="8"
             class="s3d-svg__house js-s3d-svg__house"
             points="892.5,388,892.5,388,892.5,388,892.5,388,893,424.75,893,424.75,893,424.75,893,424.75,971.25,416.75,971.25,416.75,971.25,416.75,971.25,416.75,971,382.5,971,382.5,971,382.5,971,382.5,971.25,381.75,971.25,381.75,971.25,381.75,971.25,381.75"></polygon>
    <polygon data-id="278" data-sec="1.06" data-build="1" data-floor="8"
             class="s3d-svg__house js-s3d-svg__house"
             points="971,382,971,382,971,382,971,382,971,417,971,417,971,417,971,417,1066.75,408.5,1066.75,408.5,1066.75,408.5,1066.75,408.5,1069.75,376,1069.75,376,1069.75,376,1069.75,376,1069.75,374.75,1069.75,374.75,1069.75,374.75,1069.75,374.75,1069.75,374.25,1069.75,374.25,1069.75,374.25,1069.75,374.25"></polygon>
    <polygon data-id="277" data-sec="1.06" data-build="1" data-floor="8"
             class="s3d-svg__house js-s3d-svg__house"
             points="1069.5,373.5,1069.5,373.5,1069.5,373.5,1069.5,373.5,1067,409,1067,409,1067,409,1067,409,1161.25,401,1161.25,401,1161.25,401,1161.25,401,1166.5,365.75,1166.5,365.75,1166.5,365.75,1166.5,365.75"></polygon>
    <polygon data-id="276" data-sec="1.06" data-build="1" data-floor="8"
             class="s3d-svg__house js-s3d-svg__house"
             points="1166.25,364.75,1166.25,364.75,1166.25,364.75,1166.25,364.75,1161.5,400.5,1161.5,400.5,1161.5,400.5,1161.5,400.5,1238.5,393.25,1238.5,393.25,1238.5,393.25,1238.5,393.25,1244.75,357.75,1244.75,357.75,1244.75,357.75,1244.75,357.75"></polygon>
    <polygon data-id="283" data-sec="1.06" data-build="1" data-floor="9"
             class="s3d-svg__house js-s3d-svg__house"
             points="848,393,848,393,848,393,848,393,892.75,387.75,892.75,387.75,892.75,387.75,892.75,387.75,889.75,285.75,889.75,285.75,889.75,285.75,889.75,285.75,844,289.25,844,289.25,844,289.25,844,289.25,840.25,282,840.25,282,840.25,282,840.25,282"></polygon>
    <polygon data-id="284" data-sec="1.06" data-build="1" data-floor="9"
             class="s3d-svg__house js-s3d-svg__house"
             points="889.5,285.75,889.5,285.75,889.5,285.75,889.5,285.75,892.75,387.5,892.75,387.5,892.75,387.5,892.75,387.5,972,381.25,972,381.25,972,381.25,972,381.25,973.5,280,973.5,280,973.5,280,973.5,280"></polygon>
    <polygon data-id="285" data-sec="1.06" data-build="1" data-floor="9"
             class="s3d-svg__house js-s3d-svg__house"
             points="971.75,381.25,971.75,381.25,971.75,381.25,971.75,381.25,1069.75,373,1069.75,373,1069.75,373,1069.75,373,1076.25,272,1076.25,272,1076.25,272,1076.25,272,973.75,279.25,973.75,279.25,973.75,279.25,973.75,279.25"></polygon>
    <polygon data-id="286" data-sec="1.06" data-build="1" data-floor="9"
             class="s3d-svg__house js-s3d-svg__house"
             points="1076.25,271.25,1076.25,271.25,1076.25,271.25,1076.25,271.25,1069.75,373,1069.75,373,1069.75,373,1069.75,373,1166.25,364.75,1166.25,364.75,1166.25,364.75,1166.25,364.75,1178.5,265.5,1178.5,265.5,1178.5,265.5,1178.5,265.5"></polygon>
    <polygon data-id="287" data-sec="1.06" data-build="1" data-floor="9"
             class="s3d-svg__house js-s3d-svg__house"
             points="1178.75,264.5,1178.75,264.5,1178.75,264.5,1178.75,264.5,1166.25,364,1166.25,364,1166.25,364,1166.25,364,1244.75,357.75,1244.75,357.75,1244.75,357.75,1244.75,357.75,1264.25,262.75,1264.25,262.75,1264.25,262.75,1264.25,262.75,1260.75,259.75,1260.75,259.75,1260.75,259.75,1260.75,259.75"></polygon>
    <polygon data-id="659" data-sec="1.07" data-build="1" data-floor="1"
             class="s3d-svg__house js-s3d-svg__house"
             points="1205.75,577.25,1205.75,577.25,1205.75,577.25,1205.75,577.25,1199.5,611.5,1199.5,611.5,1199.5,611.5,1199.5,611.5,1211.5,627.5,1211.5,627.5,1211.5,627.5,1211.5,627.5,1271.75,619,1271.75,619,1271.75,619,1271.75,619,1280.75,585,1280.75,585,1280.75,585,1280.75,585,1217,593,1217,593,1217,593,1217,593"></polygon>
    <polygon data-id="660" data-sec="1.07" data-build="1" data-floor="1"
             class="s3d-svg__house js-s3d-svg__house"
             points="1280.75,584.5,1280.75,584.5,1280.75,584.5,1280.75,584.5,1272.5,619.25,1272.5,619.25,1272.5,619.25,1272.5,619.25,1340.5,608.25,1340.5,608.25,1340.5,608.25,1340.5,608.25,1349.25,576.25,1349.25,576.25,1349.25,576.25,1349.25,576.25"></polygon>
    <polygon data-id="661" data-sec="1.07" data-build="1" data-floor="1"
             class="s3d-svg__house js-s3d-svg__house"
             points="1392.5,571.25,1392.5,571.25,1392.5,571.25,1392.5,571.25,1384.25,603.75,1384.25,603.75,1384.25,603.75,1384.25,603.75,1449.75,595,1449.75,595,1449.75,595,1449.75,595,1462.25,561.5,1462.25,561.5,1462.25,561.5,1462.25,561.5,1462.25,561,1462.25,561,1462.25,561,1462.25,561"></polygon>
    <polygon data-id="662" data-sec="1.07" data-build="1" data-floor="1"
             class="s3d-svg__house js-s3d-svg__house"
             points="1462.25,560.5,1462.25,560.5,1462.25,560.5,1462.25,560.5,1450,595.5,1450,595.5,1450,595.5,1450,595.5,1514.25,586,1514.25,586,1514.25,586,1514.25,586,1527.75,553,1527.75,553,1527.75,553,1527.75,553"></polygon>
    <polygon data-id="288" data-sec="1.07" data-build="1" data-floor="2"
             class="s3d-svg__house js-s3d-svg__house"
             points="1205.75,577,1205.75,577,1205.75,577,1205.75,577,1217,593.25,1217,593.25,1217,593.25,1217,593.25,1245,588.75,1245,588.75,1245,588.75,1245,588.75,1250.25,560,1250.25,560,1250.25,560,1250.25,560,1222.5,562.25,1222.5,562.25,1222.5,562.25,1222.5,562.25,1212,549.5,1212,549.5,1212,549.5,1212,549.5"></polygon>
    <polygon data-id="295" data-sec="1.07" data-build="1" data-floor="2"
             class="s3d-svg__house js-s3d-svg__house"
             points="1250.25,560.5,1250.25,560.5,1250.25,560.5,1250.25,560.5,1245.5,589.25,1245.5,589.25,1245.5,589.25,1245.5,589.25,1309,581,1309,581,1309,581,1309,581,1317,553.25,1317,553.25,1317,553.25,1317,553.25,1317.5,551,1317.5,551,1317.5,551,1317.5,551"></polygon>
    <polygon data-id="294" data-sec="1.07" data-build="1" data-floor="2"
             class="s3d-svg__house js-s3d-svg__house"
             points="1317.5,551,1317.5,551,1317.5,551,1317.5,551,1309,581.25,1309,581.25,1309,581.25,1309,581.25,1392.25,570.25,1392.25,570.25,1392.25,570.25,1392.25,570.25,1401,540.5,1401,540.5,1401,540.5,1401,540.5"></polygon>
    <polygon data-id="293" data-sec="1.07" data-build="1" data-floor="2"
             class="s3d-svg__house js-s3d-svg__house"
             points="1400.5,540.75,1400.5,540.75,1400.5,540.75,1400.5,540.75,1392.25,570.75,1392.25,570.75,1392.25,570.75,1392.25,570.75,1462,560,1462,560,1462,560,1462,560,1470.75,534.25,1470.75,534.25,1470.75,534.25,1470.75,534.25,1471.25,534,1471.25,534,1471.25,534,1471.25,534"></polygon>
    <polygon data-id="292" data-sec="1.07" data-build="1" data-floor="2"
             class="s3d-svg__house js-s3d-svg__house"
             points="1471,533.75,1471,533.75,1471,533.75,1471,533.75,1461.75,560.25,1461.75,560.25,1461.75,560.25,1461.75,560.25,1527.75,553.25,1527.75,553.25,1527.75,553.25,1527.75,553.25,1539.25,524.75,1539.25,524.75,1539.25,524.75,1539.25,524.75"></polygon>
    <polygon data-id="296" data-sec="1.07" data-build="1" data-floor="3"
             class="s3d-svg__house js-s3d-svg__house"
             points="1211.5,548.75,1211.5,548.75,1211.5,548.75,1211.5,548.75,1222.5,562,1222.5,562,1222.5,562,1222.5,562,1250.75,559.5,1250.75,559.5,1250.75,559.5,1250.75,559.5,1256.25,532.25,1256.25,532.25,1256.25,532.25,1256.25,532.25,1228.25,535,1228.25,535,1228.25,535,1228.25,535,1217,520.5,1217,520.5,1217,520.5,1217,520.5"></polygon>
    <polygon data-id="303" data-sec="1.07" data-build="1" data-floor="3"
             class="s3d-svg__house js-s3d-svg__house"
             points="1255.75,531.25,1255.75,531.25,1255.75,531.25,1255.75,531.25,1250.5,559.5,1250.5,559.5,1250.5,559.5,1250.5,559.5,1316.75,550.75,1316.75,550.75,1316.75,550.75,1316.75,550.75,1323.25,523.5,1323.25,523.5,1323.25,523.5,1323.25,523.5"></polygon>
    <polygon data-id="302" data-sec="1.07" data-build="1" data-floor="3"
             class="s3d-svg__house js-s3d-svg__house"
             points="1323.5,522.5,1323.5,522.5,1323.5,522.5,1323.5,522.5,1317.25,551,1317.25,551,1317.25,551,1317.25,551,1400.5,541,1400.5,541,1400.5,541,1400.5,541,1409.25,514.25,1409.25,514.25,1409.25,514.25,1409.25,514.25"></polygon>
    <polygon data-id="301" data-sec="1.07" data-build="1" data-floor="3"
             class="s3d-svg__house js-s3d-svg__house"
             points="1409.25,514,1409.25,514,1409.25,514,1409.25,514,1400.25,540.5,1400.25,540.5,1400.25,540.5,1400.25,540.5,1471,534.25,1471,534.25,1471,534.25,1471,534.25,1481,506.5,1481,506.5,1481,506.5,1481,506.5"></polygon>
    <polygon data-id="300" data-sec="1.07" data-build="1" data-floor="3"
             class="s3d-svg__house js-s3d-svg__house"
             points="1481,506.25,1481,506.25,1481,506.25,1481,506.25,1470.75,534.5,1470.75,534.5,1470.75,534.5,1470.75,534.5,1538.75,525,1538.75,525,1538.75,525,1538.75,525,1550,497,1550,497,1550,497,1550,497"></polygon>
    <polygon data-id="304" data-sec="1.07" data-build="1" data-floor="4"
             class="s3d-svg__house js-s3d-svg__house"
             points="1216.25,519.5,1216.25,519.5,1216.25,519.5,1216.25,519.5,1228.25,535.25,1228.25,535.25,1228.25,535.25,1228.25,535.25,1256.5,531,1256.5,531,1256.5,531,1256.5,531,1263.5,501.25,1263.5,501.25,1263.5,501.25,1263.5,501.25,1234.75,504.25,1234.75,504.25,1234.75,504.25,1234.75,504.25,1222,489.25,1222,489.25,1222,489.25,1222,489.25"></polygon>
    <polygon data-id="311" data-sec="1.07" data-build="1" data-floor="4"
             class="s3d-svg__house js-s3d-svg__house"
             points="1263.25,501.25,1263.25,501.25,1263.25,501.25,1263.25,501.25,1256.75,531,1256.75,531,1256.75,531,1256.75,531,1323.75,522.25,1323.75,522.25,1323.75,522.25,1323.75,522.25,1330.25,494.5,1330.25,494.5,1330.25,494.5,1330.25,494.5"></polygon>
    <polygon data-id="310" data-sec="1.07" data-build="1" data-floor="4"
             class="s3d-svg__house js-s3d-svg__house"
             points="1329.75,494.25,1329.75,494.25,1329.75,494.25,1329.75,494.25,1323,522.5,1323,522.5,1323,522.5,1323,522.5,1409.25,514,1409.25,514,1409.25,514,1409.25,514,1418.75,485.75,1418.75,485.75,1418.75,485.75,1418.75,485.75,1418.25,484.75,1418.25,484.75,1418.25,484.75,1418.25,484.75"></polygon>
    <polygon data-id="309" data-sec="1.07" data-build="1" data-floor="4"
             class="s3d-svg__house js-s3d-svg__house"
             points="1418.5,484.25,1418.5,484.25,1418.5,484.25,1418.5,484.25,1409.75,514.25,1409.75,514.25,1409.75,514.25,1409.75,514.25,1481.25,506.25,1481.25,506.25,1481.25,506.25,1481.25,506.25,1490.75,477.5,1490.75,477.5,1490.75,477.5,1490.75,477.5,1490.75,477.25,1490.75,477.25,1490.75,477.25,1490.75,477.25,1490.75,477,1490.75,477,1490.75,477,1490.75,477"></polygon>
    <polygon data-id="308" data-sec="1.07" data-build="1" data-floor="4"
             class="s3d-svg__house js-s3d-svg__house"
             points="1491,476.75,1491,476.75,1491,476.75,1491,476.75,1481,506,1481,506,1481,506,1481,506,1549.75,497,1549.75,497,1549.75,497,1549.75,497,1560.75,468,1560.75,468,1560.75,468,1560.75,468"></polygon>
    <polygon data-id="312" data-sec="1.07" data-build="1" data-floor="5"
             class="s3d-svg__house js-s3d-svg__house"
             points="1221.75,488.5,1221.75,488.5,1221.75,488.5,1221.75,488.5,1234.75,504.25,1234.75,504.25,1234.75,504.25,1234.75,504.25,1263.25,501,1263.25,501,1263.25,501,1263.25,501,1270,471.25,1270,471.25,1270,471.25,1270,471.25,1239,474,1239,474,1239,474,1239,474,1227,459.75,1227,459.75,1227,459.75,1227,459.75"></polygon>
    <polygon data-id="319" data-sec="1.07" data-build="1" data-floor="5"
             class="s3d-svg__house js-s3d-svg__house"
             points="1270.25,470.75,1270.25,470.75,1270.25,470.75,1270.25,470.75,1263.25,500.5,1263.25,500.5,1263.25,500.5,1263.25,500.5,1329.75,493.75,1329.75,493.75,1329.75,493.75,1329.75,493.75,1335.5,463.5,1335.5,463.5,1335.5,463.5,1335.5,463.5"></polygon>
    <polygon data-id="318" data-sec="1.07" data-build="1" data-floor="5"
             class="s3d-svg__house js-s3d-svg__house"
             points="1335.75,463,1335.75,463,1335.75,463,1335.75,463,1329.5,493.75,1329.5,493.75,1329.5,493.75,1329.5,493.75,1419.5,484,1419.5,484,1419.5,484,1419.5,484,1428.25,455,1428.25,455,1428.25,455,1428.25,455,1428.25,453,1428.25,453,1428.25,453,1428.25,453"></polygon>
    <polygon data-id="317" data-sec="1.07" data-build="1" data-floor="5"
             class="s3d-svg__house js-s3d-svg__house"
             points="1428.75,453,1428.75,453,1428.75,453,1428.75,453,1419.5,484.25,1419.5,484.25,1419.5,484.25,1419.5,484.25,1491.25,476.75,1491.25,476.75,1491.25,476.75,1491.25,476.75,1502,445.75,1502,445.75,1502,445.75,1502,445.75"></polygon>
    <polygon data-id="316" data-sec="1.07" data-build="1" data-floor="5"
             class="s3d-svg__house js-s3d-svg__house"
             points="1501.75,445.75,1501.75,445.75,1501.75,445.75,1501.75,445.75,1491.25,476.75,1491.25,476.75,1491.25,476.75,1491.25,476.75,1561.25,468,1561.25,468,1561.25,468,1561.25,468,1573.25,437.5,1573.25,437.5,1573.25,437.5,1573.25,437.5"></polygon>
    <polygon data-id="320" data-sec="1.07" data-build="1" data-floor="6"
             class="s3d-svg__house js-s3d-svg__house"
             points="1226.5,458.5,1226.5,458.5,1226.5,458.5,1226.5,458.5,1239,474.25,1239,474.25,1239,474.25,1239,474.25,1269.75,470.25,1269.75,470.25,1269.75,470.25,1269.75,470.25,1276.25,440,1276.25,440,1276.25,440,1276.25,440,1245.25,442.75,1245.25,442.75,1245.25,442.75,1245.25,442.75,1232.5,426.5,1232.5,426.5,1232.5,426.5,1232.5,426.5"></polygon>
    <polygon data-id="327" data-sec="1.07" data-build="1" data-floor="6"
             class="s3d-svg__house js-s3d-svg__house"
             points="1276.25,440,1276.25,440,1276.25,440,1276.25,440,1269.75,470.75,1269.75,470.75,1269.75,470.75,1269.75,470.75,1337,462.5,1337,462.5,1337,462.5,1337,462.5,1344.75,433.75,1344.75,433.75,1344.75,433.75,1344.75,433.75"></polygon>
    <polygon data-id="326" data-sec="1.07" data-build="1" data-floor="6"
             class="s3d-svg__house js-s3d-svg__house"
             points="1344.75,433.25,1344.75,433.25,1344.75,433.25,1344.75,433.25,1337.25,462.25,1337.25,462.25,1337.25,462.25,1337.25,462.25,1428.5,452.75,1428.5,452.75,1428.5,452.75,1428.5,452.75,1436.75,425,1436.75,425,1436.75,425,1436.75,425,1436.75,424.25,1436.75,424.25,1436.75,424.25,1436.75,424.25"></polygon>
    <polygon data-id="325" data-sec="1.07" data-build="1" data-floor="6"
             class="s3d-svg__house js-s3d-svg__house"
             points="1437,424,1437,424,1437,424,1437,424,1429,452.75,1429,452.75,1429,452.75,1429,452.75,1502,445.25,1502,445.25,1502,445.25,1502,445.25,1512,417.75,1512,417.75,1512,417.75,1512,417.75,1512,416,1512,416,1512,416,1512,416"></polygon>
    <polygon data-id="324" data-sec="1.07" data-build="1" data-floor="6"
             class="s3d-svg__house js-s3d-svg__house"
             points="1512,415.75,1512,415.75,1512,415.75,1512,415.75,1501.5,445.5,1501.5,445.5,1501.5,445.5,1501.5,445.5,1573.25,437.25,1573.25,437.25,1573.25,437.25,1573.25,437.25,1583.75,410,1583.75,410,1583.75,410,1583.75,410,1584.5,407.75,1584.5,407.75,1584.5,407.75,1584.5,407.75"></polygon>
    <polygon data-id="328" data-sec="1.07" data-build="1" data-floor="7"
             class="s3d-svg__house js-s3d-svg__house"
             points="1232,426.25,1232,426.25,1232,426.25,1232,426.25,1245.25,442.25,1245.25,442.25,1245.25,442.25,1245.25,442.25,1276,439.5,1276,439.5,1276,439.5,1276,439.5,1282.75,404.75,1282.75,404.75,1282.75,404.75,1282.75,404.75,1252,408.25,1252,408.25,1252,408.25,1252,408.25,1237.75,394.25,1237.75,394.25,1237.75,394.25,1237.75,394.25"></polygon>
    <polygon data-id="335" data-sec="1.07" data-build="1" data-floor="7"
             class="s3d-svg__house js-s3d-svg__house"
             points="1282.75,404.75,1282.75,404.75,1282.75,404.75,1282.75,404.75,1276,439.75,1276,439.75,1276,439.75,1276,439.75,1345.5,433.25,1345.5,433.25,1345.5,433.25,1345.5,433.25,1353.5,399,1353.5,399,1353.5,399,1353.5,399,1353,398.75,1353,398.75,1353,398.75,1353,398.75,1353,397.5,1353,397.5,1353,397.5,1353,397.5"></polygon>
    <polygon data-id="334" data-sec="1.07" data-build="1" data-floor="7"
             class="s3d-svg__house js-s3d-svg__house"
             points="1353.25,397.25,1353.25,397.25,1353.25,397.25,1353.25,397.25,1344.75,432.5,1344.75,432.5,1344.75,432.5,1344.75,432.5,1436.75,423.5,1436.75,423.5,1436.75,423.5,1436.75,423.5,1446.5,389.25,1446.5,389.25,1446.5,389.25,1446.5,389.25"></polygon>
    <polygon data-id="333" data-sec="1.07" data-build="1" data-floor="7"
             class="s3d-svg__house js-s3d-svg__house"
             points="1446.75,388.75,1446.75,388.75,1446.75,388.75,1446.75,388.75,1437.25,424.25,1437.25,424.25,1437.25,424.25,1437.25,424.25,1512.5,415.75,1512.5,415.75,1512.5,415.75,1512.5,415.75,1523,383.75,1523,383.75,1523,383.75,1523,383.75,1523.75,382.75,1523.75,382.75,1523.75,382.75,1523.75,382.75"></polygon>
    <polygon data-id="332" data-sec="1.07" data-build="1" data-floor="7"
             class="s3d-svg__house js-s3d-svg__house"
             points="1523.5,382.5,1523.5,382.5,1523.5,382.5,1523.5,382.5,1512.75,415.75,1512.75,415.75,1512.75,415.75,1512.75,415.75,1584.25,407.25,1584.25,407.25,1584.25,407.25,1584.25,407.25,1597.5,375.75,1597.5,375.75,1597.5,375.75,1597.5,375.75"></polygon>
    <polygon data-id="336" data-sec="1.07" data-build="1" data-floor="8"
             class="s3d-svg__house js-s3d-svg__house"
             points="1238.25,392.75,1238.25,392.75,1238.25,392.75,1238.25,392.75,1252.25,408.25,1252.25,408.25,1252.25,408.25,1252.25,408.25,1283.25,404.25,1283.25,404.25,1283.25,404.25,1283.25,404.25,1289.5,370.75,1289.5,370.75,1289.5,370.75,1289.5,370.75,1258.5,372.5,1258.5,372.5,1258.5,372.5,1258.5,372.5,1244.25,357.75,1244.25,357.75,1244.25,357.75,1244.25,357.75"></polygon>
    <polygon data-id="343" data-sec="1.07" data-build="1" data-floor="8"
             class="s3d-svg__house js-s3d-svg__house"
             points="1289,371,1289,371,1289,371,1289,371,1282.75,403.75,1282.75,403.75,1282.75,403.75,1282.75,403.75,1353.75,397,1353.75,397,1353.75,397,1353.75,397,1362.25,365,1362.25,365,1362.25,365,1362.25,365,1362,364.5,1362,364.5,1362,364.5,1362,364.5,1362.25,363.25,1362.25,363.25,1362.25,363.25,1362.25,363.25"></polygon>
    <polygon data-id="342" data-sec="1.07" data-build="1" data-floor="8"
             class="s3d-svg__house js-s3d-svg__house"
             points="1362.5,362.25,1362.5,362.25,1362.5,362.25,1362.5,362.25,1353.5,397.25,1353.5,397.25,1353.5,397.25,1353.5,397.25,1447,388.5,1447,388.5,1447,388.5,1447,388.5,1457,355.75,1457,355.75,1457,355.75,1457,355.75,1457,354.75,1457,354.75,1457,354.75,1457,354.75"></polygon>
    <polygon data-id="341" data-sec="1.07" data-build="1" data-floor="8"
             class="s3d-svg__house js-s3d-svg__house"
             points="1457,354.75,1457,354.75,1457,354.75,1457,354.75,1447,388.25,1447,388.25,1447,388.25,1447,388.25,1523.75,382.75,1523.75,382.75,1523.75,382.75,1523.75,382.75,1535.75,348.75,1535.75,348.75,1535.75,348.75,1535.75,348.75,1536.75,348.25,1536.75,348.25,1536.75,348.25,1536.75,348.25"></polygon>
    <polygon data-id="340" data-sec="1.07" data-build="1" data-floor="8"
             class="s3d-svg__house js-s3d-svg__house"
             points="1536.5,348.25,1536.5,348.25,1536.5,348.25,1536.5,348.25,1523.5,382.5,1523.5,382.5,1523.5,382.5,1523.5,382.5,1597,376,1597,376,1597,376,1597,376,1611,340.5,1611,340.5,1611,340.5,1611,340.5"></polygon>
    <polygon data-id="347" data-sec="1.07" data-build="1" data-floor="9"
             class="s3d-svg__house js-s3d-svg__house"
             points="1244.5,357.5,1244.5,357.5,1244.5,357.5,1244.5,357.5,1258.5,371.75,1258.5,371.75,1258.5,371.75,1258.5,371.75,1289.25,370.75,1289.25,370.75,1289.25,370.75,1289.25,370.75,1309.5,267.75,1309.5,267.75,1309.5,267.75,1309.5,267.75,1277.75,269.75,1277.75,269.75,1277.75,269.75,1277.75,269.75,1264.25,262.75,1264.25,262.75,1264.25,262.75,1264.25,262.75"></polygon>
    <polygon data-id="348" data-sec="1.07" data-build="1" data-floor="9"
             class="s3d-svg__house js-s3d-svg__house"
             points="1309,267.25,1309,267.25,1309,267.25,1309,267.25,1289,371,1289,371,1289,371,1289,371,1363,361.5,1363,361.5,1363,361.5,1363,361.5,1387,261,1387,261,1387,261,1387,261"></polygon>
    <polygon data-id="349" data-sec="1.07" data-build="1" data-floor="9"
             class="s3d-svg__house js-s3d-svg__house"
             points="1387,260.5,1387,260.5,1387,260.5,1387,260.5,1362.5,362.25,1362.5,362.25,1362.5,362.25,1362.5,362.25,1457,354.5,1457,354.5,1457,354.5,1457,354.5,1488,254,1488,254,1488,254,1488,254"></polygon>
    <polygon data-id="350" data-sec="1.07" data-build="1" data-floor="9"
             class="s3d-svg__house js-s3d-svg__house"
             points="1488,253.25,1488,253.25,1488,253.25,1488,253.25,1457.25,354.75,1457.25,354.75,1457.25,354.75,1457.25,354.75,1537,348,1537,348,1537,348,1537,348,1571,247.5,1571,247.5,1571,247.5,1571,247.5"></polygon>
    <polygon data-id="351" data-sec="1.07" data-build="1" data-floor="9"
             class="s3d-svg__house js-s3d-svg__house"
             points="1571,247,1571,247,1571,247,1571,247,1536.5,348.25,1536.5,348.25,1536.5,348.25,1536.5,348.25,1611.25,340,1611.25,340,1611.25,340,1611.25,340,1650.75,241.75,1650.75,241.75,1650.75,241.75,1650.75,241.75"></polygon>
    <polygon data-id="668" data-sec="1.08" data-build="1" data-floor="1"
             class="s3d-svg__house js-s3d-svg__house"
             points="1513.75,586,1513.75,586,1530.25,601.25,1530.25,601.25,1564,597.75,1564,597.75,1578.5,563.75,1578.5,563.75,1576.25,562,1576.25,562,1543.5,566.5,1543.5,566.5,1528.25,554,1528.25,554"></polygon>
    <polygon data-id="667" data-sec="1.08" data-build="1" data-floor="1"
             class="s3d-svg__house js-s3d-svg__house"
             points="1578.75,563.25,1578.75,563.25,1564.25,598.5,1564.25,598.5,1644.75,586.25,1644.75,586.25,1659.5,553,1659.5,553"></polygon>
    <polygon data-id="666" data-sec="1.08" data-build="1" data-floor="1"
             class="s3d-svg__house js-s3d-svg__house"
             points="1659.75,552.5,1659.75,552.5,1645,586.25,1645,586.25,1710.75,579.25,1710.75,579.25,1728.25,544.75,1728.25,544.75"></polygon>
    <polygon data-id="357" data-sec="1.08" data-build="1" data-floor="2"
             class="s3d-svg__house js-s3d-svg__house"
             points="1527.25,552.25,1527.25,552.25,1543.5,566,1543.5,566,1576.25,561.75,1576.25,561.75,1578.75,562.75,1578.75,562.75,1590,537.25,1590,537.25,1591,535.5,1591,535.5,1553.75,540.75,1553.75,540.75,1539,525.25,1539,525.25"></polygon>
    <polygon data-id="356" data-sec="1.08" data-build="1" data-floor="2"
             class="s3d-svg__house js-s3d-svg__house"
             points="1591,535.5,1591,535.5,1579,563.25,1579,563.25,1660,552.25,1660,552.25,1672.75,525.75,1672.75,525.75"></polygon>
    <polygon data-id="355" data-sec="1.08" data-build="1" data-floor="2"
             class="s3d-svg__house js-s3d-svg__house"
             points="1672.75,526,1672.75,526,1659.75,552.5,1659.75,552.5,1728.25,545,1728.25,545,1743.25,516.75,1743.25,516.75"></polygon>
    <polygon data-id="364" data-sec="1.08" data-build="1" data-floor="3"
             class="s3d-svg__house js-s3d-svg__house"
             points="1539,524.5,1539,524.5,1553.75,541,1553.75,541,1590.5,535,1590.5,535,1602,509,1602,509,1564.5,513.25,1564.5,513.25,1550.25,496.75,1550.25,496.75"></polygon>
    <polygon data-id="363" data-sec="1.08" data-build="1" data-floor="3"
             class="s3d-svg__house js-s3d-svg__house"
             points="1602,508.75,1602,508.75,1591,535.25,1591,535.25,1673,525.5,1673,525.5,1686.5,498.75,1686.5,498.75,1687,498.25,1687,498.25"></polygon>
    <polygon data-id="362" data-sec="1.08" data-build="1" data-floor="3"
             class="s3d-svg__house js-s3d-svg__house"
             points="1687,498.25,1687,498.25,1673,525.5,1673,525.5,1743.5,517,1743.5,517,1757.75,490.5,1757.75,490.5"></polygon>
    <polygon data-id="371" data-sec="1.08" data-build="1" data-floor="4"
             class="s3d-svg__house js-s3d-svg__house"
             points="1549.75,496.25,1549.75,496.25,1564.75,513,1564.75,513,1602.25,509,1602.25,509,1614.5,480.25,1614.5,480.25,1615.25,478.75,1615.25,478.75,1577,483.25,1577,483.25,1561.25,468.5,1561.25,468.5"></polygon>
    <polygon data-id="370" data-sec="1.08" data-build="1" data-floor="4"
             class="s3d-svg__house js-s3d-svg__house"
             points="1615.25,478.75,1615.25,478.75,1602.25,508.5,1602.25,508.5,1687.5,498,1687.5,498,1702.5,468,1702.5,468"></polygon>
    <polygon data-id="369" data-sec="1.08" data-build="1" data-floor="4"
             class="s3d-svg__house js-s3d-svg__house"
             points="1703.25,467.5,1703.25,467.5,1687.25,498,1687.25,498,1757.75,490.5,1757.75,490.5,1774,459.5,1774,459.5"></polygon>
    <polygon data-id="378" data-sec="1.08" data-build="1" data-floor="5"
             class="s3d-svg__house js-s3d-svg__house"
             points="1561,467.75,1561,467.75,1576.25,482.5,1576.25,482.5,1615.25,478.5,1615.25,478.5,1628.75,447.75,1628.75,447.75,1590,451.5,1590,451.5,1573.75,437.75,1573.75,437.75"></polygon>
    <polygon data-id="377" data-sec="1.08" data-build="1" data-floor="5"
             class="s3d-svg__house js-s3d-svg__house"
             points="1629,448,1629,448,1615.25,478.5,1615.25,478.5,1703.25,467.25,1703.25,467.25,1717.75,438.5,1717.75,438.5"></polygon>
    <polygon data-id="376" data-sec="1.08" data-build="1" data-floor="5"
             class="s3d-svg__house js-s3d-svg__house"
             points="1717.75,438.75,1717.75,438.75,1702.75,467.5,1702.75,467.5,1773.25,459.25,1773.25,459.25,1787.5,433,1787.5,433,1789,430.25,1789,430.25"></polygon>
    <polygon data-id="385" data-sec="1.08" data-build="1" data-floor="6"
             class="s3d-svg__house js-s3d-svg__house"
             points="1573,436.5,1573,436.5,1589.75,451.25,1589.75,451.25,1629,447.75,1629,447.75,1642,417.5,1642,417.5,1643.5,414.75,1643.5,414.75,1603.75,418.5,1603.75,418.5,1586.5,405.5,1586.5,405.5"></polygon>
    <polygon data-id="384" data-sec="1.08" data-build="1" data-floor="6"
             class="s3d-svg__house js-s3d-svg__house"
             points="1643.5,414.25,1643.5,414.25,1628.75,447.5,1628.75,447.5,1717.75,438,1717.75,438,1732.5,408,1732.5,408,1733,406.75,1733,406.75"></polygon>
    <polygon data-id="383" data-sec="1.08" data-build="1" data-floor="6"
             class="s3d-svg__house js-s3d-svg__house"
             points="1733.25,406.5,1733.25,406.5,1717.75,438.25,1717.75,438.25,1789.25,429.75,1789.25,429.75,1805.5,398.5,1805.5,398.5"></polygon>
    <polygon data-id="392" data-sec="1.08" data-build="1" data-floor="7"
             class="s3d-svg__house js-s3d-svg__house"
             points="1586,404.25,1586,404.25,1603.5,418.25,1603.5,418.25,1643.25,414,1643.25,414,1656.5,383.25,1656.5,383.25,1616.25,387.5,1616.25,387.5,1597.75,374.5,1597.75,374.5"></polygon>
    <polygon data-id="391" data-sec="1.08" data-build="1" data-floor="7"
             class="s3d-svg__house js-s3d-svg__house"
             points="1656.25,383.25,1656.25,383.25,1643.25,414,1643.25,414,1733.25,406.5,1733.25,406.5,1749.75,374.25,1749.75,374.25"></polygon>
    <polygon data-id="389" data-sec="1.08" data-build="1" data-floor="7"
             class="s3d-svg__house js-s3d-svg__house"
             points="1749.5,373.75,1749.5,373.75,1733.25,405.75,1733.25,405.75,1805,398.25,1805,398.25,1822,367,1822,367"></polygon>
    <polygon data-id="399" data-sec="1.08" data-build="1" data-floor="8"
             class="s3d-svg__house js-s3d-svg__house"
             points="1597.75,374,1597.75,374,1616,387,1616,387,1656.5,382.5,1656.5,382.5,1671.5,348.5,1671.5,348.5,1631,352.5,1631,352.5,1612,339.5,1612,339.5"></polygon>
    <polygon data-id="398" data-sec="1.08" data-build="1" data-floor="8"
             class="s3d-svg__house js-s3d-svg__house"
             points="1672,348,1672,348,1656.25,383.5,1656.25,383.5,1749.75,374.5,1749.75,374.5,1767,339.5,1767,339.5"></polygon>
    <polygon data-id="397" data-sec="1.08" data-build="1" data-floor="8"
             class="s3d-svg__house js-s3d-svg__house"
             points="1767.25,339.25,1767.25,339.25,1750,373.75,1750,373.75,1821.75,367,1821.75,367,1841,331.25,1841,331.25"></polygon>
    <polygon data-id="406" data-sec="1.08" data-build="1" data-floor="9"
             class="s3d-svg__house js-s3d-svg__house"
             points="1611.25,339.25,1611.25,339.25,1631.25,352.25,1631.25,352.25,1671.75,347.5,1671.75,347.5,1714.25,249.75,1714.25,249.75,1671,253.25,1671,253.25,1650.5,242,1650.5,242"></polygon>
    <polygon data-id="405" data-sec="1.08" data-build="1" data-floor="9"
             class="s3d-svg__house js-s3d-svg__house"
             points="1714,249.5,1714,249.5,1672,348.25,1672,348.25,1767.25,339.5,1767.25,339.5,1812.5,242.25,1812.5,242.25"></polygon>
    <polygon data-id="404" data-sec="1.08" data-build="1" data-floor="9"
             class="s3d-svg__house js-s3d-svg__house"
             points="1812.25,242,1812.25,242,1767.5,339.5,1767.5,339.5,1841.25,331.25,1841.25,331.25,1892.25,235.25,1892.25,235.25"></polygon>
    <polygon data-id="13011" data-sec="1.01" data-build="1" data-floor="9" data-type="flyby" data-flyby="courtyard"
             class="s3d-svg__house js-s3d-svg__house"
             points="482.66666666667,103.33333333333,725.66666666667,93,915,85,1289.3333333333,70,1504.3333333333,156.33333333333,1498.3333333333,160,1580.6666666667,193.33333333333,1580,196.66666666667,1550.6666666667,199.66666666667,1529.3333333333,190.66666666667,1471.3333333333,190.33333333333,1470,194.66666666667,1466,194.33333333333,1469,179.66666666667,1464,174.66666666667,1430.3333333333,176.66666666667,1427.6666666667,186.66666666667,1419,182.33333333333,1423.3333333333,167.33333333333,1413.6666666667,162.66666666667,1402,164.66666666667,1399.6666666667,174.33333333333,1396,172.33333333333,1382.3333333333,172,1376,168.33333333333,1340,171.33333333333,1334.3333333333,203.33333333333,1200.6666666667,211.66666666667,1189,200.66666666667,1134.6666666667,205.66666666667,1132.6666666667,202.66666666667,1117.6666666667,203.33333333333,1117.3333333333,207,1088.3333333333,208,1088.3333333333,192.66666666667,1084.3333333333,187.33333333333,1053.6666666667,189.66666666667,1054.3333333333,180,1050,175.33333333333,1036,177,1034.3333333333,187,1032,184.66666666667,1006,185,1003.6666666667,180.66666666667,965,183.33333333333,965,215.66666666667,828,224.33333333333,825.33333333333,216.66666666667,684,225.33333333333,680.33333333333,200.33333333333,572,201.33333333333,567.33333333333,213.66666666667,572.33333333333,232.33333333333,426.33333333333,240,434.66666666667,228.66666666667,378.33333333333,230,412.66666666667,187.66666666667,400.66666666667,186.66666666667,424,164.66666666667,437,147.66666666667,455.66666666667,127,466.33333333333,127.33333333333,480.33333333333,111.66666666667,484,111.33333333333"></polygon>
    <polygon data-id="13010" data-sec="2.04" data-build="13" data-floor="9" data-type="flyby" data-flyby="complex"
             class="s3d-svg__house js-s3d-svg__house"
             points="434.66666666667,37,445,72,517,69,517.66666666667,79.666666666667,562,77,560.66666666667,70,562,67.666666666667,586.66666666667,67,585.66666666667,60,605.33333333333,59.666666666667,608,68,689.33333333333,60.666666666667,689.66666666667,73,724.66666666667,72.333333333333,740.66666666667,221,901.33333333333,218.66666666667,897.66666666667,65.333333333333,964.33333333333,61.666666666667,964.33333333333,47.666666666667,981,46.666666666667,986.66666666667,52.333333333333,986.66666666667,56.333333333333,1000,55,1000,53.333333333333,1002.3333333333,52.333333333333,1004,49,1026.3333333333,50,1028,58,1124.6666666667,56,1124.3333333333,49.666666666667,1248.3333333333,43,1251.6666666667,13,1218.6666666667,1.3333333333333,1186,1.6666666666667,500.33333333333,1,461,28,455,23"></polygon>
</svg>