<svg preserveAspectRatio="xMidYMid slice" id="floor--svg" viewBox="0 0 1920 1080" version="1.0"
     xmlns="http://www.w3.org/2000/svg">
    <polygon data-id="656" data-sec="1.06" data-build="1" data-floor="1" data-type_poly="flat"
             class="s3d-svg__house js-s3d-svg__house"
             points="1502.6666666667,766,1655.6666666667,786,1653.3333333333,892.66666666667,1504,858.66666666667"></polygon>
    <polygon data-id="657" data-sec="1.06" data-build="1" data-floor="1" data-type_poly="flat"
             class="s3d-svg__house js-s3d-svg__house"
             points="1441,757,1305,740,1306.3333333333,821,1441,846.66666666667"></polygon>
    <polygon data-id="658" data-sec="1.06" data-build="1" data-floor="1" data-type_poly="flat"
             class="s3d-svg__house js-s3d-svg__house"
             points="1304.6666666667,740,1306.6666666667,822.33333333333,1180.3333333333,794,1179.3333333333,723.33333333333"></polygon>
    <polygon data-id="226" data-sec="1.06" data-build="1" data-floor="2" data-type_poly="flat"
             class="s3d-svg__house js-s3d-svg__house"
             points="1502.3333333333,766,1766,800.66666666667,1766.3333333333,730,1502.6666666667,705.66666666667"></polygon>
    <polygon data-id="227" data-sec="1.06" data-build="1" data-floor="2" data-type_poly="flat"
             class="s3d-svg__house js-s3d-svg__house"
             points="1440.6666666667,757,1441.3333333333,698,1305.6666666667,686.33333333333,1305.3333333333,740.33333333333"></polygon>
    <polygon data-id="228" data-sec="1.06" data-build="1" data-floor="2" data-type_poly="flat"
             class="s3d-svg__house js-s3d-svg__house"
             points="1305.6666666667,686,1305.3333333333,741,1178.3333333333,723.33333333333,1178.3333333333,676.33333333333"></polygon>
    <polygon data-id="233" data-sec="1.06" data-build="1" data-floor="3" data-type_poly="flat"
             class="s3d-svg__house js-s3d-svg__house"
             points="1502.6666666667,706,1766,729.66666666667,1766,644.66666666667,1502.3333333333,634"></polygon>
    <polygon data-id="234" data-sec="1.06" data-build="1" data-floor="3" data-type_poly="flat"
             class="s3d-svg__house js-s3d-svg__house"
             points="1441.6666666667,698.33333333333,1441.3333333333,630.66666666667,1305.6666666667,625.66666666667,1306,686.33333333333"></polygon>
    <polygon data-id="235" data-sec="1.06" data-build="1" data-floor="3" data-type_poly="flat"
             class="s3d-svg__house js-s3d-svg__house"
             points="1305.6666666667,625,1305.6666666667,686.66666666667,1178.3333333333,676.66666666667,1179,620.66666666667"></polygon>
    <polygon data-id="241" data-sec="1.06" data-build="1" data-floor="4" data-type_poly="flat"
             class="s3d-svg__house js-s3d-svg__house"
             points="1502.6666666667,633.66666666667,1766,645.66666666667,1766.6666666667,559.66666666667,1502.6666666667,561.66666666667"></polygon>
    <polygon data-id="242" data-sec="1.06" data-build="1" data-floor="4" data-type_poly="flat"
             class="s3d-svg__house js-s3d-svg__house"
             points="1441.6666666667,631.33333333333,1441.6666666667,561.66666666667,1306,562.66666666667,1306,626"></polygon>
    <polygon data-id="243" data-sec="1.06" data-build="1" data-floor="4" data-type_poly="flat"
             class="s3d-svg__house js-s3d-svg__house"
             points="1305.3333333333,625,1306,563,1179,563,1179,621.33333333333"></polygon>
    <polygon data-id="249" data-sec="1.06" data-build="1" data-floor="5" data-type_poly="flat"
             class="s3d-svg__house js-s3d-svg__house"
             points="1502.3333333333,561.66666666667,1766.6666666667,560.33333333333,1766.3333333333,474.66666666667,1504,489.66666666667"></polygon>
    <polygon data-id="250" data-sec="1.06" data-build="1" data-floor="5" data-type_poly="flat"
             class="s3d-svg__house js-s3d-svg__house"
             points="1441.3333333333,562,1441,494,1306.3333333333,500.66666666667,1305.6666666667,563.33333333333"></polygon>
    <polygon data-id="251" data-sec="1.06" data-build="1" data-floor="5" data-type_poly="flat"
             class="s3d-svg__house js-s3d-svg__house"
             points="1305.6666666667,501,1306,563.66666666667,1179,563.33333333333,1179,507.66666666667"></polygon>
    <polygon data-id="257" data-sec="1.06" data-build="1" data-floor="6" data-type_poly="flat"
             class="s3d-svg__house js-s3d-svg__house"
             points="1503.3333333333,490,1766.6666666667,474.66666666667,1765.6666666667,390.33333333333,1502.6666666667,418.33333333333"></polygon>
    <polygon data-id="258" data-sec="1.06" data-build="1" data-floor="6" data-type_poly="flat"
             class="s3d-svg__house js-s3d-svg__house"
             points="1441,495,1441.3333333333,425.33333333333,1305.6666666667,440,1306,501"></polygon>
    <polygon data-id="259" data-sec="1.06" data-build="1" data-floor="6" data-type_poly="flat"
             class="s3d-svg__house js-s3d-svg__house"
             points="1305.6666666667,440,1305.3333333333,501,1179,507.66666666667,1179.3333333333,454"></polygon>
    <polygon data-id="265" data-sec="1.06" data-build="1" data-floor="7" data-type_poly="flat"
             class="s3d-svg__house js-s3d-svg__house"
             points="1502.3333333333,418,1765.6666666667,390.33333333333,1765.3333333333,304.66666666667,1503.6666666667,346.66666666667"></polygon>
    <polygon data-id="266" data-sec="1.06" data-build="1" data-floor="7" data-type_poly="flat"
             class="s3d-svg__house js-s3d-svg__house"
             points="1441,424.66666666667,1440.6666666667,357,1306.6666666667,375.33333333333,1305.6666666667,440.66666666667"></polygon>
    <polygon data-id="267" data-sec="1.06" data-build="1" data-floor="7" data-type_poly="flat"
             class="s3d-svg__house js-s3d-svg__house"
             points="1306.6666666667,376,1306,440.33333333333,1179,454,1178.6666666667,397"></polygon>
    <polygon data-id="273" data-sec="1.06" data-build="1" data-floor="8" data-type_poly="flat"
             class="s3d-svg__house js-s3d-svg__house"
             points="1502.6666666667,347,1765.3333333333,305.66666666667,1766.3333333333,220,1503.6666666667,275.66666666667"></polygon>
    <polygon data-id="274" data-sec="1.06" data-build="1" data-floor="8" data-type_poly="flat"
             class="s3d-svg__house js-s3d-svg__house"
             points="1440.3333333333,357.66666666667,1440.3333333333,288,1307.6666666667,316,1306.3333333333,374.66666666667"></polygon>
    <polygon data-id="275" data-sec="1.06" data-build="1" data-floor="8" data-type_poly="flat"
             class="s3d-svg__house js-s3d-svg__house"
             points="1307.6666666667,316.33333333333,1307,375.33333333333,1178.3333333333,396.66666666667,1179.6666666667,343"></polygon>
    <polygon data-id="282" data-sec="1.06" data-build="1" data-floor="9" data-type_poly="flat"
             class="s3d-svg__house js-s3d-svg__house"
             points="1503,275,1766,220.33333333333,1765,1.3333333333333,1730.6666666667,1.3333333333333,1502,79.666666666667"></polygon>
    <polygon data-id="281" data-sec="1.06" data-build="1" data-floor="9" data-type_poly="flat"
             class="s3d-svg__house js-s3d-svg__house"
             points="1440,288.33333333333,1308,316,1308.3333333333,146,1440.6666666667,101.66666666667"></polygon>
    <polygon data-id="280" data-sec="1.06" data-build="1" data-floor="9" data-type_poly="flat"
             class="s3d-svg__house js-s3d-svg__house"
             points="1307.6666666667,316.66666666667,1179.3333333333,343.33333333333,1177.6666666667,192.33333333333,1308.6666666667,145"></polygon>
    <polygon data-id="288" data-sec="1.07" data-build="1" data-floor="2" data-type_poly="flat"
             class="s3d-svg__house js-s3d-svg__house"
             points="1142.3333333333,710.66666666667,1142.3333333333,668.33333333333,1178.3333333333,671,1178,715.66666666667"></polygon>
    <polygon data-id="289" data-sec="1.07" data-build="1" data-floor="2" data-type_poly="flat"
             class="s3d-svg__house js-s3d-svg__house"
             points="1142,668.33333333333,1143,711,1035,698.33333333333,1034.6666666667,659.33333333333"></polygon>
    <polygon data-id="290" data-sec="1.07" data-build="1" data-floor="2" data-type_poly="flat"
             class="s3d-svg__house js-s3d-svg__house"
             points="1002.6666666667,655,1002.6666666667,693.33333333333,930.33333333333,683.66666666667,930,648.66666666667"></polygon>
    <polygon data-id="291" data-sec="1.07" data-build="1" data-floor="2" data-type_poly="flat"
             class="s3d-svg__house js-s3d-svg__house"
             points="930.33333333333,684.33333333333,930.33333333333,649.33333333333,877.66666666667,644,877.66666666667,679"></polygon>
    <polygon data-id="296" data-sec="1.07" data-build="1" data-floor="3" data-type_poly="flat"
             class="s3d-svg__house js-s3d-svg__house"
             points="1142.3333333333,668,1178,671,1178.6666666667,618.66666666667,1142,617"></polygon>
    <polygon data-id="297" data-sec="1.07" data-build="1" data-floor="3" data-type_poly="flat"
             class="s3d-svg__house js-s3d-svg__house"
             points="1141.6666666667,616.66666666667,1141.6666666667,668,1034.3333333333,659,1035.3333333333,613"></polygon>
    <polygon data-id="298" data-sec="1.07" data-build="1" data-floor="3" data-type_poly="flat"
             class="s3d-svg__house js-s3d-svg__house"
             points="1003,654.33333333333,1002.6666666667,611,930,608.33333333333,930.66666666667,648.66666666667"></polygon>
    <polygon data-id="299" data-sec="1.07" data-build="1" data-floor="3" data-type_poly="flat"
             class="s3d-svg__house js-s3d-svg__house"
             points="930.33333333333,607.66666666667,930.33333333333,649,877.66666666667,644,878.33333333333,604.66666666667"></polygon>
    <polygon data-id="304" data-sec="1.07" data-build="1" data-floor="4" data-type_poly="flat"
             class="s3d-svg__house js-s3d-svg__house"
             points="1141.6666666667,617,1178.6666666667,618.66666666667,1179,565,1141,565"></polygon>
    <polygon data-id="305" data-sec="1.07" data-build="1" data-floor="4" data-type_poly="flat"
             class="s3d-svg__house js-s3d-svg__house"
             points="1140.6666666667,565.33333333333,1142,617.66666666667,1035.3333333333,613,1035,566"></polygon>
    <polygon data-id="306" data-sec="1.07" data-build="1" data-floor="4" data-type_poly="flat"
             class="s3d-svg__house js-s3d-svg__house"
             points="1003.3333333333,612,1003,567.66666666667,930.33333333333,568,930.66666666667,607.66666666667"></polygon>
    <polygon data-id="307" data-sec="1.07" data-build="1" data-floor="4" data-type_poly="flat"
             class="s3d-svg__house js-s3d-svg__house"
             points="930,608.33333333333,929.66666666667,567.66666666667,878,569.66666666667,878.33333333333,605.33333333333"></polygon>
    <polygon data-id="312" data-sec="1.07" data-build="1" data-floor="5" data-type_poly="flat"
             class="s3d-svg__house js-s3d-svg__house"
             points="1141,565,1178,565,1178.6666666667,512.66666666667,1140.6666666667,515.33333333333"></polygon>
    <polygon data-id="313" data-sec="1.07" data-build="1" data-floor="5" data-type_poly="flat"
             class="s3d-svg__house js-s3d-svg__house"
             points="1140.3333333333,515.33333333333,1140.3333333333,565.66666666667,1035,566.33333333333,1035.6666666667,520.33333333333"></polygon>
    <polygon data-id="314" data-sec="1.07" data-build="1" data-floor="5" data-type_poly="flat"
             class="s3d-svg__house js-s3d-svg__house"
             points="1002.6666666667,568,1003.3333333333,523.33333333333,930,527,930.33333333333,567.66666666667"></polygon>
    <polygon data-id="315" data-sec="1.07" data-build="1" data-floor="5" data-type_poly="flat"
             class="s3d-svg__house js-s3d-svg__house"
             points="877.66666666667,569.33333333333,929.66666666667,568.66666666667,929.66666666667,527.66666666667,878,528.66666666667"></polygon>
    <polygon data-id="320" data-sec="1.07" data-build="1" data-floor="6" data-type_poly="flat"
             class="s3d-svg__house js-s3d-svg__house"
             points="1140,515,1178.6666666667,512.66666666667,1178.6666666667,460.33333333333,1140.3333333333,464"></polygon>
    <polygon data-id="321" data-sec="1.07" data-build="1" data-floor="6" data-type_poly="flat"
             class="s3d-svg__house js-s3d-svg__house"
             points="1140.3333333333,464.33333333333,1139.3333333333,515.33333333333,1035.3333333333,519.33333333333,1034.6666666667,475.33333333333"></polygon>
    <polygon data-id="322" data-sec="1.07" data-build="1" data-floor="6" data-type_poly="flat"
             class="s3d-svg__house js-s3d-svg__house"
             points="1003.3333333333,523.33333333333,1003,478.66666666667,930.33333333333,485.66666666667,930.33333333333,527.66666666667"></polygon>
    <polygon data-id="323" data-sec="1.07" data-build="1" data-floor="6" data-type_poly="flat"
             class="s3d-svg__house js-s3d-svg__house"
             points="929.66666666667,485.66666666667,930,528,877.33333333333,528.66666666667,877.33333333333,490.33333333333"></polygon>
    <polygon data-id="328" data-sec="1.07" data-build="1" data-floor="7" data-type_poly="flat"
             class="s3d-svg__house js-s3d-svg__house"
             points="1140,464,1179,460,1179,407.33333333333,1139.6666666667,413.66666666667"></polygon>
    <polygon data-id="329" data-sec="1.07" data-build="1" data-floor="7" data-type_poly="flat"
             class="s3d-svg__house js-s3d-svg__house"
             points="1140,413.33333333333,1140.3333333333,464.66666666667,1034.6666666667,475.66666666667,1034.6666666667,429.33333333333"></polygon>
    <polygon data-id="330" data-sec="1.07" data-build="1" data-floor="7" data-type_poly="flat"
             class="s3d-svg__house js-s3d-svg__house"
             points="1003.3333333333,479,1003,434,929.33333333333,446,929.66666666667,485.66666666667"></polygon>
    <polygon data-id="331" data-sec="1.07" data-build="1" data-floor="7" data-type_poly="flat"
             class="s3d-svg__house js-s3d-svg__house"
             points="929.33333333333,446,930,485.33333333333,876.66666666667,491,876.66666666667,453.33333333333"></polygon>
    <polygon data-id="336" data-sec="1.07" data-build="1" data-floor="8" data-type_poly="flat"
             class="s3d-svg__house js-s3d-svg__house"
             points="1139.6666666667,414,1178.3333333333,408,1179.3333333333,354.33333333333,1140.6666666667,362.66666666667"></polygon>
    <polygon data-id="337" data-sec="1.07" data-build="1" data-floor="8" data-type_poly="flat"
             class="s3d-svg__house js-s3d-svg__house"
             points="1140.3333333333,362,1139.3333333333,413.33333333333,1034.3333333333,430.33333333333,1034,383"></polygon>
    <polygon data-id="338" data-sec="1.07" data-build="1" data-floor="8" data-type_poly="flat"
             class="s3d-svg__house js-s3d-svg__house"
             points="1003.3333333333,434,1002.6666666667,390.33333333333,929.33333333333,404,929.66666666667,446.33333333333"></polygon>
    <polygon data-id="339" data-sec="1.07" data-build="1" data-floor="8" data-type_poly="flat"
             class="s3d-svg__house js-s3d-svg__house"
             points="929.33333333333,404,929.66666666667,445.66666666667,877,453.66666666667,878.33333333333,415.33333333333"></polygon>
    <polygon data-id="347" data-sec="1.07" data-build="1" data-floor="9" data-type_poly="flat"
             class="s3d-svg__house js-s3d-svg__house"
             points="1140,362.66666666667,1141.6666666667,224.66666666667,1178,212,1178.6666666667,354"></polygon>
    <polygon data-id="346" data-sec="1.07" data-build="1" data-floor="9" data-type_poly="flat"
             class="s3d-svg__house js-s3d-svg__house"
             points="1140,362.66666666667,1033.6666666667,383.66666666667,1034,259.66666666667,1142,224.33333333333"></polygon>
    <polygon data-id="345" data-sec="1.07" data-build="1" data-floor="9" data-type_poly="flat"
             class="s3d-svg__house js-s3d-svg__house"
             points="1002.6666666667,391,1002.3333333333,270.33333333333,929,294.33333333333,929,403.66666666667"></polygon>
    <polygon data-id="344" data-sec="1.07" data-build="1" data-floor="9" data-type_poly="flat"
             class="s3d-svg__house js-s3d-svg__house"
             points="878,415,929.66666666667,404.33333333333,928.66666666667,294,878.33333333333,310.66666666667"></polygon>
    <polygon data-id="358" data-sec="1.08" data-build="1" data-floor="2" data-type_poly="flat"
             class="s3d-svg__house js-s3d-svg__house"
             points="854.66666666667,673.66666666667,854.66666666667,642.33333333333,775.33333333333,646.33333333333,775.33333333333,679.66666666667"></polygon>
    <polygon data-id="352" data-sec="1.08" data-build="1" data-floor="2" data-type_poly="flat"
             class="s3d-svg__house js-s3d-svg__house"
             points="775,646.33333333333,776,680.33333333333,736.33333333333,683,730.66666666667,682,730.33333333333,648.66666666667,736.33333333333,648.33333333333"></polygon>
    <polygon data-id="365" data-sec="1.08" data-build="1" data-floor="3" data-type_poly="flat"
             class="s3d-svg__house js-s3d-svg__house"
             points="775,646.66666666667,854.66666666667,641.33333333333,855,606,775,608"></polygon>
    <polygon data-id="359" data-sec="1.08" data-build="1" data-floor="3" data-type_poly="flat"
             class="s3d-svg__house js-s3d-svg__house"
             points="774.66666666667,607.66666666667,775,647,729.33333333333,649,730.33333333333,609,736,608.66666666667"></polygon>
    <polygon data-id="372" data-sec="1.08" data-build="1" data-floor="4" data-type_poly="flat"
             class="s3d-svg__house js-s3d-svg__house"
             points="774.66666666667,607.66666666667,854.33333333333,606.33333333333,854.33333333333,568.33333333333,774.66666666667,568.66666666667"></polygon>
    <polygon data-id="366" data-sec="1.08" data-build="1" data-floor="4" data-type_poly="flat"
             class="s3d-svg__house js-s3d-svg__house"
             points="775,568.33333333333,774.33333333333,607.66666666667,730.33333333333,609.33333333333,730.33333333333,568.66666666667"></polygon>
    <polygon data-id="379" data-sec="1.08" data-build="1" data-floor="5" data-type_poly="flat"
             class="s3d-svg__house js-s3d-svg__house"
             points="774.33333333333,568,854.66666666667,568.33333333333,854.66666666667,531.33333333333,774,529.33333333333"></polygon>
    <polygon data-id="373" data-sec="1.08" data-build="1" data-floor="5" data-type_poly="flat"
             class="s3d-svg__house js-s3d-svg__house"
             points="774,529,774.66666666667,568.66666666667,730.33333333333,569.33333333333,730.33333333333,528.66666666667"></polygon>
    <polygon data-id="386" data-sec="1.08" data-build="1" data-floor="6" data-type_poly="flat"
             class="s3d-svg__house js-s3d-svg__house"
             points="773.66666666667,528.66666666667,854.66666666667,531,854.66666666667,494,774.66666666667,490"></polygon>
    <polygon data-id="380" data-sec="1.08" data-build="1" data-floor="6" data-type_poly="flat"
             class="s3d-svg__house js-s3d-svg__house"
             points="774.66666666667,490,774,529.66666666667,730.33333333333,529.33333333333,730.66666666667,488"></polygon>
    <polygon data-id="393" data-sec="1.08" data-build="1" data-floor="7" data-type_poly="flat"
             class="s3d-svg__house js-s3d-svg__house"
             points="774.66666666667,490,774.66666666667,451.33333333333,855,459,854.66666666667,494.66666666667"></polygon>
    <polygon data-id="387" data-sec="1.08" data-build="1" data-floor="7" data-type_poly="flat"
             class="s3d-svg__house js-s3d-svg__house"
             points="775,450.66666666667,775.33333333333,490.33333333333,731.33333333333,488.33333333333,730,448,735.66666666667,447.33333333333"></polygon>
    <polygon data-id="400" data-sec="1.08" data-build="1" data-floor="8" data-type_poly="flat"
             class="s3d-svg__house js-s3d-svg__house"
             points="774.66666666667,451,775,412,854,421.66666666667,855.33333333333,459.33333333333"></polygon>
    <polygon data-id="394" data-sec="1.08" data-build="1" data-floor="8" data-type_poly="flat"
             class="s3d-svg__house js-s3d-svg__house"
             points="774.66666666667,412.33333333333,774.33333333333,451.33333333333,736,448,729.66666666667,448.66666666667,730.33333333333,408.66666666667,736.33333333333,407"></polygon>
    <polygon data-id="407" data-sec="1.08" data-build="1" data-floor="9" data-type_poly="flat"
             class="s3d-svg__house js-s3d-svg__house"
             points="775,412.66666666667,775.33333333333,306,854.33333333333,322.66666666667,855,422"></polygon>
    <polygon data-id="401" data-sec="1.08" data-build="1" data-floor="9" data-type_poly="flat"
             class="s3d-svg__house js-s3d-svg__house"
             points="730.33333333333,409,730,301,735.33333333333,298.33333333333,775.33333333333,306.33333333333,775,412.33333333333,736,406.66666666667"></polygon>
    <polygon data-id="411" data-sec="1.09" data-build="1" data-floor="2" data-type_poly="flat"
             class="s3d-svg__house js-s3d-svg__house"
             points="729.66666666667,648.66666666667,730.33333333333,681.66666666667,691.33333333333,683.33333333333,692,648.66666666667"></polygon>
    <polygon data-id="412" data-sec="1.09" data-build="1" data-floor="2" data-type_poly="flat"
             class="s3d-svg__house js-s3d-svg__house"
             points="691.33333333333,648.33333333333,691.66666666667,683.66666666667,538,696,538.66666666667,655.33333333333"></polygon>
    <polygon data-id="413" data-sec="1.09" data-build="1" data-floor="2" data-type_poly="flat"
             class="s3d-svg__house js-s3d-svg__house"
             points="477.66666666667,659.66666666667,478.33333333333,700,286.66666666667,715,287.33333333333,669.66666666667"></polygon>
    <polygon data-id="417" data-sec="1.09" data-build="1" data-floor="3" data-type_poly="flat"
             class="s3d-svg__house js-s3d-svg__house"
             points="691.33333333333,648,729,648.33333333333,729.66666666667,608.33333333333,691.33333333333,609"></polygon>
    <polygon data-id="418" data-sec="1.09" data-build="1" data-floor="3" data-type_poly="flat"
             class="s3d-svg__house js-s3d-svg__house"
             points="691,609,691,648,538.33333333333,655.66666666667,538.33333333333,612.33333333333"></polygon>
    <polygon data-id="419" data-sec="1.09" data-build="1" data-floor="3" data-type_poly="flat"
             class="s3d-svg__house js-s3d-svg__house"
             points="478.33333333333,660.33333333333,477.66666666667,613.33333333333,356.33333333333,616.33333333333,357,667"></polygon>
    <polygon data-id="420" data-sec="1.09" data-build="1" data-floor="3" data-type_poly="flat"
             class="s3d-svg__house js-s3d-svg__house"
             points="356,616,356.66666666667,667,196.66666666667,676.33333333333,196.33333333333,620.33333333333"></polygon>
    <polygon data-id="424" data-sec="1.09" data-build="1" data-floor="4" data-type_poly="flat"
             class="s3d-svg__house js-s3d-svg__house"
             points="690.66666666667,608.66666666667,729.66666666667,608.33333333333,730.33333333333,569.33333333333,690.33333333333,568"></polygon>
    <polygon data-id="425" data-sec="1.09" data-build="1" data-floor="4" data-type_poly="flat"
             class="s3d-svg__house js-s3d-svg__house"
             points="690,568,690.33333333333,608.66666666667,538,612,538.33333333333,567"></polygon>
    <polygon data-id="426" data-sec="1.09" data-build="1" data-floor="4" data-type_poly="flat"
             class="s3d-svg__house js-s3d-svg__house"
             points="477.66666666667,613.33333333333,477.66666666667,566,355.33333333333,565.33333333333,355,616.66666666667"></polygon>
    <polygon data-id="427" data-sec="1.09" data-build="1" data-floor="4" data-type_poly="flat"
             class="s3d-svg__house js-s3d-svg__house"
             points="355,565,355.66666666667,616.66666666667,196,621,196.33333333333,565"></polygon>
    <polygon data-id="431" data-sec="1.09" data-build="1" data-floor="5" data-type_poly="flat"
             class="s3d-svg__house js-s3d-svg__house"
             points="689.66666666667,568,730.66666666667,568.66666666667,730.66666666667,528.33333333333,689.33333333333,526.66666666667"></polygon>
    <polygon data-id="432" data-sec="1.09" data-build="1" data-floor="5" data-type_poly="flat"
             class="s3d-svg__house js-s3d-svg__house"
             points="689,526.33333333333,689.66666666667,568.33333333333,538.33333333333,567.66666666667,538.33333333333,521.33333333333"></polygon>
    <polygon data-id="440" data-sec="1.09" data-build="1" data-floor="6" data-type_poly="flat"
             class="s3d-svg__house js-s3d-svg__house"
             points="477.66666666667,519.33333333333,477.66666666667,471,354.33333333333,464.33333333333,355.33333333333,515.66666666667"></polygon>
    <polygon data-id="441" data-sec="1.09" data-build="1" data-floor="6" data-type_poly="flat"
             class="s3d-svg__house js-s3d-svg__house"
             points="354.33333333333,464,355.66666666667,515.66666666667,196.66666666667,510,197,454"></polygon>
    <polygon data-id="445" data-sec="1.09" data-build="1" data-floor="7" data-type_poly="flat"
             class="s3d-svg__house js-s3d-svg__house"
             points="689.66666666667,484.66666666667,731,488,730,447.33333333333,689.33333333333,444.66666666667"></polygon>
    <polygon data-id="446" data-sec="1.09" data-build="1" data-floor="7" data-type_poly="flat"
             class="s3d-svg__house js-s3d-svg__house"
             points="688.66666666667,444.33333333333,689.33333333333,485.66666666667,538.33333333333,476.33333333333,538.33333333333,429.66666666667"></polygon>
    <polygon data-id="447" data-sec="1.09" data-build="1" data-floor="7" data-type_poly="flat"
             class="s3d-svg__house js-s3d-svg__house"
             points="477.66666666667,471.66666666667,477.66666666667,423.66666666667,353.66666666667,414,354,464"></polygon>
    <polygon data-id="448" data-sec="1.09" data-build="1" data-floor="7" data-type_poly="flat"
             class="s3d-svg__house js-s3d-svg__house"
             points="353,413.33333333333,353.33333333333,464,196.66666666667,454.66666666667,196.33333333333,398.66666666667"></polygon>
    <polygon data-id="438" data-sec="1.09" data-build="1" data-floor="6" data-type_poly="flat"
             class="s3d-svg__house js-s3d-svg__house"
             points="689.33333333333,526.33333333333,730.66666666667,528.66666666667,731,487.66666666667,689.33333333333,485.33333333333"></polygon>
    <polygon data-id="439" data-sec="1.09" data-build="1" data-floor="6" data-type_poly="flat"
             class="s3d-svg__house js-s3d-svg__house"
             points="689.33333333333,485.33333333333,689.33333333333,526.66666666667,538.33333333333,522,539,476"></polygon>
    <polygon data-id="433" data-sec="1.09" data-build="1" data-floor="5" data-type_poly="flat"
             class="s3d-svg__house js-s3d-svg__house"
             points="477.66666666667,566.66666666667,477.66666666667,519,356,515.66666666667,355.33333333333,565.66666666667"></polygon>
    <polygon data-id="434" data-sec="1.09" data-build="1" data-floor="5" data-type_poly="flat"
             class="s3d-svg__house js-s3d-svg__house"
             points="355.66666666667,515.33333333333,355.33333333333,566,195.66666666667,564,197,510"></polygon>
    <polygon data-id="452" data-sec="1.09" data-build="1" data-floor="8" data-type_poly="flat"
             class="s3d-svg__house js-s3d-svg__house"
             points="689,444.33333333333,730.33333333333,448,730.33333333333,407,689.66666666667,401.66666666667"></polygon>
    <polygon data-id="453" data-sec="1.09" data-build="1" data-floor="8" data-type_poly="flat"
             class="s3d-svg__house js-s3d-svg__house"
             points="689.66666666667,401.66666666667,689.33333333333,444.33333333333,538,430,538.33333333333,384"></polygon>
    <polygon data-id="454" data-sec="1.09" data-build="1" data-floor="8" data-type_poly="flat"
             class="s3d-svg__house js-s3d-svg__house"
             points="478,424.33333333333,477.66666666667,377.33333333333,354.33333333333,363.33333333333,353.33333333333,414"></polygon>
    <polygon data-id="455" data-sec="1.09" data-build="1" data-floor="8" data-type_poly="flat"
             class="s3d-svg__house js-s3d-svg__house"
             points="354,363,353,414,196.33333333333,399.66666666667,196,343.33333333333"></polygon>
    <polygon data-id="460" data-sec="1.09" data-build="1" data-floor="9" data-type_poly="flat"
             class="s3d-svg__house js-s3d-svg__house"
             points="689,401.66666666667,730.33333333333,406.66666666667,729.66666666667,300.33333333333,689,292"></polygon>
    <polygon data-id="461" data-sec="1.09" data-build="1" data-floor="9" data-type_poly="flat"
             class="s3d-svg__house js-s3d-svg__house"
             points="688.66666666667,291.66666666667,689.66666666667,401.66666666667,538,384.33333333333,536.66666666667,260.66666666667"></polygon>
    <polygon data-id="462" data-sec="1.09" data-build="1" data-floor="9" data-type_poly="flat"
             class="s3d-svg__house js-s3d-svg__house"
             points="478,377.33333333333,478.66666666667,249.66666666667,355.33333333333,223,355,302.66666666667,280.66666666667,291.33333333333,281.33333333333,353.66666666667"></polygon>
    <polygon data-id="456" data-sec="1.09" data-build="1" data-floor="9" data-type_poly="flat"
             class="s3d-svg__house js-s3d-svg__house"
             points="196.33333333333,343.33333333333,197.33333333333,193.33333333333,355,223,355.33333333333,303,280.33333333333,291.66666666667,281.33333333333,354.33333333333"></polygon>
    <polygon data-id="466" data-sec="1.10" data-build="1" data-floor="2" data-type_poly="flat"
             class="s3d-svg__house js-s3d-svg__house"
             points="196.66666666667,721.66666666667,196.33333333333,675,100.66666666667,680,100.66666666667,728.33333333333"></polygon>
    <polygon data-id="467" data-sec="1.10" data-build="1" data-floor="2" data-type_poly="flat"
             class="s3d-svg__house js-s3d-svg__house"
             points="100.33333333333,680.33333333333,101,728.66666666667,0,736.33333333333,0.33333333333333,684.66666666667"></polygon>
    <polygon data-id="473" data-sec="1.10" data-build="1" data-floor="3" data-type_poly="flat"
             class="s3d-svg__house js-s3d-svg__house"
             points="196,675,195.66666666667,618.33333333333,101,621.33333333333,100,680.33333333333"></polygon>
    <polygon data-id="474" data-sec="1.10" data-build="1" data-floor="3" data-type_poly="flat"
             class="s3d-svg__house js-s3d-svg__house"
             points="100.66666666667,621.33333333333,100.33333333333,680,1,684.66666666667,0,623.33333333333"></polygon>
    <polygon data-id="480" data-sec="1.10" data-build="1" data-floor="4" data-type_poly="flat"
             class="s3d-svg__house js-s3d-svg__house"
             points="100.66666666667,621.33333333333,196,618.33333333333,195.33333333333,562.66666666667,100,562.66666666667"></polygon>
    <polygon data-id="481" data-sec="1.10" data-build="1" data-floor="4" data-type_poly="flat"
             class="s3d-svg__house js-s3d-svg__house"
             points="99.333333333333,562.66666666667,99.666666666667,621.33333333333,0,624,0,562"></polygon>
    <polygon data-id="487" data-sec="1.10" data-build="1" data-floor="5" data-type_poly="flat"
             class="s3d-svg__house js-s3d-svg__house"
             points="99.333333333333,562.66666666667,194.66666666667,562.66666666667,195.66666666667,507.66666666667,100.33333333333,504.33333333333"></polygon>
    <polygon data-id="488" data-sec="1.10" data-build="1" data-floor="5" data-type_poly="flat"
             class="s3d-svg__house js-s3d-svg__house"
             points="100,504.33333333333,99,563,0,562.33333333333,0.33333333333333,501"></polygon>
    <polygon data-id="494" data-sec="1.10" data-build="1" data-floor="6" data-type_poly="flat"
             class="s3d-svg__house js-s3d-svg__house"
             points="100,503.66666666667,195.66666666667,507.33333333333,196,451.33333333333,101,445.66666666667"></polygon>
    <polygon data-id="495" data-sec="1.10" data-build="1" data-floor="6" data-type_poly="flat"
             class="s3d-svg__house js-s3d-svg__house"
             points="100.66666666667,446,100.33333333333,503.33333333333,0.66666666666667,501,0,439.66666666667"></polygon>
    <polygon data-id="501" data-sec="1.10" data-build="1" data-floor="7" data-type_poly="flat"
             class="s3d-svg__house js-s3d-svg__house"
             points="101,445.33333333333,195.66666666667,451,196.33333333333,395.66666666667,101,387"></polygon>
    <polygon data-id="502" data-sec="1.10" data-build="1" data-floor="7" data-type_poly="flat"
             class="s3d-svg__house js-s3d-svg__house"
             points="101,387,100.66666666667,445.66666666667,0.33333333333333,440,0,378.66666666667"></polygon>
    <polygon data-id="508" data-sec="1.10" data-build="1" data-floor="8" data-type_poly="flat"
             class="s3d-svg__house js-s3d-svg__house"
             points="100.66666666667,387.33333333333,196.33333333333,396,195.66666666667,340.66666666667,100.33333333333,328.33333333333"></polygon>
    <polygon data-id="509" data-sec="1.10" data-build="1" data-floor="8" data-type_poly="flat"
             class="s3d-svg__house js-s3d-svg__house"
             points="100.66666666667,328,100.66666666667,388,0.66666666666667,378,0,316"></polygon>
    <polygon data-id="684" data-sec="1.10" data-build="1" data-floor="9" data-type_poly="flat"
             class="s3d-svg__house js-s3d-svg__house"
             points="100,328.33333333333,196.33333333333,341,196.66666666667,190.33333333333,101.33333333333,171"></polygon>
    <polygon data-id="682" data-sec="1.10" data-build="1" data-floor="9" data-type_poly="flat"
             class="s3d-svg__house js-s3d-svg__house"
             points="101,170,100.66666666667,328,0,317,0.33333333333333,150.66666666667"></polygon>
</svg>