<svg preserveAspectRatio="xMidYMid slice" id="floor--svg"  viewBox="0 0 1920 1080" version="1.0" xmlns="http://www.w3.org/2000/svg"><polygon data-id="646" data-sec="4" data-build="4" data-floor="9" class="s3d-svg__house js-s3d-svg__house" points="238.7265625,262.5,238.7265625,262.5,255.2265625,351.75,255.2265625,351.75,124.4765625,353.25,124.4765625,353.25,105.4765625,263,105.4765625,263"></polygon><polygon data-id="647" data-sec="4" data-build="4" data-floor="9" class="s3d-svg__house js-s3d-svg__house" points="238.4765625,263,238.4765625,263,254.7265625,351.5,254.7265625,351.5,334.4765625,351.25,334.4765625,351.25,326.7265625,304.25,326.7265625,304.25,348.7265625,303.25,348.7265625,303.25,341.4765625,258.25,341.4765625,258.25,353.7265625,252,353.7265625,252,321.2265625,252.25,321.2265625,252.25,322.7265625,260.5,322.7265625,260.5,320.2265625,262,320.2265625,262"></polygon><polygon data-id="648" data-sec="4" data-build="4" data-floor="9" class="s3d-svg__house js-s3d-svg__house" points="326.7265625,304.75,326.7265625,304.75,334.9765625,351.25,334.9765625,351.25,356.2265625,351,356.2265625,351,348.4765625,304.25,348.4765625,304.25"></polygon><polygon data-id="180" data-sec="4" data-build="4" data-floor="8" class="s3d-svg__house js-s3d-svg__house" points="124.4765625,353,124.4765625,353,132.7265625,390.75,132.7265625,390.75,259.2265625,388.5,259.2265625,388.5,260.4765625,388.5,260.4765625,388.5,254.7265625,351.75,254.7265625,351.75"></polygon><polygon data-id="179" data-sec="4" data-build="4" data-floor="8" class="s3d-svg__house js-s3d-svg__house" points="254.4765625,351.75,254.4765625,351.75,259.9765625,389,259.9765625,389,340.9765625,389.75,340.9765625,389.75,334.4765625,351.75,334.4765625,351.75"></polygon><polygon data-id="178" data-sec="4" data-build="4" data-floor="8" class="s3d-svg__house js-s3d-svg__house" points="333.7265625,351.25,333.7265625,351.25,341.4765625,390.25,341.4765625,390.25,362.2265625,389.5,362.2265625,389.5,355.9765625,351.5,355.9765625,351.5"></polygon><polygon data-id="173" data-sec="4" data-build="4" data-floor="7" class="s3d-svg__house js-s3d-svg__house" points="259.7265625,389,259.7265625,389,266.7265625,426.25,266.7265625,426.25,141.9765625,428.25,141.9765625,428.25,133.4765625,391,133.4765625,391"></polygon><polygon data-id="172" data-sec="4" data-build="4" data-floor="7" class="s3d-svg__house js-s3d-svg__house" points="259.4765625,389,259.4765625,389,266.4765625,426.75,266.4765625,426.75,347.2265625,424.75,347.2265625,424.75,340.7265625,389.25,340.7265625,389.25"></polygon><polygon data-id="171" data-sec="4" data-build="4" data-floor="7" class="s3d-svg__house js-s3d-svg__house" points="340.7265625,389.25,340.7265625,389.25,347.4765625,426,347.4765625,426,367.9765625,425.5,367.9765625,425.5,362.2265625,389.5,362.2265625,389.5"></polygon><polygon data-id="166" data-sec="4" data-build="4" data-floor="6" class="s3d-svg__house js-s3d-svg__house" points="266.4765625,426.75,266.4765625,426.75,273.2265625,461.25,273.2265625,461.25,149.7265625,466,149.7265625,466,141.4765625,428.5,141.4765625,428.5"></polygon><polygon data-id="165" data-sec="4" data-build="4" data-floor="6" class="s3d-svg__house js-s3d-svg__house" points="266.4765625,426.75,266.4765625,426.75,273.2265625,461.25,273.2265625,461.25,352.7265625,460,352.7265625,460,346.4765625,425.5,346.4765625,425.5"></polygon><polygon data-id="164" data-sec="4" data-build="4" data-floor="6" class="s3d-svg__house js-s3d-svg__house" points="346.7265625,425.5,346.7265625,425.5,352.4765625,460,352.4765625,460,373.4765625,459.25,373.4765625,459.25,368.7265625,425.75,368.7265625,425.75"></polygon><polygon data-id="159" data-sec="4" data-build="4" data-floor="5" class="s3d-svg__house js-s3d-svg__house" points="273.2265625,461.5,273.2265625,461.5,279.7265625,496.25,279.7265625,496.25,157.4765625,500.25,157.4765625,500.25,149.4765625,466,149.4765625,466"></polygon><polygon data-id="158" data-sec="4" data-build="4" data-floor="5" class="s3d-svg__house js-s3d-svg__house" points="272.7265625,461.25,272.7265625,461.25,279.7265625,496.75,279.7265625,496.75,359.2265625,496,359.2265625,496,351.9765625,460.5,351.9765625,460.5"></polygon><polygon data-id="157" data-sec="4" data-build="4" data-floor="5" class="s3d-svg__house js-s3d-svg__house" points="352.2265625,460.5,352.2265625,460.5,358.7265625,496.25,358.7265625,496.25,379.2265625,495.25,379.2265625,495.25,373.4765625,459.25,373.4765625,459.25"></polygon><polygon data-id="152" data-sec="4" data-build="4" data-floor="4" class="s3d-svg__house js-s3d-svg__house" points="279.7265625,497,279.7265625,497,285.7265625,530.25,285.7265625,530.25,162.9765625,527,162.9765625,527,157.2265625,500.25,157.2265625,500.25"></polygon><polygon data-id="151" data-sec="4" data-build="4" data-floor="4" class="s3d-svg__house js-s3d-svg__house" points="279.2265625,496,279.2265625,496,285.2265625,530,285.2265625,530,364.4765625,529.25,364.4765625,529.25,358.7265625,495.75,358.7265625,495.75"></polygon><polygon data-id="150" data-sec="4" data-build="4" data-floor="4" class="s3d-svg__house js-s3d-svg__house" points="358.4765625,495.75,358.4765625,495.75,364.2265625,529,364.2265625,529,384.4765625,527.25,384.4765625,527.25,378.9765625,495.5,378.9765625,495.5"></polygon><polygon data-id="145" data-sec="4" data-build="4" data-floor="3" class="s3d-svg__house js-s3d-svg__house" points="285.4765625,530,285.4765625,530,292.2265625,562,292.2265625,562,171.9765625,565.5,171.9765625,565.5,162.7265625,527.5,162.7265625,527.5"></polygon><polygon data-id="144" data-sec="4" data-build="4" data-floor="3" class="s3d-svg__house js-s3d-svg__house" points="285.4765625,529.75,285.4765625,529.75,291.7265625,562.25,291.7265625,562.25,368.9765625,560.5,368.9765625,560.5,364.2265625,528.75,364.2265625,528.75"></polygon><polygon data-id="143" data-sec="4" data-build="4" data-floor="3" class="s3d-svg__house js-s3d-svg__house" points="364.4765625,529.5,364.4765625,529.5,368.9765625,561,368.9765625,561,389.9765625,559.75,389.9765625,559.75,384.2265625,527.5,384.2265625,527.5"></polygon><polygon data-id="138" data-sec="4" data-build="4" data-floor="2" class="s3d-svg__house js-s3d-svg__house" points="291.7265625,562,291.7265625,562,299.2265625,597,299.2265625,597,178.9765625,599,178.9765625,599,172.2265625,566.25,172.2265625,566.25"></polygon><polygon data-id="137" data-sec="4" data-build="4" data-floor="2" class="s3d-svg__house js-s3d-svg__house" points="291.4765625,562,291.4765625,562,298.4765625,597,298.4765625,597,374.4765625,596,374.4765625,596,368.4765625,561.25,368.4765625,561.25"></polygon><polygon data-id="136" data-sec="4" data-build="4" data-floor="2" class="s3d-svg__house js-s3d-svg__house" points="367.9765625,561.5,367.9765625,561.5,374.9765625,596.25,374.9765625,596.25,395.2265625,595.75,395.2265625,595.75,390.7265625,560.25,390.7265625,560.25"></polygon><polygon data-id="626" data-sec="4" data-build="4" data-floor="1" class="s3d-svg__house js-s3d-svg__house" points="182.2265625,599,182.2265625,599,191.9765625,640.5,191.9765625,640.5,275.4765625,638.75,275.4765625,638.75,267.7265625,598,267.7265625,598"></polygon><polygon data-id="607" data-sec="4" data-build="4" data-floor="1" class="s3d-svg__house js-s3d-svg__house" points="267.2265625,598,267.2265625,598,275.4765625,639.25,275.4765625,639.25,282.7265625,632.75,282.7265625,632.75,303.4765625,632.25,303.4765625,632.25,305.4765625,638.5,305.4765625,638.5,378.7265625,634.75,378.7265625,634.75,374.7265625,597,374.7265625,597"></polygon><polygon data-id="608" data-sec="4" data-build="4" data-floor="1" class="s3d-svg__house js-s3d-svg__house" points="374.9765625,596,374.9765625,596,378.9765625,634.75,378.9765625,634.75,401.4765625,636.75,401.4765625,636.75,395.2265625,596,395.2265625,596"></polygon><polygon data-id="639" data-sec="5" data-build="5" data-floor="9" class="s3d-svg__house js-s3d-svg__house" points="342.2265625,259,342.2265625,259,355.9765625,352,355.9765625,352,357.7265625,358.75,357.7265625,358.75,456.7265625,359.75,456.7265625,359.75,444.9765625,258.25,444.9765625,258.25"></polygon><polygon data-id="640" data-sec="5" data-build="5" data-floor="9" class="s3d-svg__house js-s3d-svg__house" points="549.4765625,257.25,549.4765625,257.25,560.4765625,362.25,560.4765625,362.25,456.7265625,359.5,456.7265625,359.5,444.4765625,258.5,444.4765625,258.5"></polygon><polygon data-id="641" data-sec="5" data-build="5" data-floor="9" class="s3d-svg__house js-s3d-svg__house" points="549.2265625,257.25,549.2265625,257.25,559.4765625,361.5,559.4765625,361.5,656.4765625,361.75,656.4765625,361.75,649.4765625,257,649.4765625,257"></polygon><polygon data-id="636" data-sec="5" data-build="5" data-floor="9" class="s3d-svg__house js-s3d-svg__house" points="648.4765625,257,648.4765625,257,655.7265625,361.5,655.7265625,361.5,748.4765625,360.25,748.4765625,360.25,742.4765625,255.5,742.4765625,255.5"></polygon><polygon data-id="225" data-sec="5" data-build="5" data-floor="8" class="s3d-svg__house js-s3d-svg__house" points="357.9765625,358.75,357.9765625,358.75,362.2265625,390,362.2265625,390,364.4765625,397.75,364.4765625,397.75,460.4765625,394.75,460.4765625,394.75,455.7265625,359.75,455.7265625,359.75"></polygon><polygon data-id="224" data-sec="5" data-build="5" data-floor="8" class="s3d-svg__house js-s3d-svg__house" points="456.7265625,359.5,456.7265625,359.5,460.2265625,395.5,460.2265625,395.5,563.2265625,396.5,563.2265625,396.5,559.9765625,362.25,559.9765625,362.25"></polygon><polygon data-id="223" data-sec="5" data-build="5" data-floor="8" class="s3d-svg__house js-s3d-svg__house" points="559.9765625,361.5,559.9765625,361.5,563.2265625,397,563.2265625,397,659.4765625,395.5,659.4765625,395.5,655.9765625,362,655.9765625,362"></polygon><polygon data-id="222" data-sec="5" data-build="5" data-floor="8" class="s3d-svg__house js-s3d-svg__house" points="655.9765625,361.5,655.9765625,361.5,660.2265625,396,660.2265625,396,751.4765625,396,751.4765625,396,748.9765625,360.25,748.9765625,360.25"></polygon><polygon data-id="219" data-sec="5" data-build="5" data-floor="7" class="s3d-svg__house js-s3d-svg__house" points="364.2265625,397.75,364.2265625,397.75,370.4765625,438.75,370.4765625,438.75,465.4765625,435,465.4765625,435,460.2265625,395,460.2265625,395"></polygon><polygon data-id="218" data-sec="5" data-build="5" data-floor="7" class="s3d-svg__house js-s3d-svg__house" points="460.2265625,395.25,460.2265625,395.25,466.2265625,436,466.2265625,436,568.2265625,436,568.2265625,436,562.7265625,396.25,562.7265625,396.25"></polygon><polygon data-id="217" data-sec="5" data-build="5" data-floor="7" class="s3d-svg__house js-s3d-svg__house" points="563.2265625,396.25,563.2265625,396.25,568.7265625,436.5,568.7265625,436.5,662.7265625,435,662.7265625,435,659.9765625,395,659.9765625,395"></polygon><polygon data-id="216" data-sec="5" data-build="5" data-floor="7" class="s3d-svg__house js-s3d-svg__house" points="659.4765625,394.5,659.4765625,394.5,662.4765625,434.5,662.4765625,434.5,752.7265625,433,752.7265625,433,750.9765625,396,750.9765625,396"></polygon><polygon data-id="213" data-sec="5" data-build="5" data-floor="6" class="s3d-svg__house js-s3d-svg__house" points="370.2265625,438.75,370.2265625,438.75,375.7265625,471,375.7265625,471,469.7265625,469.75,469.7265625,469.75,464.9765625,435.5,464.9765625,435.5"></polygon><polygon data-id="212" data-sec="5" data-build="5" data-floor="6" class="s3d-svg__house js-s3d-svg__house" points="464.9765625,435.75,464.9765625,435.75,468.9765625,470.25,468.9765625,470.25,569.9765625,470.25,569.9765625,470.25,567.9765625,435.75,567.9765625,435.75"></polygon><polygon data-id="211" data-sec="5" data-build="5" data-floor="6" class="s3d-svg__house js-s3d-svg__house" points="567.9765625,436,567.9765625,436,569.9765625,470.75,569.9765625,470.75,664.7265625,470,664.7265625,470,662.4765625,435,662.4765625,435"></polygon><polygon data-id="210" data-sec="5" data-build="5" data-floor="6" class="s3d-svg__house js-s3d-svg__house" points="662.4765625,435.25,662.4765625,435.25,663.9765625,470.25,663.9765625,470.25,754.7265625,469.75,754.7265625,469.75,752.7265625,433.25,752.7265625,433.25"></polygon><polygon data-id="207" data-sec="5" data-build="5" data-floor="5" class="s3d-svg__house js-s3d-svg__house" points="375.7265625,471.25,375.7265625,471.25,381.7265625,507.75,381.7265625,507.75,474.7265625,506.5,474.7265625,506.5,469.4765625,468.75,469.4765625,468.75"></polygon><polygon data-id="206" data-sec="5" data-build="5" data-floor="5" class="s3d-svg__house js-s3d-svg__house" points="469.4765625,469.75,469.4765625,469.75,474.7265625,507.5,474.7265625,507.5,572.7265625,507.25,572.7265625,507.25,569.4765625,470.5,569.4765625,470.5"></polygon><polygon data-id="205" data-sec="5" data-build="5" data-floor="5" class="s3d-svg__house js-s3d-svg__house" points="569.4765625,470.25,569.4765625,470.25,572.9765625,507.75,572.9765625,507.75,667.4765625,506.25,667.4765625,506.25,663.2265625,470.25,663.2265625,470.25"></polygon><polygon data-id="204" data-sec="5" data-build="5" data-floor="5" class="s3d-svg__house js-s3d-svg__house" points="663.4765625,470.5,663.4765625,470.5,667.4765625,506.75,667.4765625,506.75,755.7265625,505.5,755.7265625,505.5,754.2265625,470.25,754.2265625,470.25"></polygon><polygon data-id="201" data-sec="5" data-build="5" data-floor="4" class="s3d-svg__house js-s3d-svg__house" points="381.7265625,508.75,381.7265625,508.75,387.2265625,542,387.2265625,542,479.4765625,539,479.4765625,539,474.9765625,506.75,474.9765625,506.75"></polygon><polygon data-id="200" data-sec="5" data-build="5" data-floor="4" class="s3d-svg__house js-s3d-svg__house" points="474.2265625,507,474.2265625,507,478.9765625,539.5,478.9765625,539.5,574.2265625,539.5,574.2265625,539.5,572.4765625,507.25,572.4765625,507.25"></polygon><polygon data-id="199" data-sec="5" data-build="5" data-floor="4" class="s3d-svg__house js-s3d-svg__house" points="571.9765625,508.25,571.9765625,508.25,573.9765625,540.25,573.9765625,540.25,670.2265625,537.25,670.2265625,537.25,666.7265625,506,666.7265625,506"></polygon><polygon data-id="198" data-sec="5" data-build="5" data-floor="4" class="s3d-svg__house js-s3d-svg__house" points="666.4765625,506.75,666.4765625,506.75,669.7265625,538.75,669.7265625,538.75,758.9765625,538.25,758.9765625,538.25,756.2265625,505.25,756.2265625,505.25"></polygon><polygon data-id="195" data-sec="5" data-build="5" data-floor="3" class="s3d-svg__house js-s3d-svg__house" points="387.2265625,542.75,387.2265625,542.75,392.2265625,573.75,392.2265625,573.75,483.7265625,573.25,483.7265625,573.25,479.2265625,540,479.2265625,540"></polygon><polygon data-id="194" data-sec="5" data-build="5" data-floor="3" class="s3d-svg__house js-s3d-svg__house" points="478.7265625,539.5,478.7265625,539.5,484.2265625,573.5,484.2265625,573.5,578.2265625,571.25,578.2265625,571.25,574.4765625,540,574.4765625,540"></polygon><polygon data-id="193" data-sec="5" data-build="5" data-floor="3" class="s3d-svg__house js-s3d-svg__house" points="574.2265625,539.75,574.2265625,539.75,578.2265625,572,578.2265625,572,672.7265625,571.25,672.7265625,571.25,669.7265625,537.25,669.7265625,537.25"></polygon><polygon data-id="192" data-sec="5" data-build="5" data-floor="3" class="s3d-svg__house js-s3d-svg__house" points="668.9765625,538.5,668.9765625,538.5,672.7265625,571.25,672.7265625,571.25,760.7265625,573.5,760.7265625,573.5,758.9765625,538.5,758.9765625,538.5"></polygon><polygon data-id="189" data-sec="5" data-build="5" data-floor="2" class="s3d-svg__house js-s3d-svg__house" points="391.7265625,574.25,391.7265625,574.25,396.7265625,607.25,396.7265625,607.25,486.9765625,606.25,486.9765625,606.25,483.4765625,573,483.4765625,573"></polygon><polygon data-id="188" data-sec="5" data-build="5" data-floor="2" class="s3d-svg__house js-s3d-svg__house" points="483.2265625,573.25,483.2265625,573.25,486.7265625,607,486.7265625,607,581.2265625,605,581.2265625,605,578.2265625,571.25,578.2265625,571.25"></polygon><polygon data-id="187" data-sec="5" data-build="5" data-floor="2" class="s3d-svg__house js-s3d-svg__house" points="577.9765625,571.75,577.9765625,571.75,580.9765625,605,580.9765625,605,675.2265625,603.5,675.2265625,603.5,672.7265625,572,672.7265625,572"></polygon><polygon data-id="186" data-sec="5" data-build="5" data-floor="2" class="s3d-svg__house js-s3d-svg__house" points="671.9765625,572.25,671.9765625,572.25,674.9765625,603.5,674.9765625,603.5,760.9765625,601.5,760.9765625,601.5,760.7265625,573.75,760.7265625,573.75"></polygon><polygon data-id="629" data-sec="5" data-build="5" data-floor="1" class="s3d-svg__house js-s3d-svg__house" points="737.9765625,603.5,737.9765625,603.5,742.2265625,643.25,742.2265625,643.25,743.4765625,637.75,743.4765625,637.75,763.2265625,637.25,763.2265625,637.25,760.9765625,601.5,760.9765625,601.5"></polygon><polygon data-id="610" data-sec="5" data-build="5" data-floor="1" class="s3d-svg__house js-s3d-svg__house" points="737.7265625,602.75,737.7265625,602.75,742.4765625,644,742.4765625,644,584.2265625,646,584.2265625,646,579.9765625,605.25,579.9765625,605.25"></polygon><polygon data-id="611" data-sec="5" data-build="5" data-floor="1" class="s3d-svg__house js-s3d-svg__house" points="552.9765625,606.25,552.9765625,606.25,557.9765625,645.5,557.9765625,645.5,492.4765625,648,492.4765625,648,490.4765625,641.75,490.4765625,641.75,471.9765625,641.5,471.9765625,641.5,467.4765625,647.75,467.4765625,647.75,433.2265625,647.75,433.2265625,647.75,426.9765625,606.75,426.9765625,606.75"></polygon><polygon data-id="612" data-sec="5" data-build="5" data-floor="1" class="s3d-svg__house js-s3d-svg__house" points="396.7265625,606.75,396.7265625,606.75,403.9765625,646,403.9765625,646,432.2265625,648,432.2265625,648,426.4765625,607,426.4765625,607"></polygon><polygon data-id="283" data-sec="6" data-build="6" data-floor="9" class="s3d-svg__house js-s3d-svg__house" points="742.4765625,260.75,742.4765625,260.75,748.9765625,362.75,748.9765625,362.75,787.9765625,362,787.9765625,362,785.9765625,261.25,785.9765625,261.25"></polygon><polygon data-id="284" data-sec="6" data-build="6" data-floor="9" class="s3d-svg__house js-s3d-svg__house" points="788.4765625,362.25,788.4765625,362.25,870.9765625,362.5,870.9765625,362.5,869.7265625,261,869.7265625,261,785.9765625,261,785.9765625,261"></polygon><polygon data-id="285" data-sec="6" data-build="6" data-floor="9" class="s3d-svg__house js-s3d-svg__house" points="869.30208333333,261,869.30208333333,261,870.63541666667,363,870.63541666667,363,967.96875,361,967.96875,361,966.63541666667,260.66666666667,966.63541666667,260.66666666667"></polygon><polygon data-id="286" data-sec="6" data-build="6" data-floor="9" class="s3d-svg__house js-s3d-svg__house" points="966.96875,260.66666666667,966.96875,260.66666666667,967.63541666667,361.66666666667,967.63541666667,361.66666666667,1062.3020833333,359.33333333333,1062.3020833333,359.33333333333,1063.6354166667,259,1063.6354166667,259"></polygon><polygon data-id="287" data-sec="6" data-build="6" data-floor="9" class="s3d-svg__house js-s3d-svg__house" points="1146.3020833333,259.33333333333,1146.3020833333,259.33333333333,1142.96875,358.33333333333,1142.96875,358.33333333333,1061.3020833333,359.66666666667,1061.3020833333,359.66666666667,1063.3020833333,259.33333333333,1063.3020833333,259.33333333333"></polygon><polygon data-id="272" data-sec="6" data-build="6" data-floor="8" class="s3d-svg__house js-s3d-svg__house" points="748.9765625,361.75,748.9765625,361.75,751.4765625,402,751.4765625,402,789.7265625,401,789.7265625,401,787.7265625,362.25,787.7265625,362.25"></polygon><polygon data-id="279" data-sec="6" data-build="6" data-floor="8" class="s3d-svg__house js-s3d-svg__house" points="787.4765625,361.5,787.4765625,361.5,789.4765625,401,789.4765625,401,870.7265625,401,870.7265625,401,870.4765625,362.25,870.4765625,362.25"></polygon><polygon data-id="278" data-sec="6" data-build="6" data-floor="8" class="s3d-svg__house js-s3d-svg__house" points="870.2265625,361.75,870.2265625,361.75,870.7265625,401.5,870.7265625,401.5,968.2265625,402,968.2265625,402,967.9765625,360.75,967.9765625,360.75"></polygon><polygon data-id="277" data-sec="6" data-build="6" data-floor="8" class="s3d-svg__house js-s3d-svg__house" points="967.9765625,361,967.9765625,361,968.7265625,402.25,968.7265625,402.25,1060.4765625,399.75,1060.4765625,399.75,1061.2265625,359.5,1061.2265625,359.5"></polygon><polygon data-id="276" data-sec="6" data-build="6" data-floor="8" class="s3d-svg__house js-s3d-svg__house" points="1061.7265625,359.25,1061.7265625,359.25,1060.2265625,401,1060.2265625,401,1140.7265625,399.25,1140.7265625,399.25,1143.2265625,358.75,1143.2265625,358.75"></polygon><polygon data-id="264" data-sec="6" data-build="6" data-floor="7" class="s3d-svg__house js-s3d-svg__house" points="751.2265625,401.75,751.2265625,401.75,753.2265625,442.5,753.2265625,442.5,789.7265625,442.75,789.7265625,442.75,789.7265625,400.75,789.7265625,400.75"></polygon><polygon data-id="271" data-sec="6" data-build="6" data-floor="7" class="s3d-svg__house js-s3d-svg__house" points="789.7265625,401.5,789.7265625,401.5,789.9765625,443.5,789.9765625,443.5,870.9765625,443.5,870.9765625,443.5,870.2265625,402,870.2265625,402"></polygon><polygon data-id="270" data-sec="6" data-build="6" data-floor="7" class="s3d-svg__house js-s3d-svg__house" points="869.9765625,401.25,869.9765625,401.25,870.4765625,444.25,870.4765625,444.25,966.9765625,443,966.9765625,443,967.4765625,403,967.4765625,403"></polygon><polygon data-id="269" data-sec="6" data-build="6" data-floor="7" class="s3d-svg__house js-s3d-svg__house" points="967.2265625,403,967.2265625,403,966.7265625,443.25,966.7265625,443.25,1060.2265625,439.75,1060.2265625,439.75,1059.7265625,400.75,1059.7265625,400.75"></polygon><polygon data-id="268" data-sec="6" data-build="6" data-floor="7" class="s3d-svg__house js-s3d-svg__house" points="1059.4765625,399.75,1059.4765625,399.75,1059.7265625,440,1059.7265625,440,1138.4765625,439.75,1138.4765625,439.75,1140.2265625,399.25,1140.2265625,399.25"></polygon><polygon data-id="256" data-sec="6" data-build="6" data-floor="6" class="s3d-svg__house js-s3d-svg__house" points="752.7265625,443,752.7265625,443,754.4765625,479.25,754.4765625,479.25,791.4765625,478.75,791.4765625,478.75,789.4765625,443.25,789.4765625,443.25"></polygon><polygon data-id="263" data-sec="6" data-build="6" data-floor="6" class="s3d-svg__house js-s3d-svg__house" points="789.7265625,443.25,789.7265625,443.25,791.4765625,479.25,791.4765625,479.25,870.2265625,479.25,870.2265625,479.25,870.2265625,444.25,870.2265625,444.25"></polygon><polygon data-id="262" data-sec="6" data-build="6" data-floor="6" class="s3d-svg__house js-s3d-svg__house" points="869.9765625,444,869.9765625,444,869.7265625,480.25,869.7265625,480.25,967.2265625,477.5,967.2265625,477.5,966.9765625,443.25,966.9765625,443.25"></polygon><polygon data-id="261" data-sec="6" data-build="6" data-floor="6" class="s3d-svg__house js-s3d-svg__house" points="966.4765625,443.5,966.4765625,443.5,967.2265625,478.5,967.2265625,478.5,1058.4765625,476.5,1058.4765625,476.5,1059.4765625,440,1059.4765625,440"></polygon><polygon data-id="260" data-sec="6" data-build="6" data-floor="6" class="s3d-svg__house js-s3d-svg__house" points="1059.9765625,440,1059.9765625,440,1058.4765625,477.75,1058.4765625,477.75,1137.4765625,476,1137.4765625,476,1137.4765625,440.25,1137.4765625,440.25"></polygon><polygon data-id="248" data-sec="6" data-build="6" data-floor="5" class="s3d-svg__house js-s3d-svg__house" points="754.7265625,479.5,754.7265625,479.5,756.7265625,516,756.7265625,516,794.2265625,515,794.2265625,515,791.2265625,479,791.2265625,479"></polygon><polygon data-id="255" data-sec="6" data-build="6" data-floor="5" class="s3d-svg__house js-s3d-svg__house" points="791.4765625,479.25,791.4765625,479.25,793.9765625,516,793.9765625,516,870.2265625,514.5,870.2265625,514.5,870.2265625,479.5,870.2265625,479.5"></polygon><polygon data-id="254" data-sec="6" data-build="6" data-floor="5" class="s3d-svg__house js-s3d-svg__house" points="869.9765625,479.75,869.9765625,479.75,870.2265625,515,870.2265625,515,967.2265625,512.75,967.2265625,512.75,966.7265625,477.75,966.7265625,477.75"></polygon><polygon data-id="253" data-sec="6" data-build="6" data-floor="5" class="s3d-svg__house js-s3d-svg__house" points="966.7265625,478.25,966.7265625,478.25,967.2265625,512.75,967.2265625,512.75,1056.2265625,512.75,1056.2265625,512.75,1058.2265625,476.75,1058.2265625,476.75"></polygon><polygon data-id="252" data-sec="6" data-build="6" data-floor="5" class="s3d-svg__house js-s3d-svg__house" points="1058.2265625,477,1058.2265625,477,1056.2265625,512.75,1056.2265625,512.75,1135.7265625,510.25,1135.7265625,510.25,1137.2265625,476.5,1137.2265625,476.5"></polygon><polygon data-id="240" data-sec="6" data-build="6" data-floor="4" class="s3d-svg__house js-s3d-svg__house" points="756.2265625,516.5,756.2265625,516.5,759.4765625,550.5,759.4765625,550.5,795.4765625,549.5,795.4765625,549.5,794.4765625,515,794.4765625,515"></polygon><polygon data-id="247" data-sec="6" data-build="6" data-floor="4" class="s3d-svg__house js-s3d-svg__house" points="793.7265625,515.5,793.7265625,515.5,794.9765625,550,794.9765625,550,870.4765625,551,870.4765625,551,869.4765625,514,869.4765625,514"></polygon><polygon data-id="246" data-sec="6" data-build="6" data-floor="4" class="s3d-svg__house js-s3d-svg__house" points="869.4765625,514,869.4765625,514,870.2265625,551.25,870.2265625,551.25,966.7265625,551.25,966.7265625,551.25,966.4765625,512.75,966.4765625,512.75"></polygon><polygon data-id="245" data-sec="6" data-build="6" data-floor="4" class="s3d-svg__house js-s3d-svg__house" points="966.4765625,512.75,966.4765625,512.75,966.7265625,550.25,966.7265625,550.25,1056.4765625,547.25,1056.4765625,547.25,1056.2265625,512,1056.2265625,512"></polygon><polygon data-id="244" data-sec="6" data-build="6" data-floor="4" class="s3d-svg__house js-s3d-svg__house" points="1055.7265625,512.25,1055.7265625,512.25,1055.9765625,548,1055.9765625,548,1134.7265625,545.75,1134.7265625,545.75,1135.4765625,510.5,1135.4765625,510.5"></polygon><polygon data-id="232" data-sec="6" data-build="6" data-floor="3" class="s3d-svg__house js-s3d-svg__house" points="759.2265625,550.5,759.2265625,550.5,760.4765625,584,760.4765625,584,796.2265625,585,796.2265625,585,795.4765625,549.75,795.4765625,549.75"></polygon><polygon data-id="239" data-sec="6" data-build="6" data-floor="3" class="s3d-svg__house js-s3d-svg__house" points="794.7265625,549.5,794.7265625,549.5,796.2265625,584.75,796.2265625,584.75,871.2265625,583.5,871.2265625,583.5,870.4765625,551.5,870.4765625,551.5"></polygon><polygon data-id="238" data-sec="6" data-build="6" data-floor="3" class="s3d-svg__house js-s3d-svg__house" points="869.9765625,551.25,869.9765625,551.25,870.9765625,584.5,870.9765625,584.5,966.2265625,584.75,966.2265625,584.75,966.7265625,551,966.7265625,551"></polygon><polygon data-id="237" data-sec="6" data-build="6" data-floor="3" class="s3d-svg__house js-s3d-svg__house" points="966.2265625,550.25,966.2265625,550.25,966.2265625,583.75,966.2265625,583.75,1055.4765625,581.25,1055.4765625,581.25,1055.4765625,547.25,1055.4765625,547.25"></polygon><polygon data-id="236" data-sec="6" data-build="6" data-floor="3" class="s3d-svg__house js-s3d-svg__house" points="1055.7265625,547.5,1055.7265625,547.5,1055.4765625,581,1055.4765625,581,1131.2265625,580,1131.2265625,580,1133.9765625,546.25,1133.9765625,546.25"></polygon><polygon data-id="231" data-sec="6" data-build="6" data-floor="2" class="s3d-svg__house js-s3d-svg__house" points="833.9765625,584.25,833.9765625,584.25,834.9765625,611.75,834.9765625,611.75,965.9765625,611,965.9765625,611,965.9765625,584,965.9765625,584"></polygon><polygon data-id="230" data-sec="6" data-build="6" data-floor="2" class="s3d-svg__house js-s3d-svg__house" points="965.4765625,584.75,965.4765625,584.75,965.7265625,611.5,965.7265625,611.5,1054.7265625,609.5,1054.7265625,609.5,1055.4765625,580.5,1055.4765625,580.5"></polygon><polygon data-id="229" data-sec="6" data-build="6" data-floor="2" class="s3d-svg__house js-s3d-svg__house" points="1054.9765625,580.5,1054.9765625,580.5,1054.7265625,609.75,1054.7265625,609.75,1128.4765625,608.75,1128.4765625,608.75,1130.7265625,580,1130.7265625,580"></polygon><polygon data-id="347" data-sec="7" data-build="7" data-floor="9" class="s3d-svg__house js-s3d-svg__house" points="1145.4765625,259.75,1145.4765625,259.75,1142.7265625,359.5,1142.7265625,359.5,1147.4765625,366.5,1147.4765625,366.5,1224.4765625,368,1224.4765625,368,1227.4765625,329.75,1227.4765625,329.75,1188.2265625,329.25,1188.2265625,329.25,1192.4765625,265.75,1192.4765625,265.75,1152.4765625,265.75,1152.4765625,265.75"></polygon><polygon data-id="348" data-sec="7" data-build="7" data-floor="9" class="s3d-svg__house js-s3d-svg__house" points="1192.4765625,265,1192.4765625,265,1188.2265625,328.75,1188.2265625,328.75,1227.4765625,330,1227.4765625,330,1224.2265625,368.75,1224.2265625,368.75,1270.2265625,369.5,1270.2265625,369.5,1278.9765625,264.75,1278.9765625,264.75"></polygon><polygon data-id="349" data-sec="7" data-build="7" data-floor="9" class="s3d-svg__house js-s3d-svg__house" points="1278.9765625,264.25,1278.9765625,264.25,1270.4765625,369.75,1270.4765625,369.75,1362.9765625,370.5,1362.9765625,370.5,1374.2265625,263.25,1374.2265625,263.25"></polygon><polygon data-id="350" data-sec="7" data-build="7" data-floor="9" class="s3d-svg__house js-s3d-svg__house" points="1374.4765625,263.5,1374.4765625,263.5,1362.9765625,371.25,1362.9765625,371.25,1457.7265625,371.5,1457.7265625,371.5,1472.2265625,263.25,1472.2265625,263.25"></polygon><polygon data-id="351" data-sec="7" data-build="7" data-floor="9" class="s3d-svg__house js-s3d-svg__house" points="1472.2265625,262.75,1472.2265625,262.75,1458.4765625,371.5,1458.4765625,371.5,1540.2265625,370.75,1540.2265625,370.75,1556.4765625,262,1556.4765625,262"></polygon><polygon data-id="336" data-sec="7" data-build="7" data-floor="8" class="s3d-svg__house js-s3d-svg__house" points="1142.4765625,359.75,1142.4765625,359.75,1139.4765625,399.75,1139.4765625,399.75,1145.4765625,409.75,1145.4765625,409.75,1184.2265625,410,1184.2265625,410,1185.7265625,367.5,1185.7265625,367.5,1147.4765625,367.75,1147.4765625,367.75"></polygon><polygon data-id="343" data-sec="7" data-build="7" data-floor="8" class="s3d-svg__house js-s3d-svg__house" points="1185.7265625,367.75,1185.7265625,367.75,1183.4765625,411,1183.4765625,411,1267.7265625,410.25,1267.7265625,410.25,1270.4765625,369.25,1270.4765625,369.25"></polygon><polygon data-id="342" data-sec="7" data-build="7" data-floor="8" class="s3d-svg__house js-s3d-svg__house" points="1270.2265625,369.25,1270.2265625,369.25,1267.7265625,409.75,1267.7265625,409.75,1360.4765625,409.5,1360.4765625,409.5,1362.7265625,371,1362.7265625,371"></polygon><polygon data-id="341" data-sec="7" data-build="7" data-floor="8" class="s3d-svg__house js-s3d-svg__house" points="1362.2265625,371,1362.2265625,371,1360.7265625,411,1360.7265625,411,1453.2265625,410.25,1453.2265625,410.25,1458.7265625,372.75,1458.7265625,372.75"></polygon><polygon data-id="340" data-sec="7" data-build="7" data-floor="8" class="s3d-svg__house js-s3d-svg__house" points="1458.7265625,372,1458.7265625,372,1453.4765625,410.25,1453.4765625,410.25,1533.4765625,412,1533.4765625,412,1539.7265625,370.75,1539.7265625,370.75"></polygon><polygon data-id="328" data-sec="7" data-build="7" data-floor="7" class="s3d-svg__house js-s3d-svg__house" points="1139.2265625,399.75,1139.2265625,399.75,1137.7265625,439.5,1137.7265625,439.5,1143.4765625,447.25,1143.4765625,447.25,1178.9765625,448,1178.9765625,448,1181.9765625,411,1181.9765625,411,1144.9765625,410,1144.9765625,410"></polygon><polygon data-id="335" data-sec="7" data-build="7" data-floor="7" class="s3d-svg__house js-s3d-svg__house" points="1181.7265625,409.75,1181.7265625,409.75,1178.9765625,447.75,1178.9765625,447.75,1264.9765625,447,1264.9765625,447,1267.7265625,409.5,1267.7265625,409.5"></polygon><polygon data-id="334" data-sec="7" data-build="7" data-floor="7" class="s3d-svg__house js-s3d-svg__house" points="1267.2265625,409.75,1267.2265625,409.75,1264.7265625,447.5,1264.7265625,447.5,1356.9765625,448,1356.9765625,448,1360.4765625,410.5,1360.4765625,410.5"></polygon><polygon data-id="333" data-sec="7" data-build="7" data-floor="7" class="s3d-svg__house js-s3d-svg__house" points="1359.4765625,410,1359.4765625,410,1357.4765625,448,1357.4765625,448,1446.9765625,448.25,1446.9765625,448.25,1453.4765625,410,1453.4765625,410"></polygon><polygon data-id="332" data-sec="7" data-build="7" data-floor="7" class="s3d-svg__house js-s3d-svg__house" points="1452.9765625,410,1452.9765625,410,1446.4765625,449,1446.4765625,449,1527.4765625,448,1527.4765625,448,1533.4765625,412.25,1533.4765625,412.25"></polygon><polygon data-id="320" data-sec="7" data-build="7" data-floor="6" class="s3d-svg__house js-s3d-svg__house" points="1137.2265625,439.5,1137.2265625,439.5,1136.4765625,476.5,1136.4765625,476.5,1141.9765625,483.25,1141.9765625,483.25,1178.2265625,483.5,1178.2265625,483.5,1180.2265625,448,1180.2265625,448,1143.4765625,447,1143.4765625,447"></polygon><polygon data-id="327" data-sec="7" data-build="7" data-floor="6" class="s3d-svg__house js-s3d-svg__house" points="1179.7265625,447.75,1179.7265625,447.75,1177.7265625,484.25,1177.7265625,484.25,1262.7265625,483.25,1262.7265625,483.25,1264.4765625,447.25,1264.4765625,447.25"></polygon><polygon data-id="326" data-sec="7" data-build="7" data-floor="6" class="s3d-svg__house js-s3d-svg__house" points="1264.9765625,447.5,1264.9765625,447.5,1262.9765625,483.5,1262.9765625,483.5,1353.7265625,483,1353.7265625,483,1356.9765625,448.5,1356.9765625,448.5"></polygon><polygon data-id="325" data-sec="7" data-build="7" data-floor="6" class="s3d-svg__house js-s3d-svg__house" points="1357.2265625,448.25,1357.2265625,448.25,1353.9765625,483.25,1353.9765625,483.25,1442.2265625,482,1442.2265625,482,1446.7265625,449.25,1446.7265625,449.25"></polygon><polygon data-id="324" data-sec="7" data-build="7" data-floor="6" class="s3d-svg__house js-s3d-svg__house" points="1446.7265625,448.25,1446.7265625,448.25,1441.9765625,482.5,1441.9765625,482.5,1522.4765625,483.25,1522.4765625,483.25,1527.9765625,448.5,1527.9765625,448.5"></polygon><polygon data-id="312" data-sec="7" data-build="7" data-floor="5" class="s3d-svg__house js-s3d-svg__house" points="1136.7265625,476.5,1136.7265625,476.5,1135.2265625,510.5,1135.2265625,510.5,1139.9765625,516.25,1139.9765625,516.25,1174.7265625,517.25,1174.7265625,517.25,1176.7265625,484.75,1176.7265625,484.75,1140.9765625,484.25,1140.9765625,484.25"></polygon><polygon data-id="319" data-sec="7" data-build="7" data-floor="5" class="s3d-svg__house js-s3d-svg__house" points="1176.7265625,484.75,1176.7265625,484.75,1174.7265625,516.5,1174.7265625,516.5,1260.7265625,516.25,1260.7265625,516.25,1262.2265625,483.75,1262.2265625,483.75"></polygon><polygon data-id="318" data-sec="7" data-build="7" data-floor="5" class="s3d-svg__house js-s3d-svg__house" points="1261.9765625,483,1261.9765625,483,1260.4765625,517,1260.4765625,517,1350.2265625,517.25,1350.2265625,517.25,1353.9765625,483.25,1353.9765625,483.25"></polygon><polygon data-id="317" data-sec="7" data-build="7" data-floor="5" class="s3d-svg__house js-s3d-svg__house" points="1353.4765625,482.75,1353.4765625,482.75,1349.9765625,517.5,1349.9765625,517.5,1436.2265625,518.5,1436.2265625,518.5,1441.7265625,482,1441.7265625,482"></polygon><polygon data-id="316" data-sec="7" data-build="7" data-floor="5" class="s3d-svg__house js-s3d-svg__house" points="1442.2265625,482.25,1442.2265625,482.25,1436.4765625,518.5,1436.4765625,518.5,1518.2265625,518,1518.2265625,518,1522.7265625,482.75,1522.7265625,482.75"></polygon><polygon data-id="304" data-sec="7" data-build="7" data-floor="4" class="s3d-svg__house js-s3d-svg__house" points="1135.2265625,511,1135.2265625,511,1133.4765625,546.75,1133.4765625,546.75,1138.2265625,555.5,1138.2265625,555.5,1172.2265625,556,1172.2265625,556,1174.4765625,517,1174.4765625,517,1140.9765625,516.25,1140.9765625,516.25"></polygon><polygon data-id="311" data-sec="7" data-build="7" data-floor="4" class="s3d-svg__house js-s3d-svg__house" points="1174.7265625,516,1174.7265625,516,1171.9765625,556.5,1171.9765625,556.5,1259.2265625,554.25,1259.2265625,554.25,1260.4765625,516.75,1260.4765625,516.75"></polygon><polygon data-id="310" data-sec="7" data-build="7" data-floor="4" class="s3d-svg__house js-s3d-svg__house" points="1259.9765625,516.75,1259.9765625,516.75,1258.7265625,554.5,1258.7265625,554.5,1346.4765625,553.5,1346.4765625,553.5,1349.9765625,518,1349.9765625,518"></polygon><polygon data-id="309" data-sec="7" data-build="7" data-floor="4" class="s3d-svg__house js-s3d-svg__house" points="1350.2265625,517.25,1350.2265625,517.25,1346.2265625,553.75,1346.2265625,553.75,1432.2265625,554.5,1432.2265625,554.5,1436.2265625,518.75,1436.2265625,518.75"></polygon><polygon data-id="308" data-sec="7" data-build="7" data-floor="4" class="s3d-svg__house js-s3d-svg__house" points="1436.4765625,518.25,1436.4765625,518.25,1432.4765625,554.25,1432.4765625,554.25,1512.4765625,552.25,1512.4765625,552.25,1518.2265625,518.25,1518.2265625,518.25"></polygon><polygon data-id="296" data-sec="7" data-build="7" data-floor="3" class="s3d-svg__house js-s3d-svg__house" points="1133.2265625,546.75,1133.2265625,546.75,1130.7265625,580,1130.7265625,580,1136.7265625,587.5,1136.7265625,587.5,1170.7265625,587.75,1170.7265625,587.75,1171.2265625,556,1171.2265625,556,1137.9765625,555.5,1137.9765625,555.5"></polygon><polygon data-id="303" data-sec="7" data-build="7" data-floor="3" class="s3d-svg__house js-s3d-svg__house" points="1171.7265625,556.5,1171.7265625,556.5,1170.7265625,588.5,1170.7265625,588.5,1208.7265625,590.75,1208.7265625,590.75,1256.7265625,589.75,1256.7265625,589.75,1258.4765625,554.5,1258.4765625,554.5"></polygon><polygon data-id="302" data-sec="7" data-build="7" data-floor="3" class="s3d-svg__house js-s3d-svg__house" points="1258.2265625,554.25,1258.2265625,554.25,1256.7265625,589.5,1256.7265625,589.5,1342.9765625,590.75,1342.9765625,590.75,1346.2265625,553.5,1346.2265625,553.5"></polygon><polygon data-id="301" data-sec="7" data-build="7" data-floor="3" class="s3d-svg__house js-s3d-svg__house" points="1346.2265625,553.5,1346.2265625,553.5,1342.9765625,590.5,1342.9765625,590.5,1427.4765625,591.5,1427.4765625,591.5,1432.2265625,554.25,1432.2265625,554.25"></polygon><polygon data-id="300" data-sec="7" data-build="7" data-floor="3" class="s3d-svg__house js-s3d-svg__house" points="1431.9765625,554.5,1431.9765625,554.5,1427.4765625,592.25,1427.4765625,592.25,1506.2265625,589.5,1506.2265625,589.5,1512.2265625,552.25,1512.2265625,552.25"></polygon><polygon data-id="288" data-sec="7" data-build="7" data-floor="2" class="s3d-svg__house js-s3d-svg__house" points="1130.4765625,580,1130.4765625,580,1128.2265625,609.25,1128.2265625,609.25,1134.7265625,620,1134.7265625,620,1169.7265625,619,1169.7265625,619,1171.4765625,588.5,1171.4765625,588.5,1136.7265625,588,1136.7265625,588"></polygon><polygon data-id="295" data-sec="7" data-build="7" data-floor="2" class="s3d-svg__house js-s3d-svg__house" points="1170.7265625,587.75,1170.7265625,587.75,1168.9765625,619.5,1168.9765625,619.5,1254.4765625,618.75,1254.4765625,618.75,1256.9765625,589.25,1256.9765625,589.25"></polygon><polygon data-id="294" data-sec="7" data-build="7" data-floor="2" class="s3d-svg__house js-s3d-svg__house" points="1256.9765625,589.25,1256.9765625,589.25,1254.7265625,618.75,1254.7265625,618.75,1341.2265625,616.5,1341.2265625,616.5,1343.2265625,589.75,1343.2265625,589.75"></polygon><polygon data-id="293" data-sec="7" data-build="7" data-floor="2" class="s3d-svg__house js-s3d-svg__house" points="1343.4765625,589.75,1343.4765625,589.75,1341.4765625,617.25,1341.4765625,617.25,1424.9765625,615,1424.9765625,615,1426.9765625,591.5,1426.9765625,591.5"></polygon><polygon data-id="292" data-sec="7" data-build="7" data-floor="2" class="s3d-svg__house js-s3d-svg__house" points="1426.7265625,591,1426.7265625,591,1425.2265625,615.75,1425.2265625,615.75,1502.4765625,614.25,1502.4765625,614.25,1506.2265625,590,1506.2265625,590"></polygon><polygon data-id="406" data-sec="8" data-build="8" data-floor="9" class="s3d-svg__house js-s3d-svg__house" points="1556.2265625,262,1556.2265625,262,1540.9765625,364.25,1540.9765625,364.25,1553.2265625,372.75,1553.2265625,372.75,1598.2265625,375.25,1598.2265625,375.25,1615.4765625,266.5,1615.4765625,266.5,1569.7265625,265.5,1569.7265625,265.5"></polygon><polygon data-id="405" data-sec="8" data-build="8" data-floor="9" class="s3d-svg__house js-s3d-svg__house" points="1614.4765625,275,1614.4765625,275,1598.4765625,375.25,1598.4765625,375.25,1710.9765625,376,1710.9765625,376,1735.4765625,274.75,1735.4765625,274.75"></polygon><polygon data-id="404" data-sec="8" data-build="8" data-floor="9" class="s3d-svg__house js-s3d-svg__house" points="1735.2265625,275,1735.2265625,275,1710.9765625,376,1710.9765625,376,1803.9765625,374.25,1803.9765625,374.25,1826.2265625,274.5,1826.2265625,274.5"></polygon><polygon data-id="399" data-sec="8" data-build="8" data-floor="8" class="s3d-svg__house js-s3d-svg__house" points="1540.4765625,364.75,1540.4765625,364.75,1535.9765625,398.5,1535.9765625,398.5,1548.2265625,409,1548.2265625,409,1591.9765625,410.25,1591.9765625,410.25,1597.7265625,374.5,1597.7265625,374.5,1552.4765625,373.5,1552.4765625,373.5"></polygon><polygon data-id="398" data-sec="8" data-build="8" data-floor="8" class="s3d-svg__house js-s3d-svg__house" points="1598.2265625,375,1598.2265625,375,1592.2265625,410,1592.2265625,410,1704.7265625,410.75,1704.7265625,410.75,1710.7265625,375.75,1710.7265625,375.75"></polygon><polygon data-id="397" data-sec="8" data-build="8" data-floor="8" class="s3d-svg__house js-s3d-svg__house" points="1710.4765625,376.25,1710.4765625,376.25,1704.2265625,410.5,1704.2265625,410.5,1795.9765625,411,1795.9765625,411,1804.9765625,374.25,1804.9765625,374.25"></polygon><polygon data-id="392" data-sec="8" data-build="8" data-floor="7" class="s3d-svg__house js-s3d-svg__house" points="1535.7265625,399.25,1535.7265625,399.25,1530.9765625,431.75,1530.9765625,431.75,1541.7265625,446.25,1541.7265625,446.25,1586.4765625,447.25,1586.4765625,447.25,1591.2265625,410.25,1591.2265625,410.25,1548.4765625,409.25,1548.4765625,409.25"></polygon><polygon data-id="391" data-sec="8" data-build="8" data-floor="7" class="s3d-svg__house js-s3d-svg__house" points="1591.7265625,409.75,1591.7265625,409.75,1585.9765625,447.5,1585.9765625,447.5,1697.4765625,449.25,1697.4765625,449.25,1704.7265625,410.5,1704.7265625,410.5"></polygon><polygon data-id="390" data-sec="8" data-build="8" data-floor="7" class="s3d-svg__house js-s3d-svg__house" points="1704.9765625,410.75,1704.9765625,410.75,1697.2265625,449.75,1697.2265625,449.75,1788.7265625,448.25,1788.7265625,448.25,1795.2265625,411.75,1795.2265625,411.75"></polygon><polygon data-id="385" data-sec="8" data-build="8" data-floor="6" class="s3d-svg__house js-s3d-svg__house" points="1530.7265625,432.5,1530.7265625,432.5,1524.9765625,467.75,1524.9765625,467.75,1536.2265625,483.75,1536.2265625,483.75,1579.9765625,484.75,1579.9765625,484.75,1585.9765625,447.75,1585.9765625,447.75,1541.7265625,446.75,1541.7265625,446.75"></polygon><polygon data-id="384" data-sec="8" data-build="8" data-floor="6" class="s3d-svg__house js-s3d-svg__house" points="1585.4765625,447.25,1585.4765625,447.25,1580.2265625,485,1580.2265625,485,1690.9765625,485,1690.9765625,485,1697.4765625,449.5,1697.4765625,449.5"></polygon><polygon data-id="383" data-sec="8" data-build="8" data-floor="6" class="s3d-svg__house js-s3d-svg__house" points="1697.2265625,449.75,1697.2265625,449.75,1690.7265625,485.5,1690.7265625,485.5,1779.9765625,485.25,1779.9765625,485.25,1788.2265625,448,1788.2265625,448"></polygon><polygon data-id="378" data-sec="8" data-build="8" data-floor="5" class="s3d-svg__house js-s3d-svg__house" points="1524.4765625,468.5,1524.4765625,468.5,1536.2265625,484,1536.2265625,484,1579.9765625,485,1579.9765625,485,1573.7265625,522,1573.7265625,522,1529.9765625,522,1529.9765625,522,1519.4765625,504.5,1519.4765625,504.5"></polygon><polygon data-id="377" data-sec="8" data-build="8" data-floor="5" class="s3d-svg__house js-s3d-svg__house" points="1579.9765625,484.75,1579.9765625,484.75,1573.4765625,522,1573.4765625,522,1685.2265625,520.75,1685.2265625,520.75,1690.9765625,485.75,1690.9765625,485.75"></polygon><polygon data-id="376" data-sec="8" data-build="8" data-floor="5" class="s3d-svg__house js-s3d-svg__house" points="1690.9765625,485.75,1690.9765625,485.75,1684.7265625,521.5,1684.7265625,521.5,1771.7265625,523.75,1771.7265625,523.75,1779.9765625,485.25,1779.9765625,485.25"></polygon><polygon data-id="371" data-sec="8" data-build="8" data-floor="4" class="s3d-svg__house js-s3d-svg__house" points="1519.2265625,505,1519.2265625,505,1529.2265625,522.25,1529.2265625,522.25,1573.4765625,522.75,1573.4765625,522.75,1567.9765625,558.75,1567.9765625,558.75,1525.2265625,558.75,1525.2265625,558.75,1514.4765625,541.75,1514.4765625,541.75"></polygon><polygon data-id="370" data-sec="8" data-build="8" data-floor="4" class="s3d-svg__house js-s3d-svg__house" points="1573.4765625,522.25,1573.4765625,522.25,1567.7265625,559.5,1567.7265625,559.5,1677.9765625,558.75,1677.9765625,558.75,1685.7265625,520,1685.7265625,520"></polygon><polygon data-id="369" data-sec="8" data-build="8" data-floor="4" class="s3d-svg__house js-s3d-svg__house" points="1685.2265625,520.75,1685.2265625,520.75,1678.2265625,559.25,1678.2265625,559.25,1763.7265625,559,1763.7265625,559,1771.7265625,523.75,1771.7265625,523.75"></polygon><polygon data-id="364" data-sec="8" data-build="8" data-floor="3" class="s3d-svg__house js-s3d-svg__house" points="1514.2265625,542.25,1514.2265625,542.25,1508.7265625,576,1508.7265625,576,1519.4765625,590.75,1519.4765625,590.75,1562.9765625,590.75,1562.9765625,590.75,1568.2265625,558.75,1568.2265625,558.75,1524.7265625,558.75,1524.7265625,558.75"></polygon><polygon data-id="363" data-sec="8" data-build="8" data-floor="3" class="s3d-svg__house js-s3d-svg__house" points="1567.7265625,558.25,1567.7265625,558.25,1562.9765625,590.5,1562.9765625,590.5,1672.2265625,591.75,1672.2265625,591.75,1677.7265625,559.25,1677.7265625,559.25"></polygon><polygon data-id="362" data-sec="8" data-build="8" data-floor="3" class="s3d-svg__house js-s3d-svg__house" points="1678.2265625,559.25,1678.2265625,559.25,1671.7265625,591.75,1671.7265625,591.75,1755.4765625,592,1755.4765625,592,1763.7265625,558.75,1763.7265625,558.75"></polygon><polygon data-id="357" data-sec="8" data-build="8" data-floor="2" class="s3d-svg__house js-s3d-svg__house" points="1508.2265625,576.5,1508.2265625,576.5,1502.9765625,613.75,1502.9765625,613.75,1513.2265625,624.75,1513.2265625,624.75,1556.2265625,624.75,1556.2265625,624.75,1563.2265625,590.75,1563.2265625,590.75,1518.9765625,590.75,1518.9765625,590.75"></polygon><polygon data-id="356" data-sec="8" data-build="8" data-floor="2" class="s3d-svg__house js-s3d-svg__house" points="1562.7265625,590,1562.7265625,590,1556.7265625,625.5,1556.7265625,625.5,1666.2265625,624,1666.2265625,624,1672.4765625,592,1672.4765625,592"></polygon><polygon data-id="355" data-sec="8" data-build="8" data-floor="2" class="s3d-svg__house js-s3d-svg__house" points="1671.9765625,592,1671.9765625,592,1666.2265625,624,1666.2265625,624,1749.2265625,623.25,1749.2265625,623.25,1755.9765625,592.5,1755.9765625,592.5"></polygon><polygon data-id="46" data-sec="1" data-build="1" data-floor="9" class="s3d-svg__house js-s3d-svg__house" points="660.9765625,165,660.9765625,165,664.2265625,215.75,664.2265625,215.75,701.2265625,214.75,701.2265625,214.75,701.9765625,220.5,701.9765625,220.5,706.2265625,220,706.2265625,220,705.7265625,228.25,705.7265625,228.25,746.2265625,228.75,746.2265625,228.75,757.4765625,228,757.4765625,228,753.4765625,154.25,753.4765625,154.25,741.9765625,165.75,741.9765625,165.75"></polygon><polygon data-id="47" data-sec="1" data-build="1" data-floor="9" class="s3d-svg__house js-s3d-svg__house" points="549.7265625,165.75,549.7265625,165.75,552.9765625,195.25,552.9765625,195.25,574.7265625,195,574.7265625,195,575.4765625,201.5,575.4765625,201.5,592.7265625,201.5,592.7265625,201.5,594.9765625,196.75,594.9765625,196.75,623.9765625,197,623.9765625,197,625.4765625,197,625.4765625,197,622.9765625,165,622.9765625,165"></polygon><polygon data-id="656" data-sec="6" data-build="6" data-floor="1" class="s3d-svg__house js-s3d-svg__house" points="815,614,818.33333333333,655,923.33333333333,652,923,613"></polygon><polygon data-id="657" data-sec="6" data-build="6" data-floor="1" class="s3d-svg__house js-s3d-svg__house" points="1054.3333333333,611,1052.6666666667,651.33333333333,967,651,965,611.66666666667"></polygon><polygon data-id="658" data-sec="6" data-build="6" data-floor="1" class="s3d-svg__house js-s3d-svg__house" points="1054,610.66666666667,1053.3333333333,651,1127.6666666667,649.33333333333,1129.3333333333,608.66666666667"></polygon><polygon data-id="659" data-sec="7" data-build="7" data-floor="1" class="s3d-svg__house js-s3d-svg__house" points="1134.6666666667,620.66666666667,1132.6666666667,663.66666666667,1204.6666666667,663.33333333333,1206.6666666667,619.66666666667"></polygon><polygon data-id="661" data-sec="7" data-build="7" data-floor="1" class="s3d-svg__house js-s3d-svg__house" points="1340.6666666667,618.33333333333,1337.6666666667,655.66666666667,1420.3333333333,658.66666666667,1425.6666666667,616"></polygon><polygon data-id="662" data-sec="7" data-build="7" data-floor="1" class="s3d-svg__house js-s3d-svg__house" points="1425.6666666667,616,1421.3333333333,659.33333333333,1494.6666666667,656.66666666667,1502.6666666667,613.66666666667"></polygon><polygon data-id="668" data-sec="8" data-build="8" data-floor="1" class="s3d-svg__house js-s3d-svg__house" points="1502.3333333333,615.33333333333,1494,657,1506.3333333333,668.66666666667,1551,670,1556.6666666667,625.66666666667,1512.6666666667,624.66666666667"></polygon><polygon data-id="667" data-sec="8" data-build="8" data-floor="1" class="s3d-svg__house js-s3d-svg__house" points="1556,626.66666666667,1549.3333333333,670,1657.3333333333,668,1666.3333333333,625"></polygon><polygon data-id="666" data-sec="8" data-build="8" data-floor="1" class="s3d-svg__house js-s3d-svg__house" points="1665.6666666667,624.66666666667,1657,668.33333333333,1739.3333333333,665.33333333333,1748.3333333333,624.33333333333"></polygon></svg>