<svg preserveAspectRatio="xMidYMid slice" id="floor--svg"  viewBox="0 0 1920 1080" version="1.0" xmlns="http://www.w3.org/2000/svg"><polygon data-id="463" data-sec="1.10" data-build="10" data-floor="2" class="s3d-svg__house js-s3d-svg__house" points="1356.75,750.75,1356.75,750.75,1356.75,750.75,1356.75,750.75,1356.75,750.75,1356.75,750.75,1356.75,750.75,1356.75,750.75,1351.75,786.5,1351.75,786.5,1351.75,786.5,1351.75,786.5,1351.75,786.5,1351.75,786.5,1351.75,786.5,1351.75,786.5,1482,786.75,1482,786.75,1482,786.75,1482,786.75,1482,786.75,1482,786.75,1482,786.75,1482,786.75,1488.25,755.75,1488.25,755.75,1488.25,755.75,1488.25,755.75,1488.25,755.75,1488.25,755.75,1488.25,755.75,1488.25,755.75,1488.75,754.25,1488.75,754.25,1488.75,754.25,1488.75,754.25,1488.75,754.25,1488.75,754.25,1488.75,754.25,1488.75,754.25,1489,752.5,1489,752.5,1489,752.5,1489,752.5,1489,752.5,1489,752.5,1489,752.5,1489,752.5"></polygon><polygon data-id="464" data-sec="1.10" data-build="10" data-floor="2" class="s3d-svg__house js-s3d-svg__house" points="1356.5,751,1356.5,751,1356.5,751,1356.5,751,1356.5,751,1356.5,751,1356.5,751,1356.5,751,1351,787,1351,787,1351,787,1351,787,1351,787,1351,787,1351,787,1351,787,1271.25,786,1271.25,786,1271.25,786,1271.25,786,1271.25,786,1271.25,786,1271.25,786,1271.25,786,1274.75,754.25,1274.75,754.25,1274.75,754.25,1274.75,754.25,1274.75,754.25,1274.75,754.25,1274.75,754.25,1274.75,754.25,1274.75,752.5,1274.75,752.5,1274.75,752.5,1274.75,752.5,1274.75,752.5,1274.75,752.5,1274.75,752.5,1274.75,752.5"></polygon><polygon data-id="465" data-sec="1.10" data-build="10" data-floor="2" class="s3d-svg__house js-s3d-svg__house" points="1274.25,753.25,1274.25,753.25,1274.25,753.25,1274.25,753.25,1274.25,753.25,1274.25,753.25,1274.25,753.25,1274.25,753.25,1271.75,786.25,1271.75,786.25,1271.75,786.25,1271.75,786.25,1271.75,786.25,1271.75,786.25,1271.75,786.25,1271.75,786.25,1186.25,785.5,1186.25,785.5,1186.25,785.5,1186.25,785.5,1186.25,785.5,1186.25,785.5,1186.25,785.5,1186.25,785.5,1187.5,754.25,1187.5,754.25,1187.5,754.25,1187.5,754.25,1187.5,754.25,1187.5,754.25,1187.5,754.25,1187.5,754.25,1187.5,752.5,1187.5,752.5,1187.5,752.5,1187.5,752.5,1187.5,752.5,1187.5,752.5,1187.5,752.5,1187.5,752.5"></polygon><polygon data-id="466" data-sec="1.10" data-build="10" data-floor="2" class="s3d-svg__house js-s3d-svg__house" points="1187.5,752.5,1187.5,752.5,1187.5,752.5,1187.5,752.5,1187.5,752.5,1187.5,752.5,1187.5,752.5,1187.5,752.5,1185.75,784.5,1185.75,784.5,1185.75,784.5,1185.75,784.5,1185.75,784.5,1185.75,784.5,1185.75,784.5,1185.75,784.5,1183.5,783,1183.5,783,1183.5,783,1183.5,783,1183.5,783,1183.5,783,1183.5,783,1183.5,783,1151.25,783,1151.25,783,1151.25,783,1151.25,783,1151.25,783,1151.25,783,1151.25,783,1151.25,783,1153.75,753.5,1153.75,753.5,1153.75,753.5,1153.75,753.5,1153.75,753.5,1153.75,753.5,1153.75,753.5,1153.75,753.5,1153.5,752.75,1153.5,752.75,1153.5,752.75,1153.5,752.75,1153.5,752.75,1153.5,752.75,1153.5,752.75,1153.5,752.75"></polygon><polygon data-id="470" data-sec="1.10" data-build="10" data-floor="3" class="s3d-svg__house js-s3d-svg__house" points="1360.75,719.75,1360.75,719.75,1360.75,719.75,1360.75,719.75,1360.75,719.75,1360.75,719.75,1360.75,719.75,1360.75,719.75,1356.5,751,1356.5,751,1356.5,751,1356.5,751,1356.5,751,1356.5,751,1356.5,751,1356.5,751,1489,752.75,1489,752.75,1489,752.75,1489,752.75,1489,752.75,1489,752.75,1489,752.75,1489,752.75,1495,722.25,1495,722.25,1495,722.25,1495,722.25,1495,722.25,1495,722.25,1495,722.25,1495,722.25,1495,721.5,1495,721.5,1495,721.5,1495,721.5,1495,721.5,1495,721.5,1495,721.5,1495,721.5"></polygon><polygon data-id="471" data-sec="1.10" data-build="10" data-floor="3" class="s3d-svg__house js-s3d-svg__house" points="1360.75,720,1360.75,720,1360.75,720,1360.75,720,1360.75,720,1360.75,720,1360.75,720,1360.75,720,1356.75,751,1356.75,751,1356.75,751,1356.75,751,1356.75,751,1356.75,751,1356.75,751,1356.75,751,1274.25,753.5,1274.25,753.5,1274.25,753.5,1274.25,753.5,1274.25,753.5,1274.25,753.5,1274.25,753.5,1274.25,753.5,1277,724.75,1277,724.75,1277,724.75,1277,724.75,1277,724.75,1277,724.75,1277,724.75,1277,724.75,1276.5,722.75,1276.5,722.75,1276.5,722.75,1276.5,722.75,1276.5,722.75,1276.5,722.75,1276.5,722.75,1276.5,722.75,1277.75,720.25,1277.75,720.25,1277.75,720.25,1277.75,720.25,1277.75,720.25,1277.75,720.25,1277.75,720.25,1277.75,720.25"></polygon><polygon data-id="472" data-sec="1.10" data-build="10" data-floor="3" class="s3d-svg__house js-s3d-svg__house" points="1277.5,720,1277.5,720,1277.5,720,1277.5,720,1277.5,720,1277.5,720,1277.5,720,1277.5,720,1275.25,752.75,1275.25,752.75,1275.25,752.75,1275.25,752.75,1275.25,752.75,1275.25,752.75,1275.25,752.75,1275.25,752.75,1188.75,751.25,1188.75,751.25,1188.75,751.25,1188.75,751.25,1188.75,751.25,1188.75,751.25,1188.75,751.25,1188.75,751.25,1191.5,722,1191.5,722,1191.5,722,1191.5,722,1191.5,722,1191.5,722,1191.5,722,1191.5,722,1191.5,719.5,1191.5,719.5,1191.5,719.5,1191.5,719.5,1191.5,719.5,1191.5,719.5,1191.5,719.5,1191.5,719.5"></polygon><polygon data-id="473" data-sec="1.10" data-build="10" data-floor="3" class="s3d-svg__house js-s3d-svg__house" points="1153.75,752.75,1153.75,752.75,1153.75,752.75,1153.75,752.75,1153.75,752.75,1153.75,752.75,1153.75,752.75,1153.75,752.75,1188,752.75,1188,752.75,1188,752.75,1188,752.75,1188,752.75,1188,752.75,1188,752.75,1188,752.75,1191.25,718.5,1191.25,718.5,1191.25,718.5,1191.25,718.5,1191.25,718.5,1191.25,718.5,1191.25,718.5,1191.25,718.5,1156,718.5,1156,718.5,1156,718.5,1156,718.5,1156,718.5,1156,718.5,1156,718.5,1156,718.5,1156,717.25,1156,717.25,1156,717.25,1156,717.25,1156,717.25,1156,717.25,1156,717.25,1156,717.25"></polygon><polygon data-id="477" data-sec="1.10" data-build="10" data-floor="4" class="s3d-svg__house js-s3d-svg__house" points="1360.75,720.25,1360.75,720.25,1360.75,720.25,1360.75,720.25,1360.75,720.25,1360.75,720.25,1360.75,720.25,1360.75,720.25,1494.75,722.25,1494.75,722.25,1494.75,722.25,1494.75,722.25,1494.75,722.25,1494.75,722.25,1494.75,722.25,1494.75,722.25,1500.5,693.25,1500.5,693.25,1500.5,693.25,1500.5,693.25,1500.5,693.25,1500.5,693.25,1500.5,693.25,1500.5,693.25,1366,690.5,1366,690.5,1366,690.5,1366,690.5,1366,690.5,1366,690.5,1366,690.5,1366,690.5"></polygon><polygon data-id="478" data-sec="1.10" data-build="10" data-floor="4" class="s3d-svg__house js-s3d-svg__house" points="1277.5,719.5,1277.5,719.5,1277.5,719.5,1277.5,719.5,1277.5,719.5,1277.5,719.5,1277.5,719.5,1277.5,719.5,1361.25,720,1361.25,720,1361.25,720,1361.25,720,1361.25,720,1361.25,720,1361.25,720,1361.25,720,1365.75,690.25,1365.75,690.25,1365.75,690.25,1365.75,690.25,1365.75,690.25,1365.75,690.25,1365.75,690.25,1365.75,690.25,1281.5,690.75,1281.5,690.75,1281.5,690.75,1281.5,690.75,1281.5,690.75,1281.5,690.75,1281.5,690.75,1281.5,690.75"></polygon><polygon data-id="479" data-sec="1.10" data-build="10" data-floor="4" class="s3d-svg__house js-s3d-svg__house" points="1193.25,691.5,1193.25,691.5,1193.25,691.5,1193.25,691.5,1193.25,691.5,1193.25,691.5,1193.25,691.5,1193.25,691.5,1191,719.75,1191,719.75,1191,719.75,1191,719.75,1191,719.75,1191,719.75,1191,719.75,1191,719.75,1277.25,719.75,1277.25,719.75,1277.25,719.75,1277.25,719.75,1277.25,719.75,1277.25,719.75,1277.25,719.75,1277.25,719.75,1281.5,690.75,1281.5,690.75,1281.5,690.75,1281.5,690.75,1281.5,690.75,1281.5,690.75,1281.5,690.75,1281.5,690.75"></polygon><polygon data-id="480" data-sec="1.10" data-build="10" data-floor="4" class="s3d-svg__house js-s3d-svg__house" points="1193.5,691,1193.5,691,1193.5,691,1193.5,691,1193.5,691,1193.5,691,1193.5,691,1193.5,691,1190.75,719.5,1190.75,719.5,1190.75,719.5,1190.75,719.5,1190.75,719.5,1190.75,719.5,1190.75,719.5,1190.75,719.5,1156,718.5,1156,718.5,1156,718.5,1156,718.5,1156,718.5,1156,718.5,1156,718.5,1156,718.5,1158.25,689.75,1158.25,689.75,1158.25,689.75,1158.25,689.75,1158.25,689.75,1158.25,689.75,1158.25,689.75,1158.25,689.75"></polygon><polygon data-id="484" data-sec="1.10" data-build="10" data-floor="5" class="s3d-svg__house js-s3d-svg__house" points="1371.25,654.5,1371.25,654.5,1371.25,654.5,1371.25,654.5,1371.25,654.5,1371.25,654.5,1371.25,654.5,1371.25,654.5,1365.75,690.75,1365.75,690.75,1365.75,690.75,1365.75,690.75,1365.75,690.75,1365.75,690.75,1365.75,690.75,1365.75,690.75,1501,694,1501,694,1501,694,1501,694,1501,694,1501,694,1501,694,1501,694,1507.25,658.5,1507.25,658.5,1507.25,658.5,1507.25,658.5,1507.25,658.5,1507.25,658.5,1507.25,658.5,1507.25,658.5,1507.75,656.5,1507.75,656.5,1507.75,656.5,1507.75,656.5,1507.75,656.5,1507.75,656.5,1507.75,656.5,1507.75,656.5"></polygon><polygon data-id="485" data-sec="1.10" data-build="10" data-floor="5" class="s3d-svg__house js-s3d-svg__house" points="1371.25,654.75,1371.25,654.75,1371.25,654.75,1371.25,654.75,1371.25,654.75,1371.25,654.75,1371.25,654.75,1371.25,654.75,1366.25,690,1366.25,690,1366.25,690,1366.25,690,1366.25,690,1366.25,690,1366.25,690,1366.25,690,1281.25,691.5,1281.25,691.5,1281.25,691.5,1281.25,691.5,1281.25,691.5,1281.25,691.5,1281.25,691.5,1281.25,691.5,1285,658,1285,658,1285,658,1285,658,1285,658,1285,658,1285,658,1285,658,1285.25,655.75,1285.25,655.75,1285.25,655.75,1285.25,655.75,1285.25,655.75,1285.25,655.75,1285.25,655.75,1285.25,655.75"></polygon><polygon data-id="486" data-sec="1.10" data-build="10" data-floor="5" class="s3d-svg__house js-s3d-svg__house" points="1284.5,655.75,1284.5,655.75,1284.5,655.75,1284.5,655.75,1284.5,655.75,1284.5,655.75,1284.5,655.75,1284.5,655.75,1281.5,691.5,1281.5,691.5,1281.5,691.5,1281.5,691.5,1281.5,691.5,1281.5,691.5,1281.5,691.5,1281.5,691.5,1193.5,692.25,1193.5,692.25,1193.5,692.25,1193.5,692.25,1193.5,692.25,1193.5,692.25,1193.5,692.25,1193.5,692.25,1196.5,658.5,1196.5,658.5,1196.5,658.5,1196.5,658.5,1196.5,658.5,1196.5,658.5,1196.5,658.5,1196.5,658.5,1196.5,656.75,1196.5,656.75,1196.5,656.75,1196.5,656.75,1196.5,656.75,1196.5,656.75,1196.5,656.75,1196.5,656.75"></polygon><polygon data-id="487" data-sec="1.10" data-build="10" data-floor="5" class="s3d-svg__house js-s3d-svg__house" points="1196.5,656.5,1196.5,656.5,1196.5,656.5,1196.5,656.5,1196.5,656.5,1196.5,656.5,1196.5,656.5,1196.5,656.5,1193.25,692.25,1193.25,692.25,1193.25,692.25,1193.25,692.25,1193.25,692.25,1193.25,692.25,1193.25,692.25,1193.25,692.25,1157.75,690,1157.75,690,1157.75,690,1157.75,690,1157.75,690,1157.75,690,1157.75,690,1157.75,690,1160.75,656.5,1160.75,656.5,1160.75,656.5,1160.75,656.5,1160.75,656.5,1160.75,656.5,1160.75,656.5,1160.75,656.5,1161.25,655.25,1161.25,655.25,1161.25,655.25,1161.25,655.25,1161.25,655.25,1161.25,655.25,1161.25,655.25,1161.25,655.25"></polygon><polygon data-id="491" data-sec="1.10" data-build="10" data-floor="6" class="s3d-svg__house js-s3d-svg__house" points="1376.5,619.75,1376.5,619.75,1376.5,619.75,1376.5,619.75,1376.5,619.75,1376.5,619.75,1376.5,619.75,1376.5,619.75,1370.75,655.5,1370.75,655.5,1370.75,655.5,1370.75,655.5,1370.75,655.5,1370.75,655.5,1370.75,655.5,1370.75,655.5,1507.75,656.75,1507.75,656.75,1507.75,656.75,1507.75,656.75,1507.75,656.75,1507.75,656.75,1507.75,656.75,1507.75,656.75,1513.75,626.5,1513.75,626.5,1513.75,626.5,1513.75,626.5,1513.75,626.5,1513.75,626.5,1513.75,626.5,1513.75,626.5,1514.5,622.5,1514.5,622.5,1514.5,622.5,1514.5,622.5,1514.5,622.5,1514.5,622.5,1514.5,622.5,1514.5,622.5,1514.75,620.5,1514.75,620.5,1514.75,620.5,1514.75,620.5,1514.75,620.5,1514.75,620.5,1514.75,620.5,1514.75,620.5"></polygon><polygon data-id="492" data-sec="1.10" data-build="10" data-floor="6" class="s3d-svg__house js-s3d-svg__house" points="1376.25,620.25,1376.25,620.25,1376.25,620.25,1376.25,620.25,1376.25,620.25,1376.25,620.25,1376.25,620.25,1376.25,620.25,1370.5,655.25,1370.5,655.25,1370.5,655.25,1370.5,655.25,1370.5,655.25,1370.5,655.25,1370.5,655.25,1370.5,655.25,1285.25,655.25,1285.25,655.25,1285.25,655.25,1285.25,655.25,1285.25,655.25,1285.25,655.25,1285.25,655.25,1285.25,655.25,1288.75,623.25,1288.75,623.25,1288.75,623.25,1288.75,623.25,1288.75,623.25,1288.75,623.25,1288.75,623.25,1288.75,623.25,1288.75,621.5,1288.75,621.5,1288.75,621.5,1288.75,621.5,1288.75,621.5,1288.75,621.5,1288.75,621.5,1288.75,621.5"></polygon><polygon data-id="493" data-sec="1.10" data-build="10" data-floor="6" class="s3d-svg__house js-s3d-svg__house" points="1289.25,622.25,1289.25,622.25,1289.25,622.25,1289.25,622.25,1289.25,622.25,1289.25,622.25,1289.25,622.25,1289.25,622.25,1285,656,1285,656,1285,656,1285,656,1285,656,1285,656,1285,656,1285,656,1196.75,657.5,1196.75,657.5,1196.75,657.5,1196.75,657.5,1196.75,657.5,1196.75,657.5,1196.75,657.5,1196.75,657.5,1199.5,623.75,1199.5,623.75,1199.5,623.75,1199.5,623.75,1199.5,623.75,1199.5,623.75,1199.5,623.75,1199.5,623.75"></polygon><polygon data-id="494" data-sec="1.10" data-build="10" data-floor="6" class="s3d-svg__house js-s3d-svg__house" points="1199.5,624.5,1199.5,624.5,1199.5,624.5,1199.5,624.5,1199.5,624.5,1199.5,624.5,1199.5,624.5,1199.5,624.5,1195.75,657.5,1195.75,657.5,1195.75,657.5,1195.75,657.5,1195.75,657.5,1195.75,657.5,1195.75,657.5,1195.75,657.5,1161,655.5,1161,655.5,1161,655.5,1161,655.5,1161,655.5,1161,655.5,1161,655.5,1161,655.5,1163.25,623,1163.25,623,1163.25,623,1163.25,623,1163.25,623,1163.25,623,1163.25,623,1163.25,623"></polygon><polygon data-id="498" data-sec="1.10" data-build="10" data-floor="7" class="s3d-svg__house js-s3d-svg__house" points="1381.75,585.5,1381.75,585.5,1381.75,585.5,1381.75,585.5,1381.75,585.5,1381.75,585.5,1381.75,585.5,1381.75,585.5,1376.75,620,1376.75,620,1376.75,620,1376.75,620,1376.75,620,1376.75,620,1376.75,620,1376.75,620,1515,620.5,1515,620.5,1515,620.5,1515,620.5,1515,620.5,1515,620.5,1515,620.5,1515,620.5,1521.25,587.5,1521.25,587.5,1521.25,587.5,1521.25,587.5,1521.25,587.5,1521.25,587.5,1521.25,587.5,1521.25,587.5,1521.5,585,1521.5,585,1521.5,585,1521.5,585,1521.5,585,1521.5,585,1521.5,585,1521.5,585"></polygon><polygon data-id="499" data-sec="1.10" data-build="10" data-floor="7" class="s3d-svg__house js-s3d-svg__house" points="1382,585.25,1382,585.25,1382,585.25,1382,585.25,1382,585.25,1382,585.25,1382,585.25,1382,585.25,1377,620,1377,620,1377,620,1377,620,1377,620,1377,620,1377,620,1377,620,1288.75,622.75,1288.75,622.75,1288.75,622.75,1288.75,622.75,1288.75,622.75,1288.75,622.75,1288.75,622.75,1288.75,622.75,1292,588.75,1292,588.75,1292,588.75,1292,588.75,1292,588.75,1292,588.75,1292,588.75,1292,588.75,1292.25,587.5,1292.25,587.5,1292.25,587.5,1292.25,587.5,1292.25,587.5,1292.25,587.5,1292.25,587.5,1292.25,587.5,1292.75,586.25,1292.75,586.25,1292.75,586.25,1292.75,586.25,1292.75,586.25,1292.75,586.25,1292.75,586.25,1292.75,586.25"></polygon><polygon data-id="500" data-sec="1.10" data-build="10" data-floor="7" class="s3d-svg__house js-s3d-svg__house" points="1292.25,586.5,1292.25,586.5,1292.25,586.5,1292.25,586.5,1292.25,586.5,1292.25,586.5,1292.25,586.5,1292.25,586.5,1289,622,1289,622,1289,622,1289,622,1289,622,1289,622,1289,622,1289,622,1199.25,625.25,1199.25,625.25,1199.25,625.25,1199.25,625.25,1199.25,625.25,1199.25,625.25,1199.25,625.25,1199.25,625.25,1202.25,588.75,1202.25,588.75,1202.25,588.75,1202.25,588.75,1202.25,588.75,1202.25,588.75,1202.25,588.75,1202.25,588.75,1202.25,588,1202.25,588,1202.25,588,1202.25,588,1202.25,588,1202.25,588,1202.25,588,1202.25,588,1202.75,586.75,1202.75,586.75,1202.75,586.75,1202.75,586.75,1202.75,586.75,1202.75,586.75,1202.75,586.75,1202.75,586.75"></polygon><polygon data-id="501" data-sec="1.10" data-build="10" data-floor="7" class="s3d-svg__house js-s3d-svg__house" points="1203,586.5,1203,586.5,1203,586.5,1203,586.5,1203,586.5,1203,586.5,1203,586.5,1203,586.5,1199.75,624,1199.75,624,1199.75,624,1199.75,624,1199.75,624,1199.75,624,1199.75,624,1199.75,624,1164,623,1164,623,1164,623,1164,623,1164,623,1164,623,1164,623,1164,623,1166.25,585.75,1166.25,585.75,1166.25,585.75,1166.25,585.75,1166.25,585.75,1166.25,585.75,1166.25,585.75,1166.25,585.75"></polygon><polygon data-id="505" data-sec="1.10" data-build="10" data-floor="8" class="s3d-svg__house js-s3d-svg__house" points="1387.25,548.75,1387.25,548.75,1387.25,548.75,1387.25,548.75,1387.25,548.75,1387.25,548.75,1387.25,548.75,1387.25,548.75,1382.25,585.75,1382.25,585.75,1382.25,585.75,1382.25,585.75,1382.25,585.75,1382.25,585.75,1382.25,585.75,1382.25,585.75,1522,585.5,1522,585.5,1522,585.5,1522,585.5,1522,585.5,1522,585.5,1522,585.5,1522,585.5,1529.5,549,1529.5,549,1529.5,549,1529.5,549,1529.5,549,1529.5,549,1529.5,549,1529.5,549"></polygon><polygon data-id="506" data-sec="1.10" data-build="10" data-floor="8" class="s3d-svg__house js-s3d-svg__house" points="1387.25,548.75,1387.25,548.75,1387.25,548.75,1387.25,548.75,1387.25,548.75,1387.25,548.75,1387.25,548.75,1387.25,548.75,1382,586,1382,586,1382,586,1382,586,1382,586,1382,586,1382,586,1382,586,1292.75,586,1292.75,586,1292.75,586,1292.75,586,1292.75,586,1292.75,586,1292.75,586,1292.75,586,1297.5,552,1297.5,552,1297.5,552,1297.5,552,1297.5,552,1297.5,552,1297.5,552,1297.5,552,1298.5,549.25,1298.5,549.25,1298.5,549.25,1298.5,549.25,1298.5,549.25,1298.5,549.25,1298.5,549.25,1298.5,549.25"></polygon><polygon data-id="507" data-sec="1.10" data-build="10" data-floor="8" class="s3d-svg__house js-s3d-svg__house" points="1298,549.5,1298,549.5,1298,549.5,1298,549.5,1298,549.5,1298,549.5,1298,549.5,1298,549.5,1292.5,586.75,1292.5,586.75,1292.5,586.75,1292.5,586.75,1292.5,586.75,1292.5,586.75,1292.5,586.75,1292.5,586.75,1201.75,586.75,1201.75,586.75,1201.75,586.75,1201.75,586.75,1201.75,586.75,1201.75,586.75,1201.75,586.75,1201.75,586.75,1205.5,551.75,1205.5,551.75,1205.5,551.75,1205.5,551.75,1205.5,551.75,1205.5,551.75,1205.5,551.75,1205.5,551.75,1205.5,549.5,1205.5,549.5,1205.5,549.5,1205.5,549.5,1205.5,549.5,1205.5,549.5,1205.5,549.5,1205.5,549.5,1205.75,548.25,1205.75,548.25,1205.75,548.25,1205.75,548.25,1205.75,548.25,1205.75,548.25,1205.75,548.25,1205.75,548.25"></polygon><polygon data-id="508" data-sec="1.10" data-build="10" data-floor="8" class="s3d-svg__house js-s3d-svg__house" points="1205.75,548,1205.75,548,1205.75,548,1205.75,548,1205.75,548,1205.75,548,1205.75,548,1205.75,548,1202.25,586.75,1202.25,586.75,1202.25,586.75,1202.25,586.75,1202.25,586.75,1202.25,586.75,1202.25,586.75,1202.25,586.75,1166.75,586.25,1166.75,586.25,1166.75,586.25,1166.75,586.25,1166.75,586.25,1166.75,586.25,1166.75,586.25,1166.75,586.25,1168.75,547.75,1168.75,547.75,1168.75,547.75,1168.75,547.75,1168.75,547.75,1168.75,547.75,1168.75,547.75,1168.75,547.75"></polygon><polygon data-id="408" data-sec="1.09" data-build="9" data-floor="2" class="s3d-svg__house js-s3d-svg__house" points="1011.25,750.25,1011.25,750.25,1011.25,750.25,1011.25,750.25,1010.75,782.75,1010.75,782.75,1010.75,782.75,1010.75,782.75,1097.5,782.25,1097.5,782.25,1097.5,782.25,1097.5,782.25,1097.5,751,1097.5,751,1097.5,751,1097.5,751"></polygon><polygon data-id="409" data-sec="1.09" data-build="9" data-floor="2" class="s3d-svg__house js-s3d-svg__house" points="1011.25,750.25,1011.25,750.25,1011.25,750.25,1011.25,750.25,1010.75,782.5,1010.75,782.5,1010.75,782.5,1010.75,782.5,920.5,781.5,920.5,781.5,920.5,781.5,920.5,781.5,919,750.75,919,750.75,919,750.75,919,750.75"></polygon><polygon data-id="410" data-sec="1.09" data-build="9" data-floor="2" class="s3d-svg__house js-s3d-svg__house" points="830.75,751,830.75,751,830.75,751,830.75,751,831.5,782,831.5,782,831.5,782,831.5,782,920.5,781.75,920.5,781.75,920.5,781.75,920.5,781.75,919,750.5,919,750.5,919,750.5,919,750.5"></polygon><polygon data-id="411" data-sec="1.09" data-build="9" data-floor="2" class="s3d-svg__house js-s3d-svg__house" points="830.5,751.5,830.5,751.5,830.5,751.5,830.5,751.5,831.75,781.75,831.75,781.75,831.75,781.75,831.75,781.75,749,782.25,749,782.25,749,782.25,749,782.25,746.25,751,746.25,751,746.25,751,746.25,751"></polygon><polygon data-id="420" data-sec="1.09" data-build="9" data-floor="3" class="s3d-svg__house js-s3d-svg__house" points="1097.75,751.25,1097.75,751.25,1097.75,751.25,1097.75,751.25,1153,752,1153,752,1153,752,1153,752,1156,718.5,1156,718.5,1156,718.5,1156,718.5,1099.5,718.5,1099.5,718.5,1099.5,718.5,1099.5,718.5"></polygon><polygon data-id="414" data-sec="1.09" data-build="9" data-floor="3" class="s3d-svg__house js-s3d-svg__house" points="1011.25,717,1011.25,717,1011.25,717,1011.25,717,1010.75,750,1010.75,750,1010.75,750,1010.75,750,1097.75,751.5,1097.75,751.5,1097.75,751.5,1097.75,751.5,1098.75,718,1098.75,718,1098.75,718,1098.75,718"></polygon><polygon data-id="415" data-sec="1.09" data-build="9" data-floor="3" class="s3d-svg__house js-s3d-svg__house" points="1011.25,717.5,1011.25,717.5,1011.25,717.5,1011.25,717.5,1011.75,749.75,1011.75,749.75,1011.75,749.75,1011.75,749.75,919,751,919,751,919,751,919,751,917.75,719.5,917.75,719.5,917.75,719.5,917.75,719.5,918.5,719,918.5,719,918.5,719,918.5,719"></polygon><polygon data-id="416" data-sec="1.09" data-build="9" data-floor="3" class="s3d-svg__house js-s3d-svg__house" points="918.25,719,918.25,719,918.25,719,918.25,719,919,750.75,919,750.75,919,750.75,919,750.75,831,751.25,831,751.25,831,751.25,831,751.25,828.5,718.25,828.5,718.25,828.5,718.25,828.5,718.25"></polygon><polygon data-id="417" data-sec="1.09" data-build="9" data-floor="3" class="s3d-svg__house js-s3d-svg__house" points="828.75,718.5,828.75,718.5,828.75,718.5,828.75,718.5,830,752,830,752,830,752,830,752,746.25,751.25,746.25,751.25,746.25,751.25,746.25,751.25,743.5,719.25,743.5,719.25,743.5,719.25,743.5,719.25"></polygon><polygon data-id="427" data-sec="1.09" data-build="9" data-floor="4" class="s3d-svg__house js-s3d-svg__house" points="1099,718.25,1099,718.25,1099,718.25,1099,718.25,1100.5,691,1100.5,691,1100.5,691,1100.5,691,1157.75,690,1157.75,690,1157.75,690,1157.75,690,1156.25,717.25,1156.25,717.25,1156.25,717.25,1156.25,717.25"></polygon><polygon data-id="421" data-sec="1.09" data-build="9" data-floor="4" class="s3d-svg__house js-s3d-svg__house" points="1100,691.25,1100,691.25,1100,691.25,1100,691.25,1098.75,718.5,1098.75,718.5,1098.75,718.5,1098.75,718.5,1011.5,717.5,1011.5,717.5,1011.5,717.5,1011.5,717.5,1012.5,689.75,1012.5,689.75,1012.5,689.75,1012.5,689.75"></polygon><polygon data-id="422" data-sec="1.09" data-build="9" data-floor="4" class="s3d-svg__house js-s3d-svg__house" points="1011.25,690,1011.25,690,1011.25,690,1011.25,690,1011.25,717.5,1011.25,717.5,1011.25,717.5,1011.25,717.5,918.5,719.25,918.5,719.25,918.5,719.25,918.5,719.25,917.75,691.25,917.75,691.25,917.75,691.25,917.75,691.25"></polygon><polygon data-id="423" data-sec="1.09" data-build="9" data-floor="4" class="s3d-svg__house js-s3d-svg__house" points="917.75,691.5,917.75,691.5,917.75,691.5,917.75,691.5,918.75,720,918.75,720,918.75,720,918.75,720,828.5,718.75,828.5,718.75,828.5,718.75,828.5,718.75,826.75,690.75,826.75,690.75,826.75,690.75,826.75,690.75"></polygon><polygon data-id="424" data-sec="1.09" data-build="9" data-floor="4" class="s3d-svg__house js-s3d-svg__house" points="826.5,690.75,826.5,690.75,826.5,690.75,826.5,690.75,829.25,718.25,829.25,718.25,829.25,718.25,829.25,718.25,743.25,720.25,743.25,720.25,743.25,720.25,743.25,720.25,741.25,691.5,741.25,691.5,741.25,691.5,741.25,691.5"></polygon><polygon data-id="434" data-sec="1.09" data-build="9" data-floor="5" class="s3d-svg__house js-s3d-svg__house" points="1099.75,692,1099.75,692,1099.75,692,1099.75,692,1158.25,690,1158.25,690,1158.25,690,1158.25,690,1161.75,655.75,1161.75,655.75,1161.75,655.75,1161.75,655.75,1100,655.5,1100,655.5,1100,655.5,1100,655.5"></polygon><polygon data-id="428" data-sec="1.09" data-build="9" data-floor="5" class="s3d-svg__house js-s3d-svg__house" points="1099.5,656,1099.5,656,1099.5,656,1099.5,656,1099.5,692,1099.5,692,1099.5,692,1099.5,692,1012.5,690.5,1012.5,690.5,1012.5,690.5,1012.5,690.5,1012.75,656.75,1012.75,656.75,1012.75,656.75,1012.75,656.75"></polygon><polygon data-id="429" data-sec="1.09" data-build="9" data-floor="5" class="s3d-svg__house js-s3d-svg__house" points="1012,657.5,1012,657.5,1012,657.5,1012,657.5,1011.25,691.25,1011.25,691.25,1011.25,691.25,1011.25,691.25,918.25,692,918.25,692,918.25,692,918.25,692,917.5,658.75,917.5,658.75,917.5,658.75,917.5,658.75"></polygon><polygon data-id="430" data-sec="1.09" data-build="9" data-floor="5" class="s3d-svg__house js-s3d-svg__house" points="917,659,917,659,917,659,917,659,917.5,691.75,917.5,691.75,917.5,691.75,917.5,691.75,827,691.5,827,691.5,827,691.5,827,691.5,825.5,658.5,825.5,658.5,825.5,658.5,825.5,658.5"></polygon><polygon data-id="431" data-sec="1.09" data-build="9" data-floor="5" class="s3d-svg__house js-s3d-svg__house" points="825.75,658.25,825.75,658.25,825.75,658.25,825.75,658.25,826.75,691,826.75,691,826.75,691,826.75,691,741,692.5,741,692.5,741,692.5,741,692.5,739,657.75,739,657.75,739,657.75,739,657.75"></polygon><polygon data-id="441" data-sec="1.09" data-build="9" data-floor="6" class="s3d-svg__house js-s3d-svg__house" points="1162.75,624,1162.75,624,1162.75,624,1162.75,624,1160.5,656.75,1160.5,656.75,1160.5,656.75,1160.5,656.75,1100.5,656.25,1100.5,656.25,1100.5,656.25,1100.5,656.25,1101.75,623.25,1101.75,623.25,1101.75,623.25,1101.75,623.25"></polygon><polygon data-id="435" data-sec="1.09" data-build="9" data-floor="6" class="s3d-svg__house js-s3d-svg__house" points="1012.25,656.75,1012.25,656.75,1012.25,656.75,1012.25,656.75,1100,657,1100,657,1100,657,1100,657,1101.25,623.5,1101.25,623.5,1101.25,623.5,1101.25,623.5,1013.25,625.5,1013.25,625.5,1013.25,625.5,1013.25,625.5,1013.5,625.25,1013.5,625.25,1013.5,625.25,1013.5,625.25"></polygon><polygon data-id="436" data-sec="1.09" data-build="9" data-floor="6" class="s3d-svg__house js-s3d-svg__house" points="1012.75,625.5,1012.75,625.5,1012.75,625.5,1012.75,625.5,1012.5,656.25,1012.5,656.25,1012.5,656.25,1012.5,656.25,917.5,658.75,917.5,658.75,917.5,658.75,917.5,658.75,916.5,625,916.5,625,916.5,625,916.5,625"></polygon><polygon data-id="437" data-sec="1.09" data-build="9" data-floor="6" class="s3d-svg__house js-s3d-svg__house" points="915.75,625,915.75,625,915.75,625,915.75,625,917.75,659,917.75,659,917.75,659,917.75,659,826.25,658.5,826.25,658.5,826.25,658.5,826.25,658.5,825,625,825,625,825,625,825,625"></polygon><polygon data-id="438" data-sec="1.09" data-build="9" data-floor="6" class="s3d-svg__house js-s3d-svg__house" points="824.75,625.5,824.75,625.5,824.75,625.5,824.75,625.5,826,658.75,826,658.75,826,658.75,826,658.75,739.25,657.75,739.25,657.75,739.25,657.75,739.25,657.75,736.5,625,736.5,625,736.5,625,736.5,625"></polygon><polygon data-id="448" data-sec="1.09" data-build="9" data-floor="7" class="s3d-svg__house js-s3d-svg__house" points="1166,586.25,1166,586.25,1166,586.25,1166,586.25,1163,624.25,1163,624.25,1163,624.25,1163,624.25,1102,624.5,1102,624.5,1102,624.5,1102,624.5,1104.25,588,1104.25,588,1104.25,588,1104.25,588"></polygon><polygon data-id="442" data-sec="1.09" data-build="9" data-floor="7" class="s3d-svg__house js-s3d-svg__house" points="1104,588.25,1104,588.25,1104,588.25,1104,588.25,1101.5,624.75,1101.5,624.75,1101.5,624.75,1101.5,624.75,1013.75,625,1013.75,625,1013.75,625,1013.75,625,1013.75,589.25,1013.75,589.25,1013.75,589.25,1013.75,589.25"></polygon><polygon data-id="443" data-sec="1.09" data-build="9" data-floor="7" class="s3d-svg__house js-s3d-svg__house" points="1013,590.25,1013,590.25,1013,590.25,1013,590.25,1013,625.25,1013,625.25,1013,625.25,1013,625.25,916.25,625.25,916.25,625.25,916.25,625.25,916.25,625.25,916.25,591.25,916.25,591.25,916.25,591.25,916.25,591.25"></polygon><polygon data-id="444" data-sec="1.09" data-build="9" data-floor="7" class="s3d-svg__house js-s3d-svg__house" points="915.5,591,915.5,591,915.5,591,915.5,591,916.25,626.25,916.25,626.25,916.25,626.25,916.25,626.25,824.75,625.5,824.75,625.5,824.75,625.5,824.75,625.5,822.75,590.5,822.75,590.5,822.75,590.5,822.75,590.5"></polygon><polygon data-id="445" data-sec="1.09" data-build="9" data-floor="7" class="s3d-svg__house js-s3d-svg__house" points="822.5,591.5,822.5,591.5,822.5,591.5,822.5,591.5,824.75,625.75,824.75,625.75,824.75,625.75,824.75,625.75,736.5,626,736.5,626,736.5,626,736.5,626,734.75,592,734.75,592,734.75,592,734.75,592,734.5,591,734.5,591,734.5,591,734.5,591"></polygon><polygon data-id="455" data-sec="1.09" data-build="9" data-floor="8" class="s3d-svg__house js-s3d-svg__house" points="1168.75,548.5,1168.75,548.5,1168.75,548.5,1168.75,548.5,1166,585.75,1166,585.75,1166,585.75,1166,585.75,1104.25,587.75,1104.25,587.75,1104.25,587.75,1104.25,587.75,1105.25,549.75,1105.25,549.75,1105.25,549.75,1105.25,549.75"></polygon><polygon data-id="449" data-sec="1.09" data-build="9" data-floor="8" class="s3d-svg__house js-s3d-svg__house" points="1105,550.75,1105,550.75,1105,550.75,1105,550.75,1104.5,588.25,1104.5,588.25,1104.5,588.25,1104.5,588.25,1014.25,589.5,1014.25,589.5,1014.25,589.5,1014.25,589.5,1014.25,552.75,1014.25,552.75,1014.25,552.75,1014.25,552.75"></polygon><polygon data-id="450" data-sec="1.09" data-build="9" data-floor="8" class="s3d-svg__house js-s3d-svg__house" points="1013.75,553.25,1013.75,553.25,1013.75,553.25,1013.75,553.25,1013.75,590.75,1013.75,590.75,1013.75,590.75,1013.75,590.75,915.5,591.25,915.5,591.25,915.5,591.25,915.5,591.25,915.5,553,915.5,553,915.5,553,915.5,553"></polygon><polygon data-id="451" data-sec="1.09" data-build="9" data-floor="8" class="s3d-svg__house js-s3d-svg__house" points="915.25,553.75,915.25,553.75,915.25,553.75,915.25,553.75,916.25,591.75,916.25,591.75,916.25,591.75,916.25,591.75,823.25,591,823.25,591,823.25,591,823.25,591,822,555.25,822,555.25,822,555.25,822,555.25"></polygon><polygon data-id="452" data-sec="1.09" data-build="9" data-floor="8" class="s3d-svg__house js-s3d-svg__house" points="822.25,554.5,822.25,554.5,822.25,554.5,822.25,554.5,822.75,591.25,822.75,591.25,822.75,591.25,822.75,591.25,734.75,591.25,734.75,591.25,734.75,591.25,734.75,591.25,731,555,731,555,731,555,731,555"></polygon><polygon data-id="456" data-sec="1.09" data-build="9" data-floor="9" class="s3d-svg__house js-s3d-svg__house" points="1175.5,455,1175.5,455,1175.5,455,1175.5,455,1169.5,548.75,1169.5,548.75,1169.5,548.75,1169.5,548.75,1105.25,550.5,1105.25,550.5,1105.25,550.5,1105.25,550.5,1109.25,454,1109.25,454,1109.25,454,1109.25,454"></polygon><polygon data-id="457" data-sec="1.09" data-build="9" data-floor="9" class="s3d-svg__house js-s3d-svg__house" points="1109,454.25,1109,454.25,1109,454.25,1109,454.25,1104.75,550.75,1104.75,550.75,1104.75,550.75,1104.75,550.75,1013.75,553.25,1013.75,553.25,1013.75,553.25,1013.75,553.25,1016.5,453.5,1016.5,453.5,1016.5,453.5,1016.5,453.5"></polygon><polygon data-id="458" data-sec="1.09" data-build="9" data-floor="9" class="s3d-svg__house js-s3d-svg__house" points="1017,454,1017,454,1017,454,1017,454,1013.5,553.25,1013.5,553.25,1013.5,553.25,1013.5,553.25,915.5,554,915.5,554,915.5,554,915.5,554,915,453.25,915,453.25,915,453.25,915,453.25"></polygon><polygon data-id="459" data-sec="1.09" data-build="9" data-floor="9" class="s3d-svg__house js-s3d-svg__house" points="817.75,454.25,817.75,454.25,817.75,454.25,817.75,454.25,821.75,555.25,821.75,555.25,821.75,555.25,821.75,555.25,915.75,554.25,915.75,554.25,915.75,554.25,915.75,554.25,914.75,453,914.75,453,914.75,453,914.75,453"></polygon><polygon data-id="460" data-sec="1.09" data-build="9" data-floor="9" class="s3d-svg__house js-s3d-svg__house" points="818.25,454.5,818.25,454.5,818.25,454.5,818.25,454.5,821.75,555,821.75,555,821.75,555,821.75,555,731,555,731,555,731,555,731,555,723.25,454.75,723.25,454.75,723.25,454.75,723.25,454.75"></polygon><polygon data-id="352" data-sec="1.08" data-build="8" data-floor="2" class="s3d-svg__house js-s3d-svg__house" points="714,753.5,714,753.5,714,753.5,714,753.5,716.5,781,716.5,781,716.5,781,716.5,781,748.75,782.25,748.75,782.25,748.75,782.25,748.75,782.25,746.25,751.25,746.25,751.25,746.25,751.25,746.25,751.25"></polygon><polygon data-id="353" data-sec="1.08" data-build="8" data-floor="2" class="s3d-svg__house js-s3d-svg__house" points="714.5,753,714.5,753,714.5,753,714.5,753,715.75,781.25,715.75,781.25,715.75,781.25,715.75,781.25,631.75,781.5,631.75,781.5,631.75,781.5,631.75,781.5,628.25,755.25,628.25,755.25,628.25,755.25,628.25,755.25"></polygon><polygon data-id="354" data-sec="1.08" data-build="8" data-floor="2" class="s3d-svg__house js-s3d-svg__house" points="628,755.25,628,755.25,628,755.25,628,755.25,631.5,782.25,631.5,782.25,631.5,782.25,631.5,782.25,549.25,781.25,549.25,781.25,549.25,781.25,549.25,781.25,544.75,754.5,544.75,754.5,544.75,754.5,544.75,754.5"></polygon><polygon data-id="355" data-sec="1.08" data-build="8" data-floor="2" class="s3d-svg__house js-s3d-svg__house" points="544.5,754,544.5,754,544.5,754,544.5,754,549.25,783,549.25,783,549.25,783,549.25,783,422.25,781.75,422.25,781.75,422.25,781.75,422.25,781.75,417,759,417,759,417,759,417,759,416.5,757.25,416.5,757.25,416.5,757.25,416.5,757.25,416,756.5,416,756.5,416,756.5,416,756.5,416,755.75,416,755.75,416,755.75,416,755.75"></polygon><polygon data-id="359" data-sec="1.08" data-build="8" data-floor="3" class="s3d-svg__house js-s3d-svg__house" points="742.75,720,742.75,720,742.75,720,742.75,720,746,752,746,752,746,752,746,752,714.75,754,714.75,754,714.75,754,714.75,754,710.75,719.75,710.75,719.75,710.75,719.75,710.75,719.75"></polygon><polygon data-id="360" data-sec="1.08" data-build="8" data-floor="3" class="s3d-svg__house js-s3d-svg__house" points="711,719.75,711,719.75,711,719.75,711,719.75,715,754,715,754,715,754,715,754,628.75,755.5,628.75,755.5,628.75,755.5,628.75,755.5,626.25,721.75,626.25,721.75,626.25,721.75,626.25,721.75,626,720.5,626,720.5,626,720.5,626,720.5,625.25,719.75,625.25,719.75,625.25,719.75,625.25,719.75"></polygon><polygon data-id="361" data-sec="1.08" data-build="8" data-floor="3" class="s3d-svg__house js-s3d-svg__house" points="625.5,720,625.5,720,625.5,720,625.5,720,627.5,754.5,627.5,754.5,627.5,754.5,627.5,754.5,544.25,755.25,544.25,755.25,544.25,755.25,544.25,755.25,540,723.75,540,723.75,540,723.75,540,723.75,540,722,540,722,540,722,540,722,539.75,720.75,539.75,720.75,539.75,720.75,539.75,720.75,539.75,720,539.75,720,539.75,720,539.75,720"></polygon><polygon data-id="362" data-sec="1.08" data-build="8" data-floor="3" class="s3d-svg__house js-s3d-svg__house" points="539.25,720.25,539.25,720.25,539.25,720.25,539.25,720.25,544,754.75,544,754.75,544,754.75,544,754.75,416.25,755.75,416.25,755.75,416.25,755.75,416.25,755.75,410.25,728.25,410.25,728.25,410.25,728.25,410.25,728.25,410,725.25,410,725.25,410,725.25,410,725.25,409.5,722.25,409.5,722.25,409.5,722.25,409.5,722.25"></polygon><polygon data-id="366" data-sec="1.08" data-build="8" data-floor="4" class="s3d-svg__house js-s3d-svg__house" points="741,690.25,741,690.25,741,690.25,741,690.25,744.25,719.75,744.25,719.75,744.25,719.75,744.25,719.75,711.5,720.5,711.5,720.5,711.5,720.5,711.5,720.5,708.5,690.75,708.5,690.75,708.5,690.75,708.5,690.75"></polygon><polygon data-id="367" data-sec="1.08" data-build="8" data-floor="4" class="s3d-svg__house js-s3d-svg__house" points="708,690.75,708,690.75,708,690.75,708,690.75,710.75,720,710.75,720,710.75,720,710.75,720,625.25,720.5,625.25,720.5,625.25,720.5,625.25,720.5,621.25,691.75,621.25,691.75,621.25,691.75,621.25,691.75"></polygon><polygon data-id="368" data-sec="1.08" data-build="8" data-floor="4" class="s3d-svg__house js-s3d-svg__house" points="620.75,692,620.75,692,620.75,692,620.75,692,624.75,720.25,624.75,720.25,624.75,720.25,624.75,720.25,540.25,721,540.25,721,540.25,721,540.25,721,536.5,693.5,536.5,693.5,536.5,693.5,536.5,693.5,536.5,692,536.5,692,536.5,692,536.5,692"></polygon><polygon data-id="369" data-sec="1.08" data-build="8" data-floor="4" class="s3d-svg__house js-s3d-svg__house" points="535.25,692,535.25,692,535.25,692,535.25,692,539.25,720.5,539.25,720.5,539.25,720.5,539.25,720.5,409.25,722.75,409.25,722.75,409.25,722.75,409.25,722.75,402.75,690.75,402.75,690.75,402.75,690.75,402.75,690.75,534.75,690,534.75,690,534.75,690,534.75,690"></polygon><polygon data-id="373" data-sec="1.08" data-build="8" data-floor="5" class="s3d-svg__house js-s3d-svg__house" points="738.5,658,738.5,658,738.5,658,738.5,658,740.5,690.5,740.5,690.5,740.5,690.5,740.5,690.5,708.25,691.75,708.25,691.75,708.25,691.75,708.25,691.75,704.5,657.5,704.5,657.5,704.5,657.5,704.5,657.5,738.25,657.5,738.25,657.5,738.25,657.5,738.25,657.5"></polygon><polygon data-id="374" data-sec="1.08" data-build="8" data-floor="5" class="s3d-svg__house js-s3d-svg__house" points="704.25,657.75,704.25,657.75,704.25,657.75,704.25,657.75,708.5,691.5,708.5,691.5,708.5,691.5,708.5,691.5,620.75,692.75,620.75,692.75,620.75,692.75,620.75,692.75,616.75,659.25,616.75,659.25,616.75,659.25,616.75,659.25"></polygon><polygon data-id="375" data-sec="1.08" data-build="8" data-floor="5" class="s3d-svg__house js-s3d-svg__house" points="616,659.5,616,659.5,616,659.5,616,659.5,620,691.25,620,691.25,620,691.25,620,691.25,535,691.5,535,691.5,535,691.5,535,691.5,531.25,658.5,531.25,658.5,531.25,658.5,531.25,658.5"></polygon><polygon data-id="376" data-sec="1.08" data-build="8" data-floor="5" class="s3d-svg__house js-s3d-svg__house" points="529.75,658.5,529.75,658.5,529.75,658.5,529.75,658.5,535,690.75,535,690.75,535,690.75,535,690.75,403.25,691.5,403.25,691.5,403.25,691.5,403.25,691.5,396.25,661,396.25,661,396.25,661,396.25,661,395.75,659.5,395.75,659.5,395.75,659.5,395.75,659.5,395.75,657.75,395.75,657.75,395.75,657.75,395.75,657.75"></polygon><polygon data-id="380" data-sec="1.08" data-build="8" data-floor="6" class="s3d-svg__house js-s3d-svg__house" points="736.25,624.5,736.25,624.5,736.25,624.5,736.25,624.5,738.5,657.75,738.5,657.75,738.5,657.75,738.5,657.75,704.75,658.25,704.75,658.25,704.75,658.25,704.75,658.25,701.5,623,701.5,623,701.5,623,701.5,623,736.25,623,736.25,623,736.25,623,736.25,623"></polygon><polygon data-id="381" data-sec="1.08" data-build="8" data-floor="6" class="s3d-svg__house js-s3d-svg__house" points="701.25,623.75,701.25,623.75,701.25,623.75,701.25,623.75,704.75,658,704.75,658,704.75,658,704.75,658,616,659.5,616,659.5,616,659.5,616,659.5,612,625.25,612,625.25,612,625.25,612,625.25"></polygon><polygon data-id="382" data-sec="1.08" data-build="8" data-floor="6" class="s3d-svg__house js-s3d-svg__house" points="611.5,624.5,611.5,624.5,611.5,624.5,611.5,624.5,616.25,659.25,616.25,659.25,616.25,659.25,616.25,659.25,530.5,659.5,530.5,659.5,530.5,659.5,530.5,659.5,525.25,624.75,525.25,624.75,525.25,624.75,525.25,624.75"></polygon><polygon data-id="383" data-sec="1.08" data-build="8" data-floor="6" class="s3d-svg__house js-s3d-svg__house" points="524.75,625.25,524.75,625.25,524.75,625.25,524.75,625.25,530,659.75,530,659.75,530,659.75,530,659.75,396.5,658.5,396.5,658.5,396.5,658.5,396.5,658.5,389.5,625.25,389.5,625.25,389.5,625.25,389.5,625.25,388.75,623.25,388.75,623.25,388.75,623.25,388.75,623.25"></polygon><polygon data-id="387" data-sec="1.08" data-build="8" data-floor="7" class="s3d-svg__house js-s3d-svg__house" points="734.5,590,734.5,590,734.5,590,734.5,590,736,624.25,736,624.25,736,624.25,736,624.25,702.25,623.5,702.25,623.5,702.25,623.5,702.25,623.5,698,588.5,698,588.5,698,588.5,698,588.5,733.75,588.25,733.75,588.25,733.75,588.25,733.75,588.25"></polygon><polygon data-id="388" data-sec="1.08" data-build="8" data-floor="7" class="s3d-svg__house js-s3d-svg__house" points="698.25,589,698.25,589,698.25,589,698.25,589,702,624,702,624,702,624,702,624,612,625.25,612,625.25,612,625.25,612,625.25,608.75,590.25,608.75,590.25,608.75,590.25,608.75,590.25,608.5,589.25,608.5,589.25,608.5,589.25,608.5,589.25"></polygon><polygon data-id="397" data-sec="1.08" data-build="8" data-floor="8" class="s3d-svg__house js-s3d-svg__house" points="514.25,554.5,514.25,554.5,514.25,554.5,514.25,554.5,520.5,591.25,520.5,591.25,520.5,591.25,520.5,591.25,382.75,591.25,382.75,591.25,382.75,591.25,382.75,591.25,375,554.25,375,554.25,375,554.25,375,554.25"></polygon><polygon data-id="396" data-sec="1.08" data-build="8" data-floor="8" class="s3d-svg__house js-s3d-svg__house" points="604,554.75,604,554.75,604,554.75,604,554.75,608.75,589.75,608.75,589.75,608.75,589.75,608.75,589.75,520.5,590.25,520.5,590.25,520.5,590.25,520.5,590.25,514.5,554.5,514.5,554.5,514.5,554.5,514.5,554.5"></polygon><polygon data-id="390" data-sec="1.08" data-build="8" data-floor="7" class="s3d-svg__house js-s3d-svg__house" points="520.5,590,520.5,590,520.5,590,520.5,590,525.25,625.25,525.25,625.25,525.25,625.25,525.25,625.25,389,624,389,624,389,624,389,624,383.25,595,383.25,595,383.25,595,383.25,595,382.25,590.5,382.25,590.5,382.25,590.5,382.25,590.5"></polygon><polygon data-id="394" data-sec="1.08" data-build="8" data-floor="8" class="s3d-svg__house js-s3d-svg__house" points="730.25,553.5,730.25,553.5,730.25,553.5,730.25,553.5,734.25,589,734.25,589,734.25,589,734.25,589,698,589.5,698,589.5,698,589.5,698,589.5,695.25,553.5,695.25,553.5,695.25,553.5,695.25,553.5"></polygon><polygon data-id="395" data-sec="1.08" data-build="8" data-floor="8" class="s3d-svg__house js-s3d-svg__house" points="695.75,554,695.75,554,695.75,554,695.75,554,698.25,589.5,698.25,589.5,698.25,589.5,698.25,589.5,608.75,590.25,608.75,590.25,608.75,590.25,608.75,590.25,603.75,554.5,603.75,554.5,603.75,554.5,603.75,554.5"></polygon><polygon data-id="389" data-sec="1.08" data-build="8" data-floor="7" class="s3d-svg__house js-s3d-svg__house" points="608.25,589.75,608.25,589.75,608.25,589.75,608.25,589.75,611.75,624.25,611.75,624.25,611.75,624.25,611.75,624.25,525.75,626.75,525.75,626.75,525.75,626.75,525.75,626.75,520.5,590.5,520.5,590.5,520.5,590.5,520.5,590.5"></polygon><polygon data-id="401" data-sec="1.08" data-build="8" data-floor="9" class="s3d-svg__house js-s3d-svg__house" points="723,453,723,453,723,453,723,453,730.25,553.5,730.25,553.5,730.25,553.5,730.25,553.5,695.25,554.5,695.25,554.5,695.25,554.5,695.25,554.5,685.5,452.5,685.5,452.5,685.5,452.5,685.5,452.5"></polygon><polygon data-id="402" data-sec="1.08" data-build="8" data-floor="9" class="s3d-svg__house js-s3d-svg__house" points="590.5,453.25,590.5,453.25,590.5,453.25,590.5,453.25,603.25,555,603.25,555,603.25,555,603.25,555,695,554.75,695,554.75,695,554.75,695,554.75,685.75,453.25,685.75,453.25,685.75,453.25,685.75,453.25"></polygon><polygon data-id="403" data-sec="1.08" data-build="8" data-floor="9" class="s3d-svg__house js-s3d-svg__house" points="590.5,453.5,590.5,453.5,590.5,453.5,590.5,453.5,603,554.25,603,554.25,603,554.25,603,554.25,515,555.25,515,555.25,515,555.25,515,555.25,501.75,462.25,501.75,462.25,501.75,462.25,501.75,462.25,546,462.25,546,462.25,546,462.25,546,462.25,546.5,454,546.5,454,546.5,454,546.5,454"></polygon><polygon data-id="404" data-sec="1.08" data-build="8" data-floor="9" class="s3d-svg__house js-s3d-svg__house" points="501.25,462.5,501.25,462.5,501.25,462.5,501.25,462.5,514.75,555,514.75,555,514.75,555,514.75,555,375,554.5,375,554.5,375,554.5,375,554.5,355,462.75,355,462.75,355,462.75,355,462.75"></polygon><polygon data-id="347" data-sec="1.07" data-build="7" data-floor="9" class="s3d-svg__house js-s3d-svg__house" points="692,286.25,692,286.25,692,286.25,692,286.25,701.75,356.5,701.75,356.5,701.75,356.5,701.75,356.5,708.25,347.25,708.25,347.25,708.25,347.25,708.25,347.25,700.5,271,700.5,271,700.5,271,700.5,271"></polygon><polygon data-id="346" data-sec="1.07" data-build="7" data-floor="9" class="s3d-svg__house js-s3d-svg__house" points="691.75,286.75,691.75,286.75,691.75,286.75,691.75,286.75,702.25,357.25,702.25,357.25,702.25,357.25,702.25,357.25,687.25,382.75,687.25,382.75,687.25,382.75,687.25,382.75,682.5,383,682.5,383,682.5,383,682.5,383,675.5,311,675.5,311,675.5,311,675.5,311"></polygon><polygon data-id="345" data-sec="1.07" data-build="7" data-floor="9" class="s3d-svg__house js-s3d-svg__house" points="671.75,318.5,671.75,318.5,671.75,318.5,671.75,318.5,677.5,383,677.5,383,677.5,383,677.5,383,660,383.25,660,383.25,660,383.25,660,383.25,655.5,343.75,655.5,343.75,655.5,343.75,655.5,343.75"></polygon><polygon data-id="344" data-sec="1.07" data-build="7" data-floor="9" class="s3d-svg__house js-s3d-svg__house" points="654.75,344.5,654.75,344.5,654.75,344.5,654.75,344.5,659.25,383.5,659.25,383.5,659.25,383.5,659.25,383.5,646.5,382.5,646.5,382.5,646.5,382.5,646.5,382.5,646,361.75,646,361.75,646,361.75,646,361.75,645.25,360.25,645.25,360.25,645.25,360.25,645.25,360.25"></polygon><polygon data-id="336" data-sec="1.07" data-build="7" data-floor="8" class="s3d-svg__house js-s3d-svg__house" points="699.75,361.75,699.75,361.75,699.75,361.75,699.75,361.75,701.25,383.5,701.25,383.5,701.25,383.5,701.25,383.5,709.75,373,709.75,373,709.75,373,709.75,373,709.5,350.25,709.5,350.25,709.5,350.25,709.5,350.25"></polygon><polygon data-id="337" data-sec="1.07" data-build="7" data-floor="8" class="s3d-svg__house js-s3d-svg__house" points="699.5,362.75,699.5,362.75,699.5,362.75,699.5,362.75,700.75,384.25,700.75,384.25,700.75,384.25,700.75,384.25,687,383.5,687,383.5,687,383.5,687,383.5"></polygon><polygon data-id="328" data-sec="1.07" data-build="7" data-floor="7" class="s3d-svg__house js-s3d-svg__house" points="710.75,373.5,710.75,373.5,710.75,373.5,710.75,373.5,710.5,382.25,710.5,382.25,710.5,382.25,710.5,382.25,701.5,383.5,701.5,383.5,701.5,383.5,701.5,383.5"></polygon><polygon data-id="280" data-sec="1.06" data-build="6" data-floor="9" class="s3d-svg__house js-s3d-svg__house" points="728.75,332,728.75,332,728.75,332,728.75,332,707,331.5,707,331.5,707,331.5,707,331.5,700,271.25,700,271.25,700,271.25,700,271.25,723.5,271.75,723.5,271.75,723.5,271.75,723.5,271.75,732.25,257,732.25,257,732.25,257,732.25,257,732.75,256.25,732.75,256.25,732.75,256.25,732.75,256.25,740.75,317.75,740.75,317.75,740.75,317.75,740.75,317.75"></polygon><polygon data-id="281" data-sec="1.06" data-build="6" data-floor="9" class="s3d-svg__house js-s3d-svg__house" points="732.75,255.75,732.75,255.75,732.75,255.75,732.75,255.75,741,317.5,741,317.5,741,317.5,741,317.5,749.75,302.5,749.75,302.5,749.75,302.5,749.75,302.5,743.25,238.75,743.25,238.75,743.25,238.75,743.25,238.75"></polygon><polygon data-id="282" data-sec="1.06" data-build="6" data-floor="9" class="s3d-svg__house js-s3d-svg__house" points="755.75,216,755.75,216,755.75,216,755.75,216,761.25,277.5,761.25,277.5,761.25,277.5,761.25,277.5,749.75,302.25,749.75,302.25,749.75,302.25,749.75,302.25,743.5,237.25,743.5,237.25,743.5,237.25,743.5,237.25"></polygon><polygon data-id="283" data-sec="1.06" data-build="6" data-floor="9" class="s3d-svg__house js-s3d-svg__house" points="755.75,216,755.75,216,755.75,216,755.75,216,761.25,278.75,761.25,278.75,761.25,278.75,761.25,278.75,765,271.75,765,271.75,765,271.75,765,271.75,761.5,205,761.5,205,761.5,205,761.5,205"></polygon><polygon data-id="275" data-sec="1.06" data-build="6" data-floor="8" class="s3d-svg__house js-s3d-svg__house" points="707.25,332,707.25,332,707.25,332,707.25,332,709.25,364.25,709.25,364.25,709.25,364.25,709.25,364.25,731,364.25,731,364.25,731,364.25,731,364.25,742.25,343.25,742.25,343.25,742.25,343.25,742.25,343.25,740.75,317.5,740.75,317.5,740.75,317.5,740.75,317.5,729,332.25,729,332.25,729,332.25,729,332.25"></polygon><polygon data-id="274" data-sec="1.06" data-build="6" data-floor="8" class="s3d-svg__house js-s3d-svg__house" points="740.75,317.5,740.75,317.5,740.75,317.5,740.75,317.5,742.5,343,742.5,343,742.5,343,742.5,343,752.5,326,752.5,326,752.5,326,752.5,326,749.5,302.75,749.5,302.75,749.5,302.75,749.5,302.75"></polygon><polygon data-id="273" data-sec="1.06" data-build="6" data-floor="8" class="s3d-svg__house js-s3d-svg__house" points="749.25,301.75,749.25,301.75,749.25,301.75,749.25,301.75,752.5,325.75,752.5,325.75,752.5,325.75,752.5,325.75,762.75,305.25,762.75,305.25,762.75,305.25,762.75,305.25,761,278.25,761,278.25,761,278.25,761,278.25"></polygon><polygon data-id="272" data-sec="1.06" data-build="6" data-floor="8" class="s3d-svg__house js-s3d-svg__house" points="761.25,279.25,761.25,279.25,761.25,279.25,761.25,279.25,762,305.75,762,305.75,762,305.75,762,305.75,766.75,298.25,766.75,298.25,766.75,298.25,766.75,298.25,765.25,272.75,765.25,272.75,765.25,272.75,765.25,272.75"></polygon><polygon data-id="267" data-sec="1.06" data-build="6" data-floor="7" class="s3d-svg__house js-s3d-svg__house" points="708.5,365,708.5,365,708.5,365,708.5,365,711.25,382.75,711.25,382.75,711.25,382.75,711.25,382.75,732.5,383.5,732.5,383.5,732.5,383.5,732.5,383.5,747,368.25,747,368.25,747,368.25,747,368.25,742.75,343.5,742.75,343.5,742.75,343.5,742.75,343.5,731,363.75,731,363.75,731,363.75,731,363.75"></polygon><polygon data-id="266" data-sec="1.06" data-build="6" data-floor="7" class="s3d-svg__house js-s3d-svg__house" points="743,343.5,743,343.5,743,343.5,743,343.5,746.75,365.75,746.75,365.75,746.75,365.75,746.75,365.75,754,350.75,754,350.75,754,350.75,754,350.75,752.25,326.25,752.25,326.25,752.25,326.25,752.25,326.25"></polygon><polygon data-id="265" data-sec="1.06" data-build="6" data-floor="7" class="s3d-svg__house js-s3d-svg__house" points="752.75,325,752.75,325,752.75,325,752.75,325,754.5,350,754.5,350,754.5,350,754.5,350,764.25,330.5,764.25,330.5,764.25,330.5,764.25,330.5,762.25,306,762.25,306,762.25,306,762.25,306"></polygon><polygon data-id="264" data-sec="1.06" data-build="6" data-floor="7" class="s3d-svg__house js-s3d-svg__house" points="762.25,305.75,762.25,305.75,762.25,305.75,762.25,305.75,763.75,331.5,763.75,331.5,763.75,331.5,763.75,331.5,769,322,769,322,769,322,769,322,768,298.25,768,298.25,768,298.25,768,298.25"></polygon><polygon data-id="259" data-sec="1.06" data-build="6" data-floor="6" class="s3d-svg__house js-s3d-svg__house" points="747.5,368.75,747.5,368.75,747.5,368.75,747.5,368.75,749.5,379.25,749.5,379.25,749.5,379.25,749.5,379.25,736,380,736,380,736,380,736,380"></polygon><polygon data-id="258" data-sec="1.06" data-build="6" data-floor="6" class="s3d-svg__house js-s3d-svg__house" points="746.75,365.25,746.75,365.25,746.75,365.25,746.75,365.25,749.75,380.25,749.75,380.25,749.75,380.25,749.75,380.25,752,382.75,752,382.75,752,382.75,752,382.75,754.5,384,754.5,384,754.5,384,754.5,384,757.5,382.75,757.5,382.75,757.5,382.75,757.5,382.75,754.25,350.25,754.25,350.25,754.25,350.25,754.25,350.25"></polygon><polygon data-id="257" data-sec="1.06" data-build="6" data-floor="6" class="s3d-svg__house js-s3d-svg__house" points="754.75,349.5,754.75,349.5,754.75,349.5,754.75,349.5,756,370,756,370,756,370,756,370,764.25,354.25,764.25,354.25,764.25,354.25,764.25,354.25,763.25,331.5,763.25,331.5,763.25,331.5,763.25,331.5"></polygon><polygon data-id="256" data-sec="1.06" data-build="6" data-floor="6" class="s3d-svg__house js-s3d-svg__house" points="764,331,764,331,764,331,764,331,764.75,353.75,764.75,353.75,764.75,353.75,764.75,353.75,769.5,345,769.5,345,769.5,345,769.5,345,768.75,321.25,768.75,321.25,768.75,321.25,768.75,321.25"></polygon><polygon data-id="249" data-sec="1.06" data-build="6" data-floor="5" class="s3d-svg__house js-s3d-svg__house" points="756,369.5,756,369.5,756,369.5,756,369.5,757.75,385.25,757.75,385.25,757.75,385.25,757.75,385.25,766.5,372,766.5,372,766.5,372,766.5,372,764.75,353.5,764.75,353.5,764.75,353.5,764.75,353.5"></polygon><polygon data-id="248" data-sec="1.06" data-build="6" data-floor="5" class="s3d-svg__house js-s3d-svg__house" points="764,353.25,764,353.25,764,353.25,764,353.25,766.25,372.25,766.25,372.25,766.25,372.25,766.25,372.25,772.25,363.5,772.25,363.5,772.25,363.5,772.25,363.5,770.25,345.25,770.25,345.25,770.25,345.25,770.25,345.25"></polygon><polygon data-id="241" data-sec="1.06" data-build="6" data-floor="4" class="s3d-svg__house js-s3d-svg__house" points="758,385.25,758,385.25,758,385.25,758,385.25,769.5,386.25,769.5,386.25,769.5,386.25,769.5,386.25,766.75,372.5,766.75,372.5,766.75,372.5,766.75,372.5"></polygon><polygon data-id="240" data-sec="1.06" data-build="6" data-floor="4" class="s3d-svg__house js-s3d-svg__house" points="766.5,371.75,766.5,371.75,766.5,371.75,766.5,371.75,769.5,386.25,769.5,386.25,769.5,386.25,769.5,386.25,773.5,384.5,773.5,384.5,773.5,384.5,773.5,384.5,772,363.75,772,363.75,772,363.75,772,363.75"></polygon><polygon data-id="636" data-sec="1.05" data-build="5" data-floor="9" class="s3d-svg__house js-s3d-svg__house" points="762.75,246.5,762.75,246.5,764,270.25,764,270.25,781,269.25,781,269.25,789,258.75,789,258.75,786.75,237.75,786.75,237.75,780.5,246.5,780.5,246.5"></polygon><polygon data-id="637" data-sec="1.05" data-build="5" data-floor="9" class="s3d-svg__house js-s3d-svg__house" points="761.25,205.75,761.25,205.75,762.75,247,762.75,247,780.25,245.75,780.25,245.75,786.75,237.25,786.75,237.25,788.75,259.25,788.75,259.25,794,251.75,794,251.75,790.5,188.75,790.5,188.75,785.25,198.5,785.25,198.5,781.25,199,781.25,199,777.75,205.25,777.75,205.25"></polygon><polygon data-id="638" data-sec="1.05" data-build="5" data-floor="9" class="s3d-svg__house js-s3d-svg__house" points="794,173.75,794,173.75,798.5,241,798.5,241,808,220.5,808,220.5,804.75,161,804.75,161"></polygon><polygon data-id="222" data-sec="1.05" data-build="5" data-floor="8" class="s3d-svg__house js-s3d-svg__house" points="764,271.75,764,271.75,765.25,293.75,765.25,293.75,783,292.25,783,292.25,786.75,285.75,786.75,285.75,785.5,264,785.5,264,782.5,268.5,782.5,268.5"></polygon><polygon data-id="221" data-sec="1.05" data-build="5" data-floor="8" class="s3d-svg__house js-s3d-svg__house" points="785,265.25,785,265.25,787.25,284.75,787.25,284.75,796.5,275,796.5,275,794.75,251.75,794.75,251.75"></polygon><polygon data-id="220" data-sec="1.05" data-build="5" data-floor="8" class="s3d-svg__house js-s3d-svg__house" points="799.25,244,799.25,244,801.75,269.75,801.75,269.75,809,247.25,809,247.25,807,224,807,224"></polygon><polygon data-id="214" data-sec="1.05" data-build="5" data-floor="7" class="s3d-svg__house js-s3d-svg__house" points="799.75,270,799.75,270,801.5,291.25,801.5,291.25,808.25,272.25,808.25,272.25,809,247.75,809,247.75"></polygon><polygon data-id="216" data-sec="1.05" data-build="5" data-floor="7" class="s3d-svg__house js-s3d-svg__house" points="764.75,293.75,764.75,293.75,768,316.25,768,316.25,785.25,315.75,785.25,315.75,789.25,304,789.25,304,787.25,285.5,787.25,285.5,782.25,293.25,782.25,293.25"></polygon><polygon data-id="215" data-sec="1.05" data-build="5" data-floor="7" class="s3d-svg__house js-s3d-svg__house" points="787.25,284.75,787.25,284.75,789.25,304.25,789.25,304.25,797,296.25,797,296.25,796.75,274.25,796.75,274.25"></polygon><polygon data-id="210" data-sec="1.05" data-build="5" data-floor="6" class="s3d-svg__house js-s3d-svg__house" points="767.75,316.25,767.75,316.25,769.25,338.25,769.25,338.25,785.75,337.25,785.75,337.25,791.75,326.5,791.75,326.5,789.75,304.75,789.75,304.75,785.25,316,785.25,316"></polygon><polygon data-id="209" data-sec="1.05" data-build="5" data-floor="6" class="s3d-svg__house js-s3d-svg__house" points="789.25,304.5,789.25,304.5,791.75,326.25,791.75,326.25,798.5,316.75,798.5,316.75,797.25,295.75,797.25,295.75"></polygon><polygon data-id="208" data-sec="1.05" data-build="5" data-floor="6" class="s3d-svg__house js-s3d-svg__house" points="801.25,291.75,801.25,291.75,802.75,311.5,802.75,311.5,810.5,289,810.5,289,809,271.5,809,271.5"></polygon><polygon data-id="204" data-sec="1.05" data-build="5" data-floor="5" class="s3d-svg__house js-s3d-svg__house" points="769,338,769,338,771,360.5,771,360.5,786.5,360.5,786.5,360.5,792.5,350,792.5,350,792,327.25,792,327.25,786,338,786,338"></polygon><polygon data-id="203" data-sec="1.05" data-build="5" data-floor="5" class="s3d-svg__house js-s3d-svg__house" points="792,326.5,792,326.5,792.75,350.5,792.75,350.5,800,339.5,800,339.5,799,317,799,317"></polygon><polygon data-id="202" data-sec="1.05" data-build="5" data-floor="5" class="s3d-svg__house js-s3d-svg__house" points="801.75,312.75,801.75,312.75,803.75,334.5,803.75,334.5,813.25,313,813.25,313,811,289.25,811,289.25"></polygon><polygon data-id="198" data-sec="1.05" data-build="5" data-floor="4" class="s3d-svg__house js-s3d-svg__house" points="770.5,360.75,770.5,360.75,773.75,384.5,773.75,384.5,788.75,381.5,788.75,381.5,792.75,371.75,792.75,371.75,792.25,351.25,792.25,351.25,786.25,361,786.25,361"></polygon><polygon data-id="197" data-sec="1.05" data-build="5" data-floor="4" class="s3d-svg__house js-s3d-svg__house" points="792.25,350,792.25,350,793.25,372.25,793.25,372.25,800.5,362.75,800.5,362.75,799.25,339.5,799.25,339.5"></polygon><polygon data-id="196" data-sec="1.05" data-build="5" data-floor="4" class="s3d-svg__house js-s3d-svg__house" points="813.5,313.75,813.5,313.75,814.75,331.25,814.75,331.25,804.75,356.25,804.75,356.25,803.75,335.5,803.75,335.5"></polygon><polygon data-id="192" data-sec="1.05" data-build="5" data-floor="3" class="s3d-svg__house js-s3d-svg__house" points="793.25,371.75,793.25,371.75,793.5,383.5,793.5,383.5,788.25,383.75,788.25,383.75"></polygon><polygon data-id="191" data-sec="1.05" data-build="5" data-floor="3" class="s3d-svg__house js-s3d-svg__house" points="793.25,372,793.25,372,793.75,382.5,793.75,382.5,802.5,375.5,802.5,375.5,800.75,362.5,800.75,362.5"></polygon><polygon data-id="190" data-sec="1.05" data-build="5" data-floor="3" class="s3d-svg__house js-s3d-svg__house" points="804,357,804,357,805.75,371.75,805.75,371.75,815.25,350.25,815.25,350.25,814.5,331.5,814.5,331.5"></polygon><polygon data-id="648" data-sec="1.04" data-build="4" data-floor="9" class="s3d-svg__house js-s3d-svg__house" points="829,211.75,808,212.25,804.75,157.5,826,157.5,829,151.75,830,150.5,833,200.75"></polygon><polygon data-id="642" data-sec="1.04" data-build="4" data-floor="9" class="s3d-svg__house js-s3d-svg__house" points="851.25,152,853.25,206.5,912.25,205.75,912,152"></polygon><polygon data-id="178" data-sec="1.04" data-build="4" data-floor="8" class="s3d-svg__house js-s3d-svg__house" points="833.5,201,834.5,225.25,830,231.75,807.75,231.5,807.25,213,828.75,212.75"></polygon><polygon data-id="177" data-sec="1.04" data-build="4" data-floor="8" class="s3d-svg__house js-s3d-svg__house" points="853,207.25,853.75,226.75,913.5,227.75,912.5,205.75"></polygon><polygon data-id="171" data-sec="1.04" data-build="4" data-floor="7" class="s3d-svg__house js-s3d-svg__house" points="807,232.25,830,232.5,835.25,225.25,835.75,245.5,831.5,250,808.75,250.75"></polygon><polygon data-id="170" data-sec="1.04" data-build="4" data-floor="7" class="s3d-svg__house js-s3d-svg__house" points="854.25,227.25,854.5,247,914,247,913,229.25,913.75,228"></polygon><polygon data-id="157" data-sec="1.04" data-build="4" data-floor="5" class="s3d-svg__house js-s3d-svg__house" points="808.25,269,809.75,288.75,832.25,289,836,284.25,835.75,262.75,832,268.5"></polygon><polygon data-id="156" data-sec="1.04" data-build="4" data-floor="5" class="s3d-svg__house js-s3d-svg__house" points="854.5,268.25,855.75,286.5,914.25,285.75,914,267.75"></polygon><polygon data-id="150" data-sec="1.04" data-build="4" data-floor="4" class="s3d-svg__house js-s3d-svg__house" points="809.75,290,812.25,312.75,833.25,310.75,837,304.5,836.75,284,832.75,290,827.5,289,811,289.75"></polygon><polygon data-id="149" data-sec="1.04" data-build="4" data-floor="4" class="s3d-svg__house js-s3d-svg__house" points="855,287.75,856.5,306.25,914.5,305.25,913,285.75,857.5,286.75"></polygon><polygon data-id="143" data-sec="1.04" data-build="4" data-floor="3" class="s3d-svg__house js-s3d-svg__house" points="812.5,313,814.75,331.5,834,330,837.75,323.25,837.5,304.5,833.75,310.75"></polygon><polygon data-id="163" data-sec="1.04" data-build="4" data-floor="6" class="s3d-svg__house js-s3d-svg__house" points="854,247.25,854.5,267.75,913.5,267,913.75,247"></polygon><polygon data-id="164" data-sec="1.04" data-build="4" data-floor="6" class="s3d-svg__house js-s3d-svg__house" points="808.5,251,808.25,268.5,831.75,268,835.5,262.5,836,245.25,831.5,250.25"></polygon><polygon data-id="142" data-sec="1.04" data-build="4" data-floor="3" class="s3d-svg__house js-s3d-svg__house" points="856.5,306.75,856.75,326.25,914.5,327,913.5,304.75"></polygon><polygon data-id="136" data-sec="1.04" data-build="4" data-floor="2" class="s3d-svg__house js-s3d-svg__house" points="814.75,331.75,815,350.75,833.75,350,837.75,340.5,837.75,323.75,834.5,330"></polygon><polygon data-id="135" data-sec="1.04" data-build="4" data-floor="2" class="s3d-svg__house js-s3d-svg__house" points="857,326.75,858,341.25,914.5,341,914.75,327.5"></polygon><polygon data-id="608" data-sec="1.04" data-build="4" data-floor="1" class="s3d-svg__house js-s3d-svg__house" points="838.25,341.25,838.5,363.25,835.25,374,814.25,374.5,814,352,834.25,351"></polygon><polygon data-id="604" data-sec="1.04" data-build="4" data-floor="1" class="s3d-svg__house js-s3d-svg__house" points="858,341.75,857.25,363.75,893.5,363,893.5,357.25,914,356.75,915,357,914.25,340.5"></polygon><polygon data-id="131" data-sec="1.03" data-build="3" data-floor="9" class="s3d-svg__house js-s3d-svg__house" points="1001,151,1000,204.75,1064.5,204.5,1065.5,150"></polygon><polygon data-id="132" data-sec="1.03" data-build="3" data-floor="9" class="s3d-svg__house js-s3d-svg__house" points="912,151.25,911.75,206.25,972,205.5,972,149.75"></polygon><polygon data-id="127" data-sec="1.03" data-build="3" data-floor="8" class="s3d-svg__house js-s3d-svg__house" points="1000,205,1000.25,225.5,1063.75,225.5,1064.75,204.5,1022.75,205.25"></polygon><polygon data-id="124" data-sec="1.03" data-build="3" data-floor="7" class="s3d-svg__house js-s3d-svg__house" points="913,228,912.75,247.25,971.25,246.75,972,226.75"></polygon><polygon data-id="119" data-sec="1.03" data-build="3" data-floor="6" class="s3d-svg__house js-s3d-svg__house" points="1000.25,246,1000.5,265.75,1062,265.25,1063,245.75"></polygon><polygon data-id="120" data-sec="1.03" data-build="3" data-floor="6" class="s3d-svg__house js-s3d-svg__house" points="912.5,247,913,268,971,266.25,971.5,246.75"></polygon><polygon data-id="116" data-sec="1.03" data-build="3" data-floor="5" class="s3d-svg__house js-s3d-svg__house" points="913,267.75,913.75,286.75,971.25,286,971,266"></polygon><polygon data-id="115" data-sec="1.03" data-build="3" data-floor="5" class="s3d-svg__house js-s3d-svg__house" points="999.75,265.75,1000,285.25,1062.25,285.5,1062.25,265.5"></polygon><polygon data-id="112" data-sec="1.03" data-build="3" data-floor="4" class="s3d-svg__house js-s3d-svg__house" points="913.5,286.5,914,305.75,970.5,304.25,971.75,286.25"></polygon><polygon data-id="111" data-sec="1.03" data-build="3" data-floor="4" class="s3d-svg__house js-s3d-svg__house" points="999.75,285.25,999.25,304.25,1061.75,304.25,1061.75,286"></polygon><polygon data-id="128" data-sec="1.03" data-build="3" data-floor="8" class="s3d-svg__house js-s3d-svg__house" points="912,206.25,913.5,229,972.25,226.75,972.75,205.25"></polygon><polygon data-id="123" data-sec="1.03" data-build="3" data-floor="7" class="s3d-svg__house js-s3d-svg__house" points="999.75,226,1000,245,1063.25,245.5,1064.5,225.25"></polygon><polygon data-id="108" data-sec="1.03" data-build="3" data-floor="3" class="s3d-svg__house js-s3d-svg__house" points="913.75,306.25,913.75,327.5,970.75,326,971.25,304.5"></polygon><polygon data-id="107" data-sec="1.03" data-build="3" data-floor="3" class="s3d-svg__house js-s3d-svg__house" points="998.75,303.75,999.25,322.75,1061.25,323.5,1061.5,304"></polygon><polygon data-id="104" data-sec="1.03" data-build="3" data-floor="2" class="s3d-svg__house js-s3d-svg__house" points="914.25,327.75,914.5,342,970.75,340.5,970,326"></polygon><polygon data-id="103" data-sec="1.03" data-build="3" data-floor="2" class="s3d-svg__house js-s3d-svg__house" points="998.75,324,998.5,339.5,1060,340,1060.5,324.25"></polygon><polygon data-id="603" data-sec="1.03" data-build="3" data-floor="1" class="s3d-svg__house js-s3d-svg__house" points="914.25,342.5,914.75,357,934,356.75,934.25,358.75,965.5,358.5,965.5,355.25,983,354.25,983.25,359.5,982,360.5,981.75,362.75,985.5,363.25,984.75,341.25,971.75,340.25,971.25,342"></polygon><polygon data-id="601" data-sec="1.03" data-build="3" data-floor="1" class="s3d-svg__house js-s3d-svg__house" points="998.5,339.5,997.75,362.5,1059.5,363.75,1059.75,340.25"></polygon><polygon data-id="99" data-sec="1.02" data-build="2" data-floor="9" class="s3d-svg__house js-s3d-svg__house" points="1065.5,150.5,1064.5,204.5,1123.5,206.5,1126.5,151.75"></polygon><polygon data-id="102" data-sec="1.02" data-build="2" data-floor="9" class="s3d-svg__house js-s3d-svg__house" points="1148.75,152,1144.75,207.5,1150.25,211.75,1157.75,211.25,1160,158.5,1153.5,158.25"></polygon><polygon data-id="94" data-sec="1.02" data-build="2" data-floor="8" class="s3d-svg__house js-s3d-svg__house" points="1064.25,204.5,1063.75,226.25,1122.75,226.25,1122.75,206.5"></polygon><polygon data-id="93" data-sec="1.02" data-build="2" data-floor="8" class="s3d-svg__house js-s3d-svg__house" points="1145.25,207.5,1144.25,228.5,1149.25,232.75,1157,232.75,1157.75,211.5,1149.5,213"></polygon><polygon data-id="87" data-sec="1.02" data-build="2" data-floor="7" class="s3d-svg__house js-s3d-svg__house" points="1064,226.25,1063.5,245.75,1122.25,246.5,1123,226.5"></polygon><polygon data-id="86" data-sec="1.02" data-build="2" data-floor="7" class="s3d-svg__house js-s3d-svg__house" points="1144.75,229.75,1143.25,248.5,1147.5,252,1155.75,252.75,1157,234,1149.25,233.5"></polygon><polygon data-id="80" data-sec="1.02" data-build="2" data-floor="6" class="s3d-svg__house js-s3d-svg__house" points="1063,245.5,1062.75,265.75,1121,266.5,1122,247"></polygon><polygon data-id="79" data-sec="1.02" data-build="2" data-floor="6" class="s3d-svg__house js-s3d-svg__house" points="1143.25,250,1142.25,267.75,1146.5,272.75,1154,273.5,1156,253.75,1146.25,252.5"></polygon><polygon data-id="73" data-sec="1.02" data-build="2" data-floor="5" class="s3d-svg__house js-s3d-svg__house" points="1062.5,266.25,1062,286.25,1120,285.75,1120.75,266.5"></polygon><polygon data-id="72" data-sec="1.02" data-build="2" data-floor="5" class="s3d-svg__house js-s3d-svg__house" points="1142.25,268.25,1140.75,287.25,1144.5,291.25,1153.5,291.75,1154,273.25,1145.5,274.5"></polygon><polygon data-id="66" data-sec="1.02" data-build="2" data-floor="4" class="s3d-svg__house js-s3d-svg__house" points="1061.5,286,1061.25,305.25,1119,306,1120,286.5"></polygon><polygon data-id="65" data-sec="1.02" data-build="2" data-floor="4" class="s3d-svg__house js-s3d-svg__house" points="1140.5,287.75,1139.5,307.25,1143.25,310.75,1151.75,311,1153.25,292.75,1144.25,291.25"></polygon><polygon data-id="59" data-sec="1.02" data-build="2" data-floor="3" class="s3d-svg__house js-s3d-svg__house" points="1061.75,304,1061,324.5,1118,325,1119.25,305.75"></polygon><polygon data-id="58" data-sec="1.02" data-build="2" data-floor="3" class="s3d-svg__house js-s3d-svg__house" points="1139.25,307.75,1138.75,325,1142.25,328.75,1151,328.25,1152,311.25,1143.5,311.75"></polygon><polygon data-id="52" data-sec="1.02" data-build="2" data-floor="2" class="s3d-svg__house js-s3d-svg__house" points="1061.25,323.75,1059.75,341.5,1117.75,341,1117.75,325.25"></polygon><polygon data-id="51" data-sec="1.02" data-build="2" data-floor="2" class="s3d-svg__house js-s3d-svg__house" points="1138.5,326.25,1137.5,341,1141,350.5,1148.75,350.5,1150.75,328.5,1141.75,329"></polygon><polygon data-id="596" data-sec="1.02" data-build="2" data-floor="1" class="s3d-svg__house js-s3d-svg__house" points="1137.25,341.5,1136,363.75,1140.25,374.25,1147,373,1149.5,382.5,1158.75,383.25,1154.5,374,1154.75,371.75,1148.75,352.5,1141.25,351.75"></polygon><polygon data-id="46" data-sec="1.01" data-build="1" data-floor="9" class="s3d-svg__house js-s3d-svg__house" points="1172.25,177.25,1169,238.5,1179,249.75,1208.5,252.75,1210,235.25,1220,234.25,1221,222,1229.25,223,1228.75,233.25,1272.75,232,1273,215.75,1282.75,214.75,1284.25,225.75,1287,225.25,1288.25,191.75,1183.5,192.75"></polygon><polygon data-id="42" data-sec="1.01" data-build="1" data-floor="8" class="s3d-svg__house js-s3d-svg__house" points="1177.5,271.75,1207.5,272.75,1209.25,253,1179.25,250.75,1168.75,239.25,1167.25,259.75"></polygon><polygon data-id="43" data-sec="1.01" data-build="1" data-floor="8" class="s3d-svg__house js-s3d-svg__house" points="1162.25,236.75,1161,254,1156,252,1157,233"></polygon><polygon data-id="38" data-sec="1.01" data-build="1" data-floor="7" class="s3d-svg__house js-s3d-svg__house" points="1175.75,291.75,1205.5,293.25,1207.5,274,1177,272,1167,260.75,1165.5,280.75"></polygon><polygon data-id="35" data-sec="1.01" data-build="1" data-floor="6" class="s3d-svg__house js-s3d-svg__house" points="1159,279.75,1158.25,300.5,1153.25,292.75,1153.75,274"></polygon><polygon data-id="34" data-sec="1.01" data-build="1" data-floor="6" class="s3d-svg__house js-s3d-svg__house" points="1165.25,281.25,1164.5,302.5,1174.5,310.5,1204,313.25,1205.75,293.75,1205.75,293.25,1175.75,293"></polygon><polygon data-id="30" data-sec="1.01" data-build="1" data-floor="5" class="s3d-svg__house js-s3d-svg__house" points="1164,303,1174.5,311.25,1204.5,313.25,1202.25,336.25,1172.75,333.75,1163.5,323.25"></polygon><polygon data-id="31" data-sec="1.01" data-build="1" data-floor="5" class="s3d-svg__house js-s3d-svg__house" points="1158,300.5,1156.75,320.75,1151.5,317,1153.5,294.75"></polygon><polygon data-id="26" data-sec="1.01" data-build="1" data-floor="4" class="s3d-svg__house js-s3d-svg__house" points="1163,323.25,1160.75,348.25,1170.25,356,1200.25,357.75,1202.25,335,1173.5,334.5"></polygon><polygon data-id="27" data-sec="1.01" data-build="1" data-floor="4" class="s3d-svg__house js-s3d-svg__house" points="1157,322,1155,345,1150.5,340.5,1151.5,317.25"></polygon><polygon data-id="23" data-sec="1.01" data-build="1" data-floor="3" class="s3d-svg__house js-s3d-svg__house" points="1161.25,347.75,1170.25,355.5,1200.25,357.25,1198.75,375.75,1170,374,1160,365.5"></polygon><polygon data-id="22" data-sec="1.01" data-build="1" data-floor="3" class="s3d-svg__house js-s3d-svg__house" points="1155,344.75,1153.75,365.25,1149.25,352.75,1150,340.5"></polygon><polygon data-id="18" data-sec="1.01" data-build="1" data-floor="2" class="s3d-svg__house js-s3d-svg__house" points="1159.75,365.75,1159.25,382.75,1198.75,384.5,1199.75,376.75,1170,374"></polygon><polygon data-id="579" data-sec="1.12" data-build="12" data-floor="8" class="s3d-svg__house js-s3d-svg__house" points="1205,301.25,1202,330.5,1222.25,351.75,1225.5,322.75"></polygon><polygon data-id="578" data-sec="1.12" data-build="12" data-floor="8" class="s3d-svg__house js-s3d-svg__house" points="1227,344.5,1224,368.25,1231.5,384,1235.25,384.5,1236,381.5,1247,381,1252.5,381,1255.25,381.5"></polygon><polygon data-id="575" data-sec="1.12" data-build="12" data-floor="7" class="s3d-svg__house js-s3d-svg__house" points="1202.25,331.25,1200.75,357.5,1219.5,379.25,1222.25,352.5"></polygon><polygon data-id="574" data-sec="1.12" data-build="12" data-floor="7" class="s3d-svg__house js-s3d-svg__house" points="1224.25,368.75,1223.25,381,1228.25,383.5,1230.25,383.75,1231,384"></polygon><polygon data-id="571" data-sec="1.12" data-build="12" data-floor="6" class="s3d-svg__house js-s3d-svg__house" points="1201.25,358.25,1199.25,383.5,1214.5,383.75,1215.5,381.5,1218.5,380.75,1220.5,380.5"></polygon></svg>