<svg preserveAspectRatio="xMidYMid slice" id="floor--svg"  viewBox="0 0 1920 1080" version="1.0" xmlns="http://www.w3.org/2000/svg"><polygon data-id="635" data-sec="1.02" data-build="2" data-floor="9" class="s3d-svg__house js-s3d-svg__house" points="312.25,504,312.25,504,312.25,504,312.25,504,335.75,605.5,335.75,605.5,335.75,605.5,335.75,605.5,273.75,607.25,273.75,607.25,273.75,607.25,273.75,607.25,248.25,506,248.25,506,248.25,506,248.25,506,247.75,504.75,247.75,504.75,247.75,504.75,247.75,504.75,247.25,503.75,247.25,503.75,247.25,503.75,247.25,503.75"></polygon><polygon data-id="634" data-sec="1.02" data-build="2" data-floor="9" class="s3d-svg__house js-s3d-svg__house" points="312.25,504,312.25,504,312.25,504,312.25,504,335.75,604.75,335.75,604.75,335.75,604.75,335.75,604.75,441,605,441,605,441,605,441,605,421.25,504.25,421.25,504.25,421.25,504.25,421.25,504.25"></polygon><polygon data-id="633" data-sec="1.02" data-build="2" data-floor="9" class="s3d-svg__house js-s3d-svg__house" points="421,505,421,505,421,505,421,505,440.25,605.75,440.25,605.75,440.25,605.75,440.25,605.75,544,605.5,544,605.5,544,605.5,544,605.5,529.75,504.5,529.75,504.5,529.75,504.5,529.75,504.5,420.25,504,420.25,504,420.25,504,420.25,504"></polygon><polygon data-id="100" data-sec="1.02" data-build="2" data-floor="9" class="s3d-svg__house js-s3d-svg__house" points="530,504.75,530,504.75,530,504.75,530,504.75,543.75,606,543.75,606,543.75,606,543.75,606,653.5,608,653.5,608,653.5,608,653.5,608,641.25,503.5,641.25,503.5,641.25,503.5,641.25,503.5,529.75,504.5,529.75,504.5,529.75,504.5,529.75,504.5,529.75,504.25,529.75,504.25,529.75,504.25,529.75,504.25"></polygon><polygon data-id="99" data-sec="1.02" data-build="2" data-floor="9" class="s3d-svg__house js-s3d-svg__house" points="641,504.25,641,504.25,641,504.25,641,504.25,653.25,608.25,653.25,608.25,653.25,608.25,653.25,608.25,695,609,695,609,695,609,695,609,687,506,687,506,687,506,687,506,686.25,504.5,686.25,504.5,686.25,504.5,686.25,504.5,687,503.75,687,503.75,687,503.75,687,503.75"></polygon><polygon data-id="98" data-sec="1.02" data-build="2" data-floor="8" class="s3d-svg__house js-s3d-svg__house" points="273.75,607.75,273.75,607.75,273.75,607.75,273.75,607.75,284.75,650.5,284.75,650.5,284.75,650.5,284.75,650.5,345.25,649.25,345.25,649.25,345.25,649.25,345.25,649.25,336,605,336,605,336,605,336,605"></polygon><polygon data-id="97" data-sec="1.02" data-build="2" data-floor="8" class="s3d-svg__house js-s3d-svg__house" points="335,605.25,335,605.25,335,605.25,335,605.25,344.75,649.25,344.75,649.25,344.75,649.25,344.75,649.25,449.25,648.5,449.25,648.5,449.25,648.5,449.25,648.5,440.25,605.75,440.25,605.75,440.25,605.75,440.25,605.75"></polygon><polygon data-id="96" data-sec="1.02" data-build="2" data-floor="8" class="s3d-svg__house js-s3d-svg__house" points="440.25,605.5,440.25,605.5,440.25,605.5,440.25,605.5,448.5,649.25,448.5,649.25,448.5,649.25,448.5,649.25,551.25,649,551.25,649,551.25,649,551.25,649,544,604.75,544,604.75,544,604.75,544,604.75"></polygon><polygon data-id="95" data-sec="1.02" data-build="2" data-floor="8" class="s3d-svg__house js-s3d-svg__house" points="543.5,605.75,543.5,605.75,543.5,605.75,543.5,605.75,551,650,551,650,551,650,551,650,657.75,650.25,657.75,650.25,657.75,650.25,657.75,650.25,653.5,607.75,653.5,607.75,653.5,607.75,653.5,607.75"></polygon><polygon data-id="94" data-sec="1.02" data-build="2" data-floor="8" class="s3d-svg__house js-s3d-svg__house" points="695.25,609.5,695.25,609.5,695.25,609.5,695.25,609.5,698.25,652.5,698.25,652.5,698.25,652.5,698.25,652.5,698.75,653,698.75,653,698.75,653,698.75,653,699.25,652.5,699.25,652.5,699.25,652.5,699.25,652.5,657.5,651,657.5,651,657.5,651,657.5,651,653,608.75,653,608.75,653,608.75,653,608.75"></polygon><polygon data-id="91" data-sec="1.02" data-build="2" data-floor="7" class="s3d-svg__house js-s3d-svg__house" points="284.5,650.75,284.5,650.75,284.5,650.75,284.5,650.75,295.25,689,295.25,689,295.25,689,295.25,689,353.5,689,353.5,689,353.5,689,353.5,689,345,650,345,650,345,650,345,650"></polygon><polygon data-id="90" data-sec="1.02" data-build="2" data-floor="7" class="s3d-svg__house js-s3d-svg__house" points="344.25,649.25,344.25,649.25,344.25,649.25,344.25,649.25,353.5,690,353.5,690,353.5,690,353.5,690,457.75,689,457.75,689,457.75,689,457.75,689,448.75,648,448.75,648,448.75,648,448.75,648"></polygon><polygon data-id="89" data-sec="1.02" data-build="2" data-floor="7" class="s3d-svg__house js-s3d-svg__house" points="448.75,649,448.75,649,448.75,649,448.75,649,457,689.5,457,689.5,457,689.5,457,689.5,555.75,689.75,555.75,689.75,555.75,689.75,555.75,689.75,556,690,556,690,556,690,556,690,556,690.25,556,690.25,556,690.25,556,690.25,550.75,648.75,550.75,648.75,550.75,648.75,550.75,648.75"></polygon><polygon data-id="88" data-sec="1.02" data-build="2" data-floor="7" class="s3d-svg__house js-s3d-svg__house" points="550.25,649.75,550.25,649.75,550.25,649.75,550.25,649.75,555.75,690.5,555.75,690.5,555.75,690.5,555.75,690.5,662.75,690.75,662.75,690.75,662.75,690.75,662.75,690.75,663.25,691.5,663.25,691.5,663.25,691.5,663.25,691.5,663.25,692.25,663.25,692.25,663.25,692.25,663.25,692.25,657.75,650,657.75,650,657.75,650,657.75,650"></polygon><polygon data-id="87" data-sec="1.02" data-build="2" data-floor="7" class="s3d-svg__house js-s3d-svg__house" points="657.75,651,657.75,651,657.75,651,657.75,651,663,691.5,663,691.5,663,691.5,663,691.5,702,690.75,702,690.75,702,690.75,702,690.75,697.75,652,697.75,652,697.75,652,697.75,652"></polygon><polygon data-id="84" data-sec="1.02" data-build="2" data-floor="6" class="s3d-svg__house js-s3d-svg__house" points="294.5,689,294.5,689,294.5,689,294.5,689,305.5,729,305.5,729,305.5,729,305.5,729,364,728.75,364,728.75,364,728.75,364,728.75,355.75,690.5,355.75,690.5,355.75,690.5,355.75,690.5,353.75,689.75,353.75,689.75,353.75,689.75,353.75,689.75"></polygon><polygon data-id="83" data-sec="1.02" data-build="2" data-floor="6" class="s3d-svg__house js-s3d-svg__house" points="355.5,690.5,355.5,690.5,355.5,690.5,355.5,690.5,363.25,729.25,363.25,729.25,363.25,729.25,363.25,729.25,465,727.25,465,727.25,465,727.25,465,727.25,465.25,728.25,465.25,728.25,465.25,728.25,465.25,728.25,465.5,729.75,465.5,729.75,465.5,729.75,465.5,729.75,458.25,690,458.25,690,458.25,690,458.25,690"></polygon><polygon data-id="82" data-sec="1.02" data-build="2" data-floor="6" class="s3d-svg__house js-s3d-svg__house" points="457.75,690.5,457.75,690.5,457.75,690.5,457.75,690.5,465.25,728.75,465.25,728.75,465.25,728.75,465.25,728.75,561.25,730.75,561.25,730.75,561.25,730.75,561.25,730.75,555.25,690.5,555.25,690.5,555.25,690.5,555.25,690.5"></polygon><polygon data-id="81" data-sec="1.02" data-build="2" data-floor="6" class="s3d-svg__house js-s3d-svg__house" points="555,690.75,555,690.75,555,690.75,555,690.75,560.5,730.75,560.5,730.75,560.5,730.75,560.5,730.75,667.5,730.5,667.5,730.5,667.5,730.5,667.5,730.5,663,690.75,663,690.75,663,690.75,663,690.75"></polygon><polygon data-id="80" data-sec="1.02" data-build="2" data-floor="6" class="s3d-svg__house js-s3d-svg__house" points="702.5,690.5,702.5,690.5,702.5,690.5,702.5,690.5,705.75,731.5,705.75,731.5,705.75,731.5,705.75,731.5,667,731.5,667,731.5,667,731.5,667,731.5,662.25,691.5,662.25,691.5,662.25,691.5,662.25,691.5"></polygon><polygon data-id="77" data-sec="1.02" data-build="2" data-floor="5" class="s3d-svg__house js-s3d-svg__house" points="305.75,729.5,305.75,729.5,305.75,729.5,305.75,729.5,314,763.75,314,763.75,314,763.75,314,763.75,372.25,762.5,372.25,762.5,372.25,762.5,372.25,762.5,364.25,729,364.25,729,364.25,729,364.25,729"></polygon><polygon data-id="76" data-sec="1.02" data-build="2" data-floor="5" class="s3d-svg__house js-s3d-svg__house" points="363.75,729,363.75,729,363.75,729,363.75,729,372.25,763.5,372.25,763.5,372.25,763.5,372.25,763.5,472,763.75,472,763.75,472,763.75,472,763.75,464.75,727.75,464.75,727.75,464.75,727.75,464.75,727.75"></polygon><polygon data-id="75" data-sec="1.02" data-build="2" data-floor="5" class="s3d-svg__house js-s3d-svg__house" points="465,728.25,465,728.25,465,728.25,465,728.25,472,764,472,764,472,764,472,764,565.75,766,565.75,766,565.75,766,565.75,766,560.5,730.75,560.5,730.75,560.5,730.75,560.5,730.75"></polygon><polygon data-id="74" data-sec="1.02" data-build="2" data-floor="5" class="s3d-svg__house js-s3d-svg__house" points="560.75,730.75,560.75,730.75,560.75,730.75,560.75,730.75,565.25,766,565.25,766,565.25,766,565.25,766,672,766.5,672,766.5,672,766.5,672,766.5,667.25,730.5,667.25,730.5,667.25,730.5,667.25,730.5"></polygon><polygon data-id="73" data-sec="1.02" data-build="2" data-floor="5" class="s3d-svg__house js-s3d-svg__house" points="667,731.5,667,731.5,667,731.5,667,731.5,671,766.5,671,766.5,671,766.5,671,766.5,710.5,766.75,710.5,766.75,710.5,766.75,710.5,766.75,706.25,731.25,706.25,731.25,706.25,731.25,706.25,731.25"></polygon><polygon data-id="70" data-sec="1.02" data-build="2" data-floor="4" class="s3d-svg__house js-s3d-svg__house" points="314,764.25,314,764.25,314,764.25,314,764.25,325,801.25,325,801.25,325,801.25,325,801.25,381.5,801.5,381.5,801.5,381.5,801.5,381.5,801.5,372,762.75,372,762.75,372,762.75,372,762.75"></polygon><polygon data-id="69" data-sec="1.02" data-build="2" data-floor="4" class="s3d-svg__house js-s3d-svg__house" points="372,763.25,372,763.25,372,763.25,372,763.25,381.25,802.5,381.25,802.5,381.25,802.5,381.25,802.5,480,801,480,801,480,801,480,801,472,764.25,472,764.25,472,764.25,472,764.25"></polygon><polygon data-id="68" data-sec="1.02" data-build="2" data-floor="4" class="s3d-svg__house js-s3d-svg__house" points="471.75,764,471.75,764,471.75,764,471.75,764,479.75,801.75,479.75,801.75,479.75,801.75,479.75,801.75,572.25,804.25,572.25,804.25,572.25,804.25,572.25,804.25,565.75,765.5,565.75,765.5,565.75,765.5,565.75,765.5"></polygon><polygon data-id="67" data-sec="1.02" data-build="2" data-floor="4" class="s3d-svg__house js-s3d-svg__house" points="565.5,766,565.5,766,565.5,766,565.5,766,572,804.25,572,804.25,572,804.25,572,804.25,676.25,804.5,676.25,804.5,676.25,804.5,676.25,804.5,671,767,671,767,671,767,671,767"></polygon><polygon data-id="66" data-sec="1.02" data-build="2" data-floor="4" class="s3d-svg__house js-s3d-svg__house" points="671.25,767,671.25,767,671.25,767,671.25,767,675.25,804.25,675.25,804.25,675.25,804.25,675.25,804.25,675.75,806,675.75,806,675.75,806,675.75,806,712.5,803.75,712.5,803.75,712.5,803.75,712.5,803.75,710.25,766.5,710.25,766.5,710.25,766.5,710.25,766.5"></polygon><polygon data-id="63" data-sec="1.02" data-build="2" data-floor="3" class="s3d-svg__house js-s3d-svg__house" points="325,801.25,325,801.25,325,801.25,325,801.25,335,837,335,837,335,837,335,837,390.5,836.75,390.5,836.75,390.5,836.75,390.5,836.75,381.5,802.5,381.5,802.5,381.5,802.5,381.5,802.5"></polygon><polygon data-id="62" data-sec="1.02" data-build="2" data-floor="3" class="s3d-svg__house js-s3d-svg__house" points="382,802.5,382,802.5,382,802.5,382,802.5,390.75,837.5,390.75,837.5,390.75,837.5,390.75,837.5,486.75,836.5,486.75,836.5,486.75,836.5,486.75,836.5,479.5,801.75,479.5,801.75,479.5,801.75,479.5,801.75"></polygon><polygon data-id="61" data-sec="1.02" data-build="2" data-floor="3" class="s3d-svg__house js-s3d-svg__house" points="479.5,801.5,479.5,801.5,479.5,801.5,479.5,801.5,486.75,837,486.75,837,486.75,837,486.75,837,578,838.25,578,838.25,578,838.25,578,838.25,572,804,572,804,572,804,572,804"></polygon><polygon data-id="60" data-sec="1.02" data-build="2" data-floor="3" class="s3d-svg__house js-s3d-svg__house" points="572.25,804.25,572.25,804.25,572.25,804.25,572.25,804.25,578.5,838.5,578.5,838.5,578.5,838.5,578.5,838.5,681,841.75,681,841.75,681,841.75,681,841.75,676,805.25,676,805.25,676,805.25,676,805.25"></polygon><polygon data-id="59" data-sec="1.02" data-build="2" data-floor="3" class="s3d-svg__house js-s3d-svg__house" points="675,804.75,675,804.75,675,804.75,675,804.75,680.75,842,680.75,842,680.75,842,680.75,842,716.75,842,716.75,842,716.75,842,716.75,842,712.5,803.25,712.5,803.25,712.5,803.25,712.5,803.25"></polygon><polygon data-id="56" data-sec="1.02" data-build="2" data-floor="2" class="s3d-svg__house js-s3d-svg__house" points="334.25,837.75,334.25,837.75,334.25,837.75,334.25,837.75,342.5,866.75,342.5,866.75,342.5,866.75,342.5,866.75,397.5,866.5,397.5,866.5,397.5,866.5,397.5,866.5,390,836.75,390,836.75,390,836.75,390,836.75"></polygon><polygon data-id="55" data-sec="1.02" data-build="2" data-floor="2" class="s3d-svg__house js-s3d-svg__house" points="390.75,837,390.75,837,390.75,837,390.75,837,398.25,866.75,398.25,866.75,398.25,866.75,398.25,866.75,493.25,866.75,493.25,866.75,493.25,866.75,493.25,866.75,486.75,837,486.75,837,486.75,837,486.75,837"></polygon><polygon data-id="54" data-sec="1.02" data-build="2" data-floor="2" class="s3d-svg__house js-s3d-svg__house" points="486.25,837.25,486.25,837.25,486.25,837.25,486.25,837.25,493.25,867.75,493.25,867.75,493.25,867.75,493.25,867.75,582.75,868,582.75,868,582.75,868,582.75,868,578,838.25,578,838.25,578,838.25,578,838.25"></polygon><polygon data-id="53" data-sec="1.02" data-build="2" data-floor="2" class="s3d-svg__house js-s3d-svg__house" points="577.75,838.75,577.75,838.75,577.75,838.75,577.75,838.75,582.75,869.25,582.75,869.25,582.75,869.25,582.75,869.25,683.75,868.5,683.75,868.5,683.75,868.5,683.75,868.5,680.75,842.25,680.75,842.25,680.75,842.25,680.75,842.25"></polygon><polygon data-id="52" data-sec="1.02" data-build="2" data-floor="2" class="s3d-svg__house js-s3d-svg__house" points="681.25,842,681.25,842,681.25,842,681.25,842,683.75,869.25,683.75,869.25,683.75,869.25,683.75,869.25,718.25,867.25,718.25,867.25,718.25,867.25,718.25,867.25,717.5,841.5,717.5,841.5,717.5,841.5,717.5,841.5"></polygon><polygon data-id="618" data-sec="1.02" data-build="2" data-floor="1" class="s3d-svg__house js-s3d-svg__house" points="342.75,867,342.75,867,342.75,867,342.75,867,354,907.5,354,907.5,354,907.5,354,907.5,362.5,908.25,362.5,908.25,362.5,908.25,362.5,908.25,367,897.25,367,897.25,367,897.25,367,897.25,397.5,900.25,397.5,900.25,397.5,900.25,397.5,900.25,398.25,908.25,398.25,908.25,398.25,908.25,398.25,908.25,505,908,505,908,505,908,505,908,496.75,868,496.75,868,496.75,868,496.75,868,483.75,867.5,483.75,867.5,483.75,867.5,483.75,867.5"></polygon><polygon data-id="599" data-sec="1.02" data-build="2" data-floor="1" class="s3d-svg__house js-s3d-svg__house" points="528.75,873.75,528.75,873.75,528.75,873.75,528.75,873.75,534.75,909.75,534.75,909.75,534.75,909.75,534.75,909.75,596,909.5,596,909.5,596,909.5,596,909.5,599.5,901.5,599.5,901.5,599.5,901.5,599.5,901.5,628,900.25,628,900.25,628,900.25,628,900.25,630,909.75,630,909.75,630,909.75,630,909.75,688,910.75,688,910.75,688,910.75,688,910.75,683.5,869,683.5,869,683.5,869,683.5,869,582.75,868.5,582.75,868.5,582.75,868.5,582.75,868.5,526.75,868,526.75,868,526.75,868,526.75,868"></polygon><polygon data-id="600" data-sec="1.02" data-build="2" data-floor="1" class="s3d-svg__house js-s3d-svg__house" points="683.25,869,683.25,869,683.25,869,683.25,869,688.25,910.25,688.25,910.25,688.25,910.25,688.25,910.25,690.25,902.25,690.25,902.25,690.25,902.25,690.25,902.25,721.25,902.25,721.25,902.25,721.25,902.25,721.25,902.25,718,867.75,718,867.75,718,867.75,718,867.75"></polygon><polygon data-id="131" data-sec="1.03" data-build="3" data-floor="9" class="s3d-svg__house js-s3d-svg__house" points="690.25,562.25,690.25,562.25,694.5,609.75,694.5,609.75,741.75,611,741.75,611,738.25,562.5,738.25,562.5"></polygon><polygon data-id="134" data-sec="1.03" data-build="3" data-floor="9" class="s3d-svg__house js-s3d-svg__house" points="686.75,503.5,686.75,503.5,690.25,563,690.25,563,738.5,563.25,738.5,563.25,742,611.5,742,611.5,879.5,610.75,879.5,610.75,877.75,504.25,877.75,504.25"></polygon><polygon data-id="132" data-sec="1.03" data-build="3" data-floor="9" class="s3d-svg__house js-s3d-svg__house" points="1059.5,566.75,1059.5,566.75,1058.75,612.5,1058.75,612.5,1008.5,611,1008.5,611,1008.5,565.25,1008.5,565.25"></polygon><polygon data-id="133" data-sec="1.03" data-build="3" data-floor="9" class="s3d-svg__house js-s3d-svg__house" points="878,504,878,504,879.25,610,879.25,610,1007.75,609.75,1007.75,609.75,1008.75,565.5,1008.75,565.5,1059.75,566.75,1059.75,566.75,1060.25,505.25,1060.25,505.25"></polygon><polygon data-id="127" data-sec="1.03" data-build="3" data-floor="8" class="s3d-svg__house js-s3d-svg__house" points="694.75,610,694.75,610,697.75,652.5,697.75,652.5,746,652.5,746,652.5,741.75,611.25,741.75,611.25"></polygon><polygon data-id="130" data-sec="1.03" data-build="3" data-floor="8" class="s3d-svg__house js-s3d-svg__house" points="741,612,741,612,745.5,653.5,745.5,653.5,879.75,654.25,879.75,654.25,878.75,610,878.75,610"></polygon><polygon data-id="129" data-sec="1.03" data-build="3" data-floor="8" class="s3d-svg__house js-s3d-svg__house" points="878.75,610.75,878.75,610.75,879.75,654,879.75,654,1007,654.5,1007,654.5,1007.75,610,1007.75,610"></polygon><polygon data-id="123" data-sec="1.03" data-build="3" data-floor="7" class="s3d-svg__house js-s3d-svg__house" points="697.75,652.25,697.75,652.25,702.5,691,702.5,691,749,691.75,749,691.75,745.75,653.5,745.75,653.5"></polygon><polygon data-id="126" data-sec="1.03" data-build="3" data-floor="7" class="s3d-svg__house js-s3d-svg__house" points="745.25,653,745.25,653,749,692,749,692,880.5,694.25,880.5,694.25,879.5,654.5,879.5,654.5"></polygon><polygon data-id="125" data-sec="1.03" data-build="3" data-floor="7" class="s3d-svg__house js-s3d-svg__house" points="879.5,654,879.5,654,880.5,695,880.5,695,1006.5,696.5,1006.5,696.5,1006.75,654,1006.75,654"></polygon><polygon data-id="128" data-sec="1.03" data-build="3" data-floor="8" class="s3d-svg__house js-s3d-svg__house" points="1007.25,610,1007.25,610,1006.75,655,1006.75,655,1057,656,1057,656,1058.5,612.5,1058.5,612.5"></polygon><polygon data-id="124" data-sec="1.03" data-build="3" data-floor="7" class="s3d-svg__house js-s3d-svg__house" points="1007.25,654.5,1007.25,654.5,1006.5,697.25,1006.5,697.25,1054.75,696.5,1054.75,696.5,1056.5,655.5,1056.5,655.5"></polygon><polygon data-id="119" data-sec="1.03" data-build="3" data-floor="6" class="s3d-svg__house js-s3d-svg__house" points="702.25,690.75,702.25,690.75,705.25,732,705.25,732,752.25,731.25,752.25,731.25,749.5,691.75,749.5,691.75"></polygon><polygon data-id="122" data-sec="1.03" data-build="3" data-floor="6" class="s3d-svg__house js-s3d-svg__house" points="749.5,692,749.5,692,752.25,732,752.25,732,880.5,734,880.5,734,880,694.25,880,694.25"></polygon><polygon data-id="121" data-sec="1.03" data-build="3" data-floor="6" class="s3d-svg__house js-s3d-svg__house" points="880,695,880,695,880.25,734.5,880.25,734.5,1006,734.25,1006,734.25,1005.75,696.25,1005.75,696.25"></polygon><polygon data-id="120" data-sec="1.03" data-build="3" data-floor="6" class="s3d-svg__house js-s3d-svg__house" points="1006.25,696.25,1006.25,696.25,1006,734.25,1006,734.25,1052.75,736,1052.75,736,1054.25,696.5,1054.25,696.5"></polygon><polygon data-id="115" data-sec="1.03" data-build="3" data-floor="5" class="s3d-svg__house js-s3d-svg__house" points="705,731.75,705,731.75,709.75,767,709.75,767,754.5,767,754.5,767,752,731.25,752,731.25"></polygon><polygon data-id="114" data-sec="1.03" data-build="3" data-floor="4" class="s3d-svg__house js-s3d-svg__house" points="754.5,767,754.5,767,758.25,803.75,758.25,803.75,881.25,805.75,881.25,805.75,879.75,770,879.75,770"></polygon><polygon data-id="113" data-sec="1.03" data-build="3" data-floor="4" class="s3d-svg__house js-s3d-svg__house" points="879.5,771,879.5,771,880.75,807,880.75,807,1004,807.5,1004,807.5,1004.5,772.25,1004.5,772.25"></polygon><polygon data-id="117" data-sec="1.03" data-build="3" data-floor="5" class="s3d-svg__house js-s3d-svg__house" points="879.75,733.75,879.75,733.75,880.25,770.5,880.25,770.5,1005,772,1005,772,1006,734.25,1006,734.25"></polygon><polygon data-id="116" data-sec="1.03" data-build="3" data-floor="5" class="s3d-svg__house js-s3d-svg__house" points="1005.75,734.5,1005.75,734.5,1004.75,772.5,1004.75,772.5,1051,773.25,1051,773.25,1052.25,736,1052.25,736"></polygon><polygon data-id="111" data-sec="1.03" data-build="3" data-floor="4" class="s3d-svg__house js-s3d-svg__house" points="709.75,766,709.75,766,711.75,803.25,711.75,803.25,758.25,802.75,758.25,802.75,755,766.5,755,766.5"></polygon><polygon data-id="118" data-sec="1.03" data-build="3" data-floor="5" class="s3d-svg__house js-s3d-svg__house" points="752,731.5,752,731.5,754,767,754,767,879.75,770.5,879.75,770.5,879.5,733.75,879.5,733.75"></polygon><polygon data-id="112" data-sec="1.03" data-build="3" data-floor="4" class="s3d-svg__house js-s3d-svg__house" points="1050.75,773.75,1050.75,773.75,1051,810,1051,810,1004,809,1004,809,1004,772,1004,772"></polygon><polygon data-id="107" data-sec="1.03" data-build="3" data-floor="3" class="s3d-svg__house js-s3d-svg__house" points="712.5,803.25,717,842.5,761.25,841.75,757.75,803"></polygon><polygon data-id="110" data-sec="1.03" data-build="3" data-floor="3" class="s3d-svg__house js-s3d-svg__house" points="758.25,803,760.75,842.25,881.25,845,881,806.5"></polygon><polygon data-id="109" data-sec="1.03" data-build="3" data-floor="3" class="s3d-svg__house js-s3d-svg__house" points="880.25,806.75,881,845.5,1003.75,846.25,1004,807.25"></polygon><polygon data-id="108" data-sec="1.03" data-build="3" data-floor="3" class="s3d-svg__house js-s3d-svg__house" points="1003.5,808,1003.75,846,1046.75,845.75,1049.75,810.75"></polygon><polygon data-id="103" data-sec="1.03" data-build="3" data-floor="2" class="s3d-svg__house js-s3d-svg__house" points="716.5,841.5,718.75,867.25,762.5,866.5,761,842"></polygon><polygon data-id="106" data-sec="1.03" data-build="3" data-floor="2" class="s3d-svg__house js-s3d-svg__house" points="760.25,842.25,762,867.75,880.25,871,880.5,845"></polygon><polygon data-id="105" data-sec="1.03" data-build="3" data-floor="2" class="s3d-svg__house js-s3d-svg__house" points="880.75,845.25,879.75,871.25,1002.5,871.5,1003.5,845.25"></polygon><polygon data-id="104" data-sec="1.03" data-build="3" data-floor="2" class="s3d-svg__house js-s3d-svg__house" points="1003.25,846,1002,871.5,1046.75,871.75,1046.75,845"></polygon><polygon data-id="601" data-sec="1.03" data-build="3" data-floor="1" class="s3d-svg__house js-s3d-svg__house" points="718.25,868.25,722.25,906.25,736,906.25,738,900,773.5,900,775,910.25,775,911.5,850.75,911.75,849,870.75,772.25,870.25,761.75,869"></polygon><polygon data-id="622" data-sec="1.03" data-build="3" data-floor="1" class="s3d-svg__house js-s3d-svg__house" points="882.25,871.75,883.75,912.75,892,912.75,894,900.25,924.5,900.25,924.5,912.75,1001.75,913.75,1001.5,872"></polygon><polygon data-id="623" data-sec="1.03" data-build="3" data-floor="1" class="s3d-svg__house js-s3d-svg__house" points="1001,871.5,1002,904,1039.5,904.25,1042,909,1045.25,909,1046.5,872"></polygon><polygon data-id="642" data-sec="1.04" data-build="4" data-floor="9" class="s3d-svg__house js-s3d-svg__house" points="1060,566.75,1059,613.25,1105.5,614.5,1108,567.75"></polygon><polygon data-id="643" data-sec="1.04" data-build="4" data-floor="9" class="s3d-svg__house js-s3d-svg__house" points="1060.5,505,1059.5,566.75,1108,568.5,1105,615.5,1215.5,618.25,1226.75,510.25,1226.25,508.75,1226.25,507.75"></polygon><polygon data-id="644" data-sec="1.04" data-build="4" data-floor="9" class="s3d-svg__house js-s3d-svg__house" points="1226.25,508.5,1215,618.25,1319.75,619.25,1335.75,510.5"></polygon><polygon data-id="645" data-sec="1.04" data-build="4" data-floor="9" class="s3d-svg__house js-s3d-svg__house" points="1335.75,510.5,1319.75,618.75,1433.5,620,1451.5,510.5"></polygon><polygon data-id="646" data-sec="1.04" data-build="4" data-floor="9" class="s3d-svg__house js-s3d-svg__house" points="1451.75,510.25,1434,619.75,1489.75,621.5,1511.25,511.75"></polygon><polygon data-id="180" data-sec="1.04" data-build="4" data-floor="8" class="s3d-svg__house js-s3d-svg__house" points="1433.5,619.75,1426.75,660,1481.5,661.5,1489.5,621.5"></polygon><polygon data-id="181" data-sec="1.04" data-build="4" data-floor="8" class="s3d-svg__house js-s3d-svg__house" points="1319.75,618.5,1314.25,658.5,1426.75,660,1433.75,619.25"></polygon><polygon data-id="182" data-sec="1.04" data-build="4" data-floor="8" class="s3d-svg__house js-s3d-svg__house" points="1215.25,618.25,1211.25,657.75,1314.25,659,1319.75,618.75"></polygon><polygon data-id="183" data-sec="1.04" data-build="4" data-floor="8" class="s3d-svg__house js-s3d-svg__house" points="1104.5,615.5,1102.75,656.25,1211,658,1215.5,617.5"></polygon><polygon data-id="177" data-sec="1.04" data-build="4" data-floor="8" class="s3d-svg__house js-s3d-svg__house" points="1058,612.25,1056.25,656,1102.25,656.5,1105,614.5"></polygon><polygon data-id="170" data-sec="1.04" data-build="4" data-floor="7" class="s3d-svg__house js-s3d-svg__house" points="1056,655.75,1054.75,697,1101.25,695.75,1102.5,656.5"></polygon><polygon data-id="176" data-sec="1.04" data-build="4" data-floor="7" class="s3d-svg__house js-s3d-svg__house" points="1102.5,656.25,1101.25,696.25,1207.25,698.5,1211.25,658"></polygon><polygon data-id="175" data-sec="1.04" data-build="4" data-floor="7" class="s3d-svg__house js-s3d-svg__house" points="1211,658,1207,699.5,1308.5,698.75,1314.25,658.75"></polygon><polygon data-id="174" data-sec="1.04" data-build="4" data-floor="7" class="s3d-svg__house js-s3d-svg__house" points="1314.25,658.25,1308.75,698.5,1420.25,698.75,1427,660"></polygon><polygon data-id="173" data-sec="1.04" data-build="4" data-floor="7" class="s3d-svg__house js-s3d-svg__house" points="1426.5,660,1420,699.75,1473.5,699.5,1481.5,661.75"></polygon><polygon data-id="163" data-sec="1.04" data-build="4" data-floor="6" class="s3d-svg__house js-s3d-svg__house" points="1053.75,696.25,1052.25,735,1098.75,735.25,1100.75,696.75"></polygon><polygon data-id="169" data-sec="1.04" data-build="4" data-floor="6" class="s3d-svg__house js-s3d-svg__house" points="1101.25,695.75,1099,734.5,1203,735.75,1207.25,698.75"></polygon><polygon data-id="168" data-sec="1.04" data-build="4" data-floor="6" class="s3d-svg__house js-s3d-svg__house" points="1206.75,698.75,1202.25,736,1305,736.75,1309,698.75"></polygon><polygon data-id="167" data-sec="1.04" data-build="4" data-floor="6" class="s3d-svg__house js-s3d-svg__house" points="1308.25,698.5,1305,737,1413,737.75,1419.75,698.75"></polygon><polygon data-id="166" data-sec="1.04" data-build="4" data-floor="6" class="s3d-svg__house js-s3d-svg__house" points="1419.75,699.25,1413,738,1465.5,739.25,1473.5,699.5"></polygon><polygon data-id="156" data-sec="1.04" data-build="4" data-floor="5" class="s3d-svg__house js-s3d-svg__house" points="1052.5,734.75,1050.75,773.25,1096.25,774.5,1099,735.25"></polygon><polygon data-id="162" data-sec="1.04" data-build="4" data-floor="5" class="s3d-svg__house js-s3d-svg__house" points="1098.75,735.5,1096.25,773.75,1199.25,773,1202,735.75"></polygon><polygon data-id="161" data-sec="1.04" data-build="4" data-floor="5" class="s3d-svg__house js-s3d-svg__house" points="1202.75,736,1199.25,773.25,1300.75,774,1305,736.25"></polygon><polygon data-id="160" data-sec="1.04" data-build="4" data-floor="5" class="s3d-svg__house js-s3d-svg__house" points="1305,737.25,1301,774.25,1406,775.25,1412.75,737.75"></polygon><polygon data-id="159" data-sec="1.04" data-build="4" data-floor="5" class="s3d-svg__house js-s3d-svg__house" points="1412.75,738.25,1406.25,775,1458.5,775.5,1465.25,739"></polygon><polygon data-id="149" data-sec="1.04" data-build="4" data-floor="4" class="s3d-svg__house js-s3d-svg__house" points="1050.75,773.5,1049.75,809.25,1094.5,809.5,1096.25,774.25"></polygon><polygon data-id="155" data-sec="1.04" data-build="4" data-floor="4" class="s3d-svg__house js-s3d-svg__house" points="1096.25,773.5,1094.75,810,1196.5,810.25,1199,772.75"></polygon><polygon data-id="154" data-sec="1.04" data-build="4" data-floor="4" class="s3d-svg__house js-s3d-svg__house" points="1198.75,773.25,1196,809.75,1296.5,810.75,1301.25,774.5"></polygon><polygon data-id="153" data-sec="1.04" data-build="4" data-floor="4" class="s3d-svg__house js-s3d-svg__house" points="1301,774.25,1296.75,810.25,1399.5,811.25,1406.5,775.5"></polygon><polygon data-id="152" data-sec="1.04" data-build="4" data-floor="4" class="s3d-svg__house js-s3d-svg__house" points="1406,775.25,1399.75,810.5,1450.75,811.75,1458.5,776"></polygon><polygon data-id="142" data-sec="1.04" data-build="4" data-floor="3" class="s3d-svg__house js-s3d-svg__house" points="1049.5,809.5,1046.75,844.5,1092.5,843.5,1094.5,810.25"></polygon><polygon data-id="148" data-sec="1.04" data-build="4" data-floor="3" class="s3d-svg__house js-s3d-svg__house" points="1094.75,809.75,1093,844,1192.5,844.75,1195.5,810.25"></polygon><polygon data-id="147" data-sec="1.04" data-build="4" data-floor="3" class="s3d-svg__house js-s3d-svg__house" points="1195.75,810.5,1192.5,844.75,1291.25,845.25,1296.5,809.75"></polygon><polygon data-id="146" data-sec="1.04" data-build="4" data-floor="3" class="s3d-svg__house js-s3d-svg__house" points="1296.75,810.25,1291.75,846.25,1393.5,844.5,1399.5,810.5"></polygon><polygon data-id="145" data-sec="1.04" data-build="4" data-floor="3" class="s3d-svg__house js-s3d-svg__house" points="1399.25,810.75,1393.5,844.75,1444,846.25,1450.5,812"></polygon><polygon data-id="135" data-sec="1.04" data-build="4" data-floor="2" class="s3d-svg__house js-s3d-svg__house" points="1046.25,845.25,1046.75,871.75,1090.25,873,1092.5,844"></polygon><polygon data-id="141" data-sec="1.04" data-build="4" data-floor="2" class="s3d-svg__house js-s3d-svg__house" points="1092.5,844.25,1090.25,872.75,1189.5,873.5,1192.75,844.25"></polygon><polygon data-id="140" data-sec="1.04" data-build="4" data-floor="2" class="s3d-svg__house js-s3d-svg__house" points="1192.5,845.25,1189,873.5,1288.25,874.5,1291.5,846.25"></polygon><polygon data-id="139" data-sec="1.04" data-build="4" data-floor="2" class="s3d-svg__house js-s3d-svg__house" points="1292,845.75,1287.75,874.5,1388.75,875.25,1393.75,844.25"></polygon><polygon data-id="138" data-sec="1.04" data-build="4" data-floor="2" class="s3d-svg__house js-s3d-svg__house" points="1394.25,844.25,1389,875.25,1437.75,875.75,1444,846.75"></polygon><polygon data-id="624" data-sec="1.04" data-build="4" data-floor="1" class="s3d-svg__house js-s3d-svg__house" points="1047,872.25,1045.25,909,1055.5,908.75,1055.5,904.75,1088,905.5,1090.25,873.5"></polygon><polygon data-id="605" data-sec="1.04" data-build="4" data-floor="1" class="s3d-svg__house js-s3d-svg__house" points="1090.25,874,1089.75,915.25,1147.75,915.25,1148.5,906.25,1180.75,905.5,1182.25,916.5,1244,916.75,1249.5,874.75,1110.25,873.25"></polygon><polygon data-id="606" data-sec="1.04" data-build="4" data-floor="1" class="s3d-svg__house js-s3d-svg__house" points="1280,875.25,1274,915.25,1382,916.25,1383.5,908,1413.25,907.5,1418,913.75,1428.5,914.75,1437.25,876.25"></polygon><polygon data-id="46" data-sec="1.01" data-build="1" data-floor="9" class="s3d-svg__house js-s3d-svg__house" points="604,318.75,614.75,393.75,637.25,365.25,628,288.25"></polygon><polygon data-id="42" data-sec="1.01" data-build="1" data-floor="8" class="s3d-svg__house js-s3d-svg__house" points="614,394.25,637,366.25,640,393.5"></polygon><polygon data-id="638" data-sec="1.05" data-build="5" data-floor="9" class="s3d-svg__house js-s3d-svg__house" points="1233,326.25,1229.75,376,1258.25,377.75,1255,371.5,1249,371,1237.5,347.25,1242.75,345.5"></polygon><polygon data-id="637" data-sec="1.05" data-build="5" data-floor="9" class="s3d-svg__house js-s3d-svg__house" points="1202.25,275.25,1195,362.75,1201.5,378,1210.25,377,1213.5,376.5,1221.5,303.25,1216.75,293.75,1211.25,293.5"></polygon><polygon data-id="221" data-sec="1.05" data-build="5" data-floor="8" class="s3d-svg__house js-s3d-svg__house" points="1194.25,362.5,1192.5,378.75,1201,378.5"></polygon><polygon data-id="282" data-sec="1.06" data-build="6" data-floor="9" class="s3d-svg__house js-s3d-svg__house" points="1202.828125,229,1198.578125,288.25,1199.828125,289.75,1201.828125,267,1202.328125,264.25,1223.328125,264.75"></polygon><polygon data-id="281" data-sec="1.06" data-build="6" data-floor="9" class="s3d-svg__house js-s3d-svg__house" points="1190.125,203.25,1184.625,270,1194.125,291.5,1200.375,222.25"></polygon><polygon data-id="280" data-sec="1.06" data-build="6" data-floor="9" class="s3d-svg__house js-s3d-svg__house" points="1181.875,189,1189.375,203.5,1184.375,270.75,1176.375,259"></polygon><polygon data-id="274" data-sec="1.06" data-build="6" data-floor="8" class="s3d-svg__house js-s3d-svg__house" points="1193.5625,292.5,1191.8125,318.5,1181.8125,299.5,1183.8125,271"></polygon><polygon data-id="275" data-sec="1.06" data-build="6" data-floor="8" class="s3d-svg__house js-s3d-svg__house" points="1175.5625,260.25,1173.8125,288,1180.8125,299.75,1183.5625,269.5"></polygon><polygon data-id="266" data-sec="1.06" data-build="6" data-floor="7" class="s3d-svg__house js-s3d-svg__house" points="1180.8125,300,1180.5625,323.75,1190.5625,348.5,1191.5625,319.5"></polygon><polygon data-id="267" data-sec="1.06" data-build="6" data-floor="7" class="s3d-svg__house js-s3d-svg__house" points="1174.0625,289.25,1173.0625,312.25,1178.5625,324.75,1180.8125,298.75"></polygon><polygon data-id="258" data-sec="1.06" data-build="6" data-floor="6" class="s3d-svg__house js-s3d-svg__house" points="1180.3125,326,1178.3125,349.5,1186.5625,373.5,1190.3125,348.75"></polygon><polygon data-id="259" data-sec="1.06" data-build="6" data-floor="6" class="s3d-svg__house js-s3d-svg__house" points="1172.8125,313,1171.5625,336,1176.5625,349.75,1179.8125,325.25"></polygon><polygon data-id="250" data-sec="1.06" data-build="6" data-floor="5" class="s3d-svg__house js-s3d-svg__house" points="1177.0625,351.5,1174.5625,375.75,1184.5625,377,1186.3125,373.75"></polygon><polygon data-id="251" data-sec="1.06" data-build="6" data-floor="5" class="s3d-svg__house js-s3d-svg__house" points="1171.0625,336.25,1168.0625,373.75,1173.5625,376.25,1176.5625,351.25"></polygon><polygon data-id="347" data-sec="1.07" data-build="7" data-floor="9" class="s3d-svg__house js-s3d-svg__house" points="1188.3125,162.25,1186.8125,187.5,1202.8125,186.25"></polygon><polygon data-id="345" data-sec="1.07" data-build="7" data-floor="9" class="s3d-svg__house js-s3d-svg__house" points="1176.3125,143.25,1172.5625,205.5,1178.8125,211.75,1183.8125,156"></polygon><polygon data-id="344" data-sec="1.07" data-build="7" data-floor="9" class="s3d-svg__house js-s3d-svg__house" points="1170.8125,133.75,1167.0625,195.75,1172.3125,206,1175.3125,142.75"></polygon><polygon data-id="338" data-sec="1.07" data-build="7" data-floor="8" class="s3d-svg__house js-s3d-svg__house" points="1171.8125,206,1169.5625,228.25,1177.0625,237.5,1178.3125,213,1178.8125,212.25"></polygon><polygon data-id="339" data-sec="1.07" data-build="7" data-floor="8" class="s3d-svg__house js-s3d-svg__house" points="1166.3125,196.5,1164.0625,221,1169.0625,227.75,1171.5625,205.25"></polygon><polygon data-id="331" data-sec="1.07" data-build="7" data-floor="7" class="s3d-svg__house js-s3d-svg__house" points="1163.5625,222,1162.8125,242.75,1168.0625,250,1168.8125,227.75"></polygon><polygon data-id="407" data-sec="1.08" data-build="8" data-floor="9" class="s3d-svg__house js-s3d-svg__house" points="1115.4765625,126,1114.2265625,183.75,1166.9765625,185,1170.2265625,126"></polygon><polygon data-id="401" data-sec="1.08" data-build="8" data-floor="9" class="s3d-svg__house js-s3d-svg__house" points="1089.9765625,127,1087.2265625,185,1114.2265625,185.25,1114.9765625,125.75"></polygon><polygon data-id="400" data-sec="1.08" data-build="8" data-floor="8" class="s3d-svg__house js-s3d-svg__house" points="1113.9765625,184.75,1113.9765625,206.25,1165.4765625,207.5,1166.9765625,186,1166.7265625,185.25"></polygon><polygon data-id="394" data-sec="1.08" data-build="8" data-floor="8" class="s3d-svg__house js-s3d-svg__house" points="1086.7265625,185.5,1085.9765625,207,1113.7265625,207,1114.2265625,184.25"></polygon><polygon data-id="393" data-sec="1.08" data-build="8" data-floor="7" class="s3d-svg__house js-s3d-svg__house" points="1113.9765625,206.5,1113.4765625,228.25,1162.9765625,229.5,1165.7265625,207.5"></polygon><polygon data-id="387" data-sec="1.08" data-build="8" data-floor="7" class="s3d-svg__house js-s3d-svg__house" points="1085.7265625,207.25,1084.7265625,228.25,1113.2265625,228.75,1113.7265625,206.5"></polygon><polygon data-id="386" data-sec="1.08" data-build="8" data-floor="6" class="s3d-svg__house js-s3d-svg__house" points="1113.7265625,228.25,1113.4765625,249.75,1162.7265625,250.25,1162.9765625,230,1162.9765625,230"></polygon><polygon data-id="380" data-sec="1.08" data-build="8" data-floor="6" class="s3d-svg__house js-s3d-svg__house" points="1084.7265625,228.5,1082.9765625,250.75,1113.4765625,250.25,1113.7265625,228.75"></polygon><polygon data-id="379" data-sec="1.08" data-build="8" data-floor="5" class="s3d-svg__house js-s3d-svg__house" points="1112.9765625,249.75,1111.7265625,271,1161.2265625,272,1162.4765625,250.5"></polygon><polygon data-id="373" data-sec="1.08" data-build="8" data-floor="5" class="s3d-svg__house js-s3d-svg__house" points="1082.9765625,251.5,1082.7265625,272,1111.2265625,272,1112.7265625,250.25"></polygon><polygon data-id="372" data-sec="1.08" data-build="8" data-floor="4" class="s3d-svg__house js-s3d-svg__house" points="1111.4765625,271.75,1111.2265625,292.25,1160.2265625,293.25,1160.9765625,272.5"></polygon><polygon data-id="366" data-sec="1.08" data-build="8" data-floor="4" class="s3d-svg__house js-s3d-svg__house" points="1082.2265625,272.25,1081.4765625,293,1111.2265625,292.5,1111.4765625,271.75"></polygon><polygon data-id="365" data-sec="1.08" data-build="8" data-floor="3" class="s3d-svg__house js-s3d-svg__house" points="1110.9765625,292.5,1109.7265625,312.75,1159.4765625,315,1160.2265625,293.5"></polygon><polygon data-id="359" data-sec="1.08" data-build="8" data-floor="3" class="s3d-svg__house js-s3d-svg__house" points="1081.2265625,293.5,1081.9765625,313.75,1109.4765625,313.5,1111.2265625,292"></polygon><polygon data-id="358" data-sec="1.08" data-build="8" data-floor="2" class="s3d-svg__house js-s3d-svg__house" points="1109.9765625,313.25,1109.2265625,333.5,1156.7265625,334.75,1159.2265625,315"></polygon><polygon data-id="352" data-sec="1.08" data-build="8" data-floor="2" class="s3d-svg__house js-s3d-svg__house" points="1081.7265625,313.75,1081.4765625,333.25,1109.2265625,334.25,1109.7265625,313"></polygon><polygon data-id="460" data-sec="1.09" data-build="9" data-floor="9" class="s3d-svg__house js-s3d-svg__house" points="1060.7265625,125,1060.7265625,183.5,1086.7265625,185.75,1089.4765625,125.25"></polygon><polygon data-id="461" data-sec="1.09" data-build="9" data-floor="9" class="s3d-svg__house js-s3d-svg__house" points="981.7265625,126,982.2265625,183.5,1061.2265625,183.5,1060.4765625,125.25"></polygon><polygon data-id="456" data-sec="1.09" data-build="9" data-floor="9" class="s3d-svg__house js-s3d-svg__house" points="849.9765625,125,851.9765625,181.5,876.9765625,181.75,877.4765625,159.25,904.9765625,159.25,904.9765625,125.25"></polygon><polygon data-id="462" data-sec="1.09" data-build="9" data-floor="9" class="s3d-svg__house js-s3d-svg__house" points="877.7265625,159.5,876.7265625,182.5,956.7265625,182.5,956.4765625,125.25,904.4765625,125.25,904.7265625,159.25"></polygon><polygon data-id="452" data-sec="1.09" data-build="9" data-floor="8" class="s3d-svg__house js-s3d-svg__house" points="1060.7265625,183.5,1061.2265625,207.5,1084.7265625,208.25,1086.2265625,186.25"></polygon><polygon data-id="453" data-sec="1.09" data-build="9" data-floor="8" class="s3d-svg__house js-s3d-svg__house" points="981.2265625,184,980.4765625,206.75,1061.2265625,208,1060.7265625,183.25"></polygon><polygon data-id="454" data-sec="1.09" data-build="9" data-floor="8" class="s3d-svg__house js-s3d-svg__house" points="905.9765625,183.25,906.2265625,204.75,955.4765625,206.75,956.7265625,183.25"></polygon><polygon data-id="455" data-sec="1.09" data-build="9" data-floor="8" class="s3d-svg__house js-s3d-svg__house" points="851.2265625,182,852.2265625,205,905.9765625,205.25,905.9765625,183.25"></polygon><polygon data-id="446" data-sec="1.09" data-build="9" data-floor="7" class="s3d-svg__house js-s3d-svg__house" points="980.4765625,207.5,980.7265625,228,1059.9765625,228,1060.9765625,207.5"></polygon><polygon data-id="445" data-sec="1.09" data-build="9" data-floor="7" class="s3d-svg__house js-s3d-svg__house" points="1060.4765625,207.75,1059.9765625,228.25,1083.9765625,228.25,1084.9765625,208.5"></polygon><polygon data-id="447" data-sec="1.09" data-build="9" data-floor="7" class="s3d-svg__house js-s3d-svg__house" points="905.4765625,205.5,905.7265625,226.25,955.4765625,227.75,955.2265625,207.25"></polygon><polygon data-id="448" data-sec="1.09" data-build="9" data-floor="7" class="s3d-svg__house js-s3d-svg__house" points="852.2265625,205.5,853.7265625,225.75,905.7265625,226,905.4765625,204.75"></polygon><polygon data-id="439" data-sec="1.09" data-build="9" data-floor="6" class="s3d-svg__house js-s3d-svg__house" points="980.7265625,228,980.9765625,247.75,1059.4765625,249.5,1060.2265625,228"></polygon><polygon data-id="440" data-sec="1.09" data-build="9" data-floor="6" class="s3d-svg__house js-s3d-svg__house" points="905.4765625,226.5,905.4765625,248,955.4765625,249.5,955.2265625,228.25"></polygon><polygon data-id="438" data-sec="1.09" data-build="9" data-floor="6" class="s3d-svg__house js-s3d-svg__house" points="1060.2265625,228.25,1059.2265625,249.75,1082.7265625,251,1084.2265625,228.25"></polygon><polygon data-id="441" data-sec="1.09" data-build="9" data-floor="6" class="s3d-svg__house js-s3d-svg__house" points="853.4765625,226,854.7265625,248.25,905.7265625,249,905.2265625,226"></polygon><polygon data-id="431" data-sec="1.09" data-build="9" data-floor="5" class="s3d-svg__house js-s3d-svg__house" points="1059.4765625,249.75,1059.4765625,269,1059.2265625,270.75,1081.9765625,272.5,1082.7265625,251.5"></polygon><polygon data-id="432" data-sec="1.09" data-build="9" data-floor="5" class="s3d-svg__house js-s3d-svg__house" points="980.7265625,247.5,981.2265625,271.5,1058.9765625,272,1059.4765625,249.25"></polygon><polygon data-id="433" data-sec="1.09" data-build="9" data-floor="5" class="s3d-svg__house js-s3d-svg__house" points="905.2265625,249,904.7265625,268,955.9765625,269,954.9765625,249"></polygon><polygon data-id="434" data-sec="1.09" data-build="9" data-floor="5" class="s3d-svg__house js-s3d-svg__house" points="853.9765625,248.5,854.9765625,268.75,904.4765625,268.25,904.9765625,249.25,904.7265625,249"></polygon><polygon data-id="424" data-sec="1.09" data-build="9" data-floor="4" class="s3d-svg__house js-s3d-svg__house" points="1059.2265625,269.75,1059.4765625,291.75,1081.7265625,292.75,1081.9765625,271.75"></polygon><polygon data-id="425" data-sec="1.09" data-build="9" data-floor="4" class="s3d-svg__house js-s3d-svg__house" points="981.4765625,271.75,981.7265625,291.5,1059.7265625,292.25,1058.7265625,271.75"></polygon><polygon data-id="426" data-sec="1.09" data-build="9" data-floor="4" class="s3d-svg__house js-s3d-svg__house" points="904.2265625,268.5,904.7265625,288.5,955.7265625,290,956.2265625,269.75"></polygon><polygon data-id="427" data-sec="1.09" data-build="9" data-floor="4" class="s3d-svg__house js-s3d-svg__house" points="854.7265625,269.5,855.4765625,289,905.2265625,289,904.2265625,268.5"></polygon><polygon data-id="417" data-sec="1.09" data-build="9" data-floor="3" class="s3d-svg__house js-s3d-svg__house" points="1058.7265625,292.5,1059.7265625,313,1081.4765625,314,1081.4765625,293"></polygon><polygon data-id="418" data-sec="1.09" data-build="9" data-floor="3" class="s3d-svg__house js-s3d-svg__house" points="981.7265625,291,981.7265625,314.25,1059.4765625,313.75,1059.4765625,292.75"></polygon><polygon data-id="419" data-sec="1.09" data-build="9" data-floor="3" class="s3d-svg__house js-s3d-svg__house" points="904.7265625,289,904.7265625,310.75,956.4765625,311,955.7265625,290"></polygon><polygon data-id="420" data-sec="1.09" data-build="9" data-floor="3" class="s3d-svg__house js-s3d-svg__house" points="854.9765625,289.5,856.7265625,311.75,904.7265625,311.5,904.7265625,288.75"></polygon><polygon data-id="413" data-sec="1.09" data-build="9" data-floor="2" class="s3d-svg__house js-s3d-svg__house" points="885.2265625,311.75,884.7265625,330.5,955.4765625,330.75,955.9765625,311.25"></polygon><polygon data-id="411" data-sec="1.09" data-build="9" data-floor="2" class="s3d-svg__house js-s3d-svg__house" points="1059.4765625,313.75,1058.9765625,330.75,1080.9765625,331.5,1081.7265625,313.75"></polygon><polygon data-id="412" data-sec="1.09" data-build="9" data-floor="2" class="s3d-svg__house js-s3d-svg__house" points="981.4765625,314.5,981.9765625,331,1058.4765625,331.5,1058.7265625,314"></polygon><polygon data-id="508" data-sec="1.10" data-build="10" data-floor="8" class="s3d-svg__house js-s3d-svg__house" points="850.7265625,182.25,851.9765625,204.75,825.2265625,205,824.2265625,184,823.9765625,183.25,823.7265625,182.75"></polygon><polygon data-id="509" data-sec="1.10" data-build="10" data-floor="8" class="s3d-svg__house js-s3d-svg__house" points="823.4765625,183,824.4765625,205.5,787.4765625,206,785.9765625,184.75"></polygon><polygon data-id="501" data-sec="1.10" data-build="10" data-floor="7" class="s3d-svg__house js-s3d-svg__house" points="824.7265625,205.25,825.2265625,225.75,852.9765625,226.25,851.7265625,205.5"></polygon><polygon data-id="502" data-sec="1.10" data-build="10" data-floor="7" class="s3d-svg__house js-s3d-svg__house" points="787.4765625,206.25,788.7265625,226.75,824.7265625,226,824.2265625,206"></polygon><polygon data-id="494" data-sec="1.10" data-build="10" data-floor="6" class="s3d-svg__house js-s3d-svg__house" points="824.9765625,226,825.9765625,248.25,853.9765625,249.25,853.4765625,226"></polygon><polygon data-id="495" data-sec="1.10" data-build="10" data-floor="6" class="s3d-svg__house js-s3d-svg__house" points="825.2265625,226.5,826.2265625,248.25,789.9765625,249,788.7265625,227"></polygon><polygon data-id="487" data-sec="1.10" data-build="10" data-floor="5" class="s3d-svg__house js-s3d-svg__house" points="825.7265625,248.5,826.7265625,269.75,854.7265625,270,854.2265625,249.25"></polygon><polygon data-id="488" data-sec="1.10" data-build="10" data-floor="5" class="s3d-svg__house js-s3d-svg__house" points="789.7265625,250,790.9765625,270.75,827.2265625,270.25,825.7265625,248"></polygon><polygon data-id="480" data-sec="1.10" data-build="10" data-floor="4" class="s3d-svg__house js-s3d-svg__house" points="826.9765625,270.5,827.7265625,290.5,854.4765625,290.25,854.9765625,270"></polygon><polygon data-id="481" data-sec="1.10" data-build="10" data-floor="4" class="s3d-svg__house js-s3d-svg__house" points="790.4765625,271.25,791.9765625,292.25,828.2265625,291.75,826.7265625,270.5"></polygon><polygon data-id="473" data-sec="1.10" data-build="10" data-floor="3" class="s3d-svg__house js-s3d-svg__house" points="827.4765625,291.25,828.7265625,311.5,856.4765625,312.25,854.9765625,290.25"></polygon><polygon data-id="474" data-sec="1.10" data-build="10" data-floor="3" class="s3d-svg__house js-s3d-svg__house" points="791.4765625,292.75,793.2265625,313.5,827.9765625,312,827.2265625,291.5"></polygon><polygon data-id="466" data-sec="1.10" data-build="10" data-floor="2" class="s3d-svg__house js-s3d-svg__house" points="827.9765625,312.25,828.9765625,331.75,856.4765625,332,856.2265625,312"></polygon><polygon data-id="467" data-sec="1.10" data-build="10" data-floor="2" class="s3d-svg__house js-s3d-svg__house" points="792.9765625,313.75,794.2265625,331,828.2265625,332,827.7265625,312"></polygon></svg>