<svg preserveAspectRatio="xMidYMid slice" id="floor--svg"  viewBox="0 0 1920 1080" version="1.0" xmlns="http://www.w3.org/2000/svg"><polygon data-id="46" data-sec="1.01" data-build="1" data-floor="9" class="s3d-svg__house js-s3d-svg__house" points="1034.25,249.5,1034,358.25,1116.75,339.5,1263.75,349,1263.5,243,1117,214.75"></polygon><polygon data-id="47" data-sec="1.01" data-build="1" data-floor="9" class="s3d-svg__house js-s3d-svg__house" points="999.25,264.75,998.5,362.5,947.25,379.75,947.75,285.25"></polygon><polygon data-id="43" data-sec="1.01" data-build="1" data-floor="8" class="s3d-svg__house js-s3d-svg__house" points="999,362.25,999,406.25,947.75,414,947.75,379.25"></polygon><polygon data-id="42" data-sec="1.01" data-build="1" data-floor="8" class="s3d-svg__house js-s3d-svg__house" points="1034.5,359.25,1035.25,400,1117.25,384.75,1263.25,392,1263.75,348,1116.25,339.5"></polygon><polygon data-id="38" data-sec="1.01" data-build="1" data-floor="7" class="s3d-svg__house js-s3d-svg__house" points="1034.75,400.25,1034.5,440.75,1116.5,432.75,1262.75,436.25,1262.75,392.25,1117.25,384.5"></polygon><polygon data-id="39" data-sec="1.01" data-build="1" data-floor="7" class="s3d-svg__house js-s3d-svg__house" points="999,406.75,999.5,445.5,947.25,450,947.75,414.5"></polygon><polygon data-id="35" data-sec="1.01" data-build="1" data-floor="6" class="s3d-svg__house js-s3d-svg__house" points="999.25,446.25,999.25,483,947.5,483.25,947.5,450.5"></polygon><polygon data-id="34" data-sec="1.01" data-build="1" data-floor="6" class="s3d-svg__house js-s3d-svg__house" points="1033.75,441.25,1035,479.75,1117.25,477,1264,477.25,1264,436.5,1116.75,433"></polygon><polygon data-id="31" data-sec="1.01" data-build="1" data-floor="5" class="s3d-svg__house js-s3d-svg__house" points="999,483.75,998.75,522,948.5,521.5,947.25,484"></polygon><polygon data-id="30" data-sec="1.01" data-build="1" data-floor="5" class="s3d-svg__house js-s3d-svg__house" points="1034,480.25,1034,522,1115.75,520.25,1263.5,521.25,1263.5,477,1116.5,477.25"></polygon><polygon data-id="27" data-sec="1.01" data-build="1" data-floor="4" class="s3d-svg__house js-s3d-svg__house" points="999,522.25,999,560.5,948.5,558,947.5,522"></polygon><polygon data-id="26" data-sec="1.01" data-build="1" data-floor="4" class="s3d-svg__house js-s3d-svg__house" points="1033.5,522.75,1034.75,562.5,1117,566.75,1263.25,566.25,1263.25,521.75,1116,520.5"></polygon><polygon data-id="23" data-sec="1.01" data-build="1" data-floor="3" class="s3d-svg__house js-s3d-svg__house" points="999,561.25,999.75,598,948,591.75,947.25,558.5"></polygon><polygon data-id="22" data-sec="1.01" data-build="1" data-floor="3" class="s3d-svg__house js-s3d-svg__house" points="1034.25,563,1034.5,599,1116.5,608,1263.25,605.5,1262.75,565.75,1117.25,566.75"></polygon><polygon data-id="19" data-sec="1.01" data-build="1" data-floor="2" class="s3d-svg__house js-s3d-svg__house" points="1034.75,599.25,1034.25,636,1117,650,1263.5,639.25,1263,606.25,1116.5,608.5"></polygon><polygon data-id="18" data-sec="1.01" data-build="1" data-floor="2" class="s3d-svg__house js-s3d-svg__house" points="999.75,598.25,999.5,631.5,948.5,623.5,947.75,593.25"></polygon><polygon data-id="613" data-sec="1.01" data-build="1" data-floor="1" class="s3d-svg__house js-s3d-svg__house" points="1045,638.75,1045,692.25,1103.75,705.75,1104,648.75"></polygon><polygon data-id="615" data-sec="1.01" data-build="1" data-floor="1" class="s3d-svg__house js-s3d-svg__house" points="999.5,632,999.5,679,948.5,667.25,948.25,624"></polygon><polygon data-id="102" data-sec="1.02" data-build="2" data-floor="9" class="s3d-svg__house js-s3d-svg__house" points="911.5,296.75,913.25,387,937.25,382,947.25,381.5,947.75,286,937.5,283,910.25,295.5"></polygon><polygon data-id="99" data-sec="1.02" data-build="2" data-floor="9" class="s3d-svg__house js-s3d-svg__house" points="880.75,290.75,880.75,380.75,780.75,376.25,779.5,280.25,786.75,277.75"></polygon><polygon data-id="93" data-sec="1.02" data-build="2" data-floor="8" class="s3d-svg__house js-s3d-svg__house" points="913.25,387,912.5,420,939,416.5,947.25,417.25,946.75,382.75,937.5,382"></polygon><polygon data-id="94" data-sec="1.02" data-build="2" data-floor="8" class="s3d-svg__house js-s3d-svg__house" points="781,376.25,780.5,413.5,880.75,417.25,880.75,381"></polygon><polygon data-id="86" data-sec="1.02" data-build="2" data-floor="7" class="s3d-svg__house js-s3d-svg__house" points="912.5,420,912.5,453,939.75,451,947.5,451.5,946.75,417.5,938.5,416"></polygon><polygon data-id="87" data-sec="1.02" data-build="2" data-floor="7" class="s3d-svg__house js-s3d-svg__house" points="880.75,417.25,881,451.5,780.5,450.25,780.25,414.75"></polygon><polygon data-id="80" data-sec="1.02" data-build="2" data-floor="6" class="s3d-svg__house js-s3d-svg__house" points="780,450.5,780.5,485.25,880.75,485.25,880.5,451.25"></polygon><polygon data-id="79" data-sec="1.02" data-build="2" data-floor="6" class="s3d-svg__house js-s3d-svg__house" points="912.25,453.5,913,487,940,485.5,947,486,946.5,450.5,939.75,451.25"></polygon><polygon data-id="73" data-sec="1.02" data-build="2" data-floor="5" class="s3d-svg__house js-s3d-svg__house" points="780.5,485.75,780.75,522,880.5,521,881.25,486"></polygon><polygon data-id="72" data-sec="1.02" data-build="2" data-floor="5" class="s3d-svg__house js-s3d-svg__house" points="913,487,913.75,520.25,941.5,521.75,947.25,521.75,946.75,486.5,939.75,485.25"></polygon><polygon data-id="66" data-sec="1.02" data-build="2" data-floor="4" class="s3d-svg__house js-s3d-svg__house" points="780.25,522.25,780.5,559,880.75,556.75,880.5,521.5"></polygon><polygon data-id="65" data-sec="1.02" data-build="2" data-floor="4" class="s3d-svg__house js-s3d-svg__house" points="913.5,520.75,913.5,554.75,941.25,557,947.5,557.75,947.25,521.5,941.75,522"></polygon><polygon data-id="59" data-sec="1.02" data-build="2" data-floor="3" class="s3d-svg__house js-s3d-svg__house" points="779.75,559.25,780,595,881.25,592.75,881.25,557.25"></polygon><polygon data-id="58" data-sec="1.02" data-build="2" data-floor="3" class="s3d-svg__house js-s3d-svg__house" points="913.5,555.5,914.25,587.5,940.75,590.5,947.25,591.25,948.25,558,940.5,557"></polygon><polygon data-id="52" data-sec="1.02" data-build="2" data-floor="2" class="s3d-svg__house js-s3d-svg__house" points="780,595.75,780.25,625,881.25,620,881.75,592.25"></polygon><polygon data-id="51" data-sec="1.02" data-build="2" data-floor="2" class="s3d-svg__house js-s3d-svg__house" points="913.5,588.5,914.25,619.25,939.25,623.25,948,622,947,592.25,940.75,590.5"></polygon><polygon data-id="131" data-sec="1.03" data-build="3" data-floor="9" class="s3d-svg__house js-s3d-svg__house" points="779.25,280.5,780.25,377,666,369.5,665,266"></polygon><polygon data-id="132" data-sec="1.03" data-build="3" data-floor="9" class="s3d-svg__house js-s3d-svg__house" points="609.5,259.25,608,363.75,483.75,355.5,484,243.75"></polygon><polygon data-id="128" data-sec="1.03" data-build="3" data-floor="8" class="s3d-svg__house js-s3d-svg__house" points="483.75,355.25,483.75,396.75,608,403.5,608,363.75"></polygon><polygon data-id="127" data-sec="1.03" data-build="3" data-floor="8" class="s3d-svg__house js-s3d-svg__house" points="666,370.25,666,407,779.25,414,779.5,376.75"></polygon><polygon data-id="124" data-sec="1.03" data-build="3" data-floor="7" class="s3d-svg__house js-s3d-svg__house" points="483.5,397.25,483.25,439,608.75,443,608.5,403.5"></polygon><polygon data-id="123" data-sec="1.03" data-build="3" data-floor="7" class="s3d-svg__house js-s3d-svg__house" points="665.75,407.5,665.5,445.75,779.75,449.75,780,414.25"></polygon><polygon data-id="120" data-sec="1.03" data-build="3" data-floor="6" class="s3d-svg__house js-s3d-svg__house" points="608.5,443.5,608.25,482.5,484.25,480,483.75,438.75"></polygon><polygon data-id="119" data-sec="1.03" data-build="3" data-floor="6" class="s3d-svg__house js-s3d-svg__house" points="665.75,446,665.75,483,779,485.75,779.75,450.5"></polygon><polygon data-id="116" data-sec="1.03" data-build="3" data-floor="5" class="s3d-svg__house js-s3d-svg__house" points="607.75,483,607.75,521.5,483.25,521.75,483.5,480.75"></polygon><polygon data-id="115" data-sec="1.03" data-build="3" data-floor="5" class="s3d-svg__house js-s3d-svg__house" points="665.75,483.75,665.75,521.25,779.75,522,780.5,486"></polygon><polygon data-id="112" data-sec="1.03" data-build="3" data-floor="4" class="s3d-svg__house js-s3d-svg__house" points="607.5,521.75,607.5,560.25,483.75,563.25,483.25,522.25"></polygon><polygon data-id="111" data-sec="1.03" data-build="3" data-floor="4" class="s3d-svg__house js-s3d-svg__house" points="665.5,521.75,666,560.25,779.5,559,780.5,522.25"></polygon><polygon data-id="108" data-sec="1.03" data-build="3" data-floor="3" class="s3d-svg__house js-s3d-svg__house" points="607.75,560.5,608.25,600.25,484.75,605.25,484.5,563.25"></polygon><polygon data-id="107" data-sec="1.03" data-build="3" data-floor="3" class="s3d-svg__house js-s3d-svg__house" points="666.25,560.25,665.75,597.5,779.5,594,779.5,559.5"></polygon><polygon data-id="104" data-sec="1.03" data-build="3" data-floor="2" class="s3d-svg__house js-s3d-svg__house" points="484.5,605.75,484,639,608.25,634,608.75,600.5"></polygon><polygon data-id="103" data-sec="1.03" data-build="3" data-floor="2" class="s3d-svg__house js-s3d-svg__house" points="665.5,598,664.25,629.5,780.25,625.5,780,594.5"></polygon><polygon data-id="603" data-sec="1.03" data-build="3" data-floor="1" class="s3d-svg__house js-s3d-svg__house" points="483.75,639.75,483.5,686,606.5,680.25,608,634"></polygon><polygon data-id="601" data-sec="1.03" data-build="3" data-floor="1" class="s3d-svg__house js-s3d-svg__house" points="664.75,629,664.75,676.5,780,671.5,780.25,626"></polygon><polygon data-id="642" data-sec="1.04" data-build="4" data-floor="9" class="s3d-svg__house js-s3d-svg__house" points="340.5,220.75,340.25,343.5,482.75,351.75,483.25,238.25"></polygon><polygon data-id="648" data-sec="1.04" data-build="4" data-floor="9" class="s3d-svg__house js-s3d-svg__house" points="212.75,185.75,276.25,193.75,283.5,216.75,283,334.75,275,327.5,213,325"></polygon><polygon data-id="178" data-sec="1.04" data-build="4" data-floor="8" class="s3d-svg__house js-s3d-svg__house" points="213,325.5,212,372.75,274.5,374.25,282.25,380.75,283.75,335.75,275.25,327.25"></polygon><polygon data-id="177" data-sec="1.04" data-build="4" data-floor="8" class="s3d-svg__house js-s3d-svg__house" points="339.75,343.25,340,386.5,483.5,394.25,483,352.5"></polygon><polygon data-id="171" data-sec="1.04" data-build="4" data-floor="7" class="s3d-svg__house js-s3d-svg__house" points="211.5,373.25,212.5,418.25,276.5,419,282.25,420.25,283.25,381,275.25,373.75"></polygon><polygon data-id="170" data-sec="1.04" data-build="4" data-floor="7" class="s3d-svg__house js-s3d-svg__house" points="339.75,386.25,339.75,422.25,340,430,483.5,434.25,483.75,394"></polygon><polygon data-id="164" data-sec="1.04" data-build="4" data-floor="6" class="s3d-svg__house js-s3d-svg__house" points="212.5,417.75,212,464.25,275,467.5,283,466.75,283,420.25,276.25,418.5"></polygon><polygon data-id="157" data-sec="1.04" data-build="4" data-floor="5" class="s3d-svg__house js-s3d-svg__house" points="211.75,465.75,212.25,516,275.25,517.25,282.75,515,283.75,468,275.75,468"></polygon><polygon data-id="163" data-sec="1.04" data-build="4" data-floor="6" class="s3d-svg__house js-s3d-svg__house" points="339.5,430,340.25,475.25,483.5,477.5,483.25,434"></polygon><polygon data-id="156" data-sec="1.04" data-build="4" data-floor="5" class="s3d-svg__house js-s3d-svg__house" points="339.5,475.75,340.25,514.5,483.25,516.5,483.5,477.75"></polygon><polygon data-id="150" data-sec="1.04" data-build="4" data-floor="4" class="s3d-svg__house js-s3d-svg__house" points="211.5,516.75,212.75,566.75,276.75,567.25,281.5,563.5,282.25,515.75,275.25,517.5"></polygon><polygon data-id="149" data-sec="1.04" data-build="4" data-floor="4" class="s3d-svg__house js-s3d-svg__house" points="340,514.75,340,564.25,483.75,562.5,483.25,517.25"></polygon><polygon data-id="143" data-sec="1.04" data-build="4" data-floor="3" class="s3d-svg__house js-s3d-svg__house" points="212,567.5,211.25,615,275,615.5,281.25,609,282.5,563.25,276.5,568.5"></polygon><polygon data-id="142" data-sec="1.04" data-build="4" data-floor="3" class="s3d-svg__house js-s3d-svg__house" points="339.25,564.75,339.75,609.25,484.25,605.25,484.25,562"></polygon><polygon data-id="136" data-sec="1.04" data-build="4" data-floor="2" class="s3d-svg__house js-s3d-svg__house" points="210.75,615.25,212,661.25,275.25,657.25,282,651,282,609.25,275,615"></polygon><polygon data-id="135" data-sec="1.04" data-build="4" data-floor="2" class="s3d-svg__house js-s3d-svg__house" points="339.75,609.5,340,648.25,482.75,639.5,484.5,604.5"></polygon><polygon data-id="624" data-sec="1.04" data-build="4" data-floor="1" class="s3d-svg__house js-s3d-svg__house" points="340,649,340,705,482.75,697,483,639.25"></polygon><polygon data-id="578" data-sec="1.12" data-build="12" data-floor="8" class="s3d-svg__house js-s3d-svg__house" points="1772.6666666667,161,1773,251.33333333333,1919,218.33333333333,1919.3333333333,122.33333333333"></polygon><polygon data-id="579" data-sec="1.12" data-build="12" data-floor="8" class="s3d-svg__house js-s3d-svg__house" points="1639,199,1638,279.33333333333,1431.6666666667,308,1432,242.66666666667"></polygon><polygon data-id="575" data-sec="1.12" data-build="12" data-floor="7" class="s3d-svg__house js-s3d-svg__house" points="1638.3333333333,278,1637.6666666667,357.33333333333,1432,373,1432,307.66666666667"></polygon><polygon data-id="574" data-sec="1.12" data-build="12" data-floor="7" class="s3d-svg__house js-s3d-svg__house" points="1772.6666666667,251.66666666667,1772.3333333333,335,1772.3333333333,338.66666666667,1919.6666666667,314,1918.6666666667,218.66666666667"></polygon><polygon data-id="571" data-sec="1.12" data-build="12" data-floor="6" class="s3d-svg__house js-s3d-svg__house" points="1637.6666666667,356,1637.6666666667,434.66666666667,1432,445,1432.6666666667,372.66666666667"></polygon><polygon data-id="570" data-sec="1.12" data-build="12" data-floor="6" class="s3d-svg__house js-s3d-svg__house" points="1772,339.33333333333,1773,423.33333333333,1919.6666666667,409.33333333333,1919.3333333333,314.33333333333"></polygon><polygon data-id="567" data-sec="1.12" data-build="12" data-floor="5" class="s3d-svg__house js-s3d-svg__house" points="1637.6666666667,433.33333333333,1638.3333333333,509.33333333333,1432,509.66666666667,1432.3333333333,445.33333333333"></polygon><polygon data-id="566" data-sec="1.12" data-build="12" data-floor="5" class="s3d-svg__house js-s3d-svg__house" points="1773,423.33333333333,1772.6666666667,510.33333333333,1918.6666666667,503.66666666667,1919.6666666667,410"></polygon><polygon data-id="563" data-sec="1.12" data-build="12" data-floor="4" class="s3d-svg__house js-s3d-svg__house" points="1638,512,1638,580,1431.6666666667,571,1431.3333333333,509.66666666667,1637.6666666667,508.66666666667"></polygon><polygon data-id="559" data-sec="1.12" data-build="12" data-floor="3" class="s3d-svg__house js-s3d-svg__house" points="1638.6666666667,580.66666666667,1638,659.33333333333,1431.3333333333,638,1431.3333333333,571.33333333333"></polygon><polygon data-id="558" data-sec="1.12" data-build="12" data-floor="3" class="s3d-svg__house js-s3d-svg__house" points="1772.6666666667,586.33333333333,1772.3333333333,672.66666666667,1919.6666666667,686,1919,593.66666666667"></polygon><polygon data-id="562" data-sec="1.12" data-build="12" data-floor="4" class="s3d-svg__house js-s3d-svg__house" points="1772.6666666667,510.66666666667,1772.6666666667,586.33333333333,1919.3333333333,592.66666666667,1919.3333333333,504.33333333333"></polygon><polygon data-id="555" data-sec="1.12" data-build="12" data-floor="2" class="s3d-svg__house js-s3d-svg__house" points="1430.6666666667,639,1431.3333333333,703.33333333333,1637.6666666667,736.33333333333,1637.6666666667,659.33333333333"></polygon><polygon data-id="554" data-sec="1.12" data-build="12" data-floor="2" class="s3d-svg__house js-s3d-svg__house" points="1772.6666666667,673,1772.3333333333,760.33333333333,1919.6666666667,783.33333333333,1919.3333333333,686.33333333333"></polygon></svg>