<svg id="floor--svg"  viewBox="0 0 1920 1080" version="1.0" xmlns="http://www.w3.org/2000/svg" preserveAspectRatio="xMidYMid slice">
		<polygon data-id="30" data-sec="1" data-build="1" data-floor="3" class="s3d-svg__house js-s3d-svg__house" points="1143.5,642.25,1144,691.75,1148.75,688.25,1152.5,686,1156.5,682.75,1159.25,680,1158.5,674.5,1158.25,671.5,1158.25,668.75,1157,663.75,1154.5,663.75,1152,663.5,1151.75,638"></polygon>
		<polygon data-id="33" data-sec="1" data-build="1" data-floor="3" class="s3d-svg__house js-s3d-svg__house" points="971.5,753,971.75,806.75,965.5,810.5,960.25,813.75,953.25,816.5,946.75,817.75,940.5,818.5,932.25,818.5,926.25,816.75,920,814,743,709.75,738.75,706.5,737.75,702.75,738.5,698.75,736.5,694.75,737,691.25,739,688.5,742.25,686.25,745.25,685,744,662,911,755.25,916.25,757.75,920.75,760,925.25,761.5,928.5,762.5,933,762.5,937.5,764,944.25,763.25,950.75,761.75,955.75,760.5,964.5,757.5"></polygon>
		<polygon data-id="34" data-sec="1" data-build="1" data-floor="4" class="s3d-svg__house js-s3d-svg__house" points="1143.5,596.25,1143.5,642,1154.5,635.25,1158.75,632.25,1160.25,628.75,1161,623.75,1159.5,618.25,1158.5,615,1155.5,615,1154.25,614.75,1151,591.75"></polygon>
		<polygon data-id="35" data-sec="1" data-build="1" data-floor="4" class="s3d-svg__house js-s3d-svg__house" points="1064.25,645,1062.75,694.25,1143,642,1143.75,595.75"></polygon>
		<polygon data-id="36" data-sec="1" data-build="1" data-floor="4" class="s3d-svg__house js-s3d-svg__house" points="972.5,701,972,752,1062,693.5,1063.5,645.25"></polygon>
		<polygon data-id="37" data-sec="1" data-build="1" data-floor="4" class="s3d-svg__house js-s3d-svg__house" points="972.25,701.25,971.5,751.75,963,757.75,954,761,944,762.75,936.25,762.75,928.25,761.75,920.5,759.75,912.25,755.25,743.75,661.25,736.75,656.75,734.5,652.25,734.5,648,734.5,643.75,737.25,640.25,742,638.75,743,638.25,743,614,916.25,706.75,921.75,710,927,711.5,935.75,713.5,942.75,714.75,948,713.5,953.5,713.25,961.25,708.75"></polygon>
		<polygon data-id="38" data-sec="1" data-build="1" data-floor="5" class="s3d-svg__house js-s3d-svg__house" points="1141.25,549.75,1143.5,596.5,1148.25,593,1153.25,589.5,1157.5,586.75,1161.5,584.75,1163,582,1163.25,579.5,1162.75,576,1163.25,573,1162,570.75,1157,567.75,1152.5,566.25,1154,542.5"></polygon>
		<polygon data-id="40" data-sec="1" data-build="1" data-floor="5" class="s3d-svg__house js-s3d-svg__house" points="971.75,648.75,973.5,700.5,1064,644.25,1063.25,595.25"></polygon>
		<polygon data-id="41" data-sec="1" data-build="1" data-floor="5" class="s3d-svg__house js-s3d-svg__house" points="971.75,649.5,972.75,700.5,961.75,707.5,954.5,711,944.75,713,935.5,713,928.5,711.5,921.75,709.5,916.25,706,736.25,609.5,734,605.75,733,601.75,733,597.75,733,594.5,736.5,592,740,590,740.5,590,740.25,565,912.25,652.5,917.25,655.75,925,659.5,930.25,660.75,935.5,660.5,941.75,659.75,951.75,658.75,960.25,655.75"></polygon>
		<polygon data-id="42" data-sec="1" data-build="1" data-floor="6" class="s3d-svg__house js-s3d-svg__house" points="1139.5,502,1140.5,550,1158.75,540,1162,537.75,1165.25,535.5,1166.25,531.75,1165.5,527.75,1165.5,524.75,1163.75,521.5,1159.5,519.5,1157.75,518.25,1158,492"></polygon>
		<polygon data-id="43" data-sec="1" data-build="1" data-floor="6" class="s3d-svg__house js-s3d-svg__house" points="1060.3333333333,545.33333333333,1061.3333333333,596,1140.6666666667,549.66666666667,1139.3333333333,501.66666666667"></polygon>
		<polygon data-id="45" data-sec="1" data-build="1" data-floor="6" class="s3d-svg__house js-s3d-svg__house" points="970.75,595.75,971.5,649.25,963.25,653.25,957.25,656.75,948.25,658.75,938.25,659.5,933,660,926,659.25,917.5,655.5,911.75,652.25,740.25,564,735.25,561.5,731,558.5,729.75,556,730.25,553,729.5,548.75,731,546.25,734.25,544,738.75,542.5,738.25,514,921.25,602.5,925.25,603.25,929.5,604.25,932.5,604.75,940.75,603.75,945,603.75,950.5,603.5,960.75,600.5"></polygon>
		<polygon data-id="46" data-sec="1" data-build="1" data-floor="7" class="s3d-svg__house js-s3d-svg__house" points="1060.75,494,1061,545.25,1156.5,492.5,1160.25,490.25,1164,487.75,1166.75,486,1167.75,483.25,1167.75,480.5,1167.75,478.75,1168,476.5,1167,474.25,1163.75,471,1160.25,470,1161,441"></polygon>
		<polygon data-id="47" data-sec="1" data-build="1" data-floor="7" class="s3d-svg__house js-s3d-svg__house" points="1060.75,494,1060.75,545,971.25,595,970.75,541"></polygon>
		<polygon data-id="48" data-sec="1" data-build="1" data-floor="7" class="s3d-svg__house js-s3d-svg__house" points="970.75,540.5,971,594.75,963,598.75,959,600.25,954.75,601.75,951.5,602.5,947.75,603,943,603.5,937.25,603.5,931,604,925.5,603.25,920.75,602.5,738.25,513,733.5,510,731,507.5,730,505,728.25,500.25,728,497.25,729.75,494.75,733.5,493.5,736.75,493.25,735.25,463.5,915.5,545.5,921.25,547.75,926.5,550,930.75,550,937.25,550.5,942.25,550.5,948.5,549.75,952.75,548.5,958,547.25,965.25,543.75"></polygon>
		<polygon data-id="49" data-sec="1" data-build="1" data-floor="8" class="s3d-svg__house js-s3d-svg__house" points="1060.75,439.5,1061,493.25,1161,440.5,1165.5,438.25,1168.25,436.25,1170,433.5,1170,430.75,1170,428,1170.25,425.5,1168.5,422.75,1164.5,420.25,1162.5,419.5,1162.25,389.5"></polygon>
		<polygon data-id="50" data-sec="1" data-build="1" data-floor="8" class="s3d-svg__house js-s3d-svg__house" points="968.25,485,971.75,540.75,1060.25,493.75,1060.25,440"></polygon>
		<polygon data-id="51" data-sec="1" data-build="1" data-floor="8" class="s3d-svg__house js-s3d-svg__house" points="968.25,485.25,971,540,962.5,544.5,954.75,547.25,950.25,548,943.75,549.5,935.75,549.75,927.5,549.25,921.75,547.5,916.25,545,731.25,460.25,726.25,458,725.5,454.5,725.5,452.25,725.5,450.25,724.75,447,724.75,444.75,727.5,444,731.25,442.5,734.5,441.75,734.25,411.25,911.25,488,918,490.25,924.5,492.5,930.75,493,936.25,493.75,941.75,493.25,947,493,952.75,492.25"></polygon>
		<polygon data-id="31" data-sec="1" data-build="1" data-floor="3" class="s3d-svg__house js-s3d-svg__house" points="1061.75,694.5,1062,746.25,1143.75,691.25,1144,642.75"></polygon>
		<polygon data-id="32" data-sec="1" data-build="1" data-floor="3" class="s3d-svg__house js-s3d-svg__house" points="971.25,752.5,972,806.25,1061.75,746.25,1061.75,694.5"></polygon>
		<polygon data-id="39" data-sec="1" data-build="1" data-floor="5" class="s3d-svg__house js-s3d-svg__house" points="1063,594.75,1064.5,644.5,1142.75,596.25,1141.25,550.25"></polygon>
		<polygon data-id="44" data-sec="1" data-build="1" data-floor="6" class="s3d-svg__house js-s3d-svg__house" points="971,595.5,972,649,1062,595,1060.75,545"></polygon>
		<polygon data-id="52" data-sec="1" data-build="1" data-floor="9" class="s3d-svg__house js-s3d-svg__house" points="1060.5,320.75,1062.5,384,1141,346.5,1141.75,400,1152,394.5,1160.75,390.25,1164.25,387.75,1167.25,386.75,1167.25,385.75,1169.25,382.5,1169.75,379.75,1170.75,378,1172,376.5,1172.25,374.5,1171,373.25,1167.25,369.75,1164.5,368.75,1165,337,1167.25,334.5,1171.75,332,1174.25,330,1175.25,326.5,1175.25,323.75,1174,321.25,1171.5,317.75,1168,316.5,1166.25,316,1168,275"></polygon>
		<polygon data-id="53" data-sec="1" data-build="1" data-floor="9" class="s3d-svg__house js-s3d-svg__house" points="965,429.75,967,485,1140.75,400,1140.5,347.25,1061.75,384"></polygon>
		<polygon data-id="54" data-sec="1" data-build="1" data-floor="9" class="s3d-svg__house js-s3d-svg__house" points="1060.6666666667,320.66666666667,1061.6666666667,383.33333333333,972,426,967,428,965,428.66666666667,967,484.66666666667,960.33333333333,488.66666666667,955,490,949,491.66666666667,943.33333333333,492,939,492.33333333333,934.33333333333,493,925.33333333333,492,919,490,911.33333333333,487.66666666667,731.66666666667,409.33333333333,727,406.33333333333,724,405,722.33333333333,403,721.66666666667,399.66666666667,721.33333333333,396.66666666667,722,394.33333333333,723.33333333333,393,724.66666666667,391,727,389.33333333333,732.33333333333,389.33333333333,730.33333333333,355.66666666667,726.33333333333,353.33333333333,721.66666666667,350.66666666667,720.66666666667,348,719.66666666667,343.33333333333,719,340,720.66666666667,337.66666666667,722.33333333333,337.66666666667,722.66666666667,335.66666666667,722.66666666667,334.33333333333,722.66666666667,328.33333333333,722.33333333333,323.66666666667,721,321.33333333333,721,319.33333333333,725.33333333333,316.66666666667,729.66666666667,315.33333333333,732.33333333333,314.66666666667,732.33333333333,295.33333333333,910,360.66666666667,924,365.66666666667,936,366.66666666667,949,366.33333333333,962.66666666667,362.66666666667"></polygon>
		</svg>