<svg preserveAspectRatio="xMidYMid slice" id="floor--svg"  viewBox="0 0 1920 1080" version="1.0" xmlns="http://www.w3.org/2000/svg"><polygon data-id="642" data-sec="1.04" data-build="4" data-floor="9" class="s3d-svg__house js-s3d-svg__house" points="1144.25,308.75,1144.25,308.75,1144,404.75,1144,404.75,1252,395.5,1252,395.5,1251.5,295.75,1251.5,295.75,1247.5,294.25,1247.5,294.25"></polygon><polygon data-id="648" data-sec="1.04" data-build="4" data-floor="9" class="s3d-svg__house js-s3d-svg__house" points="1048.75,309.5,1048.75,309.5,1048.75,400,1048.75,400,1086,398,1086,398,1111.25,405.5,1111.25,405.5,1109.25,314.25,1109.25,314.25,1084.75,303.5,1084.75,303.5"></polygon><polygon data-id="177" data-sec="1.04" data-build="4" data-floor="8" class="s3d-svg__house js-s3d-svg__house" points="1144,405.25,1144,405.25,1144,442,1144,442,1251.5,436,1251.5,436,1251.75,396,1251.75,396"></polygon><polygon data-id="178" data-sec="1.04" data-build="4" data-floor="8" class="s3d-svg__house js-s3d-svg__house" points="1111,405.5,1111,405.5,1110.75,443.5,1110.75,443.5,1086.5,439.25,1086.5,439.25,1048.75,441.5,1048.75,441.5,1049,400.25,1049,400.25,1085.5,398,1085.5,398"></polygon><polygon data-id="170" data-sec="1.04" data-build="4" data-floor="7" class="s3d-svg__house js-s3d-svg__house" points="1144.25,442,1144.25,442,1144.25,478.25,1144.25,478.25,1252.25,475,1252.25,475,1251.75,436.75,1251.75,436.75,1250.75,436.25,1250.75,436.25"></polygon><polygon data-id="171" data-sec="1.04" data-build="4" data-floor="7" class="s3d-svg__house js-s3d-svg__house" points="1048.75,442,1048.75,442,1047.5,476,1047.5,476,1085.25,474,1085.25,474,1110.25,477.5,1110.25,477.5,1110.75,444,1110.75,444,1086.25,439,1086.25,439"></polygon><polygon data-id="164" data-sec="1.04" data-build="4" data-floor="6" class="s3d-svg__house js-s3d-svg__house" points="1047.5,476.5,1047.5,476.5,1048.25,512.5,1048.25,512.5,1085.25,511.5,1085.25,511.5,1111.25,512.5,1111.25,512.5,1110.25,478.25,1110.25,478.25,1084.5,474.5,1084.5,474.5"></polygon><polygon data-id="163" data-sec="1.04" data-build="4" data-floor="6" class="s3d-svg__house js-s3d-svg__house" points="1143.75,478.25,1143.75,478.25,1144,514.75,1144,514.75,1251.5,511.75,1251.5,511.75,1251.75,475.5,1251.75,475.5"></polygon><polygon data-id="157" data-sec="1.04" data-build="4" data-floor="5" class="s3d-svg__house js-s3d-svg__house" points="1110.75,512.75,1110.75,512.75,1110.75,547.25,1110.75,547.25,1085.5,547.5,1085.5,547.5,1048.75,547.75,1048.75,547.75,1047.75,513.5,1047.75,513.5,1084.5,511.75,1084.5,511.75"></polygon><polygon data-id="156" data-sec="1.04" data-build="4" data-floor="5" class="s3d-svg__house js-s3d-svg__house" points="1142.75,515.5,1142.75,515.5,1144.25,549.25,1144.25,549.25,1251.5,550,1251.5,550,1252,512.5,1252,512.5,1251.25,511.75,1251.25,511.75"></polygon><polygon data-id="150" data-sec="1.04" data-build="4" data-floor="4" class="s3d-svg__house js-s3d-svg__house" points="1048.5,548.5,1048.5,548.5,1048,584.75,1048,584.75,1085.5,586,1085.5,586,1110,584.5,1110,584.5,1110.75,547.75,1110.75,547.75,1086.25,547.5,1086.25,547.5"></polygon><polygon data-id="149" data-sec="1.04" data-build="4" data-floor="4" class="s3d-svg__house js-s3d-svg__house" points="1143.25,549.75,1143.25,549.75,1144.25,586.5,1144.25,586.5,1251.5,588,1251.5,588,1251.75,550.25,1251.75,550.25"></polygon><polygon data-id="143" data-sec="1.04" data-build="4" data-floor="3" class="s3d-svg__house js-s3d-svg__house" points="1048.25,585.25,1048.25,585.25,1047.75,619.75,1047.75,619.75,1086.25,620.5,1086.25,620.5,1111.25,617.75,1111.25,617.75,1110.5,585,1110.5,585,1086,586.5,1086,586.5"></polygon><polygon data-id="142" data-sec="1.04" data-build="4" data-floor="3" class="s3d-svg__house js-s3d-svg__house" points="1144.25,586.5,1144.25,586.5,1143.75,621,1143.75,621,1144,622.75,1144,622.75,1252,625.75,1252,625.75,1251.5,588.25,1251.5,588.25"></polygon><polygon data-id="136" data-sec="1.04" data-build="4" data-floor="2" class="s3d-svg__house js-s3d-svg__house" points="1047.5,620.5,1047.5,620.5,1047.75,653.5,1047.75,653.5,1086.25,655,1086.25,655,1111,649.5,1111,649.5,1111.5,617.5,1111.5,617.5,1086.5,621.25,1086.5,621.25"></polygon><polygon data-id="135" data-sec="1.04" data-build="4" data-floor="2" class="s3d-svg__house js-s3d-svg__house" points="1143,622.25,1143,622.25,1143.5,652.5,1143.5,652.5,1253.25,659.5,1253.25,659.5,1252.25,625.25,1252.25,625.25"></polygon><polygon data-id="132" data-sec="1.03" data-build="3" data-floor="9" class="s3d-svg__house js-s3d-svg__house" points="1251.75,296,1251.75,296,1252,399.5,1252,399.5,1368,388,1368,388,1366.75,279.25,1366.75,279.25"></polygon><polygon data-id="131" data-sec="1.03" data-build="3" data-floor="9" class="s3d-svg__house js-s3d-svg__house" points="1430.75,271.5,1430.75,271.5,1430.75,382.75,1430.75,382.75,1585,369.25,1585,369.25,1584.25,249,1584.25,249"></polygon><polygon data-id="128" data-sec="1.03" data-build="3" data-floor="8" class="s3d-svg__house js-s3d-svg__house" points="1368,388.75,1368,388.75,1368.5,428.5,1368.5,428.5,1251.75,436.25,1251.75,436.25,1251.5,400,1251.5,400"></polygon><polygon data-id="127" data-sec="1.03" data-build="3" data-floor="8" class="s3d-svg__house js-s3d-svg__house" points="1430.25,382.75,1430.25,382.75,1431,424.75,1431,424.75,1585.75,414.25,1585.75,414.25,1585,368,1585,368"></polygon><polygon data-id="124" data-sec="1.03" data-build="3" data-floor="7" class="s3d-svg__house js-s3d-svg__house" points="1368,428.5,1368,428.5,1367.5,468.75,1367.5,468.75,1252.25,475.75,1252.25,475.75,1250.5,436.25,1250.5,436.25"></polygon><polygon data-id="123" data-sec="1.03" data-build="3" data-floor="7" class="s3d-svg__house js-s3d-svg__house" points="1430.75,425,1430.75,425,1431,466,1431,466,1584.75,459.25,1584.75,459.25,1586.25,414.25,1586.25,414.25"></polygon><polygon data-id="120" data-sec="1.03" data-build="3" data-floor="6" class="s3d-svg__house js-s3d-svg__house" points="1251,475.5,1251,475.5,1251.5,512.75,1251.5,512.75,1367.5,509.5,1367.5,509.5,1367,468.75,1367,468.75"></polygon><polygon data-id="119" data-sec="1.03" data-build="3" data-floor="6" class="s3d-svg__house js-s3d-svg__house" points="1430.75,466.5,1430.75,466.5,1431.25,507.5,1431.25,507.5,1585.5,504,1585.5,504,1586,459,1586,459"></polygon><polygon data-id="116" data-sec="1.03" data-build="3" data-floor="5" class="s3d-svg__house js-s3d-svg__house" points="1368,509.25,1368,509.25,1367.75,549.25,1367.75,549.25,1251.25,551,1251.25,551,1251.5,512,1251.5,512"></polygon><polygon data-id="115" data-sec="1.03" data-build="3" data-floor="5" class="s3d-svg__house js-s3d-svg__house" points="1430.75,507.75,1430.75,507.75,1430.5,549.5,1430.5,549.5,1584,549.75,1584,549.75,1584.75,505.25,1584.75,505.25"></polygon><polygon data-id="112" data-sec="1.03" data-build="3" data-floor="4" class="s3d-svg__house js-s3d-svg__house" points="1367.5,549.25,1367.5,549.25,1367.25,589.25,1367.25,589.25,1251.5,588.75,1251.5,588.75,1251.75,550.5,1251.75,550.5"></polygon><polygon data-id="111" data-sec="1.03" data-build="3" data-floor="4" class="s3d-svg__house js-s3d-svg__house" points="1430,549.75,1430,549.75,1431,590.75,1431,590.75,1584.5,593.75,1584.5,593.75,1584.25,549.25,1584.25,549.25"></polygon><polygon data-id="108" data-sec="1.03" data-build="3" data-floor="3" class="s3d-svg__house js-s3d-svg__house" points="1367.25,589.75,1367.25,589.75,1367.5,630,1367.5,630,1252,626,1252,626,1251.25,588.75,1251.25,588.75"></polygon><polygon data-id="107" data-sec="1.03" data-build="3" data-floor="3" class="s3d-svg__house js-s3d-svg__house" points="1430.75,591.25,1430.75,591.25,1431.25,632.5,1431.25,632.5,1584.5,638.25,1584.5,638.25,1584.25,595.25,1584.25,595.25"></polygon><polygon data-id="104" data-sec="1.03" data-build="3" data-floor="2" class="s3d-svg__house js-s3d-svg__house" points="1366.75,630.5,1366.75,630.5,1366,665.25,1366,665.25,1253.25,659.25,1253.25,659.25,1251.75,626.25,1251.75,626.25"></polygon><polygon data-id="103" data-sec="1.03" data-build="3" data-floor="2" class="s3d-svg__house js-s3d-svg__house" points="1430.75,632,1430.75,632,1431.5,668.5,1431.5,668.5,1584.25,677,1584.25,677,1584.25,638.75,1584.25,638.75"></polygon><polygon data-id="603" data-sec="1.03" data-build="3" data-floor="1" class="s3d-svg__house js-s3d-svg__house" points="1366,665.25,1366,665.25,1365.75,717,1365.75,717,1261.5,707.5,1261.5,707.5,1258,706.75,1258,706.75,1255.25,707,1255.25,707,1252.75,659.75,1252.75,659.75"></polygon><polygon data-id="601" data-sec="1.03" data-build="3" data-floor="1" class="s3d-svg__house js-s3d-svg__house" points="1583.5,677.5,1583.5,677.5,1582.75,735.5,1582.75,735.5,1451,723.25,1451,723.25,1450.5,670.75,1450.5,670.75"></polygon><polygon data-id="99" data-sec="1.02" data-build="2" data-floor="9" class="s3d-svg__house js-s3d-svg__house" points="1585.25,244.5,1585.25,244.5,1584.75,368.25,1584.75,368.25,1752.75,352.5,1752.75,352.5,1752.5,220.25,1752.5,220.25"></polygon><polygon data-id="94" data-sec="1.02" data-build="2" data-floor="8" class="s3d-svg__house js-s3d-svg__house" points="1585,367.75,1585,367.75,1585.75,413,1585.75,413,1752.5,401.75,1752.5,401.75,1752.25,352.25,1752.25,352.25"></polygon><polygon data-id="87" data-sec="1.02" data-build="2" data-floor="7" class="s3d-svg__house js-s3d-svg__house" points="1585.75,414,1586.25,459,1752.25,450,1752,400.25"></polygon><polygon data-id="80" data-sec="1.02" data-build="2" data-floor="6" class="s3d-svg__house js-s3d-svg__house" points="1585.5,459.5,1585.25,504.5,1751.75,499.25,1751.75,450.25"></polygon><polygon data-id="73" data-sec="1.02" data-build="2" data-floor="5" class="s3d-svg__house js-s3d-svg__house" points="1585,504.25,1584,549.75,1751.75,546.75,1752.25,498.75"></polygon><polygon data-id="66" data-sec="1.02" data-build="2" data-floor="4" class="s3d-svg__house js-s3d-svg__house" points="1584.25,549.5,1584.25,594.75,1752,597,1752,547"></polygon><polygon data-id="59" data-sec="1.02" data-build="2" data-floor="3" class="s3d-svg__house js-s3d-svg__house" points="1584.5,594,1584.25,639,1751.75,642.5,1752,597.75"></polygon><polygon data-id="52" data-sec="1.02" data-build="2" data-floor="2" class="s3d-svg__house js-s3d-svg__house" points="1584.25,638.75,1584,678.25,1752,686.75,1752.75,643.5"></polygon><polygon data-id="639" data-sec="1.05" data-build="5" data-floor="9" class="s3d-svg__house js-s3d-svg__house" points="1036.75,361.5,1037,399.75,1048.75,399.75,1048.25,364.75"></polygon><polygon data-id="638" data-sec="1.05" data-build="5" data-floor="9" class="s3d-svg__house js-s3d-svg__house" points="965,272.75,964.5,385,1037.25,399.75,1037,361.5,1048,365.25,1048,309.25,1036.75,303,1036.75,299.75,1004.5,285.25,997.75,286.5"></polygon><polygon data-id="636" data-sec="1.05" data-build="5" data-floor="9" class="s3d-svg__house js-s3d-svg__house" points="775,294.5,800.75,289.75,836.25,300.5,836.5,350,800.5,341.25,774.5,344.75"></polygon><polygon data-id="637" data-sec="1.05" data-build="5" data-floor="9" class="s3d-svg__house js-s3d-svg__house" points="774.75,208.25,775.25,294.75,800.25,290.25,836.5,300.5,836.25,350.75,841.75,349.25,928.75,373.75,927.75,255.75,896.25,241.25,896,237.75,842,214.5,836,216.25,800.5,200.75"></polygon><polygon data-id="225" data-sec="1.05" data-build="5" data-floor="8" class="s3d-svg__house js-s3d-svg__house" points="1036.75,400.5,1036.75,439.5,1047.25,441,1048.5,400.5"></polygon><polygon data-id="220" data-sec="1.05" data-build="5" data-floor="8" class="s3d-svg__house js-s3d-svg__house" points="964.25,386,965,426.5,1036.75,439.25,1036.75,399.25"></polygon><polygon data-id="221" data-sec="1.05" data-build="5" data-floor="8" class="s3d-svg__house js-s3d-svg__house" points="836.25,351,835.5,400,842.25,399.5,927.5,418,929.25,374.5,842.5,349.5"></polygon><polygon data-id="222" data-sec="1.05" data-build="5" data-floor="8" class="s3d-svg__house js-s3d-svg__house" points="774,345.5,775.25,396.5,800.75,393,835.5,400.5,836.25,351,800.5,340.5"></polygon><polygon data-id="219" data-sec="1.05" data-build="5" data-floor="7" class="s3d-svg__house js-s3d-svg__house" points="1036.75,439.5,1037.25,473.75,1046.75,476,1047.5,441.25"></polygon><polygon data-id="214" data-sec="1.05" data-build="5" data-floor="7" class="s3d-svg__house js-s3d-svg__house" points="965,426.75,964.75,466.5,1036.75,473.5,1037,439.5"></polygon><polygon data-id="215" data-sec="1.05" data-build="5" data-floor="7" class="s3d-svg__house js-s3d-svg__house" points="836,400.25,836,449.5,927.5,461,928,418,841.75,399"></polygon><polygon data-id="216" data-sec="1.05" data-build="5" data-floor="7" class="s3d-svg__house js-s3d-svg__house" points="775,396.5,775.5,447,801,444.5,836,449.25,836,399.5,800.25,393.25"></polygon><polygon data-id="213" data-sec="1.05" data-build="5" data-floor="6" class="s3d-svg__house js-s3d-svg__house" points="1036.25,473.5,1037,512.75,1048.75,513.75,1047.75,476.25"></polygon><polygon data-id="208" data-sec="1.05" data-build="5" data-floor="6" class="s3d-svg__house js-s3d-svg__house" points="965,466.5,964.5,508.75,1036.75,513,1037.25,473.25"></polygon><polygon data-id="203" data-sec="1.05" data-build="5" data-floor="5" class="s3d-svg__house js-s3d-svg__house" points="836.25,499.75,836,548,927.25,548.75,927,505"></polygon><polygon data-id="204" data-sec="1.05" data-build="5" data-floor="5" class="s3d-svg__house js-s3d-svg__house" points="774.5,498.25,774.75,548.25,800.75,548,836,548.75,837.25,499.5,799.75,497.25"></polygon><polygon data-id="201" data-sec="1.05" data-build="5" data-floor="4" class="s3d-svg__house js-s3d-svg__house" points="1037.25,549.25,1037.75,587.5,1047.5,585.25,1048.25,548.5"></polygon><polygon data-id="196" data-sec="1.05" data-build="5" data-floor="4" class="s3d-svg__house js-s3d-svg__house" points="964.75,549.5,964.25,590.75,1037.75,588,1037.5,548.5"></polygon><polygon data-id="197" data-sec="1.05" data-build="5" data-floor="4" class="s3d-svg__house js-s3d-svg__house" points="836,548.25,836.25,597.75,927.75,591.75,926.75,549"></polygon><polygon data-id="198" data-sec="1.05" data-build="5" data-floor="4" class="s3d-svg__house js-s3d-svg__house" points="774.75,548.75,775.25,599.25,800.5,599,836.25,598.5,835.75,547.5,800.75,548"></polygon><polygon data-id="195" data-sec="1.05" data-build="5" data-floor="3" class="s3d-svg__house js-s3d-svg__house" points="1037.75,587.75,1037,621.5,1047.25,620.75,1047.25,585.75"></polygon><polygon data-id="209" data-sec="1.05" data-build="5" data-floor="6" class="s3d-svg__house js-s3d-svg__house" points="835.75,449,836.5,498.75,927.5,504.5,927.25,460.5,842,449"></polygon><polygon data-id="210" data-sec="1.05" data-build="5" data-floor="6" class="s3d-svg__house js-s3d-svg__house" points="836,449.25,836.5,499.75,800.25,496.75,774.75,498.5,775.5,447.25,801,444.75"></polygon><polygon data-id="207" data-sec="1.05" data-build="5" data-floor="5" class="s3d-svg__house js-s3d-svg__house" points="1037.25,512.25,1037.5,548.5,1048,549.25,1048.5,513.75"></polygon><polygon data-id="202" data-sec="1.05" data-build="5" data-floor="5" class="s3d-svg__house js-s3d-svg__house" points="964.25,508.5,965,549.5,1037.5,549,1037.25,512.75"></polygon><polygon data-id="190" data-sec="1.05" data-build="5" data-floor="3" class="s3d-svg__house js-s3d-svg__house" points="964.25,591.25,964.75,632.75,1037.5,622,1038,587.75"></polygon><polygon data-id="191" data-sec="1.05" data-build="5" data-floor="3" class="s3d-svg__house js-s3d-svg__house" points="836,598.5,836,647,895.5,641.5,927.25,636.25,928.25,591.25"></polygon><polygon data-id="192" data-sec="1.05" data-build="5" data-floor="3" class="s3d-svg__house js-s3d-svg__house" points="774.25,599.25,775.25,649.75,801,651.25,835.5,647.5,835.5,598.25,800,599.25"></polygon><polygon data-id="189" data-sec="1.05" data-build="5" data-floor="2" class="s3d-svg__house js-s3d-svg__house" points="1037,622.75,1037.25,655.75,1047.25,654,1047.5,620.5"></polygon><polygon data-id="185" data-sec="1.05" data-build="5" data-floor="2" class="s3d-svg__house js-s3d-svg__house" points="835.5,647.75,835.75,696.75,843.25,697.75,895.75,687.25,929.25,683,926.5,636.25,896,641.75"></polygon><polygon data-id="184" data-sec="1.05" data-build="5" data-floor="2" class="s3d-svg__house js-s3d-svg__house" points="965,633.5,966.25,679,1037,662.75,1037,622.25"></polygon><polygon data-id="186" data-sec="1.05" data-build="5" data-floor="2" class="s3d-svg__house js-s3d-svg__house" points="775,650.75,775,691.5,800.75,695.5,835.5,689.75,835.75,648,800.5,651,775,648.75"></polygon><polygon data-id="609" data-sec="1.05" data-build="5" data-floor="1" class="s3d-svg__house js-s3d-svg__house" points="771.5,693.25,771.25,757.5,796.5,762.5,930.75,728.5,930.25,683.25,835.5,697,836,690.5,801,695.75"></polygon><polygon data-id="283" data-sec="1.06" data-build="6" data-floor="9" class="s3d-svg__house js-s3d-svg__house" points="774.5,207.25,774.75,336.25,715.75,322.25,717.5,184"></polygon><polygon data-id="282" data-sec="1.06" data-build="6" data-floor="9" class="s3d-svg__house js-s3d-svg__house" points="573.25,123.25,572.25,285.25,716,322.25,717.5,183.5"></polygon><polygon data-id="281" data-sec="1.06" data-build="6" data-floor="9" class="s3d-svg__house js-s3d-svg__house" points="524,103.66666666667,523,283,378,247.33333333333,376.66666666667,44"></polygon><polygon data-id="280" data-sec="1.06" data-build="6" data-floor="9" class="s3d-svg__house js-s3d-svg__house" points="376.66666666667,44,378,247.33333333333,154.66666666667,194,128,202,128,1,272.66666666667,1"></polygon><polygon data-id="272" data-sec="1.06" data-build="6" data-floor="8" class="s3d-svg__house js-s3d-svg__house" points="716,322.33333333333,716,384.66666666667,775,396,774.33333333333,336"></polygon><polygon data-id="273" data-sec="1.06" data-build="6" data-floor="8" class="s3d-svg__house js-s3d-svg__house" points="571.33333333333,285.33333333333,572,358.33333333333,715.33333333333,385.33333333333,715.33333333333,321.66666666667"></polygon><polygon data-id="274" data-sec="1.06" data-build="6" data-floor="8" class="s3d-svg__house js-s3d-svg__house" points="378,249,377.33333333333,314.66666666667,523.66666666667,342,523.66666666667,283.33333333333"></polygon><polygon data-id="275" data-sec="1.06" data-build="6" data-floor="8" class="s3d-svg__house js-s3d-svg__house" points="378,247.66666666667,377,314.66666666667,155,271.33333333333,128.33333333333,280.66666666667,128,203,154.33333333333,194"></polygon><polygon data-id="267" data-sec="1.06" data-build="6" data-floor="7" class="s3d-svg__house js-s3d-svg__house" points="127.33333333333,282.33333333333,128.33333333333,372.66666666667,155,368,378,394,376,314.33333333333,154.66666666667,272"></polygon><polygon data-id="266" data-sec="1.06" data-build="6" data-floor="7" class="s3d-svg__house js-s3d-svg__house" points="376.66666666667,314.66666666667,378,394.66666666667,522.33333333333,411.66666666667,523,342.66666666667"></polygon><polygon data-id="265" data-sec="1.06" data-build="6" data-floor="7" class="s3d-svg__house js-s3d-svg__house" points="572,358.66666666667,572.33333333333,420.33333333333,714,438,715.33333333333,384.66666666667"></polygon><polygon data-id="264" data-sec="1.06" data-build="6" data-floor="7" class="s3d-svg__house js-s3d-svg__house" points="715.33333333333,385.33333333333,713.66666666667,439,775,444.33333333333,775,396"></polygon><polygon data-id="259" data-sec="1.06" data-build="6" data-floor="6" class="s3d-svg__house js-s3d-svg__house" points="128.33333333333,373.33333333333,128.33333333333,450.66666666667,154.33333333333,445,378,464,378.33333333333,395,155,368.66666666667"></polygon><polygon data-id="258" data-sec="1.06" data-build="6" data-floor="6" class="s3d-svg__house js-s3d-svg__house" points="377.33333333333,394.33333333333,378,464.33333333333,522,472.66666666667,522,412.33333333333"></polygon><polygon data-id="257" data-sec="1.06" data-build="6" data-floor="6" class="s3d-svg__house js-s3d-svg__house" points="572.33333333333,420.66666666667,571.66666666667,475,713.33333333333,484.33333333333,714,438.33333333333"></polygon><polygon data-id="256" data-sec="1.06" data-build="6" data-floor="6" class="s3d-svg__house js-s3d-svg__house" points="713.66666666667,438.33333333333,713.33333333333,484.33333333333,774.33333333333,488.33333333333,773.66666666667,444.33333333333"></polygon><polygon data-id="251" data-sec="1.06" data-build="6" data-floor="5" class="s3d-svg__house js-s3d-svg__house" points="128.33333333333,450.33333333333,128,540.33333333333,154,542.33333333333,377.66666666667,544,376.66666666667,464.66666666667,154.33333333333,445"></polygon><polygon data-id="250" data-sec="1.06" data-build="6" data-floor="5" class="s3d-svg__house js-s3d-svg__house" points="377.33333333333,464.33333333333,377.66666666667,544.66666666667,520.66666666667,544.33333333333,522.33333333333,473"></polygon><polygon data-id="249" data-sec="1.06" data-build="6" data-floor="5" class="s3d-svg__house js-s3d-svg__house" points="571.33333333333,475.33333333333,571.33333333333,545.66666666667,712.66666666667,547.33333333333,713.33333333333,483"></polygon><polygon data-id="248" data-sec="1.06" data-build="6" data-floor="5" class="s3d-svg__house js-s3d-svg__house" points="713,484.33333333333,713,547.66666666667,773.66666666667,546,774,488.33333333333"></polygon><polygon data-id="243" data-sec="1.06" data-build="6" data-floor="4" class="s3d-svg__house js-s3d-svg__house" points="127.66666666667,541,128.33333333333,618.66666666667,154.66666666667,620.33333333333,377.66666666667,611.33333333333,378,544.33333333333,154,544"></polygon><polygon data-id="242" data-sec="1.06" data-build="6" data-floor="4" class="s3d-svg__house js-s3d-svg__house" points="377.33333333333,544.66666666667,377.66666666667,611.66666666667,519.66666666667,605,520.66666666667,545"></polygon><polygon data-id="241" data-sec="1.06" data-build="6" data-floor="4" class="s3d-svg__house js-s3d-svg__house" points="570.66666666667,546,571.66666666667,607.66666666667,713.33333333333,600.66666666667,713,547.66666666667"></polygon><polygon data-id="240" data-sec="1.06" data-build="6" data-floor="4" class="s3d-svg__house js-s3d-svg__house" points="712.66666666667,548,713.66666666667,601.66666666667,774.66666666667,598.66666666667,774.66666666667,546.66666666667"></polygon><polygon data-id="235" data-sec="1.06" data-build="6" data-floor="3" class="s3d-svg__house js-s3d-svg__house" points="128,619,128.66666666667,709.33333333333,154.33333333333,715,378,691.66666666667,377.33333333333,612,154.66666666667,621.66666666667"></polygon><polygon data-id="234" data-sec="1.06" data-build="6" data-floor="3" class="s3d-svg__house js-s3d-svg__house" points="377.66666666667,611.66666666667,378,692.33333333333,517,676,519.33333333333,605"></polygon><polygon data-id="233" data-sec="1.06" data-build="6" data-floor="3" class="s3d-svg__house js-s3d-svg__house" points="571.33333333333,608.33333333333,572,670.33333333333,713.66666666667,655.66666666667,713.66666666667,601"></polygon><polygon data-id="232" data-sec="1.06" data-build="6" data-floor="3" class="s3d-svg__house js-s3d-svg__house" points="713.66666666667,601.66666666667,713.66666666667,656.66666666667,774,649,774.66666666667,599.66666666667"></polygon><polygon data-id="228" data-sec="1.06" data-build="6" data-floor="2" class="s3d-svg__house js-s3d-svg__house" points="128.33333333333,709.66666666667,128,781.66666666667,154.33333333333,790,378,755,378,692,153,715.33333333333"></polygon><polygon data-id="227" data-sec="1.06" data-build="6" data-floor="2" class="s3d-svg__house js-s3d-svg__house" points="378,692,378.33333333333,755.33333333333,519,732,517.33333333333,675"></polygon><polygon data-id="226" data-sec="1.06" data-build="6" data-floor="2" class="s3d-svg__house js-s3d-svg__house" points="571.66666666667,671.33333333333,571,724,712.33333333333,701.66666666667,713.33333333333,656.33333333333"></polygon><polygon data-id="347" data-sec="1.07" data-build="7" data-floor="9" class="s3d-svg__house js-s3d-svg__house" points="126.33333333333,2,127.33333333333,204,0,174,0,1.3333333333333"></polygon><polygon data-id="336" data-sec="1.07" data-build="7" data-floor="8" class="s3d-svg__house js-s3d-svg__house" points="127.66666666667,204,127.33333333333,282.33333333333,128,287.33333333333,0,265.66666666667,1,174.33333333333"></polygon><polygon data-id="328" data-sec="1.07" data-build="7" data-floor="7" class="s3d-svg__house js-s3d-svg__house" points="127.66666666667,288,128.33333333333,372.66666666667,0.33333333333333,357.33333333333,0.33333333333333,266.33333333333"></polygon><polygon data-id="320" data-sec="1.07" data-build="7" data-floor="6" class="s3d-svg__house js-s3d-svg__house" points="128.66666666667,373,127.66666666667,456.33333333333,0,449,0.66666666666667,357.66666666667"></polygon><polygon data-id="312" data-sec="1.07" data-build="7" data-floor="5" class="s3d-svg__house js-s3d-svg__house" points="127.66666666667,456.66666666667,128,542,0,539.66666666667,0.66666666666667,449.33333333333"></polygon><polygon data-id="304" data-sec="1.07" data-build="7" data-floor="4" class="s3d-svg__house js-s3d-svg__house" points="127.66666666667,541.33333333333,127.33333333333,626,0,631.66666666667,0.33333333333333,540.66666666667"></polygon><polygon data-id="296" data-sec="1.07" data-build="7" data-floor="3" class="s3d-svg__house js-s3d-svg__house" points="128,626.33333333333,128.66666666667,711,0,722.66666666667,0,632"></polygon><polygon data-id="288" data-sec="1.07" data-build="7" data-floor="2" class="s3d-svg__house js-s3d-svg__house" points="128.66666666667,710,128.66666666667,782,0,802.66666666667,0.33333333333333,723.33333333333"></polygon></svg>