<svg viewBox="0 0 1920 1080" version="1.0" xmlns="http://www.w3.org/2000/svg" preserveAspectRatio="xMidYMid slice">
		<polygon data-id="30" data-sec="1" data-build="1" data-floor="3" class="s3d-svg__house js-s3d-svg__house" points="1010.3333333333,730.66666666667,1007,793.66666666667,1033.6666666667,795.66666666667,1045.3333333333,795.33333333333,1059.3333333333,794.66666666667,1074.6666666667,790.33333333333,1086.6666666667,785,1101.3333333333,779.33333333333,1110.6666666667,776.33333333333,1120,770.33333333333,1177.3333333333,726.33333333333,1179.6666666667,721.33333333333,1179,716.66666666667,1179.6666666667,711,1177.6666666667,706.33333333333,1174.6666666667,705.33333333333,1175,670.33333333333,1102.6666666667,721.33333333333,1096.3333333333,725.33333333333,1091.3333333333,727.66666666667,1088,728.66666666667,1083,731,1077.3333333333,733.66666666667,1071,734.66666666667,1061.6666666667,735.66666666667,1049,736.66666666667,1038,735"></polygon>
		<polygon data-id="33" data-sec="1" data-build="1" data-floor="3" class="s3d-svg__house js-s3d-svg__house" points="727,688.66666666667,729,749.33333333333,722.66666666667,748.33333333333,717.66666666667,747.66666666667,712.66666666667,746,707.66666666667,745,702.66666666667,744.66666666667,699.66666666667,739.33333333333,699.33333333333,733,697,729,697.66666666667,724.33333333333,699,722.66666666667,704,721.33333333333,703.33333333333,684.66666666667"></polygon>
		<polygon data-id="34" data-sec="1" data-build="1" data-floor="4" class="s3d-svg__house js-s3d-svg__house" points="1010.3333333333,670.33333333333,1009.6666666667,730.66666666667,1048.6666666667,735.66666666667,1059.6666666667,735.66666666667,1066.6666666667,735,1074,733.33333333333,1080.3333333333,731.66666666667,1087.3333333333,728.66666666667,1095.3333333333,725,1099.3333333333,723,1175.6666666667,669,1180,666.33333333333,1182.3333333333,664.33333333333,1182.3333333333,661.66666666667,1181.3333333333,659,1182.6666666667,657.33333333333,1182.6666666667,655,1180.3333333333,653,1179,651,1176.3333333333,649.33333333333,1177.3333333333,615,1086.6666666667,672,1081,674,1075.6666666667,676.66666666667,1070,678,1063.3333333333,677,1055.6666666667,677"></polygon>
		<polygon data-id="35" data-sec="1" data-build="1" data-floor="4" class="s3d-svg__house js-s3d-svg__house" points="854.66666666667,648.66666666667,855.66666666667,706,1009.6666666667,730,1011,670.33333333333"></polygon>
		<polygon data-id="36" data-sec="1" data-build="1" data-floor="4" class="s3d-svg__house js-s3d-svg__house" points="726.33333333333,632.33333333333,725.66666666667,688.33333333333,855.33333333333,705.66666666667,855,648.66666666667"></polygon>
		<polygon data-id="37" data-sec="1" data-build="1" data-floor="4" class="s3d-svg__house js-s3d-svg__house" points="726.33333333333,631.66666666667,726,687.33333333333,717.33333333333,686,704,684,696.66666666667,681.33333333333,694.33333333333,678,694.33333333333,674.66666666667,694.33333333333,669.33333333333,697,665.66666666667,702.66666666667,663.66666666667,702.66666666667,627.33333333333"></polygon>
		<polygon data-id="38" data-sec="1" data-build="1" data-floor="5" class="s3d-svg__house js-s3d-svg__house" points="1011.3333333333,609.33333333333,1010,670.66666666667,1056,676,1063.6666666667,677,1071.3333333333,677,1078,675.66666666667,1084.6666666667,673.33333333333,1178.3333333333,613.33333333333,1182.6666666667,610,1184.6666666667,606.33333333333,1183.6666666667,602.33333333333,1184.6666666667,599,1183,595.66666666667,1179.3333333333,594.66666666667,1179,557,1090.3333333333,608.33333333333,1086.3333333333,612.66666666667,1080.3333333333,614.66666666667,1071,615,1060.3333333333,614,1044.3333333333,612.33333333333"></polygon>
		<polygon data-id="40" data-sec="1" data-build="1" data-floor="5" class="s3d-svg__house js-s3d-svg__house" points="725.66666666667,573.33333333333,726.66666666667,632,853.33333333333,648,855,589.66666666667"></polygon>
		<polygon data-id="41" data-sec="1" data-build="1" data-floor="5" class="s3d-svg__house js-s3d-svg__house" points="726,573.66666666667,727.33333333333,631.33333333333,713.66666666667,629.66666666667,702.66666666667,627.66666666667,695,624.33333333333,693,623,693,619,692,616,692.33333333333,612.66666666667,696,609,700.66666666667,607.66666666667,700,568.66666666667"></polygon>
		<polygon data-id="42" data-sec="1" data-build="1" data-floor="6" class="s3d-svg__house js-s3d-svg__house" points="1012.6666666667,546.33333333333,1011.3333333333,609,1039.6666666667,612,1050.3333333333,612.66666666667,1056.6666666667,613.66666666667,1065,613.66666666667,1075,614.33333333333,1083.3333333333,613.33333333333,1090,609,1182.6666666667,554.66666666667,1186,550.66666666667,1185.6666666667,545.66666666667,1186.3333333333,542,1184.3333333333,539.33333333333,1180.6666666667,539,1181,498.33333333333,1097.3333333333,545,1092.3333333333,548.33333333333,1085.3333333333,551,1077.3333333333,552,1069.3333333333,552,1057.3333333333,552,1044,550,1022.3333333333,547.66666666667"></polygon>
		<polygon data-id="43" data-sec="1" data-build="1" data-floor="6" class="s3d-svg__house js-s3d-svg__house" points="856.66666666667,529.33333333333,855.33333333333,589.66666666667,1011.3333333333,608,1012.3333333333,546.33333333333,934,537.33333333333,866,529.66666666667"></polygon>
		<polygon data-id="45" data-sec="1" data-build="1" data-floor="6" class="s3d-svg__house js-s3d-svg__house" points="725,514,725.33333333333,573,702.66666666667,569.33333333333,694,566.66666666667,690.66666666667,565,689,560.33333333333,689.33333333333,556.66666666667,691.33333333333,553,695,552.33333333333,696.66666666667,549.66666666667,696.66666666667,509.33333333333"></polygon>
		<polygon data-id="46" data-sec="1" data-build="1" data-floor="7" class="s3d-svg__house js-s3d-svg__house" points="857.66666666667,469,856.33333333333,528.66666666667,1054.3333333333,550.33333333333,1063.3333333333,551.33333333333,1071.3333333333,551.33333333333,1079.3333333333,551.33333333333,1087,549.66666666667,1096.3333333333,545.66666666667,1186,494.66666666667,1187,492.33333333333,1187.3333333333,487.66666666667,1187.6666666667,484,1184.6666666667,482.66666666667,1182.3333333333,482,1183.6666666667,440,1093.3333333333,484,1087.6666666667,487,1081.3333333333,487.33333333333,1074.6666666667,488.33333333333,1068.6666666667,489,1059.3333333333,488.66666666667,1047,487.33333333333,1034.6666666667,486.66666666667,986.66666666667,480.66666666667,868.33333333333,469,858.66666666667,468"></polygon>
		<polygon data-id="47" data-sec="1" data-build="1" data-floor="7" class="s3d-svg__house js-s3d-svg__house" points="857.66666666667,468,856.33333333333,527,721.33333333333,513.33333333333,720,453.66666666667,766.66666666667,458.33333333333,827,463.66666666667"></polygon>
		<polygon data-id="49" data-sec="1" data-build="1" data-floor="8" class="s3d-svg__house js-s3d-svg__house" points="857.66666666667,405,857.66666666667,467.66666666667,1038.6666666667,486,1051.6666666667,487.66666666667,1064,487.66666666667,1070.6666666667,488,1077,487,1084,486.66666666667,1092.6666666667,484,1187.6666666667,437.33333333333,1189.3333333333,433.66666666667,1189.6666666667,429.66666666667,1188.3333333333,425,1185.6666666667,423.66666666667,1184.6666666667,421.66666666667,1184,380.66666666667,1091,419.33333333333,1088.6666666667,421,1085,422,1076.6666666667,423.33333333333,1070,422,1059.3333333333,422,1020.3333333333,419"></polygon>
		<polygon data-id="50" data-sec="1" data-build="1" data-floor="8" class="s3d-svg__house js-s3d-svg__house" points="719,391.33333333333,720.33333333333,453.33333333333,858,466.66666666667,858,405"></polygon>
		<polygon data-id="51" data-sec="1" data-build="1" data-floor="8" class="s3d-svg__house js-s3d-svg__house" points="719,392.33333333333,719.66666666667,452.33333333333,711.66666666667,451.66666666667,704,451.33333333333,695.33333333333,450,689,448,686.33333333333,445.66666666667,686.33333333333,442.66666666667,688,441.33333333333,687,438.66666666667,685,437.33333333333,687,435.33333333333,694,433,692.66666666667,389,717,391.33333333333"></polygon>
		<polygon data-id="31" data-sec="1" data-build="1" data-floor="3" class="s3d-svg__house js-s3d-svg__house" points="855.66666666667,706.66666666667,855.66666666667,770.33333333333,1006.3333333333,793.66666666667,1010.3333333333,730.33333333333"></polygon>
		<polygon data-id="32" data-sec="1" data-build="1" data-floor="3" class="s3d-svg__house js-s3d-svg__house" points="856,706.33333333333,856,769,729.33333333333,750.66666666667,727,689"></polygon>
		<polygon data-id="39" data-sec="1" data-build="1" data-floor="5" class="s3d-svg__house js-s3d-svg__house" points="854.66666666667,590,853.66666666667,649,1010,670,1011.3333333333,608.66666666667,972.33333333333,603.33333333333,898,594.66666666667"></polygon>
		<polygon data-id="44" data-sec="1" data-build="1" data-floor="6" class="s3d-svg__house js-s3d-svg__house" points="724.66666666667,514,726,573.33333333333,855.66666666667,589,857.33333333333,529,840.66666666667,526,759,517.33333333333"></polygon>
		<polygon data-id="48" data-sec="1" data-build="1" data-floor="7" class="s3d-svg__house js-s3d-svg__house" points="720,453.33333333333,721.33333333333,512.66666666667,710,511.33333333333,703,510.33333333333,697.33333333333,509,692.33333333333,507.33333333333,689,504,688.33333333333,499.66666666667,687.33333333333,496.33333333333,689.66666666667,493.66666666667,694,492,694.66666666667,451"></polygon>
		<polygon data-id="52" data-sec="1" data-build="1" data-floor="9" class="s3d-svg__house js-s3d-svg__house" points="859.33333333333,267.33333333333,859.66666666667,341.33333333333,1020,352.66666666667,1021,419,1056,422.33333333333,1064,422.66666666667,1068.3333333333,422.66666666667,1073.3333333333,422,1080.6666666667,422.33333333333,1087,420.33333333333,1184.3333333333,379.33333333333,1190,377.66666666667,1192,374.33333333333,1191.3333333333,369.33333333333,1192,367.66666666667,1191,365,1187.3333333333,364.66666666667,1185,364,1185.6666666667,319,1188.3333333333,316.66666666667,1191,316.33333333333,1192.3333333333,315,1193,311.66666666667,1192.3333333333,308,1191.6666666667,305.33333333333,1188.6666666667,304,1187.3333333333,303.33333333333,1189.6666666667,283.33333333333,1184.6666666667,281,1178.6666666667,280.66666666667,1179.6666666667,251.66666666667,1094,280.33333333333,1079.3333333333,280.66666666667,1062.3333333333,280.66666666667"></polygon>
		<polygon data-id="53" data-sec="1" data-build="1" data-floor="9" class="s3d-svg__house js-s3d-svg__house" points="717.33333333333,329.66666666667,718.66666666667,392,1020,418.66666666667,1020,352.66666666667,859,340.66666666667,805.33333333333,336,761.33333333333,332.66666666667"></polygon>
		<polygon data-id="54" data-sec="1" data-build="1" data-floor="9" class="s3d-svg__house js-s3d-svg__house" points="859.33333333333,267.33333333333,859.66666666667,339.66666666667,717.33333333333,329,719,391,701.33333333333,390,693.66666666667,388.33333333333,688,387,684.66666666667,386,683.66666666667,385,683.66666666667,382.66666666667,683.33333333333,377,683.66666666667,375,687.66666666667,374.33333333333,692,373,690.66666666667,327.33333333333,686.33333333333,325.66666666667,683.33333333333,325.33333333333,681.33333333333,323.33333333333,682.66666666667,320.33333333333,683.66666666667,319.33333333333,684.33333333333,317,681.66666666667,317,680.66666666667,313.66666666667,684.66666666667,311.33333333333,688,311.33333333333,687.66666666667,255.66666666667"></polygon>
		</svg>