<svg  viewBox="0 0 1920 1080" version="1.0" xmlns="http://www.w3.org/2000/svg"  preserveAspectRatio="xMidYMid slice">
		<polygon data-id="30" data-sec="1" data-build="1" data-floor="3" class="s3d-svg__house js-s3d-svg__house" points="1042.3333333333,695.33333333333,1041,757.33333333333,961.66666666667,790.66666666667,955.66666666667,793.66666666667,951.33333333333,794.33333333333,948,794.66666666667,945.33333333333,795,940.66666666667,795.33333333333,934.66666666667,795.33333333333,928,794.66666666667,749,752.66666666667,745.33333333333,749,747,745.66666666667,748.33333333333,743.66666666667,749,740.66666666667,746,739,745,736.33333333333,745.66666666667,733.66666666667,747.66666666667,732.33333333333,748.33333333333,731.33333333333,751.33333333333,730.66666666667,752.66666666667,730.66666666667,753.33333333333,730.66666666667,753.66666666667,692.33333333333,923.33333333333,728.33333333333,933.66666666667,729.33333333333,939,730,943.33333333333,730,946.33333333333,730,951,730.33333333333,959.66666666667,728,1040,695.66666666667"></polygon>
		<polygon data-id="33" data-sec="1" data-build="1" data-floor="3" class="s3d-svg__house js-s3d-svg__house" points="1079.6666666667,678.33333333333,1081.6666666667,741.66666666667,1094.6666666667,737,1160,710.33333333333,1174.6666666667,704.66666666667,1181,700.33333333333,1182.3333333333,698,1181,695,1180.3333333333,693,1180.6666666667,691.33333333333,1181.6666666667,689.33333333333,1183,689.33333333333,1183.3333333333,686.66666666667,1181.6666666667,684.33333333333,1178.6666666667,682.66666666667,1175.3333333333,681,1176.3333333333,645.33333333333"></polygon>
		<polygon data-id="34" data-sec="1" data-build="1" data-floor="4" class="s3d-svg__house js-s3d-svg__house" points="1042.6666666667,636.33333333333,1041.6666666667,693.66666666667,970.66666666667,722.33333333333,962,725.33333333333,959.33333333333,727,956.33333333333,727.33333333333,954,728.33333333333,951,729,949.66666666667,729,946.33333333333,729.33333333333,940.33333333333,729,934.33333333333,729,923.33333333333,727,750,691,745,688.66666666667,743.66666666667,686.66666666667,743.66666666667,684,744.33333333333,681.66666666667,743.33333333333,679,743,677.33333333333,744,675,748.33333333333,671.33333333333,751.66666666667,670.33333333333,752.33333333333,633.66666666667,913.33333333333,663.66666666667,928,666.66666666667,934.33333333333,667.33333333333,940.66666666667,667.66666666667,946.66666666667,667.66666666667,956,666.66666666667,963.33333333333,664.33333333333"></polygon>
		<polygon data-id="37" data-sec="1" data-build="1" data-floor="4" class="s3d-svg__house js-s3d-svg__house" points="1080.3333333333,621.33333333333,1079.3333333333,678,1178.6666666667,644.33333333333,1181,643.33333333333,1183.3333333333,641.66666666667,1183.3333333333,640.66666666667,1183.3333333333,639.33333333333,1183.3333333333,638.66666666667,1183,637.33333333333,1183,633.66666666667,1183,633.33333333333,1182,631.33333333333,1180,630.33333333333,1176,629,1175.3333333333,628.66666666667,1176.6666666667,590.66666666667,1176,589.66666666667,1134,603.33333333333"></polygon>
		<polygon data-id="38" data-sec="1" data-build="1" data-floor="5" class="s3d-svg__house js-s3d-svg__house" points="1042,576.33333333333,1042.6666666667,635.66666666667,965.66666666667,663,960.33333333333,665.33333333333,954.33333333333,666.66666666667,946.33333333333,666.66666666667,932.33333333333,666.66666666667,913.33333333333,663,748.33333333333,632.33333333333,744,631,744,629.33333333333,744,627.33333333333,744.33333333333,623.66666666667,744.33333333333,620,745.33333333333,616.66666666667,746.33333333333,615.66666666667,747.66666666667,614.33333333333,750.33333333333,613.33333333333,750.66666666667,573.66666666667,926,604.66666666667,937,605.66666666667,946.33333333333,605.66666666667,955.33333333333,604.66666666667,965,601.66666666667,1030.3333333333,579.33333333333,1040.3333333333,576.66666666667"></polygon>
		<polygon data-id="41" data-sec="1" data-build="1" data-floor="5" class="s3d-svg__house js-s3d-svg__house" points="1080.6666666667,566,1080.6666666667,620,1179.3333333333,587.66666666667,1182,586.66666666667,1183.6666666667,583.66666666667,1185.6666666667,580.66666666667,1185.6666666667,578,1185,576.66666666667,1182.3333333333,574.66666666667,1179.3333333333,574,1178.6666666667,573.66666666667,1176.6666666667,574.66666666667,1174.6666666667,536.33333333333"></polygon>
		<polygon data-id="42" data-sec="1" data-build="1" data-floor="6" class="s3d-svg__house js-s3d-svg__house" points="1044,514.33333333333,1041.3333333333,575,958,602.66666666667,942.33333333333,604.66666666667,924.66666666667,604.33333333333,746,572.66666666667,741.33333333333,570.33333333333,740.66666666667,569.33333333333,740.66666666667,566.66666666667,741,560.33333333333,743.33333333333,558,746.66666666667,556,748.66666666667,555,749.33333333333,513.33333333333,922.66666666667,541,944.66666666667,542,958,539.66666666667,975.66666666667,533.66666666667,1015.6666666667,522.33333333333,1039.6666666667,515.33333333333"></polygon>
		<polygon data-id="45" data-sec="1" data-build="1" data-floor="6" class="s3d-svg__house js-s3d-svg__house" points="1082,505,1081.3333333333,564.66666666667,1180.3333333333,533.66666666667,1182.6666666667,533,1186,531.66666666667,1187.3333333333,529.33333333333,1187.3333333333,525.33333333333,1187,522.66666666667,1183.3333333333,521,1177,522,1175,522.66666666667,1175,480.66666666667"></polygon>
		<polygon data-id="46" data-sec="1" data-build="1" data-floor="7" class="s3d-svg__house js-s3d-svg__house" points="1044,455.33333333333,1043.6666666667,513,958.33333333333,538,944.66666666667,540.33333333333,922.66666666667,538.66666666667,746,511.66666666667,742.33333333333,511,740,509.66666666667,739.66666666667,507.33333333333,741.66666666667,505.33333333333,740.66666666667,502.33333333333,739.66666666667,500.33333333333,741,498.66666666667,745,496.33333333333,747.33333333333,496,747,452,741,450.33333333333,738.66666666667,449.33333333333,738.33333333333,448.33333333333,738.66666666667,446.66666666667,741.33333333333,445.66666666667,920.66666666667,475.33333333333,941.66666666667,477,958.33333333333,474.33333333333"></polygon>
		<polygon data-id="48" data-sec="1" data-build="1" data-floor="7" class="s3d-svg__house js-s3d-svg__house" points="1081.6666666667,444.66666666667,1081.6666666667,504,1181.3333333333,477.33333333333,1184.3333333333,476.66666666667,1185.6666666667,476.33333333333,1187.6666666667,474.66666666667,1186.3333333333,471.33333333333,1186.6666666667,468.33333333333,1184.3333333333,466.66666666667,1181.6666666667,464.66666666667,1176,466,1174.3333333333,424"></polygon>
		<polygon data-id="49" data-sec="1" data-build="1" data-floor="8" class="s3d-svg__house js-s3d-svg__house" points="1046,386,1044,454.33333333333,958.66666666667,474.66666666667,946.33333333333,476.33333333333,938.66666666667,477,929,475.66666666667,921,474.66666666667,739.66666666667,443.66666666667,737.66666666667,442,737.33333333333,440.33333333333,738,439,743,437.66666666667,738.66666666667,389.33333333333,736.66666666667,388,736.66666666667,386,739.33333333333,384.66666666667,742,384.33333333333,932.66666666667,406.33333333333,944.33333333333,406,951.66666666667,406.33333333333,958.33333333333,405.33333333333"></polygon>
		<polygon data-id="51" data-sec="1" data-build="1" data-floor="8" class="s3d-svg__house js-s3d-svg__house" points="1083,380,1082.3333333333,442.66666666667,1180.6666666667,422,1185.3333333333,421,1188.6666666667,420,1189.3333333333,417.66666666667,1189.3333333333,411.66666666667,1186,409.33333333333,1180.6666666667,408.66666666667,1181,365.66666666667,1183.3333333333,365,1187,363.33333333333,1189.3333333333,362,1189,360,1188.3333333333,358"></polygon>
		<polygon data-id="52" data-sec="1" data-build="1" data-floor="9" class="s3d-svg__house js-s3d-svg__house" points="1044.5,259.5,1044.5,259.5,1045.5,385.5,1045.5,385.5,971,402.5,971,402.5,951,406,951,406,934,405.5,934,405.5,740.5,383,740.5,383,735.5,380,735.5,380,744.5,373.5,744.5,373.5,745.5,327,745.5,327,736,326,736,326,735,323,735,323,735.5,319,735.5,319,737.5,316.5,737.5,316.5,743,313,743,313,744.5,258,744.5,258,913.5,269.5,913.5,269.5,933.5,269.5,933.5,269.5,969,268.5,969,268.5"></polygon>
		<polygon data-id="54" data-sec="1" data-build="1" data-floor="9" class="s3d-svg__house js-s3d-svg__house" points="1085,255,1085,255,1084,379,1084,379,1135,368.5,1135,368.5,1185.5,358,1185.5,358,1190.5,354,1190.5,354,1183,353,1183,353,1183.5,307.5,1183.5,307.5,1189,305,1189,305,1192,305,1192,305,1191.5,296,1191.5,296,1193,276.5,1193,276.5,1192,238,1192,238,1085,252.5,1085,252.5"></polygon>
		</svg>