<svg preserveAspectRatio="xMidYMid slice" id="floor--svg"  viewBox="0 0 1920 1080" version="1.0" xmlns="http://www.w3.org/2000/svg"><polygon data-id="406" data-sec="8" data-build="8" data-floor="9" class="s3d-svg__house js-s3d-svg__house" points="867.5,328.75,867.5,328.75,867.25,421.5,867.25,421.5,878,421,878,421,878.25,326,878.25,326"></polygon><polygon data-id="407" data-sec="8" data-build="8" data-floor="9" class="s3d-svg__house js-s3d-svg__house" points="776.25,307,776.25,307,775.25,405.5,775.25,405.5,854.25,416.75,854.25,416.75,854.25,322.25,854.25,322.25"></polygon><polygon data-id="401" data-sec="8" data-build="8" data-floor="9" class="s3d-svg__house js-s3d-svg__house" points="776,306.75,776,306.75,774.75,405.5,774.75,405.5,735.25,401.75,735.25,401.75,729.75,403.25,729.75,403.25,729.75,302.25,729.75,302.25,735.25,299.25,735.25,299.25"></polygon><polygon data-id="399" data-sec="8" data-build="8" data-floor="8" class="s3d-svg__house js-s3d-svg__house" points="867,422.5,867,422.5,868.25,460,868.25,460,877.25,458.75,877.25,458.75,878,421.75,878,421.75"></polygon><polygon data-id="400" data-sec="8" data-build="8" data-floor="8" class="s3d-svg__house js-s3d-svg__house" points="774.5,405.75,774.5,405.75,773.75,446.25,773.75,446.25,854.25,453,854.25,453,854,418.25,854,418.25,854,417,854,417"></polygon><polygon data-id="394" data-sec="8" data-build="8" data-floor="8" class="s3d-svg__house js-s3d-svg__house" points="774.75,405.75,774.75,405.75,774,446.5,774,446.5,735.25,444,735.25,444,730,444.5,730,444.5,729.5,404,729.5,404,734.75,402.25,734.75,402.25"></polygon><polygon data-id="392" data-sec="8" data-build="8" data-floor="7" class="s3d-svg__house js-s3d-svg__house" points="867.5,460.25,867.5,460.25,868,492.75,868,492.75,877.75,492.75,877.75,492.75,878,459.5,878,459.5"></polygon><polygon data-id="393" data-sec="8" data-build="8" data-floor="7" class="s3d-svg__house js-s3d-svg__house" points="774.5,446.5,774.5,446.5,775.25,486.75,775.25,486.75,854,491.5,854,491.5,853.5,452.75,853.5,452.75"></polygon><polygon data-id="387" data-sec="8" data-build="8" data-floor="7" class="s3d-svg__house js-s3d-svg__house" points="774,446.25,774,446.25,775,486.5,775,486.5,736.5,484.25,736.5,484.25,730.25,484.75,730.25,484.75,729.25,445,729.25,445,734.5,444,734.5,444"></polygon><polygon data-id="385" data-sec="8" data-build="8" data-floor="6" class="s3d-svg__house js-s3d-svg__house" points="867.75,493,867.75,493,868.5,530.5,868.5,530.5,878.5,529.75,878.5,529.75,878.25,492,878.25,492"></polygon><polygon data-id="386" data-sec="8" data-build="8" data-floor="6" class="s3d-svg__house js-s3d-svg__house" points="775,486.25,775,486.25,774.5,524.75,774.5,524.75,854.5,528.25,854.5,528.25,854.25,492.5,854.25,492.5"></polygon><polygon data-id="380" data-sec="8" data-build="8" data-floor="6" class="s3d-svg__house js-s3d-svg__house" points="774.75,486,774.75,486,774.75,524.75,774.75,524.75,735.5,524.25,735.5,524.25,731,524.75,731,524.75,729.5,485.75,729.5,485.75,735.5,484,735.5,484"></polygon><polygon data-id="378" data-sec="8" data-build="8" data-floor="5" class="s3d-svg__house js-s3d-svg__house" points="868,530.5,868,530.5,868.5,567,868.5,567,878,567,878,567,878.25,530.5,878.25,530.5"></polygon><polygon data-id="379" data-sec="8" data-build="8" data-floor="5" class="s3d-svg__house js-s3d-svg__house" points="774.5,524.25,774.5,524.25,773.75,563.5,773.75,563.5,853.75,565.5,853.75,565.5,854.25,528,854.25,528"></polygon><polygon data-id="373" data-sec="8" data-build="8" data-floor="5" class="s3d-svg__house js-s3d-svg__house" points="774.5,524.5,774.5,524.5,774.25,563.75,774.25,563.75,735.75,564.5,735.75,564.5,730.25,564.5,730.25,564.5,729.75,525.25,729.75,525.25,735.75,523.75,735.75,523.75"></polygon><polygon data-id="371" data-sec="8" data-build="8" data-floor="4" class="s3d-svg__house js-s3d-svg__house" points="868,566.75,868,566.75,868.75,601.25,868.75,601.25,877.75,600.75,877.75,600.75,878,567.25,878,567.25"></polygon><polygon data-id="372" data-sec="8" data-build="8" data-floor="4" class="s3d-svg__house js-s3d-svg__house" points="774.75,563.25,774.75,563.25,775.5,601.5,775.5,601.5,853.5,601.75,853.5,601.75,854,565.75,854,565.75"></polygon><polygon data-id="366" data-sec="8" data-build="8" data-floor="4" class="s3d-svg__house js-s3d-svg__house" points="774,563.25,774,563.25,775.25,601.5,775.25,601.5,735.5,603.25,735.5,603.25,730.75,602.5,730.75,602.5,729.5,564.5,729.5,564.5,736,564.5,736,564.5"></polygon><polygon data-id="364" data-sec="8" data-build="8" data-floor="3" class="s3d-svg__house js-s3d-svg__house" points="868.25,602,868.25,602,869.25,638,869.25,638,878.25,640.25,878.25,640.25,877.75,601.5,877.75,601.5,868.5,600.5,868.5,600.5"></polygon><polygon data-id="365" data-sec="8" data-build="8" data-floor="3" class="s3d-svg__house js-s3d-svg__house" points="774.75,602.25,774.75,602.25,774.25,640.5,774.25,640.5,854.25,638.75,854.25,638.75,854,601.75,854,601.75"></polygon><polygon data-id="359" data-sec="8" data-build="8" data-floor="3" class="s3d-svg__house js-s3d-svg__house" points="774.75,601.75,774.75,601.75,774.25,641,774.25,641,735.75,642.75,735.75,642.75,729.75,642.5,729.75,642.5,730,602.5,730,602.5,734.75,603,734.75,603"></polygon><polygon data-id="357" data-sec="8" data-build="8" data-floor="2" class="s3d-svg__house js-s3d-svg__house" points="869.25,638.5,869.25,638.5,870,672.25,870,672.25,877,674,877,674,878,640,878,640"></polygon><polygon data-id="358" data-sec="8" data-build="8" data-floor="2" class="s3d-svg__house js-s3d-svg__house" points="774.75,640.25,774.75,640.25,774.5,680.25,774.5,680.25,854,675.25,854,675.25,853.75,638.25,853.75,638.25"></polygon><polygon data-id="352" data-sec="8" data-build="8" data-floor="2" class="s3d-svg__house js-s3d-svg__house" points="773.75,641,773.75,641,774.75,680.25,774.75,680.25,736.75,683.75,736.75,683.75,731,681.75,731,681.75,730,643.25,730,643.25,736,642,736,642"></polygon><polygon data-id="460" data-sec="9" data-build="9" data-floor="9" class="s3d-svg__house js-s3d-svg__house" points="729.66666666667,302.66666666667,729.66666666667,302.66666666667,730,404.33333333333,730,404.33333333333,689,400,689,400,689.33333333333,294,689.33333333333,294"></polygon><polygon data-id="461" data-sec="9" data-build="9" data-floor="9" class="s3d-svg__house js-s3d-svg__house" points="688.5,293.25,688.5,293.25,689,399.75,689,399.75,535.5,382.5,535.5,382.5,535.25,262.25,535.25,262.25"></polygon><polygon data-id="462" data-sec="9" data-build="9" data-floor="9" class="s3d-svg__house js-s3d-svg__house" points="481.25,251,481.25,251,481,369.5,481,369.5,281.75,345.25,281.75,345.25,281.5,292.75,281.5,292.75,354.25,304.75,354.25,304.75,356.5,227.25,356.5,227.25"></polygon><polygon data-id="456" data-sec="9" data-build="9" data-floor="9" class="s3d-svg__house js-s3d-svg__house" points="356.75,227.5,356.75,227.5,354.25,304.75,354.25,304.75,280.75,293.25,280.75,293.25,281.5,345.75,281.5,345.75,196,335,196,335,196.75,192,196.75,192,201,196.5,201,196.5"></polygon><polygon data-id="454" data-sec="9" data-build="9" data-floor="8" class="s3d-svg__house js-s3d-svg__house" points="480.75,369.75,480.75,369.75,480.5,417.25,480.5,417.25,358.25,407.75,358.25,407.75,357.75,354.75,357.75,354.75"></polygon><polygon data-id="455" data-sec="9" data-build="9" data-floor="8" class="s3d-svg__house js-s3d-svg__house" points="357.75,355,357.75,355,357.5,408.25,357.5,408.25,195,392.25,195,392.25,195,335.5,195,335.5"></polygon><polygon data-id="453" data-sec="9" data-build="9" data-floor="8" class="s3d-svg__house js-s3d-svg__house" points="535.25,382.75,535.25,382.75,535.5,424,535.5,424,689,440.25,689,440.25,688.5,399.5,688.5,399.5"></polygon><polygon data-id="452" data-sec="9" data-build="9" data-floor="8" class="s3d-svg__house js-s3d-svg__house" points="688.5,399.25,688.5,399.25,689,441,689,441,730,445,730,445,730.25,403.25,730.25,403.25"></polygon><polygon data-id="445" data-sec="9" data-build="9" data-floor="7" class="s3d-svg__house js-s3d-svg__house" points="688.5,441.25,688.5,441.25,688.75,474.25,688.75,474.25,688.75,483,688.75,483,725,484.25,725,484.25,729.25,484.5,729.25,484.5,730.5,444.75,730.5,444.75"></polygon><polygon data-id="446" data-sec="9" data-build="9" data-floor="7" class="s3d-svg__house js-s3d-svg__house" points="688.25,441,688.25,441,688.75,484,688.75,484,535,473.75,535,473.75,535,424.75,535,424.75"></polygon><polygon data-id="447" data-sec="9" data-build="9" data-floor="7" class="s3d-svg__house js-s3d-svg__house" points="479.75,417.75,479.75,417.75,479.75,465.25,479.75,465.25,357,457.25,357,457.25,357,407.5,357,407.5"></polygon><polygon data-id="448" data-sec="9" data-build="9" data-floor="7" class="s3d-svg__house js-s3d-svg__house" points="194.75,392.5,194.75,392.5,195.25,447,195.25,447,356.25,457.75,356.25,457.75,357.25,407,357.25,407"></polygon><polygon data-id="438" data-sec="9" data-build="9" data-floor="6" class="s3d-svg__house js-s3d-svg__house" points="688.5,483,688.5,483,687.75,521.5,687.75,521.5,730.25,523.5,730.25,523.5,729.75,485,729.75,485"></polygon><polygon data-id="439" data-sec="9" data-build="9" data-floor="6" class="s3d-svg__house js-s3d-svg__house" points="534.75,474.5,534.75,474.5,535.5,514.75,535.5,514.75,688.25,521.25,688.25,521.25,688.5,483.75,688.5,483.75"></polygon><polygon data-id="440" data-sec="9" data-build="9" data-floor="6" class="s3d-svg__house js-s3d-svg__house" points="479.75,465.25,479.75,465.25,480.25,512.25,480.25,512.25,355,509.25,355,509.25,355.75,457.25,355.75,457.25"></polygon><polygon data-id="441" data-sec="9" data-build="9" data-floor="6" class="s3d-svg__house js-s3d-svg__house" points="195.25,446.75,195.25,446.75,193.5,502.25,193.5,502.25,355,509,355,509,355.5,457,355.5,457"></polygon><polygon data-id="431" data-sec="9" data-build="9" data-floor="5" class="s3d-svg__house js-s3d-svg__house" points="688.25,521.75,688.25,521.75,688.25,565,688.25,565,729,566.5,729,566.5,729.75,524.5,729.75,524.5"></polygon><polygon data-id="432" data-sec="9" data-build="9" data-floor="5" class="s3d-svg__house js-s3d-svg__house" points="535.25,515.25,535.25,515.25,534.75,560.25,534.75,560.25,688.25,564.5,688.25,564.5,688.25,521,688.25,521"></polygon><polygon data-id="433" data-sec="9" data-build="9" data-floor="5" class="s3d-svg__house js-s3d-svg__house" points="479.75,513,479.75,513,479.5,559.75,479.5,559.75,354.5,559.75,354.5,559.75,354.5,509,354.5,509"></polygon><polygon data-id="434" data-sec="9" data-build="9" data-floor="5" class="s3d-svg__house js-s3d-svg__house" points="354.5,508.5,354.5,508.5,353.5,559,353.5,559,193.75,558.5,193.75,558.5,194,503,194,503"></polygon><polygon data-id="424" data-sec="9" data-build="9" data-floor="4" class="s3d-svg__house js-s3d-svg__house" points="688.25,564.75,688.25,564.75,688.75,598.5,688.75,598.5,688.75,602.25,688.75,602.25,729.5,603,729.5,603,729.25,565.75,729.25,565.75"></polygon><polygon data-id="425" data-sec="9" data-build="9" data-floor="4" class="s3d-svg__house js-s3d-svg__house" points="534.25,560.75,534.25,560.75,535,607,535,607,688.75,603.25,688.75,603.25,688.25,565,688.25,565"></polygon><polygon data-id="426" data-sec="9" data-build="9" data-floor="4" class="s3d-svg__house js-s3d-svg__house" points="479.25,560.25,479.25,560.25,479.25,611.25,479.25,611.25,354.25,613,354.25,613,353.75,559.25,353.75,559.25"></polygon><polygon data-id="427" data-sec="9" data-build="9" data-floor="4" class="s3d-svg__house js-s3d-svg__house" points="353.5,559.5,353.5,559.5,354.5,613.5,354.5,613.5,194.75,613,194.75,613,193.25,558.5,193.25,558.5"></polygon><polygon data-id="417" data-sec="9" data-build="9" data-floor="3" class="s3d-svg__house js-s3d-svg__house" points="688.75,603.5,688.75,603.5,688.5,644.75,688.5,644.75,729.5,642.75,729.5,642.75,729.75,602.25,729.75,602.25"></polygon><polygon data-id="418" data-sec="9" data-build="9" data-floor="3" class="s3d-svg__house js-s3d-svg__house" points="688.25,603.75,688.25,603.75,688.75,645.5,688.75,645.5,535.5,654.75,535.5,654.75,534.5,607.25,534.5,607.25"></polygon><polygon data-id="419" data-sec="9" data-build="9" data-floor="3" class="s3d-svg__house js-s3d-svg__house" points="479.25,611.5,479.25,611.5,479.75,657.25,479.75,657.25,355.5,663.25,355.5,663.25,354.5,613.25,354.5,613.25"></polygon><polygon data-id="420" data-sec="9" data-build="9" data-floor="3" class="s3d-svg__house js-s3d-svg__house" points="194,613.25,194,613.25,195.5,670,195.5,670,355.75,663,355.75,663,355,612.5,355,612.5"></polygon><polygon data-id="411" data-sec="9" data-build="9" data-floor="2" class="s3d-svg__house js-s3d-svg__house" points="688.25,645.25,688.25,645.25,689.5,684.75,689.5,684.75,731.5,682.5,731.5,682.5,730.25,643.25,730.25,643.25"></polygon><polygon data-id="412" data-sec="9" data-build="9" data-floor="2" class="s3d-svg__house js-s3d-svg__house" points="688.5,645,688.5,645,689.25,685.5,689.25,685.5,536,697.25,536,697.25,535,656,535,656"></polygon><polygon data-id="413" data-sec="9" data-build="9" data-floor="2" class="s3d-svg__house js-s3d-svg__house" points="479.75,657.75,479.75,657.75,479.5,701.5,479.5,701.5,287,716.25,287,716.25,286.5,666.5,286.5,666.5"></polygon><polygon data-id="508" data-sec="10" data-build="10" data-floor="8" class="s3d-svg__house js-s3d-svg__house" points="114.75,329.5,114.75,329.5,115,376.75,115,376.75,114.5,388.75,114.5,388.75,195,398.75,195,398.75,194.25,340.25,194.25,340.25"></polygon><polygon data-id="509" data-sec="10" data-build="10" data-floor="8" class="s3d-svg__house js-s3d-svg__house" points="114.25,329.5,114.25,329.5,115,389,115,389,0.25,378.25,0.25,378.25,0.5,314.5,0.5,314.5"></polygon><polygon data-id="501" data-sec="10" data-build="10" data-floor="7" class="s3d-svg__house js-s3d-svg__house" points="114.75,388,114.75,388,114.25,444.25,114.25,444.25,195,450.25,195,450.25,194.75,399.5,194.75,399.5"></polygon><polygon data-id="502" data-sec="10" data-build="10" data-floor="7" class="s3d-svg__house js-s3d-svg__house" points="114.5,389.25,114.5,389.25,113.5,444.5,113.5,444.5,0.5,437.25,0.5,437.25,0.75,378.5,0.75,378.5"></polygon><polygon data-id="494" data-sec="10" data-build="10" data-floor="6" class="s3d-svg__house js-s3d-svg__house" points="114.25,445.25,114.25,445.25,114.25,504,114.25,504,194,507.5,194,507.5,195,451.25,195,451.25"></polygon><polygon data-id="495" data-sec="10" data-build="10" data-floor="6" class="s3d-svg__house js-s3d-svg__house" points="114,445,114,445,114.25,504.5,114.25,504.5,0.25,501.25,0.25,501.25,1,438.25,1,438.25"></polygon><polygon data-id="487" data-sec="10" data-build="10" data-floor="5" class="s3d-svg__house js-s3d-svg__house" points="114.25,505,114.25,505,114.5,562.25,114.5,562.25,192.75,563,192.75,563,193.75,507.25,193.75,507.25"></polygon><polygon data-id="488" data-sec="10" data-build="10" data-floor="5" class="s3d-svg__house js-s3d-svg__house" points="114,504.5,114,504.5,114.5,563,114.5,563,0,562.5,0,562.5,0.25,501.5,0.25,501.5"></polygon><polygon data-id="480" data-sec="10" data-build="10" data-floor="4" class="s3d-svg__house js-s3d-svg__house" points="114.5,562.75,114.5,562.75,114,614.75,114,614.75,114.25,621.75,114.25,621.75,194.25,619,194.25,619,193.25,563.25,193.25,563.25"></polygon><polygon data-id="481" data-sec="10" data-build="10" data-floor="4" class="s3d-svg__house js-s3d-svg__house" points="114.25,562.5,114.25,562.5,114.25,622.25,114.25,622.25,0.25,623.5,0.25,623.5,0.25,562.75,0.25,562.75"></polygon><polygon data-id="474" data-sec="10" data-build="10" data-floor="3" class="s3d-svg__house js-s3d-svg__house" points="114.25,622.25,114.25,622.25,115.25,678,115.25,678,1.25,684,1.25,684,0.5,624,0.5,624"></polygon><polygon data-id="473" data-sec="10" data-build="10" data-floor="3" class="s3d-svg__house js-s3d-svg__house" points="114.25,621.75,114.25,621.75,115,677.75,115,677.75,195,674.5,195,674.5,194.25,619.5,194.25,619.5"></polygon><polygon data-id="467" data-sec="10" data-build="10" data-floor="2" class="s3d-svg__house js-s3d-svg__house" points="114.75,678.5,114.75,678.5,114.5,732.25,114.5,732.25,0,738.75,0,738.75,0,684,0,684"></polygon><polygon data-id="466" data-sec="10" data-build="10" data-floor="2" class="s3d-svg__house js-s3d-svg__house" points="114.75,677.5,114.75,677.5,114.5,732.25,114.5,732.25,195.25,725.5,195.25,725.5,195.25,674.75,195.25,674.75"></polygon><polygon data-id="344" data-sec="7" data-build="7" data-floor="9" class="s3d-svg__house js-s3d-svg__house" points="878.25,311.75,878.25,311.75,878.25,414.25,878.25,414.25,933.5,403.5,933.5,403.5,934.25,294.5,934.25,294.5"></polygon><polygon data-id="345" data-sec="7" data-build="7" data-floor="9" class="s3d-svg__house js-s3d-svg__house" points="933.5,293.25,933.5,293.25,933.25,403.25,933.25,403.25,995.25,392,995.25,392,997.25,273.25,997.25,273.25"></polygon><polygon data-id="346" data-sec="7" data-build="7" data-floor="9" class="s3d-svg__house js-s3d-svg__house" points="1027.75,262,1027.75,262,1028,385.25,1028,385.25,1141,363.25,1141,363.25,1139.5,225.5,1139.5,225.5"></polygon><polygon data-id="347" data-sec="7" data-build="7" data-floor="9" class="s3d-svg__house js-s3d-svg__house" points="1139,225.25,1139,225.25,1141,363.25,1141,363.25,1178.75,356,1178.75,356,1178.75,213,1178.75,213"></polygon><polygon data-id="339" data-sec="7" data-build="7" data-floor="8" class="s3d-svg__house js-s3d-svg__house" points="877.5,415,877.5,415,878.5,453.75,878.5,453.75,934.25,445,934.25,445,933.5,403,933.5,403"></polygon><polygon data-id="338" data-sec="7" data-build="7" data-floor="8" class="s3d-svg__house js-s3d-svg__house" points="933.25,403.5,933.25,403.5,934.5,446,934.5,446,997,436.25,997,436.25,995.5,392.5,995.5,392.5"></polygon><polygon data-id="337" data-sec="7" data-build="7" data-floor="8" class="s3d-svg__house js-s3d-svg__house" points="1027.75,385.5,1027.75,385.5,1028,431,1028,431,1141,414.25,1141,414.25,1140.5,363.25,1140.5,363.25"></polygon><polygon data-id="336" data-sec="7" data-build="7" data-floor="8" class="s3d-svg__house js-s3d-svg__house" points="1140.75,363,1140.75,363,1140.75,414.75,1140.75,414.75,1179.25,408.5,1179.25,408.5,1178,356,1178,356"></polygon><polygon data-id="331" data-sec="7" data-build="7" data-floor="7" class="s3d-svg__house js-s3d-svg__house" points="877.75,453.5,877.75,453.5,878.25,492.75,878.25,492.75,933.25,487,933.25,487,933.25,445.75,933.25,445.75"></polygon><polygon data-id="330" data-sec="7" data-build="7" data-floor="7" class="s3d-svg__house js-s3d-svg__house" points="933.75,445.75,933.75,445.75,933.5,486.75,933.5,486.75,996.75,480.75,996.75,480.75,996.75,436.5,996.75,436.5"></polygon><polygon data-id="329" data-sec="7" data-build="7" data-floor="7" class="s3d-svg__house js-s3d-svg__house" points="1027.75,431.25,1027.75,431.25,1027.5,476.75,1027.5,476.75,1140.75,465.75,1140.75,465.75,1140.25,414.5,1140.25,414.5"></polygon><polygon data-id="328" data-sec="7" data-build="7" data-floor="7" class="s3d-svg__house js-s3d-svg__house" points="1140,414.5,1140,414.5,1140.75,465.5,1140.75,465.5,1178.25,461.25,1178.25,461.25,1179.25,409.25,1179.25,409.25"></polygon><polygon data-id="323" data-sec="7" data-build="7" data-floor="6" class="s3d-svg__house js-s3d-svg__house" points="877.75,493,877.75,493,878.25,530.25,878.25,530.25,935.25,526.75,935.25,526.75,933.75,487.5,933.75,487.5"></polygon><polygon data-id="322" data-sec="7" data-build="7" data-floor="6" class="s3d-svg__house js-s3d-svg__house" points="934,487,934,487,934.25,527.5,934.25,527.5,996.25,523.5,996.25,523.5,995.75,481.25,995.75,481.25"></polygon><polygon data-id="321" data-sec="7" data-build="7" data-floor="6" class="s3d-svg__house js-s3d-svg__house" points="1027,476.75,1027,476.75,1028,521.75,1028,521.75,1141.25,516.5,1141.25,516.5,1140.25,465.75,1140.25,465.75"></polygon><polygon data-id="320" data-sec="7" data-build="7" data-floor="6" class="s3d-svg__house js-s3d-svg__house" points="1140.5,465.75,1140.5,465.75,1142,517,1142,517,1178.75,514,1178.75,514,1178.5,461.5,1178.5,461.5"></polygon><polygon data-id="315" data-sec="7" data-build="7" data-floor="5" class="s3d-svg__house js-s3d-svg__house" points="878.5,530,878.5,530,878.25,569.75,878.25,569.75,934.25,568,934.25,568,934.75,527.25,934.75,527.25"></polygon><polygon data-id="314" data-sec="7" data-build="7" data-floor="5" class="s3d-svg__house js-s3d-svg__house" points="934.25,527,934.25,527,934.25,569,934.25,569,996.5,567.25,996.5,567.25,995.5,523,995.5,523"></polygon><polygon data-id="313" data-sec="7" data-build="7" data-floor="5" class="s3d-svg__house js-s3d-svg__house" points="1028,522,1028,522,1028.25,567.75,1028.25,567.75,1141,566.75,1141,566.75,1140.75,516.25,1140.75,516.25"></polygon><polygon data-id="312" data-sec="7" data-build="7" data-floor="5" class="s3d-svg__house js-s3d-svg__house" points="1140.75,516,1140.75,516,1141.25,567.5,1141.25,567.5,1179.25,566.5,1179.25,566.5,1178.75,514.5,1178.75,514.5"></polygon><polygon data-id="307" data-sec="7" data-build="7" data-floor="4" class="s3d-svg__house js-s3d-svg__house" points="877.75,570.25,877.75,570.25,877.75,606.75,877.75,606.75,934,607.25,934,607.25,934.5,568.25,934.5,568.25"></polygon><polygon data-id="306" data-sec="7" data-build="7" data-floor="4" class="s3d-svg__house js-s3d-svg__house" points="934,568.25,934,568.25,934.25,607.25,934.25,607.25,996,609.75,996,609.75,996.5,567,996.5,567"></polygon><polygon data-id="305" data-sec="7" data-build="7" data-floor="4" class="s3d-svg__house js-s3d-svg__house" points="1028.25,568.25,1028.25,568.25,1028.25,612.5,1028.25,612.5,1141.25,617.75,1141.25,617.75,1140.5,567.5,1140.5,567.5"></polygon><polygon data-id="304" data-sec="7" data-build="7" data-floor="4" class="s3d-svg__house js-s3d-svg__house" points="1140.5,567.25,1140.5,567.25,1141.5,618,1141.5,618,1179,618.75,1179,618.75,1179,567,1179,567"></polygon><polygon data-id="299" data-sec="7" data-build="7" data-floor="3" class="s3d-svg__house js-s3d-svg__house" points="877.75,607,877.75,607,877.5,644.75,877.5,644.75,934,650.75,934,650.75,933.75,607,933.75,607"></polygon><polygon data-id="298" data-sec="7" data-build="7" data-floor="3" class="s3d-svg__house js-s3d-svg__house" points="934,607.5,934,607.5,933.75,651,933.75,651,997,656,997,656,996,610,996,610"></polygon><polygon data-id="297" data-sec="7" data-build="7" data-floor="3" class="s3d-svg__house js-s3d-svg__house" points="1028,612.75,1028,612.75,1028.5,659.25,1028.5,659.25,1139.5,668.5,1139.5,668.5,1140.75,618.25,1140.75,618.25"></polygon><polygon data-id="296" data-sec="7" data-build="7" data-floor="3" class="s3d-svg__house js-s3d-svg__house" points="1141,617.5,1141,617.5,1139.5,669.25,1139.5,669.25,1178.75,672,1178.75,672,1179.25,618.75,1179.25,618.75"></polygon><polygon data-id="288" data-sec="7" data-build="7" data-floor="2" class="s3d-svg__house js-s3d-svg__house" points="1139.25,669.5,1139.25,669.5,1139.25,712.75,1139.25,712.75,1177.75,720.25,1177.75,720.25,1179.5,672.25,1179.5,672.25"></polygon><polygon data-id="291" data-sec="7" data-build="7" data-floor="2" class="s3d-svg__house js-s3d-svg__house" points="877.5,645.5,877.5,645.5,877.75,679.75,877.75,679.75,933.5,686.5,933.5,686.5,933.75,651.5,933.75,651.5"></polygon><polygon data-id="290" data-sec="7" data-build="7" data-floor="2" class="s3d-svg__house js-s3d-svg__house" points="933.75,651,933.75,651,933,687.25,933,687.25,996.25,692.75,996.25,692.75,997,656,997,656"></polygon><polygon data-id="289" data-sec="7" data-build="7" data-floor="2" class="s3d-svg__house js-s3d-svg__house" points="1028,659.75,1028,659.75,1028.5,697,1028.5,697,1139.5,712.25,1139.5,712.25,1139,669.75,1139,669.75"></polygon><polygon data-id="280" data-sec="6" data-build="6" data-floor="9" class="s3d-svg__house js-s3d-svg__house" points="1178.25,193.5,1178.25,193.5,1178.5,345.25,1178.5,345.25,1291.75,320.25,1291.75,320.25,1293.75,153.5,1293.75,153.5"></polygon><polygon data-id="281" data-sec="6" data-build="6" data-floor="9" class="s3d-svg__house js-s3d-svg__house" points="1293.75,153.25,1293.75,153.25,1292,320.75,1292,320.75,1439.5,289.75,1439.5,289.75,1441.25,290.25,1441.25,290.25,1441.75,103,1441.75,103"></polygon><polygon data-id="282" data-sec="6" data-build="6" data-floor="9" class="s3d-svg__house js-s3d-svg__house" points="1502,80,1502,80,1503.25,275,1503.25,275,1779.25,217.5,1779.25,217.5,1782,1.75,1782,1.75,1736.5,0.75,1736.5,0.75"></polygon><polygon data-id="283" data-sec="6" data-build="6" data-floor="9" class="s3d-svg__house js-s3d-svg__house" points="1779,218.25,1779,218.25,1781.5,0.75,1781.5,0.75,1919.75,0.75,1919.75,0.75,1919.75,188.5,1919.75,188.5"></polygon><polygon data-id="275" data-sec="6" data-build="6" data-floor="8" class="s3d-svg__house js-s3d-svg__house" points="1292.25,320.75,1292.25,320.75,1293.5,376.25,1293.5,376.25,1178.25,395.25,1178.25,395.25,1178.75,345.5,1178.75,345.5"></polygon><polygon data-id="274" data-sec="6" data-build="6" data-floor="8" class="s3d-svg__house js-s3d-svg__house" points="1291.75,320.75,1291.75,320.75,1293,376.75,1293,376.75,1441.25,352.25,1441.25,352.25,1440.75,290.75,1440.75,290.75"></polygon><polygon data-id="273" data-sec="6" data-build="6" data-floor="8" class="s3d-svg__house js-s3d-svg__house" points="1502.75,275,1502.75,275,1503.5,347.25,1503.5,347.25,1778.5,304,1778.5,304,1778.75,217.75,1778.75,217.75"></polygon><polygon data-id="272" data-sec="6" data-build="6" data-floor="8" class="s3d-svg__house js-s3d-svg__house" points="1778.5,218,1778.5,218,1778.25,305.25,1778.25,305.25,1918.5,282,1918.5,282,1919.5,188.25,1919.5,188.25"></polygon><polygon data-id="267" data-sec="6" data-build="6" data-floor="7" class="s3d-svg__house js-s3d-svg__house" points="1292.75,377,1292.75,377,1292.5,442.75,1292.5,442.75,1179,451.75,1179,451.75,1178.5,394.75,1178.5,394.75"></polygon><polygon data-id="266" data-sec="6" data-build="6" data-floor="7" class="s3d-svg__house js-s3d-svg__house" points="1292.5,377,1292.5,377,1292.25,442.5,1292.25,442.5,1441.25,427.25,1441.25,427.25,1441.5,352,1441.5,352"></polygon><polygon data-id="265" data-sec="6" data-build="6" data-floor="7" class="s3d-svg__house js-s3d-svg__house" points="1503.25,347.5,1503.25,347.5,1503.25,420,1503.25,420,1777.5,389,1777.5,389,1778.5,304.25,1778.5,304.25"></polygon><polygon data-id="264" data-sec="6" data-build="6" data-floor="7" class="s3d-svg__house js-s3d-svg__house" points="1778.25,304.5,1778.25,304.5,1778,389,1778,389,1919.75,374.5,1919.75,374.5,1918.5,282.25,1918.5,282.25"></polygon><polygon data-id="259" data-sec="6" data-build="6" data-floor="6" class="s3d-svg__house js-s3d-svg__house" points="1179,451.5,1179,451.5,1178.25,507,1178.25,507,1292.75,498.75,1292.75,498.75,1292.25,442.25,1292.25,442.25"></polygon><polygon data-id="258" data-sec="6" data-build="6" data-floor="6" class="s3d-svg__house js-s3d-svg__house" points="1292.25,441.75,1292.25,441.75,1292.5,499.75,1292.5,499.75,1441,495,1441,495,1440.75,427.5,1440.75,427.5"></polygon><polygon data-id="257" data-sec="6" data-build="6" data-floor="6" class="s3d-svg__house js-s3d-svg__house" points="1503,420.25,1503,420.25,1504.25,491.25,1504.25,491.25,1777.25,474.75,1777.25,474.75,1777.25,389,1777.25,389"></polygon><polygon data-id="256" data-sec="6" data-build="6" data-floor="6" class="s3d-svg__house js-s3d-svg__house" points="1777.75,388.75,1777.75,388.75,1777,474.75,1777,474.75,1919.5,466,1919.5,466,1919,374.75,1919,374.75"></polygon><polygon data-id="251" data-sec="6" data-build="6" data-floor="5" class="s3d-svg__house js-s3d-svg__house" points="1178,507.25,1178,507.25,1179,567.75,1179,567.75,1291.75,564.5,1291.75,564.5,1291.75,499.5,1291.75,499.5"></polygon><polygon data-id="250" data-sec="6" data-build="6" data-floor="5" class="s3d-svg__house js-s3d-svg__house" points="1292.5,499,1292.5,499,1292,565.25,1292,565.25,1441,562.25,1441,562.25,1440.75,495.5,1440.75,495.5"></polygon><polygon data-id="249" data-sec="6" data-build="6" data-floor="5" class="s3d-svg__house js-s3d-svg__house" points="1503.5,491.25,1503.5,491.25,1503.75,563.25,1503.75,563.25,1778.5,561,1778.5,561,1777.75,474.5,1777.75,474.5"></polygon><polygon data-id="248" data-sec="6" data-build="6" data-floor="5" class="s3d-svg__house js-s3d-svg__house" points="1776.75,475,1776.75,475,1778.75,560.25,1778.75,560.25,1919.75,558.5,1919.75,558.5,1919.5,465.75,1919.5,465.75"></polygon><polygon data-id="243" data-sec="6" data-build="6" data-floor="4" class="s3d-svg__house js-s3d-svg__house" points="1292,565,1292,565,1292,620.5,1292,620.5,1180.75,618,1180.75,618,1178.75,567,1178.75,567"></polygon><polygon data-id="242" data-sec="6" data-build="6" data-floor="4" class="s3d-svg__house js-s3d-svg__house" points="1291.75,564.75,1291.75,564.75,1292,621.25,1292,621.25,1440.75,624,1440.75,624,1441,562.25,1441,562.25"></polygon><polygon data-id="241" data-sec="6" data-build="6" data-floor="4" class="s3d-svg__house js-s3d-svg__house" points="1503.25,563.5,1503.25,563.5,1503.75,635,1503.75,635,1778.5,646.25,1778.5,646.25,1779.25,560.25,1779.25,560.25"></polygon><polygon data-id="240" data-sec="6" data-build="6" data-floor="4" class="s3d-svg__house js-s3d-svg__house" points="1778.75,561,1778.75,561,1778.5,646.5,1778.5,646.5,1919.75,650.25,1919.75,650.25,1919.5,558.75,1919.5,558.75,1779.5,560.5,1779.5,560.5"></polygon><polygon data-id="235" data-sec="6" data-build="6" data-floor="3" class="s3d-svg__house js-s3d-svg__house" points="1179,618.25,1179,618.25,1179.25,672,1179.25,672,1291.5,682.75,1291.5,682.75,1291.5,621.5,1291.5,621.5"></polygon><polygon data-id="234" data-sec="6" data-build="6" data-floor="3" class="s3d-svg__house js-s3d-svg__house" points="1291.5,621,1291.5,621,1292,683.5,1292,683.5,1440.5,698.5,1440.5,698.5,1441.25,624.25,1441.25,624.25"></polygon><polygon data-id="233" data-sec="6" data-build="6" data-floor="3" class="s3d-svg__house js-s3d-svg__house" points="1503,635.25,1503,635.25,1503,707,1503,707,1777.75,731.75,1777.75,731.75,1779.25,646.5,1779.25,646.5"></polygon><polygon data-id="232" data-sec="6" data-build="6" data-floor="3" class="s3d-svg__house js-s3d-svg__house" points="1778.75,646.25,1778.75,646.25,1778.25,732.25,1778.25,732.25,1918.75,744.25,1918.75,744.25,1919.5,650,1919.5,650"></polygon><polygon data-id="228" data-sec="6" data-build="6" data-floor="2" class="s3d-svg__house js-s3d-svg__house" points="1178.5,671.75,1178.5,671.75,1179,724.5,1179,724.5,1289.5,739.5,1289.5,739.5,1291.25,684.25,1291.25,684.25"></polygon><polygon data-id="227" data-sec="6" data-build="6" data-floor="2" class="s3d-svg__house js-s3d-svg__house" points="1290.75,683.75,1290.75,683.75,1290,739.25,1290,739.25,1440.5,758.75,1440.5,758.75,1440,699,1440,699"></polygon><polygon data-id="226" data-sec="6" data-build="6" data-floor="2" class="s3d-svg__house js-s3d-svg__house" points="1503,707.25,1503,707.25,1501.75,767.25,1501.75,767.25,1773,804.5,1773,804.5,1777.5,731.5,1777.5,731.5"></polygon><polygon data-id="661" data-sec="7" data-build="7" data-floor="1" class="s3d-svg__house js-s3d-svg__house" points="994.44444444444,695.55555555556,996.66666666667,750,933.33333333333,740,934.44444444444,688.88888888889"></polygon><polygon data-id="662" data-sec="7" data-build="7" data-floor="1" class="s3d-svg__house js-s3d-svg__house" points="877,680.66666666667,878.33333333333,729,933.66666666667,740.66666666667,933.33333333333,687.66666666667"></polygon><polygon data-id="660" data-sec="7" data-build="7" data-floor="1" class="s3d-svg__house js-s3d-svg__house" points="1027.6666666667,697,1029,753.66666666667,1131,776.33333333333,1130.6666666667,712.66666666667"></polygon><polygon data-id="659" data-sec="7" data-build="7" data-floor="1" class="s3d-svg__house js-s3d-svg__house" points="1131,711.66666666667,1130.6666666667,777.66666666667,1176.6666666667,792.66666666667,1178,720.33333333333"></polygon><polygon data-id="658" data-sec="6" data-build="6" data-floor="1" class="s3d-svg__house js-s3d-svg__house" points="1178.6666666667,725,1176,796.66666666667,1281.3333333333,817,1285.3333333333,740"></polygon><polygon data-id="657" data-sec="6" data-build="6" data-floor="1" class="s3d-svg__house js-s3d-svg__house" points="1285,740,1281.6666666667,817,1440.6666666667,847,1439.6666666667,758"></polygon><polygon data-id="656" data-sec="6" data-build="6" data-floor="1" class="s3d-svg__house js-s3d-svg__house" points="1502,767.66666666667,1500.6666666667,858.66666666667,1636,887,1638,786"></polygon></svg>