<svg viewBox="0 0 1920 1080" version="1.0" xmlns="http://www.w3.org/2000/svg" preserveAspectRatio="xMidYMid slice">
		<polygon data-id="30" data-sec="1" data-build="1" data-floor="3" class="s3d-svg__house js-s3d-svg__house" points="860.25,682,861.25,733.25,770.5,702.5,767.5,701.25,764.75,699.5,763.5,698,763,696.75,763,695,763,693.5,763.25,692,763.25,689.75,761.75,688.25,761.5,686.75,761.5,684.5,764.25,680,766.75,678.75,767.75,652.5"></polygon>
		<polygon data-id="33" data-sec="1" data-build="1" data-floor="3" class="s3d-svg__house js-s3d-svg__house" points="901.25,694.25,902.5,747,1037.5,795,1044.5,796.75,1050,796.75,1054.5,796.75,1059.75,796.25,1064.5,795,1069.25,792.25,1073,789.75,1179,673.5,1181.75,670.75,1182.5,668.5,1182.5,667,1182,665.5,1181.25,664,1181.25,662.25,1182.5,660.75,1183.5,659.25,1182.5,656.75,1181,655,1179.75,654.25,1181.5,624.75,1077.25,734.5,1074.75,737.25,1071.25,738.75,1067.75,739.75,1064.25,740.25,1059,741.75,1055,742,1049,742.5,1045,742.5,1040,740.5"></polygon>
		<polygon data-id="34" data-sec="1" data-build="1" data-floor="4" class="s3d-svg__house js-s3d-svg__house" points="859.75,633,860,681,766.75,651.75,763.25,649.75,761.5,648,761.25,645.5,761.5,642.5,760.5,638,760.25,635.25,761.5,633.25,764.75,631,765.5,605,818.5,620.25"></polygon>
		<polygon data-id="37" data-sec="1" data-build="1" data-floor="4" class="s3d-svg__house js-s3d-svg__house" points="900,645.5,901.75,693.5,1038.25,740.75,1044.75,741.75,1049.5,741.5,1052.75,741.5,1056,741,1060,741,1064,740,1066.75,739.5,1070.25,738.5,1072.5,737.75,1076.25,735,1183,623.25,1183.5,619.25,1183.25,617.5,1182.25,617.5,1182.5,578.75,1077.5,683.75,1074.25,686.5,1071.75,688.5,1068.5,689.5,1064.25,690.5,1060.75,692,1054.5,691.75,1048,691.75,1040.25,690.25,1032.5,687.75"></polygon>
		<polygon data-id="38" data-sec="1" data-build="1" data-floor="5" class="s3d-svg__house js-s3d-svg__house" points="858.25,583.75,859.75,631.75,765.5,603.75,760.75,602,758.5,599.25,758.25,595.75,758.25,594.5,758.25,591.75,757.25,589.5,758.5,585.5,760.75,582.75,763,582.75,763.75,556"></polygon>
		<polygon data-id="41" data-sec="1" data-build="1" data-floor="5" class="s3d-svg__house js-s3d-svg__house" points="900.75,596.25,900.5,644.75,1031,686.5,1037,688.5,1043,690,1049.25,691,1054,690.75,1058.25,691.25,1064.25,690,1068.5,689,1071.25,687.5,1074.25,686.75,1075.75,685,1184.5,576.75,1186.75,574.25,1187.5,572.75,1187.75,570,1187.75,567,1187.75,565.5,1187,561.75,1185.25,561.25,1184.75,531,1078.25,633,1074.5,635,1072.5,635.25,1069.75,636.75,1067.5,637,1063.75,637.75,1061.75,638.75,1058,639.75,1053.5,640,1048,639.5"></polygon>
		<polygon data-id="42" data-sec="1" data-build="1" data-floor="6" class="s3d-svg__house js-s3d-svg__house" points="857.25,531.75,858,583,763.75,555,759.25,553.75,757,550.25,755.75,547.25,755.75,545,755.75,543.5,755.75,541.25,756,538.75,757.25,536.75,758,535.25,761,534.25,760.25,506"></polygon>
		<polygon data-id="45" data-sec="1" data-build="1" data-floor="6" class="s3d-svg__house js-s3d-svg__house" points="899.75,543.75,900.75,595.25,1043.5,638.5,1050.25,638.75,1056.25,638.75,1060.5,638.25,1064.5,637.5,1068.75,637,1073.5,635.5,1077,633.5,1188.25,527.5,1190.25,524.75,1191.5,522.5,1192.25,519,1192.25,515,1191.5,512.5,1190.75,511,1189.5,509.5,1188.25,509.5,1187.5,509.5,1187,482.5,1079.75,578.75,1076.75,581.25,1072.5,583.75,1066,585.5,1060.25,586.75,1053.5,586.75,1049,586.75,1044.75,585.75,1040.5,585.5"></polygon>
		<polygon data-id="46" data-sec="1" data-build="1" data-floor="7" class="s3d-svg__house js-s3d-svg__house" points="856.25,480,856.75,531.25,759.75,505.25,755.5,502,753.5,499.75,753.25,498,754,494.5,753.75,492.5,754.25,489.25,755.25,487,757,485.25,758.75,485,760.25,455.75"></polygon>
		<polygon data-id="48" data-sec="1" data-build="1" data-floor="7" class="s3d-svg__house js-s3d-svg__house" points="898.5,492,899.75,542.5,1038.5,584,1044.5,584.75,1048.5,585.25,1052.5,585.25,1057.5,585.25,1062.75,585.25,1068.75,584.5,1074.75,582.25,1078.75,579.25,1190,479.5,1192,477.5,1192.75,475.5,1192,474,1192,472,1192.25,470.25,1192.5,468.5,1192,466.75,1190.75,465,1189.25,463.75,1189.5,432.25,1083.5,523,1079.25,527.5,1074.75,529,1070,530.75,1067.25,531.25,1061,532,1055.25,531.5,1049,531.25,1043,529.5"></polygon>
		<polygon data-id="49" data-sec="1" data-build="1" data-floor="8" class="s3d-svg__house js-s3d-svg__house" points="854.75,425,856,479,758.75,454.75,755.75,452.75,753.5,450.75,752.25,449.25,751.75,447.25,751.75,444.75,752,443.5,751.75,441.25,752,439,753.5,438.25,755,436.75,756.75,436,757.75,435.25,757,403"></polygon>
		<polygon data-id="51" data-sec="1" data-build="1" data-floor="8" class="s3d-svg__house js-s3d-svg__house" points="897.25,436.5,898.5,491,1044.25,529.5,1050.25,530.5,1056.5,530.5,1063.75,530.75,1071,529.5,1077,527.75,1083.25,523.25,1193.5,428.5,1194.5,426,1194.5,424.25,1194.25,423.25,1194.75,420.5,1194.5,417.5,1192.75,416,1191.5,414.75,1192.75,381.25,1089.25,463,1081.25,468.75,1080.5,470,1078,471.25,1076.25,472.75,1073.75,473.25,1071,474.25,1067.25,475.75,1064.75,475.5,1060.75,475.5,1055.75,475.75,1051.75,476.25"></polygon>
		<polygon data-id="52" data-sec="1" data-build="1" data-floor="9" class="s3d-svg__house js-s3d-svg__house" points="756.66666666667,289,853.66666666667,310.33333333333,853.66666666667,425.33333333333,758.66666666667,403,753.66666666667,401,751.66666666667,399.66666666667,751.33333333333,395.66666666667,750.66666666667,392.66666666667,750,391.33333333333,754,388.33333333333,756,385.66666666667,756.33333333333,350.33333333333,753.33333333333,349.33333333333,749.33333333333,346.33333333333,746.66666666667,344.33333333333,745.33333333333,341,745.66666666667,337.66666666667,746.66666666667,335.33333333333,749,332,751.33333333333,330.33333333333,752.33333333333,320.66666666667,750.66666666667,319.33333333333,749.33333333333,315.66666666667,752,313,754.33333333333,311.33333333333"></polygon>
		<polygon data-id="54" data-sec="1" data-build="1" data-floor="9" class="s3d-svg__house js-s3d-svg__house" points="897,320.33333333333,896.66666666667,372.66666666667,897,380,897,427.66666666667,897,436,1047.6666666667,474.66666666667,1053.3333333333,475,1058.6666666667,475.33333333333,1063.3333333333,474.33333333333,1067.6666666667,474,1072.3333333333,473.33333333333,1075.6666666667,472,1079.3333333333,469.66666666667,1196.3333333333,377.66666666667,1196.6666666667,375.66666666667,1196.6666666667,373.66666666667,1196.3333333333,372,1196.3333333333,370.33333333333,1197.6666666667,369,1195.3333333333,366.66666666667,1195.3333333333,365.33333333333,1193.6666666667,365,1194,329.66666666667,1195.6666666667,328,1198,326,1199.3333333333,324.66666666667,1199.3333333333,322,1198.3333333333,320.33333333333,1199.3333333333,318.33333333333,1199.3333333333,315.66666666667,1197.3333333333,314.33333333333,1196.3333333333,313.33333333333,1195.6666666667,313.33333333333,1198,269.66666666667,1116.3333333333,325.66666666667,1103.3333333333,335.66666666667,1091.6666666667,344,1087,346.33333333333,1082.6666666667,349,1078.6666666667,351,1073,352.66666666667,1066,353.66666666667,1058.3333333333,354"></polygon>
		</svg>