<svg preserveAspectRatio="xMidYMid slice" id="floor--svg"  viewBox="0 0 1920 1080" version="1.0" xmlns="http://www.w3.org/2000/svg"><polygon data-id="579" data-sec="12" data-build="12" data-floor="8" class="s3d-svg__house js-s3d-svg__house" points="537.5,278,537.5,278,358,231,358,231,191,263.5,191,263.5,191,331.5,191,331.5,357.5,305.5,357.5,305.5,535,342.5,535,342.5"></polygon><polygon data-id="578" data-sec="12" data-build="12" data-floor="8" class="s3d-svg__house js-s3d-svg__house" points="604,296,604,296,604,357.5,604,357.5,716,378.5,716,378.5,715.5,328,715.5,328"></polygon><polygon data-id="575" data-sec="12" data-build="12" data-floor="7" class="s3d-svg__house js-s3d-svg__house" points="190.5,333,190.5,333,357.5,307,357.5,307,534.5,343,534.5,343,534,402,534,402,357,378.5,357,378.5,191,397,191,397"></polygon><polygon data-id="574" data-sec="12" data-build="12" data-floor="7" class="s3d-svg__house js-s3d-svg__house" points="603.5,357,603.5,357,604,412,604,412,717,424.5,717,424.5,716,379,716,379"></polygon><polygon data-id="571" data-sec="12" data-build="12" data-floor="6" class="s3d-svg__house js-s3d-svg__house" points="191,398,191,398,357.5,379,357.5,379,534.5,404,534.5,404,535,461.5,535,461.5,357,449.5,357,449.5,192,457.5,192,457.5"></polygon><polygon data-id="570" data-sec="12" data-build="12" data-floor="6" class="s3d-svg__house js-s3d-svg__house" points="604.5,413,604.5,413,603.5,465.5,603.5,465.5,716.5,473,716.5,473,716,425,716,425"></polygon><polygon data-id="567" data-sec="12" data-build="12" data-floor="5" class="s3d-svg__house js-s3d-svg__house" points="534.5,462,534.5,462,534.5,520.5,534.5,520.5,358,515.5,358,515.5,190.5,520,190.5,520,192,458,192,458,357,450,357,450"></polygon><polygon data-id="566" data-sec="12" data-build="12" data-floor="5" class="s3d-svg__house js-s3d-svg__house" points="603.5,467,603.5,467,604,521,604,521,715.5,522,715.5,522,716,473.5,716,473.5"></polygon><polygon data-id="563" data-sec="12" data-build="12" data-floor="4" class="s3d-svg__house js-s3d-svg__house" points="534.5,521,534.5,521,534.5,579,534.5,579,358,584,358,584,191.5,583,191.5,583,190.5,520.5,190.5,520.5,356,516.5,356,516.5"></polygon><polygon data-id="562" data-sec="12" data-build="12" data-floor="4" class="s3d-svg__house js-s3d-svg__house" points="604,521.5,604,521.5,604,574.5,604,574.5,716.5,569.5,716.5,569.5,715,524.5,715,524.5,716,523.5,716,523.5,715.5,522.5,715.5,522.5"></polygon><polygon data-id="559" data-sec="12" data-build="12" data-floor="3" class="s3d-svg__house js-s3d-svg__house" points="535,579.5,535,579.5,535,639.5,535,639.5,359,658,359,658,190.5,650.5,190.5,650.5,191,584.5,191,584.5,357,584.5,357,584.5"></polygon><polygon data-id="558" data-sec="12" data-build="12" data-floor="3" class="s3d-svg__house js-s3d-svg__house" points="603.5,575,603.5,575,603,632,603,632,716.5,617.5,716.5,617.5,716,570,716,570"></polygon><polygon data-id="555" data-sec="12" data-build="12" data-floor="2" class="s3d-svg__house js-s3d-svg__house" points="534.5,640,534.5,640,535,692.5,535,692.5,358.5,721,358.5,721,191,697,191,697,190,650,190,650,357.5,659,357.5,659"></polygon><polygon data-id="554" data-sec="12" data-build="12" data-floor="2" class="s3d-svg__house js-s3d-svg__house" points="603.5,633,603.5,633,604.5,679.5,604.5,679.5,716,662,716,662,717,618,717,618"></polygon><polygon data-id="550" data-sec="11" data-build="11" data-floor="8" class="s3d-svg__house js-s3d-svg__house" points="715.33333333333,328,715.33333333333,328,715.66666666667,377.66666666667,715.66666666667,377.66666666667,762.66666666667,386,762.66666666667,386,762,339,762,339"></polygon><polygon data-id="549" data-sec="11" data-build="11" data-floor="8" class="s3d-svg__house js-s3d-svg__house" points="762,339.33333333333,762,339.33333333333,763,386.66666666667,763,386.66666666667,808.33333333333,395.66666666667,808.33333333333,395.66666666667,808,350.33333333333,808,350.33333333333"></polygon><polygon data-id="548" data-sec="11" data-build="11" data-floor="8" class="s3d-svg__house js-s3d-svg__house" points="840.66666666667,355.66666666667,840.66666666667,355.66666666667,840.33333333333,400.33333333333,840.33333333333,400.33333333333,901.66666666667,411.33333333333,901.66666666667,411.33333333333,901,371,901,371"></polygon><polygon data-id="544" data-sec="11" data-build="11" data-floor="7" class="s3d-svg__house js-s3d-svg__house" points="715.33333333333,379,715.33333333333,379,716,425,716,425,761,431.66666666667,761,431.66666666667,762,432,762,432,762.66666666667,386,762.66666666667,386"></polygon><polygon data-id="543" data-sec="11" data-build="11" data-floor="7" class="s3d-svg__house js-s3d-svg__house" points="762.66666666667,386.33333333333,762.66666666667,386.33333333333,762,432.66666666667,762,432.66666666667,805.33333333333,437.66666666667,805.33333333333,437.66666666667,808.33333333333,395.33333333333,808.33333333333,395.33333333333"></polygon><polygon data-id="542" data-sec="11" data-build="11" data-floor="7" class="s3d-svg__house js-s3d-svg__house" points="840.66666666667,401,840.66666666667,401,840.33333333333,442.33333333333,840.33333333333,442.33333333333,902.66666666667,451.66666666667,902.66666666667,451.66666666667,901.66666666667,411.33333333333,901.66666666667,411.33333333333"></polygon><polygon data-id="538" data-sec="11" data-build="11" data-floor="6" class="s3d-svg__house js-s3d-svg__house" points="716,425.33333333333,716,425.33333333333,716,474.33333333333,716,474.33333333333,760.66666666667,476.66666666667,760.66666666667,476.66666666667,761,433,761,433"></polygon><polygon data-id="537" data-sec="11" data-build="11" data-floor="6" class="s3d-svg__house js-s3d-svg__house" points="761,433,761,433,761.66666666667,476.66666666667,761.66666666667,476.66666666667,803,480,803,480,805,437,805,437"></polygon><polygon data-id="536" data-sec="11" data-build="11" data-floor="6" class="s3d-svg__house js-s3d-svg__house" points="840.33333333333,443,840.33333333333,443,841.33333333333,480.33333333333,841.33333333333,480.33333333333,902.66666666667,487,902.66666666667,487,903,451.33333333333,903,451.33333333333"></polygon><polygon data-id="532" data-sec="11" data-build="11" data-floor="5" class="s3d-svg__house js-s3d-svg__house" points="716.33333333333,474,716.33333333333,474,715.66666666667,520.66666666667,715.66666666667,520.66666666667,760.33333333333,522,760.33333333333,522,761.33333333333,477.66666666667,761.33333333333,477.66666666667"></polygon><polygon data-id="531" data-sec="11" data-build="11" data-floor="5" class="s3d-svg__house js-s3d-svg__house" points="761.33333333333,477.66666666667,761.33333333333,477.66666666667,759.66666666667,522.33333333333,759.66666666667,522.33333333333,800.33333333333,523.33333333333,800.33333333333,523.33333333333,803,481,803,481"></polygon><polygon data-id="530" data-sec="11" data-build="11" data-floor="5" class="s3d-svg__house js-s3d-svg__house" points="841,480.66666666667,841,480.66666666667,840.66666666667,521,840.66666666667,521,901.66666666667,524,901.66666666667,524,902.66666666667,487.33333333333,902.66666666667,487.33333333333"></polygon><polygon data-id="526" data-sec="11" data-build="11" data-floor="4" class="s3d-svg__house js-s3d-svg__house" points="715,522,715,522,716.33333333333,570.33333333333,716.33333333333,570.33333333333,759.33333333333,569,759.33333333333,569,760,522,760,522"></polygon><polygon data-id="525" data-sec="11" data-build="11" data-floor="4" class="s3d-svg__house js-s3d-svg__house" points="760,522,760,522,760,569.33333333333,760,569.33333333333,798.33333333333,567.33333333333,798.33333333333,567.33333333333,799.66666666667,524,799.66666666667,524"></polygon><polygon data-id="524" data-sec="11" data-build="11" data-floor="4" class="s3d-svg__house js-s3d-svg__house" points="840.33333333333,521.66666666667,840.33333333333,521.66666666667,841,561,841,561,902.33333333333,558,902.33333333333,558,902.33333333333,525,902.33333333333,525"></polygon><polygon data-id="520" data-sec="11" data-build="11" data-floor="3" class="s3d-svg__house js-s3d-svg__house" points="716,570,716,570,715.66666666667,614,715.66666666667,614,760.33333333333,609.66666666667,760.33333333333,609.66666666667,760,569.66666666667,760,569.66666666667"></polygon><polygon data-id="519" data-sec="11" data-build="11" data-floor="3" class="s3d-svg__house js-s3d-svg__house" points="759.66666666667,569.33333333333,759.66666666667,569.33333333333,759.66666666667,611.33333333333,759.66666666667,611.33333333333,800,607,800,607,799,568.33333333333,799,568.33333333333"></polygon><polygon data-id="518" data-sec="11" data-build="11" data-floor="3" class="s3d-svg__house js-s3d-svg__house" points="840.66666666667,561.66666666667,840.66666666667,561.66666666667,840.66666666667,602,840.66666666667,602,903,595.66666666667,903,595.66666666667,902.66666666667,559.33333333333,902.66666666667,559.33333333333"></polygon><polygon data-id="514" data-sec="11" data-build="11" data-floor="2" class="s3d-svg__house js-s3d-svg__house" points="715.33333333333,614,715.33333333333,614,715.66666666667,662.33333333333,715.66666666667,662.33333333333,760.33333333333,654.66666666667,760.33333333333,654.66666666667,760,611,760,611"></polygon><polygon data-id="513" data-sec="11" data-build="11" data-floor="2" class="s3d-svg__house js-s3d-svg__house" points="759.33333333333,610.66666666667,759.33333333333,610.66666666667,761,654.33333333333,761,654.33333333333,801.33333333333,647.66666666667,801.33333333333,647.66666666667,800,606.33333333333,800,606.33333333333"></polygon><polygon data-id="512" data-sec="11" data-build="11" data-floor="2" class="s3d-svg__house js-s3d-svg__house" points="840.33333333333,602.33333333333,840.33333333333,602.33333333333,841,641.33333333333,841,641.33333333333,902.33333333333,631,902.33333333333,631,903,596,903,596"></polygon><polygon data-id="510" data-sec="10" data-build="10" data-floor="8" class="s3d-svg__house js-s3d-svg__house" points="901,372,901,372,901.66666666667,412.66666666667,901.66666666667,412.66666666667,942.33333333333,419,942.33333333333,419,942,382.66666666667,942,382.66666666667"></polygon><polygon data-id="509" data-sec="10" data-build="10" data-floor="8" class="s3d-svg__house js-s3d-svg__house" points="971.33333333333,378.33333333333,971.33333333333,378.33333333333,971,404,971,404,970.66666666667,411.33333333333,970.66666666667,411.33333333333,1026,409.33333333333,1026,409.33333333333,1025,376,1025,376,1024.6666666667,375,1024.6666666667,375"></polygon><polygon data-id="508" data-sec="10" data-build="10" data-floor="8" class="s3d-svg__house js-s3d-svg__house" points="1025,376,1025,376,1025.6666666667,409.66666666667,1025.6666666667,409.66666666667,1072.3333333333,407.66666666667,1072.3333333333,407.66666666667,1072.6666666667,373.66666666667,1072.6666666667,373.66666666667"></polygon><polygon data-id="503" data-sec="10" data-build="10" data-floor="7" class="s3d-svg__house js-s3d-svg__house" points="901.66666666667,412.66666666667,901.66666666667,412.66666666667,902.33333333333,451,902.33333333333,451,941.66666666667,455.33333333333,941.66666666667,455.33333333333,942.66666666667,419,942.66666666667,419"></polygon><polygon data-id="502" data-sec="10" data-build="10" data-floor="7" class="s3d-svg__house js-s3d-svg__house" points="971,412.33333333333,971,412.33333333333,971.66666666667,450,971.66666666667,450,1025.6666666667,449,1025.6666666667,449,1025.6666666667,409.33333333333,1025.6666666667,409.33333333333"></polygon><polygon data-id="501" data-sec="10" data-build="10" data-floor="7" class="s3d-svg__house js-s3d-svg__house" points="1026,410,1026,410,1026,450,1026,450,1072,448,1072,448,1072,407.33333333333,1072,407.33333333333"></polygon><polygon data-id="496" data-sec="10" data-build="10" data-floor="6" class="s3d-svg__house js-s3d-svg__house" points="902.33333333333,451.33333333333,902.33333333333,451.33333333333,903,487.66666666667,903,487.66666666667,942,489.66666666667,942,489.66666666667,941.66666666667,455,941.66666666667,455"></polygon><polygon data-id="495" data-sec="10" data-build="10" data-floor="6" class="s3d-svg__house js-s3d-svg__house" points="971.33333333333,450.33333333333,971.33333333333,450.33333333333,971.66666666667,485,971.66666666667,485,1024.6666666667,485.33333333333,1024.6666666667,485.33333333333,1025.3333333333,449.66666666667,1025.3333333333,449.66666666667"></polygon><polygon data-id="494" data-sec="10" data-build="10" data-floor="6" class="s3d-svg__house js-s3d-svg__house" points="1025.3333333333,450,1025.3333333333,450,1025,486,1025,486,1072.6666666667,485.33333333333,1072.6666666667,485.33333333333,1072.3333333333,448.66666666667,1072.3333333333,448.66666666667"></polygon><polygon data-id="489" data-sec="10" data-build="10" data-floor="5" class="s3d-svg__house js-s3d-svg__house" points="902.33333333333,488,902.33333333333,488,901.66666666667,525,901.66666666667,525,941.33333333333,524.33333333333,941.33333333333,524.33333333333,942.33333333333,490.66666666667,942.33333333333,490.66666666667"></polygon><polygon data-id="488" data-sec="10" data-build="10" data-floor="5" class="s3d-svg__house js-s3d-svg__house" points="971.66666666667,485.66666666667,971.66666666667,485.66666666667,971.66666666667,523.33333333333,971.66666666667,523.33333333333,1024.6666666667,523.66666666667,1024.6666666667,523.66666666667,1024,485.66666666667,1024,485.66666666667"></polygon><polygon data-id="487" data-sec="10" data-build="10" data-floor="5" class="s3d-svg__house js-s3d-svg__house" points="1024.6666666667,485.66666666667,1024.6666666667,485.66666666667,1024.3333333333,524.66666666667,1024.3333333333,524.66666666667,1072.6666666667,526,1072.6666666667,526,1072.3333333333,486,1072.3333333333,486"></polygon><polygon data-id="482" data-sec="10" data-build="10" data-floor="4" class="s3d-svg__house js-s3d-svg__house" points="902,524.66666666667,902,524.66666666667,902.66666666667,559,902.66666666667,559,941.33333333333,557.33333333333,941.33333333333,557.33333333333,941.33333333333,525.66666666667,941.33333333333,525.66666666667"></polygon><polygon data-id="481" data-sec="10" data-build="10" data-floor="4" class="s3d-svg__house js-s3d-svg__house" points="971,523.33333333333,971,523.33333333333,971.66666666667,555,971.66666666667,555,1024.6666666667,555.66666666667,1024.6666666667,555.66666666667,1024.6666666667,525,1024.6666666667,525"></polygon><polygon data-id="480" data-sec="10" data-build="10" data-floor="4" class="s3d-svg__house js-s3d-svg__house" points="1025,524.33333333333,1025,524.33333333333,1024.6666666667,556.66666666667,1024.6666666667,556.66666666667,1072.3333333333,557.33333333333,1072.3333333333,557.33333333333,1072.3333333333,526.33333333333,1072.3333333333,526.33333333333"></polygon><polygon data-id="475" data-sec="10" data-build="10" data-floor="3" class="s3d-svg__house js-s3d-svg__house" points="902.66666666667,558.66666666667,902.66666666667,558.66666666667,902.66666666667,596.33333333333,902.66666666667,596.33333333333,940.66666666667,593.33333333333,940.66666666667,593.33333333333,941,557,941,557"></polygon><polygon data-id="474" data-sec="10" data-build="10" data-floor="3" class="s3d-svg__house js-s3d-svg__house" points="971.66666666667,555.66666666667,971.66666666667,555.66666666667,971.66666666667,592,971.66666666667,592,1023.3333333333,593.66666666667,1023.3333333333,593.66666666667,1023.6666666667,556.33333333333,1023.6666666667,556.33333333333"></polygon><polygon data-id="473" data-sec="10" data-build="10" data-floor="3" class="s3d-svg__house js-s3d-svg__house" points="1024,556.33333333333,1024,556.33333333333,1024,594.33333333333,1024,594.33333333333,1072.6666666667,595.66666666667,1072.6666666667,595.66666666667,1073.3333333333,557.66666666667,1073.3333333333,557.66666666667"></polygon><polygon data-id="468" data-sec="10" data-build="10" data-floor="2" class="s3d-svg__house js-s3d-svg__house" points="903,597,903,597,902.33333333333,631.66666666667,902.33333333333,631.66666666667,940.66666666667,626.33333333333,940.66666666667,626.33333333333,941.66666666667,593.66666666667,941.66666666667,593.66666666667"></polygon><polygon data-id="467" data-sec="10" data-build="10" data-floor="2" class="s3d-svg__house js-s3d-svg__house" points="971.33333333333,593,971.33333333333,593,972,627.33333333333,972,627.33333333333,1022.3333333333,631.33333333333,1022.3333333333,631.33333333333,1023,594.33333333333,1023,594.33333333333"></polygon><polygon data-id="466" data-sec="10" data-build="10" data-floor="2" class="s3d-svg__house js-s3d-svg__house" points="1023,594,1023,594,1022.3333333333,631.66666666667,1022.3333333333,631.66666666667,1072.3333333333,632.66666666667,1072.3333333333,632.66666666667,1072.6666666667,596,1072.6666666667,596"></polygon><polygon data-id="456" data-sec="9" data-build="9" data-floor="9" class="s3d-svg__house js-s3d-svg__house" points="1072.6666666667,278.66666666667,1072.6666666667,278.66666666667,1073,378,1073,378,1120,375,1120,375,1120.3333333333,329.66666666667,1120.3333333333,329.66666666667,1168,324.33333333333,1168,324.33333333333,1166,266,1166,266"></polygon><polygon data-id="462" data-sec="9" data-build="9" data-floor="9" class="s3d-svg__house js-s3d-svg__house" points="1253,254,1253,254,1255,319,1255,319,1254.6666666667,363,1254.6666666667,363,1120.3333333333,375,1120.3333333333,375,1120,329.66666666667,1120,329.66666666667,1168.3333333333,325.33333333333,1168.3333333333,325.33333333333,1166,266.33333333333,1166,266.33333333333"></polygon><polygon data-id="461" data-sec="9" data-build="9" data-floor="9" class="s3d-svg__house js-s3d-svg__house" points="1297.3333333333,249.33333333333,1297.3333333333,249.33333333333,1298,354.66666666667,1298,354.66666666667,1461,345,1461,345,1461.6666666667,230.66666666667,1461.6666666667,230.66666666667"></polygon><polygon data-id="460" data-sec="9" data-build="9" data-floor="9" class="s3d-svg__house js-s3d-svg__house" points="1461.3333333333,228.33333333333,1461.3333333333,228.33333333333,1461.3333333333,345,1461.3333333333,345,1528,341,1528,341,1527.6666666667,219.33333333333,1527.6666666667,219.33333333333"></polygon><polygon data-id="455" data-sec="9" data-build="9" data-floor="8" class="s3d-svg__house js-s3d-svg__house" points="1072.6666666667,378.66666666667,1072.6666666667,378.66666666667,1072.6666666667,414.66666666667,1072.6666666667,414.66666666667,1155,411,1155,411,1154.6666666667,372.66666666667,1154.6666666667,372.66666666667"></polygon><polygon data-id="454" data-sec="9" data-build="9" data-floor="8" class="s3d-svg__house js-s3d-svg__house" points="1154.3333333333,371.66666666667,1154.3333333333,371.66666666667,1155,410.66666666667,1155,410.66666666667,1253.6666666667,406.66666666667,1253.6666666667,406.66666666667,1253.3333333333,364,1253.3333333333,364"></polygon><polygon data-id="453" data-sec="9" data-build="9" data-floor="8" class="s3d-svg__house js-s3d-svg__house" points="1297.3333333333,355.66666666667,1297.3333333333,355.66666666667,1297.6666666667,400.33333333333,1297.6666666667,400.33333333333,1460.3333333333,393.33333333333,1460.3333333333,393.33333333333,1460.6666666667,345.33333333333,1460.6666666667,345.33333333333"></polygon><polygon data-id="452" data-sec="9" data-build="9" data-floor="8" class="s3d-svg__house js-s3d-svg__house" points="1460.6666666667,345.33333333333,1460.6666666667,345.33333333333,1460.3333333333,393.33333333333,1460.3333333333,393.33333333333,1528,388.66666666667,1528,388.66666666667,1527.6666666667,341.33333333333,1527.6666666667,341.33333333333"></polygon><polygon data-id="448" data-sec="9" data-build="9" data-floor="7" class="s3d-svg__house js-s3d-svg__house" points="1072.6666666667,414.66666666667,1072.6666666667,414.66666666667,1073,452.66666666667,1073,452.66666666667,1154.3333333333,449.33333333333,1154.3333333333,449.33333333333,1154.6666666667,412,1154.6666666667,412"></polygon><polygon data-id="447" data-sec="9" data-build="9" data-floor="7" class="s3d-svg__house js-s3d-svg__house" points="1155.3333333333,411.66666666667,1155.3333333333,411.66666666667,1154.6666666667,449,1154.6666666667,449,1252.6666666667,445.33333333333,1252.6666666667,445.33333333333,1252.6666666667,407.66666666667,1252.6666666667,407.66666666667"></polygon><polygon data-id="446" data-sec="9" data-build="9" data-floor="7" class="s3d-svg__house js-s3d-svg__house" points="1297.3333333333,401.66666666667,1297.3333333333,401.66666666667,1297,442.33333333333,1297,442.33333333333,1460.6666666667,437,1460.6666666667,437,1460,393.33333333333,1460,393.33333333333"></polygon><polygon data-id="445" data-sec="9" data-build="9" data-floor="7" class="s3d-svg__house js-s3d-svg__house" points="1459.6666666667,394,1459.6666666667,394,1461,437,1461,437,1528.3333333333,436.33333333333,1528.3333333333,436.33333333333,1527.6666666667,389,1527.6666666667,389"></polygon><polygon data-id="441" data-sec="9" data-build="9" data-floor="6" class="s3d-svg__house js-s3d-svg__house" points="1072.3333333333,453,1072.3333333333,453,1073,489.66666666667,1073,489.66666666667,1154.3333333333,488,1154.3333333333,488,1154.6666666667,449,1154.6666666667,449"></polygon><polygon data-id="440" data-sec="9" data-build="9" data-floor="6" class="s3d-svg__house js-s3d-svg__house" points="1154.3333333333,448.66666666667,1154.3333333333,448.66666666667,1154.3333333333,488.66666666667,1154.3333333333,488.66666666667,1252.6666666667,485.66666666667,1252.6666666667,485.66666666667,1253,446.33333333333,1253,446.33333333333"></polygon><polygon data-id="439" data-sec="9" data-build="9" data-floor="6" class="s3d-svg__house js-s3d-svg__house" points="1297,443.66666666667,1297,443.66666666667,1297.3333333333,484.33333333333,1297.3333333333,484.33333333333,1461,481,1461,481,1460.6666666667,437,1460.6666666667,437"></polygon><polygon data-id="438" data-sec="9" data-build="9" data-floor="6" class="s3d-svg__house js-s3d-svg__house" points="1460.3333333333,437.33333333333,1460.3333333333,437.33333333333,1461.3333333333,482,1461.3333333333,482,1528.3333333333,480.66666666667,1528.3333333333,480.66666666667,1528,436.33333333333,1528,436.33333333333"></polygon><polygon data-id="434" data-sec="9" data-build="9" data-floor="5" class="s3d-svg__house js-s3d-svg__house" points="1072.3333333333,490,1072.3333333333,490,1073,526.66666666667,1073,526.66666666667,1155.3333333333,526.66666666667,1155.3333333333,526.66666666667,1155,488,1155,488"></polygon><polygon data-id="433" data-sec="9" data-build="9" data-floor="5" class="s3d-svg__house js-s3d-svg__house" points="1154,489.33333333333,1154,489.33333333333,1155.6666666667,526.33333333333,1155.6666666667,526.33333333333,1252,526,1252,526,1252,486,1252,486,1154.3333333333,488.33333333333,1154.3333333333,488.33333333333"></polygon><polygon data-id="432" data-sec="9" data-build="9" data-floor="5" class="s3d-svg__house js-s3d-svg__house" points="1297.3333333333,485,1297.3333333333,485,1297,525.33333333333,1297,525.33333333333,1460.6666666667,525.33333333333,1460.6666666667,525.33333333333,1461,481.66666666667,1461,481.66666666667"></polygon><polygon data-id="431" data-sec="9" data-build="9" data-floor="5" class="s3d-svg__house js-s3d-svg__house" points="1460.6666666667,482,1460.6666666667,482,1461,525.66666666667,1461,525.66666666667,1527.6666666667,526,1527.6666666667,526,1527.6666666667,481.33333333333,1527.6666666667,481.33333333333"></polygon><polygon data-id="427" data-sec="9" data-build="9" data-floor="4" class="s3d-svg__house js-s3d-svg__house" points="1072.6666666667,527,1072.6666666667,527,1072.3333333333,558.33333333333,1072.3333333333,558.33333333333,1155,560,1155,560,1155,526.66666666667,1155,526.66666666667"></polygon><polygon data-id="426" data-sec="9" data-build="9" data-floor="4" class="s3d-svg__house js-s3d-svg__house" points="1155,526.33333333333,1155,526.33333333333,1155,560.66666666667,1155,560.66666666667,1252,563,1252,563,1252,526,1252,526"></polygon><polygon data-id="425" data-sec="9" data-build="9" data-floor="4" class="s3d-svg__house js-s3d-svg__house" points="1297.6666666667,526,1297.6666666667,526,1297.6666666667,562.33333333333,1297.6666666667,562.33333333333,1459.3333333333,564.66666666667,1459.3333333333,564.66666666667,1460.6666666667,564.66666666667,1460.6666666667,564.66666666667,1459.6666666667,526.66666666667,1459.6666666667,526.66666666667"></polygon><polygon data-id="424" data-sec="9" data-build="9" data-floor="4" class="s3d-svg__house js-s3d-svg__house" points="1460.6666666667,526.33333333333,1460.6666666667,526.33333333333,1460.3333333333,564.33333333333,1460.3333333333,564.33333333333,1527.6666666667,564.66666666667,1527.6666666667,564.66666666667,1527,525.66666666667,1527,525.66666666667"></polygon><polygon data-id="420" data-sec="9" data-build="9" data-floor="3" class="s3d-svg__house js-s3d-svg__house" points="1072,558.66666666667,1072,558.66666666667,1073,596,1073,596,1155,600.33333333333,1155,600.33333333333,1155.6666666667,560.33333333333,1155.6666666667,560.33333333333"></polygon><polygon data-id="419" data-sec="9" data-build="9" data-floor="3" class="s3d-svg__house js-s3d-svg__house" points="1154.6666666667,560,1154.6666666667,560,1155.6666666667,601,1155.6666666667,601,1251,604.33333333333,1251,604.33333333333,1251,564.33333333333,1251,564.33333333333"></polygon><polygon data-id="418" data-sec="9" data-build="9" data-floor="3" class="s3d-svg__house js-s3d-svg__house" points="1297.6666666667,562.66666666667,1297.6666666667,562.66666666667,1297.3333333333,607.66666666667,1297.3333333333,607.66666666667,1460.6666666667,613,1460.6666666667,613,1460,564,1460,564"></polygon><polygon data-id="417" data-sec="9" data-build="9" data-floor="3" class="s3d-svg__house js-s3d-svg__house" points="1460.3333333333,564.33333333333,1460.3333333333,564.33333333333,1460.3333333333,613.66666666667,1460.3333333333,613.66666666667,1527.3333333333,615,1527.3333333333,615,1527.3333333333,563.66666666667,1527.3333333333,563.66666666667"></polygon><polygon data-id="413" data-sec="9" data-build="9" data-floor="2" class="s3d-svg__house js-s3d-svg__house" points="1120.6666666667,599.66666666667,1120.6666666667,599.66666666667,1121.3333333333,634.66666666667,1121.3333333333,634.66666666667,1251,640,1251,640,1251,605,1251,605"></polygon><polygon data-id="412" data-sec="9" data-build="9" data-floor="2" class="s3d-svg__house js-s3d-svg__house" points="1297.3333333333,608.66666666667,1297.3333333333,608.66666666667,1297.6666666667,641.66666666667,1297.6666666667,641.66666666667,1459,650.33333333333,1459,650.33333333333,1460,614,1460,614,1459,613.66666666667,1459,613.66666666667"></polygon><polygon data-id="411" data-sec="9" data-build="9" data-floor="2" class="s3d-svg__house js-s3d-svg__house" points="1459.6666666667,613.33333333333,1459.6666666667,613.33333333333,1459.3333333333,649.66666666667,1459.3333333333,649.66666666667,1528,653.33333333333,1528,653.33333333333,1527.6666666667,615.33333333333,1527.6666666667,615.33333333333"></polygon><polygon data-id="401" data-sec="8" data-build="8" data-floor="9" class="s3d-svg__house js-s3d-svg__house" points="1527.6666666667,218,1527.6666666667,218,1527.3333333333,341.66666666667,1527.3333333333,341.66666666667,1589,336.66666666667,1589,336.66666666667,1588.6666666667,208.66666666667,1588.6666666667,208.66666666667"></polygon><polygon data-id="407" data-sec="8" data-build="8" data-floor="9" class="s3d-svg__house js-s3d-svg__house" points="1588.3333333333,208,1588.3333333333,208,1588.6666666667,336.66666666667,1588.6666666667,336.66666666667,1733,324.66666666667,1733,324.66666666667,1732.6666666667,190.66666666667,1732.6666666667,190.66666666667"></polygon><polygon data-id="394" data-sec="8" data-build="8" data-floor="8" class="s3d-svg__house js-s3d-svg__house" points="1526.3333333333,342,1526.3333333333,342,1527.3333333333,387.33333333333,1527.3333333333,387.33333333333,1589.3333333333,384,1589.3333333333,384,1588,337.33333333333,1588,337.33333333333"></polygon><polygon data-id="400" data-sec="8" data-build="8" data-floor="8" class="s3d-svg__house js-s3d-svg__house" points="1588.3333333333,336,1588.3333333333,336,1589.3333333333,384.33333333333,1589.3333333333,384.33333333333,1733,375,1733,375,1733.3333333333,325.66666666667,1733.3333333333,325.66666666667,1732.6666666667,325,1732.6666666667,325"></polygon><polygon data-id="387" data-sec="8" data-build="8" data-floor="7" class="s3d-svg__house js-s3d-svg__house" points="1527.3333333333,387.33333333333,1527.3333333333,387.33333333333,1527.6666666667,433.66666666667,1527.6666666667,433.66666666667,1588.6666666667,431,1588.6666666667,431,1589,384.33333333333,1589,384.33333333333"></polygon><polygon data-id="393" data-sec="8" data-build="8" data-floor="7" class="s3d-svg__house js-s3d-svg__house" points="1589,384,1589,384,1589,431,1589,431,1734,425.33333333333,1734,425.33333333333,1733.6666666667,375.66666666667,1733.6666666667,375.66666666667"></polygon><polygon data-id="380" data-sec="8" data-build="8" data-floor="6" class="s3d-svg__house js-s3d-svg__house" points="1527.3333333333,434,1527.3333333333,434,1527.3333333333,479.33333333333,1527.3333333333,479.33333333333,1588.3333333333,477.33333333333,1588.3333333333,477.33333333333,1588.3333333333,431.66666666667,1588.3333333333,431.66666666667"></polygon><polygon data-id="386" data-sec="8" data-build="8" data-floor="6" class="s3d-svg__house js-s3d-svg__house" points="1588.3333333333,430.66666666667,1588.3333333333,430.66666666667,1588.6666666667,478.66666666667,1588.6666666667,478.66666666667,1733.3333333333,474.33333333333,1733.3333333333,474.33333333333,1734,424.33333333333,1734,424.33333333333"></polygon><polygon data-id="373" data-sec="8" data-build="8" data-floor="5" class="s3d-svg__house js-s3d-svg__house" points="1527.3333333333,480,1527.3333333333,480,1528,524.66666666667,1528,524.66666666667,1589,524.66666666667,1589,524.66666666667,1588.6666666667,478,1588.6666666667,478"></polygon><polygon data-id="379" data-sec="8" data-build="8" data-floor="5" class="s3d-svg__house js-s3d-svg__house" points="1588.6666666667,478,1588.6666666667,478,1589,525,1589,525,1734,521.66666666667,1734,521.66666666667,1733.6666666667,474.66666666667,1733.6666666667,474.66666666667"></polygon><polygon data-id="372" data-sec="8" data-build="8" data-floor="4" class="s3d-svg__house js-s3d-svg__house" points="1588.6666666667,525.33333333333,1588.6666666667,525.33333333333,1588.6666666667,571.33333333333,1588.6666666667,571.33333333333,1735,574.66666666667,1735,574.66666666667,1734,522,1734,522"></polygon><polygon data-id="366" data-sec="8" data-build="8" data-floor="4" class="s3d-svg__house js-s3d-svg__house" points="1527.3333333333,525.33333333333,1527.3333333333,525.33333333333,1527.3333333333,570,1527.3333333333,570,1588.6666666667,572,1588.6666666667,572,1589.6666666667,525,1589.6666666667,525"></polygon><polygon data-id="365" data-sec="8" data-build="8" data-floor="3" class="s3d-svg__house js-s3d-svg__house" points="1588.6666666667,570.66666666667,1588.6666666667,570.66666666667,1589,619.33333333333,1589,619.33333333333,1734.6666666667,621.66666666667,1734.6666666667,621.66666666667,1735.3333333333,576,1735.3333333333,576,1735,574.66666666667,1735,574.66666666667"></polygon><polygon data-id="359" data-sec="8" data-build="8" data-floor="3" class="s3d-svg__house js-s3d-svg__house" points="1527,570.66666666667,1527,570.66666666667,1527.6666666667,618.66666666667,1527.6666666667,618.66666666667,1588.6666666667,620,1588.6666666667,620,1588.6666666667,571.33333333333,1588.6666666667,571.33333333333"></polygon><polygon data-id="358" data-sec="8" data-build="8" data-floor="2" class="s3d-svg__house js-s3d-svg__house" points="1589,619.33333333333,1589,619.33333333333,1588.6666666667,658.33333333333,1588.6666666667,658.33333333333,1734,667.66666666667,1734,667.66666666667,1734.6666666667,621.33333333333,1734.6666666667,621.33333333333"></polygon><polygon data-id="352" data-sec="8" data-build="8" data-floor="2" class="s3d-svg__house js-s3d-svg__house" points="1527.6666666667,618.66666666667,1527.6666666667,618.66666666667,1528,655.33333333333,1528,655.33333333333,1589.3333333333,658.66666666667,1589.3333333333,658.66666666667,1588.3333333333,619.33333333333,1588.3333333333,619.33333333333"></polygon><polygon data-id="663" data-sec="8" data-build="8" data-floor="1" class="s3d-svg__house js-s3d-svg__house" points="1528.6666666667,656.33333333333,1528.3333333333,717,1659,723.66666666667,1658.3333333333,663.33333333333"></polygon><polygon data-id="672" data-sec="9" data-build="9" data-floor="1" class="s3d-svg__house js-s3d-svg__house" points="1458.6666666667,651.66666666667,1456.6666666667,707.66666666667,1527.3333333333,713,1527.3333333333,653.66666666667"></polygon><polygon data-id="671" data-sec="9" data-build="9" data-floor="1" class="s3d-svg__house js-s3d-svg__house" points="1458.6666666667,650.66666666667,1455.6666666667,708.33333333333,1290.6666666667,696.66666666667,1297.3333333333,642.66666666667"></polygon><polygon data-id="669" data-sec="9" data-build="9" data-floor="1" class="s3d-svg__house js-s3d-svg__house" points="1251.3333333333,640.33333333333,1251.6666666667,694.33333333333,1120,684.33333333333,1120.6666666667,634.33333333333"></polygon></svg>