<svg preserveAspectRatio="xMidYMid slice" id="floor--svg"  viewBox="0 0 1920 1080" version="1.0" xmlns="http://www.w3.org/2000/svg"><polygon data-id="12908" data-sec="2.03" data-build="2" data-floor="2" data-type_poly="flat" class="s3d-svg__house js-s3d-svg__house" points="1627.25,659.25,1627.25,659.25,1628,616.25,1628,616.25,1504.75,612.5,1504.75,612.5,1505.25,653.75,1505.25,653.75"></polygon><polygon data-id="12909" data-sec="2.03" data-build="2" data-floor="2" data-type_poly="flat" class="s3d-svg__house js-s3d-svg__house" points="1504.25,612,1504.25,612,1504.75,653.5,1504.75,653.5,1439,649.25,1439,649.25,1439,608.75,1439,608.75"></polygon><polygon data-id="12915" data-sec="2.03" data-build="2" data-floor="3" data-type_poly="flat" class="s3d-svg__house js-s3d-svg__house" points="1504,611.75,1504,611.75,1628,615.75,1628,615.75,1628,571.5,1628,571.5,1504.5,569.5,1504.5,569.5"></polygon><polygon data-id="12916" data-sec="2.03" data-build="2" data-floor="3" data-type_poly="flat" class="s3d-svg__house js-s3d-svg__house" points="1504,611.5,1504,611.5,1504.75,569.5,1504.75,569.5,1439.25,568.25,1439.25,568.25,1438.75,609.75,1438.75,609.75"></polygon><polygon data-id="12922" data-sec="2.03" data-build="2" data-floor="4" data-type_poly="flat" class="s3d-svg__house js-s3d-svg__house" points="1504.75,569.75,1504.75,569.75,1628,571.5,1628,571.5,1628.25,522.5,1628.25,522.5,1504.25,522.25,1504.25,522.25"></polygon><polygon data-id="12923" data-sec="2.03" data-build="2" data-floor="4" data-type_poly="flat" class="s3d-svg__house js-s3d-svg__house" points="1504,522,1504,522,1504.25,569.75,1504.25,569.75,1439,568.5,1439,568.5,1439.25,521.75,1439.25,521.75"></polygon><polygon data-id="12929" data-sec="2.03" data-build="2" data-floor="5" data-type_poly="flat" class="s3d-svg__house js-s3d-svg__house" points="1503.75,522.25,1503.75,522.25,1628.75,522.5,1628.75,522.5,1628.5,476.75,1628.5,476.75,1503.25,478.5,1503.25,478.5"></polygon><polygon data-id="12930" data-sec="2.03" data-build="2" data-floor="5" data-type_poly="flat" class="s3d-svg__house js-s3d-svg__house" points="1502.5,478.5,1502.5,478.5,1503.25,521.75,1503.25,521.75,1439.25,521.5,1439.25,521.5,1439,480.75,1439,480.75"></polygon><polygon data-id="12936" data-sec="2.03" data-build="2" data-floor="6" data-type_poly="flat" class="s3d-svg__house js-s3d-svg__house" points="1502.5,478,1502.5,478,1628.75,477,1628.75,477,1628.25,427.75,1628.25,427.75,1502,432.75,1502,432.75"></polygon><polygon data-id="12937" data-sec="2.03" data-build="2" data-floor="6" data-type_poly="flat" class="s3d-svg__house js-s3d-svg__house" points="1501.75,432.5,1501.75,432.5,1502.75,478.5,1502.75,478.5,1439.25,480.25,1439.25,480.25,1439.5,434.25,1439.5,434.25"></polygon><polygon data-id="12943" data-sec="2.03" data-build="2" data-floor="7" data-type_poly="flat" class="s3d-svg__house js-s3d-svg__house" points="1502,432,1502,432,1628.5,428,1628.5,428,1628.25,381.5,1628.25,381.5,1502,388.5,1502,388.5"></polygon><polygon data-id="12944" data-sec="2.03" data-build="2" data-floor="7" data-type_poly="flat" class="s3d-svg__house js-s3d-svg__house" points="1501.75,388.5,1501.75,388.5,1502.25,432.75,1502.25,432.75,1439.5,434.75,1439.5,434.75,1438.75,392.25,1438.75,392.25"></polygon><polygon data-id="12950" data-sec="2.03" data-build="2" data-floor="8" data-type_poly="flat" class="s3d-svg__house js-s3d-svg__house" points="1502,388.5,1502,388.5,1628.75,381,1628.75,381,1628.5,329.25,1628.5,329.25,1501.75,340.75,1501.75,340.75"></polygon><polygon data-id="12951" data-sec="2.03" data-build="2" data-floor="8" data-type_poly="flat" class="s3d-svg__house js-s3d-svg__house" points="1501.5,389,1501.5,389,1501.25,340.5,1501.25,340.5,1439.5,346.25,1439.5,346.25,1438.75,392,1438.75,392"></polygon><polygon data-id="12957" data-sec="2.03" data-build="2" data-floor="9" data-type_poly="flat" class="s3d-svg__house js-s3d-svg__house" points="1500.75,340.5,1500.75,340.5,1628.75,329.5,1628.75,329.5,1627.5,205.75,1627.5,205.75,1500.75,222,1500.75,222"></polygon><polygon data-id="12958" data-sec="2.03" data-build="2" data-floor="9" data-type_poly="flat" class="s3d-svg__house js-s3d-svg__house" points="1438.75,345.75,1438.75,345.75,1439.25,230.25,1439.25,230.25,1501,221.75,1501,221.75,1501.25,340.25,1501.25,340.25"></polygon><polygon data-id="12967" data-sec="2.04" data-build="2" data-floor="2" data-type_poly="flat" class="s3d-svg__house js-s3d-svg__house" points="1293,640,1293,640,1377.25,644.25,1377.25,644.25,1377.75,639.25,1377.75,639.25,1384.25,639,1384.25,639,1383.75,609.5,1383.75,609.5,1294,606.5,1294,606.5"></polygon><polygon data-id="12964" data-sec="2.04" data-build="2" data-floor="2" data-type_poly="flat" class="s3d-svg__house js-s3d-svg__house" points="1243,604.5,1243,604.5,1242.25,637.75,1242.25,637.75,1131.25,632.75,1131.25,632.75,1131,600,1131,600"></polygon><polygon data-id="12972" data-sec="2.04" data-build="2" data-floor="3" data-type_poly="flat" class="s3d-svg__house js-s3d-svg__house" points="1439,611,1439,611,1392.25,609.5,1392.25,609.5,1391,567.75,1391,567.75,1438.5,568.25,1438.5,568.25"></polygon><polygon data-id="12973" data-sec="2.04" data-build="2" data-floor="3" data-type_poly="flat" class="s3d-svg__house js-s3d-svg__house" points="1391.25,567.5,1391.25,567.5,1391.75,610,1391.75,610,1292.25,606.75,1292.25,606.75,1292.75,565.5,1292.75,565.5"></polygon><polygon data-id="12968" data-sec="2.04" data-build="2" data-floor="3" data-type_poly="flat" class="s3d-svg__house js-s3d-svg__house" points="1243,604.25,1243,604.25,1242.5,564.5,1242.5,564.5,1131,563.75,1131,563.75,1131,599.5,1131,599.5"></polygon><polygon data-id="12978" data-sec="2.04" data-build="2" data-floor="4" data-type_poly="flat" class="s3d-svg__house js-s3d-svg__house" points="1391,567.5,1391,567.5,1438.75,568,1438.75,568,1438.5,524,1438.5,524,1390.5,525,1390.5,525"></polygon><polygon data-id="12979" data-sec="2.04" data-build="2" data-floor="4" data-type_poly="flat" class="s3d-svg__house js-s3d-svg__house" points="1390,524.75,1390,524.75,1390.75,567.25,1390.75,567.25,1293,565.75,1293,565.75,1292.25,523.75,1292.25,523.75"></polygon><polygon data-id="12974" data-sec="2.04" data-build="2" data-floor="4" data-type_poly="flat" class="s3d-svg__house js-s3d-svg__house" points="1243,564.5,1243,564.5,1243.25,525,1243.25,525,1131.25,524.25,1131.25,524.25,1131,564.5,1131,564.5"></polygon><polygon data-id="12984" data-sec="2.04" data-build="2" data-floor="5" data-type_poly="flat" class="s3d-svg__house js-s3d-svg__house" points="1390.5,524.5,1390.5,524.5,1390.25,482.5,1390.25,482.5,1439,481,1439,481,1438.5,524.5,1438.5,524.5"></polygon><polygon data-id="12985" data-sec="2.04" data-build="2" data-floor="5" data-type_poly="flat" class="s3d-svg__house js-s3d-svg__house" points="1390.25,482,1390.25,482,1390,524.25,1390,524.25,1292,524,1292,524,1292.5,484,1292.5,484"></polygon><polygon data-id="12980" data-sec="2.04" data-build="2" data-floor="5" data-type_poly="flat" class="s3d-svg__house js-s3d-svg__house" points="1243.25,524.25,1243.25,524.25,1242.75,486.25,1242.75,486.25,1131,489,1131,489,1131.5,524,1131.5,524"></polygon><polygon data-id="12990" data-sec="2.04" data-build="2" data-floor="6" data-type_poly="flat" class="s3d-svg__house js-s3d-svg__house" points="1389.75,482.5,1389.75,482.5,1439,481.5,1439,481.5,1438.25,434.5,1438.25,434.5,1389.75,435.75,1389.75,435.75"></polygon><polygon data-id="12991" data-sec="2.04" data-build="2" data-floor="6" data-type_poly="flat" class="s3d-svg__house js-s3d-svg__house" points="1389.5,435.75,1389.5,435.75,1389.5,482.5,1389.5,482.5,1292.5,484.5,1292.5,484.5,1291.75,439.75,1291.75,439.75"></polygon><polygon data-id="12986" data-sec="2.04" data-build="2" data-floor="6" data-type_poly="flat" class="s3d-svg__house js-s3d-svg__house" points="1243.5,486.25,1243.5,486.25,1243.5,445.5,1243.5,445.5,1131.75,449,1131.75,449,1131.25,489.75,1131.25,489.75"></polygon><polygon data-id="12996" data-sec="2.04" data-build="2" data-floor="7" data-type_poly="flat" class="s3d-svg__house js-s3d-svg__house" points="1389.5,435.25,1389.5,435.25,1439,434,1439,434,1438,391,1438,391,1389,393.5,1389,393.5"></polygon><polygon data-id="12997" data-sec="2.04" data-build="2" data-floor="7" data-type_poly="flat" class="s3d-svg__house js-s3d-svg__house" points="1388.75,393.25,1388.75,393.25,1389.25,435.75,1389.25,435.75,1292,440,1292,440,1293,399.25,1293,399.25"></polygon><polygon data-id="12992" data-sec="2.04" data-build="2" data-floor="7" data-type_poly="flat" class="s3d-svg__house js-s3d-svg__house" points="1243.75,444.75,1243.75,444.75,1243,406.25,1243,406.25,1132,412.5,1132,412.5,1132,448.75,1132,448.75"></polygon><polygon data-id="13002" data-sec="2.04" data-build="2" data-floor="8" data-type_poly="flat" class="s3d-svg__house js-s3d-svg__house" points="1388.75,393.25,1388.75,393.25,1389.25,355.5,1389.25,355.5,1438.5,351.25,1438.5,351.25,1438,390.75,1438,390.75"></polygon><polygon data-id="13003" data-sec="2.04" data-build="2" data-floor="8" data-type_poly="flat" class="s3d-svg__house js-s3d-svg__house" points="1388.5,355.5,1388.5,355.5,1388.75,393,1388.75,393,1293,399.25,1293,399.25,1292.5,362.5,1292.5,362.5"></polygon><polygon data-id="12998" data-sec="2.04" data-build="2" data-floor="8" data-type_poly="flat" class="s3d-svg__house js-s3d-svg__house" points="1242.5,406.75,1242.5,406.75,1243,366.5,1243,366.5,1130.25,376.25,1130.25,376.25,1131,412.75,1131,412.75"></polygon><polygon data-id="13008" data-sec="2.04" data-build="2" data-floor="9" data-type_poly="flat" class="s3d-svg__house js-s3d-svg__house" points="1388.75,355.25,1388.75,355.25,1438.25,350.75,1438.25,350.75,1438.25,234.25,1438.25,234.25,1387.75,240.5,1387.75,240.5"></polygon><polygon data-id="13009" data-sec="2.04" data-build="2" data-floor="9" data-type_poly="flat" class="s3d-svg__house js-s3d-svg__house" points="1388.75,355,1388.75,355,1292.5,363.25,1292.5,363.25,1292,253,1292,253,1388.25,240.75,1388.25,240.75"></polygon><polygon data-id="13004" data-sec="2.04" data-build="2" data-floor="9" data-type_poly="flat" class="s3d-svg__house js-s3d-svg__house" points="1243.25,366.75,1243.25,366.75,1242.25,260.75,1242.25,260.75,1132.5,276.5,1132.5,276.5,1130.25,375,1130.25,375"></polygon><polygon data-id="13037" data-sec="2.05" data-build="2" data-floor="2" data-type_poly="flat" class="s3d-svg__house js-s3d-svg__house" points="1131.25,632.75,1131,599.5,1088,598.5,1087,631"></polygon><polygon data-id="13038" data-sec="2.05" data-build="2" data-floor="2" data-type_poly="flat" class="s3d-svg__house js-s3d-svg__house" points="1087,631,1010,626.5,1008.5,596,1088,598.5"></polygon><polygon data-id="13044" data-sec="2.05" data-build="2" data-floor="3" data-type_poly="flat" class="s3d-svg__house js-s3d-svg__house" points="1131,564.5,1131,599.5,1088,598.5,1087.5,564.5"></polygon><polygon data-id="13045" data-sec="2.05" data-build="2" data-floor="3" data-type_poly="flat" class="s3d-svg__house js-s3d-svg__house" points="1087.5,564.5,1088,598.5,1008.5,596,1009.5,560"></polygon><polygon data-id="13052" data-sec="2.05" data-build="2" data-floor="4" data-type_poly="flat" class="s3d-svg__house js-s3d-svg__house" points="1009.5,560,1009,525.5,1087,525.5,1087.5,564.5"></polygon><polygon data-id="13051" data-sec="2.05" data-build="2" data-floor="4" data-type_poly="flat" class="s3d-svg__house js-s3d-svg__house" points="1087,525.5,1131.5,524,1131,564.5,1087.5,564.5"></polygon><polygon data-id="13059" data-sec="2.05" data-build="2" data-floor="5" data-type_poly="flat" class="s3d-svg__house js-s3d-svg__house" points="1009,525.5,1010.5,492,1084.5,488.5,1087,525.5"></polygon><polygon data-id="13058" data-sec="2.05" data-build="2" data-floor="5" data-type_poly="flat" class="s3d-svg__house js-s3d-svg__house" points="1084.5,488.5,1131.25,489.75,1131.5,524,1087,525.5"></polygon><polygon data-id="13066" data-sec="2.05" data-build="2" data-floor="6" data-type_poly="flat" class="s3d-svg__house js-s3d-svg__house" points="1010.5,492,1009.5,454,1083,449,1084.5,488.5"></polygon><polygon data-id="13065" data-sec="2.05" data-build="2" data-floor="6" data-type_poly="flat" class="s3d-svg__house js-s3d-svg__house" points="1083,449,1132,448.75,1131.25,489.75,1084.5,488.5"></polygon><polygon data-id="13073" data-sec="2.05" data-build="2" data-floor="7" data-type_poly="flat" class="s3d-svg__house js-s3d-svg__house" points="1009.5,454,1009.5,419,1083.5,414,1083,449"></polygon><polygon data-id="13072" data-sec="2.05" data-build="2" data-floor="7" data-type_poly="flat" class="s3d-svg__house js-s3d-svg__house" points="1083.5,414,1131,412.75,1132,448.75,1083,449"></polygon><polygon data-id="13080" data-sec="2.05" data-build="2" data-floor="8" data-type_poly="flat" class="s3d-svg__house js-s3d-svg__house" points="1009.5,419,1010,381.5,1084,376.5,1083.5,414"></polygon><polygon data-id="13079" data-sec="2.05" data-build="2" data-floor="8" data-type_poly="flat" class="s3d-svg__house js-s3d-svg__house" points="1084,376.5,1130.25,375,1131,412.75,1083.5,414"></polygon><polygon data-id="13087" data-sec="2.05" data-build="2" data-floor="9" data-type_poly="flat" class="s3d-svg__house js-s3d-svg__house" points="1010,381.5,1011,292.5,1084.5,282,1084,376.5"></polygon><polygon data-id="13086" data-sec="2.05" data-build="2" data-floor="9" data-type_poly="flat" class="s3d-svg__house js-s3d-svg__house" points="1084.5,282,1132.5,276.5,1130.25,375,1084,376.5"></polygon><polygon data-id="13032" data-sec="2.05" data-build="2" data-floor="2" data-type_poly="flat" class="s3d-svg__house js-s3d-svg__house" points="993,626,965.5,629.5,964.5,596.5,992,595"></polygon><polygon data-id="13039" data-sec="2.05" data-build="2" data-floor="3" data-type_poly="flat" class="s3d-svg__house js-s3d-svg__house" points="964.5,596.5,992,595,992,560.5,965,559"></polygon><polygon data-id="13046" data-sec="2.05" data-build="2" data-floor="4" data-type_poly="flat" class="s3d-svg__house js-s3d-svg__house" points="965,559,964.5,523,991,521,992,560.5"></polygon><polygon data-id="13053" data-sec="2.05" data-build="2" data-floor="5" data-type_poly="flat" class="s3d-svg__house js-s3d-svg__house" points="964.5,523,991,521,991,489.5,964,487"></polygon><polygon data-id="13060" data-sec="2.05" data-build="2" data-floor="6" data-type_poly="flat" class="s3d-svg__house js-s3d-svg__house" points="991,489.5,991,455,964.5,450.5,964,487"></polygon><polygon data-id="13067" data-sec="2.05" data-build="2" data-floor="7" data-type_poly="flat" class="s3d-svg__house js-s3d-svg__house" points="991,455,964.5,450.5,962.5,413.5,991.5,417.5"></polygon><polygon data-id="13074" data-sec="2.05" data-build="2" data-floor="8" data-type_poly="flat" class="s3d-svg__house js-s3d-svg__house" points="962.5,413.5,963,378.5,990,383.5,991.5,417.5"></polygon><polygon data-id="13081" data-sec="2.05" data-build="2" data-floor="9" data-type_poly="flat" class="s3d-svg__house js-s3d-svg__house" points="990,383.5,991,295.5,964.5,285,963,378.5"></polygon><polygon data-id="13093" data-sec="2.06" data-build="2" data-floor="2" data-type_poly="flat" class="s3d-svg__house js-s3d-svg__house" points="965.5,629.5,906,638.5,906,605,964.5,596.5"></polygon><polygon data-id="13088" data-sec="2.06" data-build="2" data-floor="2" data-type_poly="flat" class="s3d-svg__house js-s3d-svg__house" points="873,643,814.5,653.5,813.5,612.5,875,606"></polygon><polygon data-id="13089" data-sec="2.06" data-build="2" data-floor="2" data-type_poly="flat" class="s3d-svg__house js-s3d-svg__house" points="814.5,653.5,780,659,778.5,620,813.5,612.5"></polygon><polygon data-id="13099" data-sec="2.06" data-build="2" data-floor="3" data-type_poly="flat" class="s3d-svg__house js-s3d-svg__house" points="964.5,596.5,965,559,905,562.5,906,605"></polygon><polygon data-id="13094" data-sec="2.06" data-build="2" data-floor="3" data-type_poly="flat" class="s3d-svg__house js-s3d-svg__house" points="875,606,874,564.5,813,567,813.5,612.5"></polygon><polygon data-id="13095" data-sec="2.06" data-build="2" data-floor="3" data-type_poly="flat" class="s3d-svg__house js-s3d-svg__house" points="813.5,612.5,778.5,620,778,573,813,567"></polygon><polygon data-id="13105" data-sec="2.06" data-build="2" data-floor="4" data-type_poly="flat" class="s3d-svg__house js-s3d-svg__house" points="965,559,964.5,523,905.5,524,905,562.5"></polygon><polygon data-id="13100" data-sec="2.06" data-build="2" data-floor="4" data-type_poly="flat" class="s3d-svg__house js-s3d-svg__house" points="874,564.5,875.5,524,815.5,521.5,813,567"></polygon><polygon data-id="13101" data-sec="2.06" data-build="2" data-floor="4" data-type_poly="flat" class="s3d-svg__house js-s3d-svg__house" points="815.5,521.5,779,524,778,573,813,567"></polygon><polygon data-id="13111" data-sec="2.06" data-build="2" data-floor="5" data-type_poly="flat" class="s3d-svg__house js-s3d-svg__house" points="964.5,523,964,487,905.5,485.5,905.5,524"></polygon><polygon data-id="13106" data-sec="2.06" data-build="2" data-floor="5" data-type_poly="flat" class="s3d-svg__house js-s3d-svg__house" points="875.5,524,875,483,815,477,815.5,521.5"></polygon><polygon data-id="13107" data-sec="2.06" data-build="2" data-floor="5" data-type_poly="flat" class="s3d-svg__house js-s3d-svg__house" points="815,477,780.5,476.5,779,524,815.5,521.5"></polygon><polygon data-id="13117" data-sec="2.06" data-build="2" data-floor="6" data-type_poly="flat" class="s3d-svg__house js-s3d-svg__house" points="964,487,964.5,450.5,905.5,446.5,905.5,485.5"></polygon><polygon data-id="13112" data-sec="2.06" data-build="2" data-floor="6" data-type_poly="flat" class="s3d-svg__house js-s3d-svg__house" points="875,483,874.5,438.5,814.5,432.5,815,477"></polygon><polygon data-id="13113" data-sec="2.06" data-build="2" data-floor="6" data-type_poly="flat" class="s3d-svg__house js-s3d-svg__house" points="814.5,432.5,781.5,428,780.5,476.5,815,477"></polygon><polygon data-id="13123" data-sec="2.06" data-build="2" data-floor="7" data-type_poly="flat" class="s3d-svg__house js-s3d-svg__house" points="906,407.5,962.5,413.5,964.5,450.5,905.5,446.5"></polygon><polygon data-id="13119" data-sec="2.06" data-build="2" data-floor="7" data-type_poly="flat" class="s3d-svg__house js-s3d-svg__house" points="874.5,438.5,874.5,398.5,814.5,385.5,814.5,432.5"></polygon><polygon data-id="13118" data-sec="2.06" data-build="2" data-floor="7" data-type_poly="flat" class="s3d-svg__house js-s3d-svg__house" points="814.5,385.5,783,381.5,781.5,428,814.5,432.5"></polygon><polygon data-id="13129" data-sec="2.06" data-build="2" data-floor="8" data-type_poly="flat" class="s3d-svg__house js-s3d-svg__house" points="963,378.5,906.5,366,906,407.5,962.5,413.5"></polygon><polygon data-id="13125" data-sec="2.06" data-build="2" data-floor="8" data-type_poly="flat" class="s3d-svg__house js-s3d-svg__house" points="874.5,398.5,873.5,356,814,342,814.5,385.5"></polygon><polygon data-id="13124" data-sec="2.06" data-build="2" data-floor="8" data-type_poly="flat" class="s3d-svg__house js-s3d-svg__house" points="814,342,780,335.5,783,381.5,814.5,385.5"></polygon><polygon data-id="13135" data-sec="2.06" data-build="2" data-floor="9" data-type_poly="flat" class="s3d-svg__house js-s3d-svg__house" points="963,378.5,964.5,285,906,261.5,906.5,366"></polygon><polygon data-id="13130" data-sec="2.06" data-build="2" data-floor="9" data-type_poly="flat" class="s3d-svg__house js-s3d-svg__house" points="873.5,356,875,247,809,221.5,814,342"></polygon><polygon data-id="13131" data-sec="2.06" data-build="2" data-floor="9" data-type_poly="flat" class="s3d-svg__house js-s3d-svg__house" points="778,209.5,809,221.5,814,342,780,335.5"></polygon><polygon data-id="13136" data-sec="2.07" data-build="2" data-floor="2" data-type_poly="flat" class="s3d-svg__house js-s3d-svg__house" points="605,687.5,565.5,694.5,560.5,694.5,446,712.5,445.5,653,606,637.5"></polygon><polygon data-id="13139" data-sec="2.07" data-build="2" data-floor="2" data-type_poly="flat" class="s3d-svg__house js-s3d-svg__house" points="663,678,780,659,778.5,620,662.5,630.5"></polygon><polygon data-id="13140" data-sec="2.07" data-build="2" data-floor="3" data-type_poly="flat" class="s3d-svg__house js-s3d-svg__house" points="445.5,653,445,586.5,607,577.5,606,637.5"></polygon><polygon data-id="13143" data-sec="2.07" data-build="2" data-floor="3" data-type_poly="flat" class="s3d-svg__house js-s3d-svg__house" points="778.5,620,778,573,662.5,576,662.5,630.5"></polygon><polygon data-id="13144" data-sec="2.07" data-build="2" data-floor="4" data-type_poly="flat" class="s3d-svg__house js-s3d-svg__house" points="445,586.5,445.5,518.5,606.5,519,607,577.5"></polygon><polygon data-id="13147" data-sec="2.07" data-build="2" data-floor="4" data-type_poly="flat" class="s3d-svg__house js-s3d-svg__house" points="778,573,779,524,662.5,521.5,662.5,576"></polygon><polygon data-id="13148" data-sec="2.07" data-build="2" data-floor="5" data-type_poly="flat" class="s3d-svg__house js-s3d-svg__house" points="445.5,518.5,446,448.5,606.5,460,606.5,519"></polygon><polygon data-id="13151" data-sec="2.07" data-build="2" data-floor="5" data-type_poly="flat" class="s3d-svg__house js-s3d-svg__house" points="779,524,780.5,476.5,662,467,662.5,521.5"></polygon><polygon data-id="13152" data-sec="2.07" data-build="2" data-floor="6" data-type_poly="flat" class="s3d-svg__house js-s3d-svg__house" points="446,448.5,446.5,383,604.5,401,606.5,460"></polygon><polygon data-id="13155" data-sec="2.07" data-build="2" data-floor="6" data-type_poly="flat" class="s3d-svg__house js-s3d-svg__house" points="662,467,663,411,781.5,428,780.5,476.5"></polygon><polygon data-id="13156" data-sec="2.07" data-build="2" data-floor="7" data-type_poly="flat" class="s3d-svg__house js-s3d-svg__house" points="446.5,383,447,315,606.5,346.5,604.5,401"></polygon><polygon data-id="13159" data-sec="2.07" data-build="2" data-floor="7" data-type_poly="flat" class="s3d-svg__house js-s3d-svg__house" points="781.5,428,783,381.5,694,366,662,358.5,663,411"></polygon><polygon data-id="13160" data-sec="2.07" data-build="2" data-floor="8" data-type_poly="flat" class="s3d-svg__house js-s3d-svg__house" points="447,315,446.5,249,606,284.5,606.5,346.5"></polygon><polygon data-id="13163" data-sec="2.07" data-build="2" data-floor="8" data-type_poly="flat" class="s3d-svg__house js-s3d-svg__house" points="783,381.5,780,335.5,693,314,662.5,303,662,358.5,694,366"></polygon><polygon data-id="13165" data-sec="2.07" data-build="2" data-floor="9" data-type_poly="flat" class="s3d-svg__house js-s3d-svg__house" points="446.5,249,446,70,504.5,95.5,506.5,262"></polygon><polygon data-id="13164" data-sec="2.07" data-build="2" data-floor="9" data-type_poly="flat" class="s3d-svg__house js-s3d-svg__house" points="504.5,95.5,506.5,262,606,284.5,607,133.5"></polygon><polygon data-id="13169" data-sec="2.07" data-build="2" data-floor="9" data-type_poly="flat" class="s3d-svg__house js-s3d-svg__house" points="662.5,157.5,662.5,303,743,327,742,193"></polygon><polygon data-id="13168" data-sec="2.07" data-build="2" data-floor="9" data-type_poly="flat" class="s3d-svg__house js-s3d-svg__house" points="743,327,780,335.5,778,209.5,742,193"></polygon></svg>