<svg width="62" height="60" viewBox="0 0 62 60" fill="none" xmlns="http://www.w3.org/2000/svg">
<path fill-rule="evenodd" clip-rule="evenodd" d="M46.9284 22.0864L46.8836 15.5277L40.4101 14.4728C36.3458 11.5916 31.3798 10.2893 26.446 10.8105C21.5123 11.3318 16.9508 13.6409 13.6194 17.3035C10.2879 20.9661 8.41615 25.7298 8.35605 30.6987C8.29595 35.6677 10.0516 40.4996 13.293 44.2856C16.5343 48.0716 21.0379 50.5509 25.9568 51.2572C30.8757 51.9636 35.871 50.8483 40.0032 48.121C44.1354 45.3938 47.1197 41.2426 48.3951 36.4481C49.6704 31.6536 49.1488 26.5462 46.9284 22.0864ZM15.1282 42.7144C12.8115 40.0085 11.3438 36.681 10.9107 33.1527C10.4776 29.6244 11.0986 26.0537 12.6952 22.8922C14.2918 19.7307 16.7922 17.1204 19.8802 15.3914C22.9683 13.6623 26.5053 12.8922 30.044 13.1784C33.5826 13.4646 36.9641 14.7943 39.7606 16.9993C42.5571 19.2043 44.6431 22.1856 45.7549 25.5661C46.8666 28.9467 46.9542 32.5747 46.0064 35.9913C45.0587 39.408 43.1182 42.4598 40.4305 44.7609C36.8243 47.8417 32.1349 49.3564 27.3914 48.9728C22.6478 48.5891 18.2375 46.3384 15.1282 42.7144Z" fill="white"/>
<path d="M56.7874 13.2294C55.5234 13.2294 54.4794 12.8094 53.6554 11.9694C52.8314 11.1294 52.4194 10.0934 52.4194 8.8614C52.4194 7.6214 52.8314 6.5854 53.6554 5.7534C54.4794 4.9134 55.5234 4.4934 56.7874 4.4934C57.5474 4.4934 58.2474 4.6734 58.8874 5.0334C59.5354 5.3854 60.0394 5.8654 60.3994 6.4734L58.9714 7.3014C58.7634 6.9254 58.4674 6.6334 58.0834 6.4254C57.6994 6.2094 57.2674 6.1014 56.7874 6.1014C55.9714 6.1014 55.3114 6.3574 54.8074 6.8694C54.3114 7.3814 54.0634 8.0454 54.0634 8.8614C54.0634 9.6694 54.3114 10.3294 54.8074 10.8414C55.3114 11.3534 55.9714 11.6094 56.7874 11.6094C57.2674 11.6094 57.6994 11.5054 58.0834 11.2974C58.4754 11.0814 58.7714 10.7894 58.9714 10.4214L60.3994 11.2494C60.0394 11.8574 59.5394 12.3414 58.8994 12.7014C58.2594 13.0534 57.5554 13.2294 56.7874 13.2294Z" fill="white"/>
</svg>
