<svg width="91" height="90" viewBox="0 0 91 90" fill="none" xmlns="http://www.w3.org/2000/svg">
<path fill-rule="evenodd" clip-rule="evenodd" d="M50.6828 26.3276L45.6714 22.0962L40.6601 26.3276C35.8282 27.5413 31.6092 30.4666 28.7966 34.5535C25.9839 38.6404 24.7714 43.6072 25.3871 48.5198C26.0027 53.4324 28.4041 57.9523 32.1396 61.2295C35.8752 64.5068 40.6874 66.3155 45.6714 66.3155C50.6554 66.3155 55.4677 64.5068 59.2032 61.2295C62.9387 57.9523 65.3402 53.4324 65.9559 48.5198C66.5715 43.6072 65.359 38.6404 62.5463 34.5535C59.7337 30.4666 55.5147 27.5413 50.6828 26.3276ZM45.6714 63.8995C42.1093 63.8996 38.6271 62.8505 35.6652 60.8849C32.7033 58.9192 30.3947 56.1253 29.0315 52.8564C27.6682 49.5875 27.3115 45.9905 28.0063 42.5202C28.7012 39.0499 30.4164 35.8623 32.9352 33.3603C35.454 30.8583 38.6632 29.1544 42.1569 28.4641C45.6506 27.7738 49.2719 28.128 52.5629 29.482C55.854 30.836 58.6669 33.129 60.6459 36.0709C62.6249 39.0129 63.6813 42.4717 63.6813 46.0099C63.6763 50.7529 61.7772 55.3002 58.4008 58.6541C55.0244 62.008 50.4465 63.8944 45.6714 63.8995Z" fill="white"/>
<path d="M45.9105 14.9415C44.6465 14.9415 43.6025 14.5215 42.7785 13.6815C41.9545 12.8415 41.5425 11.8055 41.5425 10.5735C41.5425 9.33353 41.9545 8.29753 42.7785 7.46553C43.6025 6.62553 44.6465 6.20553 45.9105 6.20553C46.6705 6.20553 47.3705 6.38553 48.0105 6.74553C48.6585 7.09753 49.1625 7.57753 49.5225 8.18553L48.0945 9.01353C47.8865 8.63753 47.5905 8.34553 47.2065 8.13753C46.8225 7.92153 46.3905 7.81353 45.9105 7.81353C45.0945 7.81353 44.4345 8.06953 43.9305 8.58153C43.4345 9.09353 43.1865 9.75753 43.1865 10.5735C43.1865 11.3815 43.4345 12.0415 43.9305 12.5535C44.4345 13.0655 45.0945 13.3215 45.9105 13.3215C46.3905 13.3215 46.8225 13.2175 47.2065 13.0095C47.5985 12.7935 47.8945 12.5015 48.0945 12.1335L49.5225 12.9615C49.1625 13.5695 48.6625 14.0535 48.0225 14.4135C47.3825 14.7655 46.6785 14.9415 45.9105 14.9415Z" fill="white"/>
<path d="M47.0818 72.7475C48.2978 72.7475 49.3298 73.1715 50.1778 74.0195C51.0258 74.8595 51.4498 75.8915 51.4498 77.1155C51.4498 78.3315 51.0258 79.3635 50.1778 80.2115C49.3298 81.0595 48.2978 81.4835 47.0818 81.4835C45.9938 81.4835 45.0498 81.1355 44.2498 80.4395C43.4578 79.7435 42.9818 78.8595 42.8218 77.7875H41.6098V81.3155H39.9538V72.9155H41.6098V76.2035H42.8578C43.0658 75.1955 43.5578 74.3675 44.3338 73.7195C45.1178 73.0715 46.0338 72.7475 47.0818 72.7475ZM45.1498 79.0955C45.6698 79.6075 46.3138 79.8635 47.0818 79.8635C47.8498 79.8635 48.4938 79.6075 49.0138 79.0955C49.5338 78.5755 49.7938 77.9155 49.7938 77.1155C49.7938 76.3155 49.5338 75.6555 49.0138 75.1355C48.4938 74.6155 47.8498 74.3555 47.0818 74.3555C46.3058 74.3555 45.6578 74.6115 45.1378 75.1235C44.6258 75.6355 44.3698 76.2995 44.3698 77.1155C44.3698 77.9155 44.6298 78.5755 45.1498 79.0955Z" fill="white"/>
<path d="M18.5054 46.656C19.3054 47.08 19.7054 47.744 19.7054 48.648C19.7054 49.4 19.4214 50.008 18.8534 50.472C18.2854 50.936 17.5534 51.168 16.6574 51.168C15.0974 51.168 14.0534 50.508 13.5254 49.188L14.9534 48.384C15.2094 49.2 15.7774 49.608 16.6574 49.608C17.1134 49.608 17.4614 49.512 17.7014 49.32C17.9414 49.128 18.0614 48.868 18.0614 48.54C18.0614 48.212 17.9414 47.952 17.7014 47.76C17.4694 47.568 17.1334 47.472 16.6934 47.472H15.6494V45.996H16.4414C16.8574 45.996 17.1814 45.908 17.4134 45.732C17.6454 45.548 17.7614 45.3 17.7614 44.988C17.7614 44.676 17.6614 44.432 17.4614 44.256C17.2614 44.072 16.9654 43.98 16.5734 43.98C15.8534 43.98 15.3494 44.332 15.0614 45.036L13.6574 44.22C14.2254 43.028 15.1974 42.432 16.5734 42.432C17.4054 42.432 18.0854 42.656 18.6134 43.104C19.1414 43.552 19.4054 44.144 19.4054 44.88C19.4054 45.632 19.1054 46.224 18.5054 46.656Z" fill="white"/>
<path d="M76.9693 46.6439C77.7053 47.0679 78.0733 47.7079 78.0733 48.5639C78.0733 49.2759 77.8213 49.8599 77.3173 50.3159C76.8133 50.7719 76.1933 50.9999 75.4573 50.9999H71.8933V42.5999H75.2053C75.9253 42.5999 76.5293 42.8239 77.0173 43.2719C77.5133 43.7119 77.7613 44.2759 77.7613 44.9639C77.7613 45.6599 77.4973 46.2199 76.9693 46.6439ZM75.2053 44.1479H73.5493V45.9959H75.2053C75.4613 45.9959 75.6733 45.9079 75.8413 45.7319C76.0173 45.5559 76.1053 45.3359 76.1053 45.0719C76.1053 44.8079 76.0213 44.5879 75.8533 44.4119C75.6853 44.2359 75.4693 44.1479 75.2053 44.1479ZM75.4573 49.4519C75.7373 49.4519 75.9693 49.3599 76.1533 49.1759C76.3373 48.9839 76.4293 48.7439 76.4293 48.4559C76.4293 48.1759 76.3373 47.9439 76.1533 47.7599C75.9693 47.5679 75.7373 47.4719 75.4573 47.4719H73.5493V49.4519H75.4573Z" fill="white"/>
</svg>
