<svg width="18" height="20" viewBox="0 0 18 20" fill="none" xmlns="http://www.w3.org/2000/svg">
<path d="M10.7205 1.90256C9.76603 0.692977 7.89179 0.699179 6.91838 1.92116C6.54999 2.38363 5.93214 2.69166 5.34335 2.74562C4.12352 2.85742 3.1067 3.91578 3.00045 5.1231C2.93956 5.81501 2.54328 6.62075 1.9967 7.04935C0.187775 8.46782 0.888516 11.9254 3.7138 11.9254H5.43075C5.69122 11.9254 5.94142 12.027 6.1281 12.2087L7.71645 13.7541C7.90994 13.9424 8.01909 14.2009 8.01909 14.4708V16C8.01909 16.5523 7.57138 17 7.01909 17H6.42673C5 17 5 19 6.42673 19H11.5C13 19 13 17 11.5 17H11C10.4477 17 10 16.5523 10 16V14.4235C10 14.1818 10.0876 13.9482 10.2465 13.7661L11.5537 12.268C11.7436 12.0503 12.0183 11.9254 12.3072 11.9254H13.9757C16.801 11.9254 17.5018 8.46782 15.6928 7.04935C15.1462 6.62075 14.7503 5.81488 14.6884 5.12306C14.58 3.91221 13.5509 2.85119 12.3018 2.74466C11.7077 2.69399 11.0898 2.37065 10.7205 1.90256Z"/>
</svg>
