<svg width="28" height="26" viewBox="-2 -2 32 30" fill="none" xmlns="http://www.w3.org/2000/svg">
<path d="M14 26L13.6166 25.632C12.9652 25.0072 12.1749 24.2282 11.2997 23.3648C10.6543 22.728 9.96211 22.0454 9.24428 21.3446C5.26246 17.4571 3.98911 16.1194 2.61937 14.1129C1.15757 11.9719 0.101537 10.4249 0.011659 8.12581C-0.0963409 6.12318 0.549096 4.15342 1.81821 2.61255C2.89524 1.33367 4.36481 0.456716 5.99227 0.121726C7.57476 -0.166718 9.20693 0.0615447 10.6527 0.773497C11.96 1.38635 13.1066 2.30147 14 3.44502C14.8934 2.30146 16.04 1.38635 17.3473 0.773497C18.793 0.0611719 20.4252 -0.167107 22.0077 0.121726C23.6352 0.456716 25.1048 1.33367 26.1818 2.61255C27.4509 4.15342 28.0963 6.12318 27.9883 8.12581C27.8985 10.4249 26.8424 11.9719 25.3806 14.1129C24.0109 16.1194 22.7375 17.4571 18.7557 21.3445C18.0379 22.0454 17.3457 22.728 16.7003 23.3648C15.8251 24.2282 15.0348 25.0072 14.3834 25.632L14 26Z" />
</svg>
