<svg width="16" height="17" viewBox="0 0 16 17" fill="none" xmlns="http://www.w3.org/2000/svg">
<path d="M3.50429 14.4432C3.98211 14.4432 4.45991 14.4432 4.93773 14.4432C6.05368 14.4432 7.16962 14.4432 8.28557 14.4432C9.56345 14.4432 10.8413 14.4432 12.1192 14.4432C13.0827 14.4432 14.0463 14.4432 15.0099 14.4432C15.2425 14.4432 15.749 14.4432 15.9817 14.4432C15.9817 14.4432 15.9817 14.3187 15.9817 14.1694C15.9817 14.0202 15.9817 13.8956 15.9817 13.8956C15.5039 13.8956 14.7523 13.8956 14.2745 13.8956C13.1585 13.8956 12.0426 13.8956 10.9266 13.8956C9.64874 13.8956 8.37086 13.8956 7.093 13.8956C6.12944 13.8956 5.16588 13.8956 4.20232 13.8956C3.96965 13.8956 3.73696 13.8956 3.50427 13.8956C3.35501 13.8956 3.23047 14.0202 3.23047 14.1694C3.23047 14.3187 3.35503 14.4432 3.50429 14.4432Z" fill="white"/>
<path d="M0.565682 12.8311C0.916059 12.4971 1.37373 12.3088 1.8578 12.3022C1.86118 12.3021 1.86457 12.302 1.86797 12.3021C1.94047 12.3027 2.0123 12.3075 2.08423 12.3166C2.55448 12.3764 3.01085 12.6047 3.30738 12.982C3.60664 13.3628 3.78101 13.843 3.72715 14.3324C3.67491 14.8071 3.46604 15.265 3.09481 15.5764C2.72453 15.8869 2.24697 16.0703 1.75886 16.0332C1.28163 15.9969 0.817382 15.7953 0.494748 15.4346C0.17321 15.0751 -0.0190561 14.6012 0.00149844 14.1147C0.0217401 13.635 0.215473 13.165 0.565682 12.8311Z" fill="white"/>
<path d="M12.7601 8.2922C13.7061 8.2922 14.6522 8.2922 15.5982 8.2922C15.6342 8.2922 15.944 8.2922 15.98 8.2922C15.98 8.2922 15.98 8.16766 15.98 8.0184C15.98 7.86914 15.98 7.7372 15.98 7.7372C15.034 7.7372 13.8141 7.7446 12.8681 7.7446C12.8321 7.7446 12.7961 7.7446 12.7601 7.7446C12.6109 7.7446 12.4863 7.86914 12.4863 8.0184C12.4863 8.16766 12.6109 8.2922 12.7601 8.2922Z" fill="white"/>
<path d="M0.00235807 8.29222C0.603466 8.29222 1.47799 8.29222 2.0791 8.29222C3.31868 8.29222 4.55827 8.29222 5.79784 8.29222C6.83024 8.29222 7.86264 8.29222 8.89504 8.29222C9.06935 8.29222 9.24367 8.29222 9.41798 8.29222C9.56724 8.29222 9.69178 8.16768 9.69178 8.01842C9.69178 7.86916 9.56724 7.74462 9.41798 7.74462C8.81687 7.74462 8.21575 7.74462 7.61464 7.74462C6.37505 7.74462 5.13548 7.74462 3.89589 7.74462C2.86349 7.74462 1.83109 7.74462 0.798691 7.74462C0.624378 7.74462 0.177277 7.74462 0.00296419 7.74462C0.00195312 7.73721 0.00195312 7.86916 0.00195312 8.01842C0.00195312 8.16768 0.00195312 8.27081 0.00235807 8.29222Z" fill="white"/>
<path d="M9.79226 6.6801C10.1451 6.34372 10.6067 6.15513 11.0946 6.15102C11.167 6.15165 11.2389 6.15646 11.3108 6.16559C11.7811 6.22536 12.2374 6.45365 12.534 6.83097C12.8332 7.21178 13.0076 7.69201 12.9537 8.18137C12.9015 8.6561 12.6926 9.11397 12.3214 9.42534C11.9511 9.73588 11.4735 9.91927 10.9854 9.88215C10.5082 9.84583 10.0439 9.64422 9.72133 9.28353C9.39977 8.92405 9.20752 8.45014 9.22806 7.96364C9.24832 7.48398 9.44205 7.014 9.79226 6.6801Z" fill="white"/>
<path d="M6.89101 2.14121C7.50897 2.14121 8.12692 2.14121 8.74487 2.14121C9.99253 2.14121 11.2402 2.14121 12.4879 2.14121C13.4559 2.14121 14.424 2.14121 15.392 2.14121C15.4974 2.14121 15.8766 2.14121 15.982 2.14121C15.982 2.14121 15.982 2.01667 15.982 1.86741C15.982 1.71815 15.982 1.6026 15.982 1.6026C15.3641 1.6026 14.4723 1.59361 13.8544 1.59361C12.6067 1.59361 11.359 1.59361 10.1114 1.59361C9.14332 1.59361 8.17528 1.59361 7.20723 1.59361C7.10181 1.59361 6.9964 1.59361 6.89099 1.59361C6.74173 1.59361 6.61719 1.71815 6.61719 1.86741C6.61719 2.01667 6.74175 2.14121 6.89101 2.14121Z" fill="white"/>
<path d="M0.000617186 2.1344C0.974229 2.1344 2.22194 2.14121 3.19555 2.14121C3.31231 2.14121 3.42906 2.14121 3.54582 2.14121C3.69508 2.14121 3.81962 2.01667 3.81962 1.86741C3.81962 1.71815 3.69508 1.59361 3.54582 1.59361C2.57221 1.59361 1.59861 1.59361 0.625002 1.59361C0.508246 1.59361 0.116756 1.59361 0 1.59361C0 1.60079 0.000934601 1.71815 0.000934601 1.86741C0.000934601 2.01667 0.000617186 2.1344 0.000617186 2.1344Z" fill="white"/>
<path d="M3.92115 0.529079C4.27398 0.192696 4.73561 0.004107 5.22344 0C5.29594 0.000625828 5.36777 0.00541731 5.4397 0.0145505C5.90995 0.074317 6.36632 0.302607 6.66284 0.679923C6.96211 1.06076 7.13648 1.54098 7.08262 2.03034C7.03038 2.50507 6.82151 2.96294 6.45028 3.27431C6.08 3.58488 5.60244 3.76827 5.11433 3.73113C4.6371 3.69481 4.17285 3.4932 3.85022 3.1325C3.52868 2.77302 3.33641 2.29912 3.35697 1.81261C3.37721 1.33296 3.57094 0.862977 3.92115 0.529079Z" fill="white"/>
</svg>
