<svg width="21" height="19" viewBox="0 0 21 19" fill="none" xmlns="http://www.w3.org/2000/svg">
<path d="M10.0746 17.8001L1.92536 13.9696C1.15922 13.6095 1.15922 12.5197 1.92536 12.1596L10.0746 8.32904C10.3441 8.20239 10.6559 8.20239 10.9254 8.32904L19.0746 12.1596C19.8408 12.5197 19.8408 13.6095 19.0746 13.9696L10.9254 17.8001C10.6559 17.9268 10.3441 17.9268 10.0746 17.8001Z" />
<path d="M10.0746 14.5097L1.92536 10.6792C1.15922 10.3191 1.15922 9.22931 1.92536 8.86919L10.0746 5.03867C10.3441 4.91201 10.6559 4.91201 10.9254 5.03867L19.0746 8.86919C19.8408 9.22931 19.8408 10.3191 19.0746 10.6792L10.9254 14.5097C10.6559 14.6364 10.3441 14.6364 10.0746 14.5097Z" />
<path d="M10.0746 10.671L1.92536 6.84049C1.15922 6.48037 1.15922 5.3906 1.92536 5.03048L10.0746 1.19996C10.3441 1.0733 10.6559 1.0733 10.9254 1.19996L19.0746 5.03048C19.8408 5.3906 19.8408 6.48037 19.0746 6.84049L10.9254 10.671C10.6559 10.7977 10.3441 10.7977 10.0746 10.671Z" />
</svg>
