<svg width="10" height="10" viewBox="0 0 10 10" fill="none" xmlns="http://www.w3.org/2000/svg">
<path d="M9.86105 8.31535L8.45116 9.71393C8.24304 9.92737 7.96718 9.99967 7.69853 10C6.51043 9.96441 5.38742 9.3808 4.46535 8.78154C2.95183 7.68046 1.56312 6.31517 0.691535 4.66527C0.357252 3.97341 -0.0349818 3.09065 0.00249317 2.31841C0.00583483 2.02791 0.0841182 1.7428 0.28871 1.55555L1.69859 0.146374C1.99136 -0.102651 2.27448 -0.0165512 2.46183 0.273515L3.59609 2.42437C3.71548 2.67917 3.64699 2.95219 3.46888 3.13427L2.94944 3.65343C2.91738 3.69736 2.89696 3.74736 2.89644 3.80177C3.09563 4.57279 3.69905 5.28343 4.23212 5.77249C4.76518 6.26156 5.33816 6.92414 6.08193 7.081C6.17386 7.10664 6.28647 7.11565 6.35224 7.05451L6.95649 6.43998C7.16479 6.28211 7.46554 6.20494 7.68792 6.33403H7.69852L9.74443 7.54189C10.0448 7.73016 10.0761 8.09399 9.86105 8.31535Z" fill="white"/>
</svg>
